<?xml version="1.0" encoding="utf-8"?>
<!-- Generator: Adobe Illustrator 15.0.0, SVG Export Plug-In . SVG Version: 6.00 Build 0)  -->
<!DOCTYPE svg PUBLIC "-//W3C//DTD SVG 1.1//EN" "http://www.w3.org/Graphics/SVG/1.1/DTD/svg11.dtd" [
	<!ENTITY ns_flows "http://ns.adobe.com/Flows/1.0/">
	<!ENTITY ns_extend "http://ns.adobe.com/Extensibility/1.0/">
	<!ENTITY ns_ai "http://ns.adobe.com/AdobeIllustrator/10.0/">
	<!ENTITY ns_graphs "http://ns.adobe.com/Graphs/1.0/">
]>
<svg version="1.1" id="Layer_1" xmlns:x="&ns_extend;" xmlns:i="&ns_ai;" xmlns:graph="&ns_graphs;"
	 xmlns="http://www.w3.org/2000/svg" xmlns:xlink="http://www.w3.org/1999/xlink" xmlns:a="http://ns.adobe.com/AdobeSVGViewerExtensions/3.0/"
	 x="0px" y="0px" width="64px" height="64px" viewBox="0 0 64 64" enable-background="new 0 0 64 64" xml:space="preserve">
<linearGradient id="SVGID_1_" gradientUnits="userSpaceOnUse" x1="32.0005" y1="62" x2="32.0005" y2="2.0005">
	<stop  offset="0" style="stop-color:#FF7B00"/>
	<stop  offset="0.3236" style="stop-color:#FFAE00"/>
	<stop  offset="0.6205" style="stop-color:#FFD600"/>
	<stop  offset="0.8558" style="stop-color:#FFEE00"/>
	<stop  offset="1" style="stop-color:#FFF700"/>
	<a:midPointStop  offset="0" style="stop-color:#FF7B00"/>
	<a:midPointStop  offset="0.4" style="stop-color:#FF7B00"/>
	<a:midPointStop  offset="1" style="stop-color:#FFF700"/>
</linearGradient>
<circle fill="url(#SVGID_1_)" cx="32" cy="32" r="30"/>
<path fill="#1A1626" d="M47.244,36.328C43.604,35.646,38.473,35,32.001,35c-6.469,0-11.605,0.646-15.246,1.328
	c-1.837,0.344-2.839,1.865-2.75,3.406C14.452,47.488,20.402,54,32.001,54c11.601,0,17.547-6.512,17.994-14.266
	C50.084,38.193,49.082,36.672,47.244,36.328z"/>
<path fill="#FD7383" d="M23.474,50c0,0,3.789,2,8.525,2c4.738,0,8.527-2,8.527-2S37.685,47,32,48C26.316,47,23.474,50,23.474,50z"/>
<linearGradient id="SVGID_2_" gradientUnits="userSpaceOnUse" x1="16.0117" y1="39.498" x2="47.9893" y2="39.498">
	<stop  offset="0" style="stop-color:#CFD7E6"/>
	<stop  offset="0.0368" style="stop-color:#DAE0EC"/>
	<stop  offset="0.1263" style="stop-color:#EEF1F6"/>
	<stop  offset="0.2147" style="stop-color:#FBFCFD"/>
	<stop  offset="0.3" style="stop-color:#FFFFFF"/>
	<stop  offset="0.7" style="stop-color:#FFFFFF"/>
	<stop  offset="0.7853" style="stop-color:#FBFCFD"/>
	<stop  offset="0.8737" style="stop-color:#EEF1F6"/>
	<stop  offset="0.9632" style="stop-color:#DAE0EC"/>
	<stop  offset="1" style="stop-color:#CFD7E6"/>
	<a:midPointStop  offset="0" style="stop-color:#CFD7E6"/>
	<a:midPointStop  offset="0.3" style="stop-color:#CFD7E6"/>
	<a:midPointStop  offset="0.3" style="stop-color:#FFFFFF"/>
	<a:midPointStop  offset="0.5" style="stop-color:#FFFFFF"/>
	<a:midPointStop  offset="0.7" style="stop-color:#FFFFFF"/>
	<a:midPointStop  offset="0.7" style="stop-color:#FFFFFF"/>
	<a:midPointStop  offset="1" style="stop-color:#CFD7E6"/>
</linearGradient>
<path fill="url(#SVGID_2_)" d="M46.506,38.242C43.996,37.793,38.689,37,32,37c-6.689,0-11.995,0.793-14.505,1.242
	c-1.568,0.283-1.6,0.967-1.392,2.277c0.183,1.146,0.306,1.451,1.521,1.469c1.115,0.016,14.375,0,14.375,0s13.262,0.016,14.377,0
	c1.215-0.018,1.338-0.322,1.521-1.469C48.105,39.209,48.074,38.525,46.506,38.242z"/>
<linearGradient id="SVGID_3_" gradientUnits="userSpaceOnUse" x1="45.5459" y1="13.8447" x2="40.8118" y2="39.1013" gradientTransform="matrix(0.9659 0.2588 -0.2588 0.9659 12.0619 -18.3787)">
	<stop  offset="0" style="stop-color:#FF666B"/>
	<stop  offset="0.1751" style="stop-color:#FB5B5F"/>
	<stop  offset="0.4917" style="stop-color:#F03D3F"/>
	<stop  offset="0.9112" style="stop-color:#DF0C0C"/>
	<stop  offset="1" style="stop-color:#DB0100"/>
	<a:midPointStop  offset="0" style="stop-color:#FF666B"/>
	<a:midPointStop  offset="0.5758" style="stop-color:#FF666B"/>
	<a:midPointStop  offset="1" style="stop-color:#DB0100"/>
</linearGradient>
<path fill="url(#SVGID_3_)" d="M49.022,12.286c-2.058-6.899-12.76-7.289-14.756,0.151c-1.197,4.473,1.707,8.637,7.442,16.513
	c1.945,2.671,2.298,2.765,5.319,1.426c8.899-3.956,13.5-6.106,14.7-10.582C63.723,12.355,54.256,7.341,49.022,12.286z"/>
<linearGradient id="SVGID_4_" gradientUnits="userSpaceOnUse" x1="31.8091" y1="-12.4917" x2="27.0746" y2="12.7669" gradientTransform="matrix(0.9659 -0.2588 0.2588 0.9659 -12.283 26.0912)">
	<stop  offset="0" style="stop-color:#FF666B"/>
	<stop  offset="0.1751" style="stop-color:#FB5B5F"/>
	<stop  offset="0.4917" style="stop-color:#F03D3F"/>
	<stop  offset="0.9112" style="stop-color:#DF0C0C"/>
	<stop  offset="1" style="stop-color:#DB0100"/>
	<a:midPointStop  offset="0" style="stop-color:#FF666B"/>
	<a:midPointStop  offset="0.5758" style="stop-color:#FF666B"/>
	<a:midPointStop  offset="1" style="stop-color:#DB0100"/>
</linearGradient>
<path fill="url(#SVGID_4_)" d="M14.977,12.288c-5.231-4.947-14.697,0.066-12.706,7.51c1.199,4.472,5.798,6.624,14.702,10.579
	c3.021,1.339,3.375,1.246,5.32-1.425c5.73-7.876,8.64-12.039,7.44-16.516C27.742,4.996,17.035,5.387,14.977,12.288z"/>
</svg>
