<svg width="200" height="200" viewBox="0 0 200 200" fill="none" xmlns="http://www.w3.org/2000/svg">
<g clip-path="url(#clip0_945_40)">
<path d="M190 20.0011C188.076 20.0028 186.196 20.5772 184.6 21.6511C181.992 22.2553 179.334 22.6201 176.66 22.7412C165.01 23.3212 145.39 21.6011 118.08 10.1606C104.299 4.32629 89.6049 0.942019 74.66 0.160054C71.87 0.0200471 69.06 -0.0099512 66.28 0.0500518H65.87C44.8818 0.598245 24.3973 6.59844 6.43 17.4609C5.51364 18.0194 4.69315 18.7218 4 19.541C2.75804 20.4725 1.75001 21.6804 1.05573 23.0691C0.361452 24.4577 0 25.9889 0 27.5414V190.05C0 192.702 1.05357 195.246 2.92893 197.121C4.8043 198.996 7.34784 200.05 10 200.05C12.6522 200.05 15.1957 198.996 17.0711 197.121C18.9464 195.246 20 192.702 20 190.05V144.647C34.1052 136.769 49.901 132.406 66.05 131.927H66.35C68.78 131.867 71.25 131.927 73.68 132.017C86.3045 132.697 98.7138 135.573 110.35 140.517C132.94 149.978 153.79 154.748 172.44 154.748C174.2 154.748 175.93 154.748 177.64 154.628C182.634 154.358 187.585 153.56 192.41 152.248C194.622 151.641 196.569 150.315 197.944 148.479C199.318 146.642 200.042 144.401 200 142.107V30.3916C200.051 27.6878 199.026 25.0745 197.151 23.126C195.276 21.1776 192.704 20.0536 190 20.0011ZM176.66 134.607C165.01 135.187 145.39 133.467 118.08 122.026C104.299 116.192 89.6049 112.808 74.66 112.026C71.86 111.886 69.04 111.846 66.25 111.906H65.87C50.0417 112.288 34.4482 115.821 20 122.296V32.7417C34.1052 24.8633 49.901 20.4999 66.05 20.021H66.19C66.2432 20.026 66.2968 20.026 66.35 20.021C68.78 19.961 71.25 20.0211 73.68 20.1111C86.3045 20.7911 98.7138 23.6677 110.35 28.6115C132.94 38.072 153.79 42.8122 172.45 42.8122C174.203 42.8122 175.933 42.7722 177.64 42.6922C178.46 42.6922 179.24 42.5922 180 42.5322V134.297C179 134.447 177.88 134.547 176.66 134.607Z" fill="#FAFAFA"/>
</g>
<defs>
<clipPath id="clip0_945_40">
<rect width="200" height="200" fill="white"/>
</clipPath>
</defs>
</svg>
