<svg width="200" height="200" viewBox="0 0 200 200" fill="none" xmlns="http://www.w3.org/2000/svg">
<g clip-path="url(#clip0_946_61)">
<path d="M65.0636 200C64.4907 200.002 63.9183 199.968 63.3496 199.899C61.2064 199.655 59.1478 198.922 57.3318 197.758C55.5157 196.594 53.9907 195.03 52.8737 193.184L35.4004 164.61L6.81598 147.137C4.97668 146.011 3.41654 144.484 2.253 142.668C1.08946 140.853 0.352822 138.798 0.098525 136.656C-0.155772 134.515 0.0788992 132.344 0.784874 130.307C1.49085 128.27 2.64974 126.419 4.17432 124.894L15.4972 113.581C17.9691 111.103 21.2684 109.624 24.7632 109.427L45.0798 108.278L65.2451 88.1126L21.8896 62.553C20.0157 61.4478 18.4195 59.9286 17.2229 58.1117C16.0263 56.2948 15.261 54.2283 14.9857 52.0702C14.7103 49.9122 14.9321 47.7197 15.6342 45.6606C16.3362 43.6014 17.4999 41.7301 19.0362 40.1897L42.0146 17.1709C43.9045 15.2969 46.2791 13.9863 48.872 13.3862C51.465 12.786 54.1739 12.92 56.695 13.773L118.391 34.9467L144.122 9.22576C144.324 9.01402 144.535 8.82245 144.757 8.63088C151.016 2.83781 159.275 -0.305563 167.802 -0.139491C176.329 0.0265803 184.46 3.48919 190.488 9.52157C196.517 15.554 199.974 23.6871 200.134 32.2139C200.295 40.7407 197.146 48.9982 191.349 55.2532C191.168 55.4649 190.976 55.6767 190.774 55.8783L165.054 81.6093L186.227 143.305C187.084 145.829 187.22 148.542 186.62 151.139C186.02 153.736 184.707 156.114 182.829 158.006L159.811 181.014C158.273 182.553 156.403 183.719 154.345 184.423C152.287 185.127 150.094 185.35 147.936 185.076C145.779 184.801 143.712 184.036 141.896 182.839C140.079 181.643 138.561 180.046 137.457 178.171L111.898 134.765L91.7323 154.931L90.5829 175.247C90.3823 178.741 88.9038 182.039 86.4288 184.513L75.106 195.806C73.7929 197.135 72.2291 198.19 70.5053 198.91C68.7814 199.63 66.9318 200 65.0636 200ZM23.7246 133.848L47.9735 148.679C49.3343 149.512 50.4781 150.656 51.3108 152.017L66.1425 176.215L70.5486 171.809L71.819 149.95C71.9572 147.476 73.0017 145.139 74.7531 143.386L106.856 111.293C107.945 110.204 109.268 109.379 110.725 108.881C112.182 108.383 113.734 108.226 115.261 108.42C116.788 108.615 118.25 109.157 119.536 110.004C120.821 110.852 121.895 111.982 122.676 113.309L150.968 161.353L165.971 146.401L143.95 82.2344C143.329 80.4429 143.226 78.5125 143.652 76.6648C144.078 74.8171 145.017 73.1271 146.36 71.7888L176.165 41.9844L176.366 41.7626C178.773 39.3559 180.125 36.0917 180.125 32.6882C180.125 29.2846 178.773 26.0204 176.366 23.6137C173.96 21.2071 170.695 19.855 167.292 19.855C163.888 19.855 160.624 21.2071 158.217 23.6137L158.006 23.8154L128.222 53.64C126.887 54.9757 125.204 55.9098 123.364 56.3358C121.525 56.7618 119.602 56.6627 117.816 56.0497L53.6702 34.0392L38.6571 49.0423L86.701 77.3342C88.028 78.115 89.1585 79.1892 90.0059 80.4745C90.8534 81.7599 91.3952 83.2222 91.5899 84.7495C91.7845 86.2767 91.6269 87.8282 91.129 89.285C90.6311 90.7419 89.8062 92.0653 88.7176 93.154L56.6143 125.227C54.8654 126.98 52.5326 128.028 50.0606 128.171L28.161 129.431L23.7246 133.848Z" fill="#FAFAFA"/>
</g>
<defs>
<clipPath id="clip0_946_61">
<rect width="200" height="200" fill="white"/>
</clipPath>
</defs>
</svg>
