<svg width="200" height="200" viewBox="0 0 200 200" fill="none" xmlns="http://www.w3.org/2000/svg">
<path d="M171.3 5H28.7C21.0916 5.00529 13.7963 8.02936 8.41542 13.4083C3.03456 18.7873 0.00794561 26.0816 0 33.69V136.3C0.0079415 143.909 3.03423 151.205 8.41481 156.585C13.7954 161.966 21.0907 164.992 28.7 165H90V175H50C47.3478 175 44.8043 176.054 42.9289 177.929C41.0536 179.804 40 182.348 40 185C40 187.652 41.0536 190.196 42.9289 192.071C44.8043 193.946 47.3478 195 50 195H150C152.652 195 155.196 193.946 157.071 192.071C158.946 190.196 160 187.652 160 185C160 182.348 158.946 179.804 157.071 177.929C155.196 176.054 152.652 175 150 175H110V165H171.3C178.909 164.992 186.205 161.966 191.585 156.585C196.966 151.205 199.992 143.909 200 136.3V33.69C199.992 26.0816 196.965 18.7873 191.585 13.4083C186.204 8.02936 178.908 5.00529 171.3 5ZM28.7 25H171.3C172.442 24.9987 173.573 25.2225 174.629 25.6586C175.684 26.0947 176.643 26.7346 177.451 27.5417C178.259 28.3488 178.9 29.3072 179.338 30.3622C179.775 31.4171 180 32.548 180 33.69V105H20V33.69C20 32.548 20.2251 31.4171 20.6624 30.3622C21.0998 29.3072 21.7408 28.3488 22.5488 27.5417C23.3568 26.7346 24.3159 26.0947 25.3714 25.6586C26.4269 25.2225 27.558 24.9987 28.7 25ZM171.3 145H28.7C26.3926 145 24.1797 144.083 22.5482 142.452C20.9166 140.82 20 138.607 20 136.3V125H180V136.3C180 138.607 179.083 140.82 177.452 142.452C175.82 144.083 173.607 145 171.3 145Z" fill="#FAFAFA"/>
<path d="M40.0001 64.9999C42.652 64.9993 45.1951 63.9454 47.0701 62.0699L60.3301 48.8099C62.1517 46.9239 63.1596 44.3979 63.1368 41.7759C63.114 39.1539 62.0623 36.6458 60.2083 34.7917C58.3542 32.9376 55.8461 31.886 53.2241 31.8632C50.6021 31.8404 48.0761 32.8483 46.1901 34.6699L32.9301 47.9199C31.5285 49.3179 30.5735 51.1004 30.1858 53.0416C29.7982 54.9829 29.9954 56.9955 30.7525 58.8245C31.5096 60.6536 32.7925 62.2168 34.4388 63.3161C36.085 64.4155 38.0205 65.0015 40.0001 64.9999Z" fill="#FAFAFA"/>
<path d="M52.9301 61.6699L39.6701 74.9299C38.715 75.8524 37.9531 76.9558 37.4291 78.1759C36.905 79.3959 36.6291 80.7081 36.6176 82.0359C36.606 83.3637 36.859 84.6805 37.3619 85.9095C37.8647 87.1384 38.6072 88.255 39.5461 89.1939C40.4851 90.1328 41.6016 90.8754 42.8305 91.3782C44.0595 91.881 45.3763 92.134 46.7041 92.1224C48.0319 92.1109 49.3441 91.835 50.5641 91.3109C51.7842 90.7869 52.8876 90.025 53.8101 89.0699L67.0701 75.8099C68.9465 73.9349 70.0012 71.3912 70.0021 68.7385C70.003 66.0858 68.9501 63.5413 67.0751 61.6649C65.2 59.7885 62.6563 58.7338 60.0036 58.7329C57.3509 58.732 54.8065 59.7849 52.9301 61.6599V61.6699Z" fill="#FAFAFA"/>
</svg>
