<svg width="200" height="200" viewBox="0 0 200 200" fill="none" xmlns="http://www.w3.org/2000/svg">
<g clip-path="url(#clip0_852_18)">
<path d="M100 20C115.823 20 131.29 24.6919 144.446 33.4824C157.602 42.2729 167.855 54.7672 173.91 69.3853C179.965 84.0034 181.55 100.089 178.463 115.607C175.376 131.126 167.757 145.38 156.569 156.569C145.38 167.757 131.126 175.376 115.607 178.463C100.089 181.55 84.0035 179.965 69.3854 173.91C54.7673 167.855 42.273 157.602 33.4825 144.446C24.692 131.29 20 115.823 20 100C20.0239 78.79 28.4601 58.4555 43.4578 43.4578C58.4556 28.46 78.79 20.0238 100 20V20ZM100 0C80.2219 0 60.8879 5.8649 44.443 16.853C27.9981 27.8412 15.1809 43.459 7.61209 61.7317C0.0433283 80.0043 -1.93701 100.111 1.92152 119.509C5.78004 138.907 15.3041 156.725 29.2894 170.711C43.2746 184.696 61.0929 194.22 80.491 198.079C99.8891 201.937 119.996 199.957 138.268 192.388C156.541 184.819 172.159 172.002 183.147 155.557C194.135 139.112 200 119.778 200 100C200 73.4784 189.464 48.043 170.711 29.2893C151.957 10.5357 126.522 0 100 0V0Z" fill="#FAFAFA"/>
<path d="M143.15 108.28L110 93.5V57.21C110 54.5578 108.946 52.0143 107.071 50.1389C105.196 48.2635 102.652 47.21 100 47.21C97.3478 47.21 94.8043 48.2635 92.9289 50.1389C91.0536 52.0143 90 54.5578 90 57.21V100C90 100.08 90 100.16 90 100.24C90 100.32 90 100.69 90 100.91C90 101.13 90 101.2 90 101.34C90 101.48 90.05 101.69 90.08 101.86C90.11 102.03 90.16 102.2 90.2 102.38C90.24 102.56 90.26 102.65 90.3 102.78L90.48 103.34C90.48 103.46 90.57 103.58 90.61 103.69L90.85 104.22C90.9 104.34 90.96 104.46 91.02 104.58C91.08 104.7 91.19 104.89 91.28 105.04C91.37 105.19 91.43 105.31 91.52 105.44C91.61 105.57 91.69 105.69 91.78 105.82L92.09 106.24L92.36 106.55L92.74 106.97L93.02 107.24L93.44 107.63L93.78 107.89C93.92 108 94.05 108.1 94.2 108.2C94.3438 108.306 94.4941 108.403 94.65 108.49L95.01 108.71L95.62 109.02L95.83 109.13L95.98 109.2L135 126.55C136.2 127.085 137.493 127.379 138.806 127.414C140.119 127.449 141.426 127.226 142.653 126.756C143.88 126.286 145.002 125.579 145.955 124.676C146.909 123.772 147.675 122.69 148.21 121.49C148.745 120.29 149.039 118.997 149.074 117.684C149.109 116.371 148.886 115.064 148.416 113.837C147.946 112.61 147.239 111.488 146.336 110.535C145.432 109.581 144.35 108.815 143.15 108.28Z" fill="#FAFAFA"/>
</g>
<defs>
<clipPath id="clip0_852_18">
<rect width="200" height="200" fill="white"/>
</clipPath>
</defs>
</svg>
