<?xml version="1.0" encoding="utf-8"?>
<!-- Generator: Adobe Illustrator 15.0.0, SVG Export Plug-In . SVG Version: 6.00 Build 0)  -->
<!DOCTYPE svg PUBLIC "-//W3C//DTD SVG 1.1//EN" "http://www.w3.org/Graphics/SVG/1.1/DTD/svg11.dtd" [
	<!ENTITY ns_flows "http://ns.adobe.com/Flows/1.0/">
	<!ENTITY ns_extend "http://ns.adobe.com/Extensibility/1.0/">
	<!ENTITY ns_ai "http://ns.adobe.com/AdobeIllustrator/10.0/">
	<!ENTITY ns_graphs "http://ns.adobe.com/Graphs/1.0/">
]>
<svg version="1.1" id="Layer_1" xmlns:x="&ns_extend;" xmlns:i="&ns_ai;" xmlns:graph="&ns_graphs;"
	 xmlns="http://www.w3.org/2000/svg" xmlns:xlink="http://www.w3.org/1999/xlink" xmlns:a="http://ns.adobe.com/AdobeSVGViewerExtensions/3.0/"
	 x="0px" y="0px" width="64px" height="64px" viewBox="0 0 64 64" enable-background="new 0 0 64 64" xml:space="preserve">
<linearGradient id="SVGID_1_" gradientUnits="userSpaceOnUse" x1="32.0005" y1="59.8223" x2="32.0005" y2="2.0005">
	<stop  offset="0.4485" style="stop-color:#FFB800"/>
	<stop  offset="0.85" style="stop-color:#0066FF"/>
	<a:midPointStop  offset="0.4485" style="stop-color:#FFB800"/>
	<a:midPointStop  offset="0.5" style="stop-color:#FFB800"/>
	<a:midPointStop  offset="0.85" style="stop-color:#0066FF"/>
</linearGradient>
<path fill="url(#SVGID_1_)" d="M32,2C16.535,2,4,14.76,4,30.5c0,3.75,1.932,4.833,1.932,4.833s15.82,14.905,19.324,21.397
	c2.223,4.121,11.268,4.124,13.488,0c3.502-6.494,19.326-21.397,19.326-21.397S60,34.25,60,30.5C60,14.76,47.467,2,32,2z"/>
<path fill="#FFFFFF" d="M50.035,20.227c2.607,4.511,1.791,9.858-1.818,11.941c-3.611,2.084-8.648,0.116-11.25-4.396
	c-2.605-4.509-1.791-9.857,1.818-11.942C42.395,13.747,47.434,15.717,50.035,20.227z"/>
<ellipse transform="matrix(0.866 0.5 -0.5 0.866 14.7473 -7.0349)" fill="#FFFFFF" cx="20.5" cy="24" rx="7.547" ry="9.431"/>
<linearGradient id="SVGID_2_" gradientUnits="userSpaceOnUse" x1="32.0005" y1="55.8828" x2="32.0005" y2="33.8828">
	<stop  offset="0.1273" style="stop-color:#AB5C10"/>
	<stop  offset="0.2379" style="stop-color:#8C4D15"/>
	<stop  offset="0.4034" style="stop-color:#63391B"/>
	<stop  offset="0.566" style="stop-color:#432A20"/>
	<stop  offset="0.7224" style="stop-color:#2C1F23"/>
	<stop  offset="0.8701" style="stop-color:#1F1825"/>
	<stop  offset="1" style="stop-color:#1A1626"/>
	<a:midPointStop  offset="0.1273" style="stop-color:#AB5C10"/>
	<a:midPointStop  offset="0.3194" style="stop-color:#AB5C10"/>
	<a:midPointStop  offset="1" style="stop-color:#1A1626"/>
</linearGradient>
<path fill="url(#SVGID_2_)" d="M32,33.883c-3.418-0.067-8.598,17.067-4.479,20.915c1.547,1.446,7.41,1.446,8.957,0
	C40.598,50.95,35.418,33.815,32,33.883z"/>
<path fill="#FFFFFF" d="M5,34.096c0-3.656,4.557-3.622,5.076,0c1.631,11.393,6.107,9.557,10.469,13.349
	c2.783,2.421,3.594,5.777,3.594,10.484c0,4.118-10.465,4.118-10.465,0c0-2.353,0-3.364,0-3.364C11.377,53.38,5,50.672,5,34.096z"/>
<path fill="#99A8AE" d="M18.906,62c-3.659,0-6.215-1.674-6.215-4.071v-2.763c-2.833-1.462-8.674-5.021-8.674-21.07
	c0-2.437,1.669-3.712,3.317-3.712c1.542,0,3.362,1.118,3.714,3.572c1.103,7.703,3.406,8.867,6.321,10.34
	c1.176,0.594,2.509,1.268,3.819,2.407c3.464,3.014,3.932,7.365,3.932,11.226C25.121,60.326,22.565,62,18.906,62z M7.335,32.349
	c-0.654,0-1.353,0.459-1.353,1.747c0,15.457,5.543,18.274,7.91,19.478l0.764,0.393v3.963c0,1.368,2.19,2.106,4.25,2.106
	s4.25-0.738,4.25-2.106c0-4.908-0.943-7.731-3.256-9.743c-1.125-0.979-2.29-1.567-3.416-2.136c-3.154-1.594-6.132-3.099-7.38-11.814
	C8.917,32.932,8.081,32.349,7.335,32.349z"/>
<path fill="#FFFFFF" d="M59,34.096c0-3.656-4.557-3.621-5.076,0c-1.631,11.393-6.107,9.557-10.469,13.35
	c-2.783,2.42-3.594,5.777-3.594,10.484c0,4.117,10.465,4.117,10.465,0c0-2.354,0-3.365,0-3.365C52.623,53.381,59,50.672,59,34.096z"
	/>
<path fill="#99A8AE" d="M45.094,62c-3.658,0-6.215-1.674-6.215-4.07c0-3.86,0.469-8.214,3.932-11.226
	c1.313-1.141,2.645-1.813,3.82-2.408c2.916-1.474,5.219-2.637,6.32-10.34c0.354-2.454,2.174-3.572,3.715-3.572
	c1.648,0,3.316,1.275,3.316,3.712c0,16.049-5.84,19.609-8.674,21.07v2.764C51.309,60.326,48.754,62,45.094,62z M56.666,32.35
	c-0.746,0-1.582,0.583-1.77,1.886c-1.248,8.716-4.227,10.221-7.379,11.814c-1.127,0.569-2.291,1.157-3.418,2.137
	c-2.313,2.011-3.256,4.834-3.256,9.743c0,1.367,2.191,2.105,4.25,2.105c2.061,0,4.25-0.738,4.25-2.105v-3.964l0.764-0.392
	c2.367-1.203,7.91-4.019,7.91-19.479C58.018,32.808,57.32,32.35,56.666,32.35z"/>
</svg>
