<?xml version="1.0" encoding="utf-8"?>
<!-- Generator: Adobe Illustrator 15.0.0, SVG Export Plug-In . SVG Version: 6.00 Build 0)  -->
<!DOCTYPE svg PUBLIC "-//W3C//DTD SVG 1.1//EN" "http://www.w3.org/Graphics/SVG/1.1/DTD/svg11.dtd" [
	<!ENTITY ns_flows "http://ns.adobe.com/Flows/1.0/">
	<!ENTITY ns_extend "http://ns.adobe.com/Extensibility/1.0/">
	<!ENTITY ns_ai "http://ns.adobe.com/AdobeIllustrator/10.0/">
	<!ENTITY ns_graphs "http://ns.adobe.com/Graphs/1.0/">
]>
<svg version="1.1" id="Layer_1" xmlns:x="&ns_extend;" xmlns:i="&ns_ai;" xmlns:graph="&ns_graphs;"
	 xmlns="http://www.w3.org/2000/svg" xmlns:xlink="http://www.w3.org/1999/xlink" xmlns:a="http://ns.adobe.com/AdobeSVGViewerExtensions/3.0/"
	 x="0px" y="0px" width="64px" height="64px" viewBox="0 0 64 64" enable-background="new 0 0 64 64" xml:space="preserve">
<linearGradient id="SVGID_1_" gradientUnits="userSpaceOnUse" x1="32.0005" y1="62" x2="32.0005" y2="2.0005">
	<stop  offset="0" style="stop-color:#FF7B00"/>
	<stop  offset="0.3236" style="stop-color:#FFAE00"/>
	<stop  offset="0.6205" style="stop-color:#FFD600"/>
	<stop  offset="0.8558" style="stop-color:#FFEE00"/>
	<stop  offset="1" style="stop-color:#FFF700"/>
	<a:midPointStop  offset="0" style="stop-color:#FF7B00"/>
	<a:midPointStop  offset="0.4" style="stop-color:#FF7B00"/>
	<a:midPointStop  offset="1" style="stop-color:#FFF700"/>
</linearGradient>
<circle fill="url(#SVGID_1_)" cx="32" cy="32" r="30"/>
<linearGradient id="SVGID_2_" gradientUnits="userSpaceOnUse" x1="32.0005" y1="62" x2="32.0005" y2="2.0005">
	<stop  offset="0.2485" style="stop-color:#FFE81A;stop-opacity:0"/>
	<stop  offset="0.2907" style="stop-color:#FFD518;stop-opacity:0.0689"/>
	<stop  offset="0.5016" style="stop-color:#FF7B0E;stop-opacity:0.4135"/>
	<stop  offset="0.6732" style="stop-color:#FF3906;stop-opacity:0.6939"/>
	<stop  offset="0.797" style="stop-color:#FF1002;stop-opacity:0.8961"/>
	<stop  offset="0.8606" style="stop-color:#FF0000"/>
	<a:midPointStop  offset="0.2485" style="stop-color:#FFE81A;stop-opacity:0"/>
	<a:midPointStop  offset="0.4412" style="stop-color:#FFE81A;stop-opacity:0"/>
	<a:midPointStop  offset="0.8606" style="stop-color:#FF0000"/>
</linearGradient>
<circle opacity="0.6" fill="url(#SVGID_2_)" cx="32" cy="32" r="30"/>
<linearGradient id="SVGID_3_" gradientUnits="userSpaceOnUse" x1="22.0103" y1="46.9219" x2="36.0103" y2="48.3594">
	<stop  offset="0" style="stop-color:#854E00"/>
	<stop  offset="0.8182" style="stop-color:#854E00;stop-opacity:0"/>
	<a:midPointStop  offset="0" style="stop-color:#854E00"/>
	<a:midPointStop  offset="0.4222" style="stop-color:#854E00"/>
	<a:midPointStop  offset="0.8182" style="stop-color:#854E00;stop-opacity:0"/>
</linearGradient>
<path fill="url(#SVGID_3_)" d="M32.807,33.818c-2.627,7.557-7.336,15.057-20.502,20.813C17.574,59.221,24.461,62,32,62
	C40.91,53.838,35.91,36.588,32.807,33.818z"/>
<path fill="#1A1626" d="M24.893,47.535c3.663-2.574,10.259-2.744,14.215,0c0.916,0.633,2.434,0.193,2.094-0.547
	c-3.458-7.537-14.952-7.521-18.402,0C22.459,47.729,23.981,48.174,24.893,47.535z"/>
<linearGradient id="SVGID_4_" gradientUnits="userSpaceOnUse" x1="18.2847" y1="61.6982" x2="18.2847" y2="32.5537">
	<stop  offset="0" style="stop-color:#DFE4E8"/>
	<stop  offset="0.359" style="stop-color:#E6EAED"/>
	<stop  offset="0.8846" style="stop-color:#FAFBFB"/>
	<stop  offset="1" style="stop-color:#FFFFFF"/>
	<a:midPointStop  offset="0" style="stop-color:#DFE4E8"/>
	<a:midPointStop  offset="0.6242" style="stop-color:#DFE4E8"/>
	<a:midPointStop  offset="1" style="stop-color:#FFFFFF"/>
</linearGradient>
<path fill="url(#SVGID_4_)" d="M29.908,32.818c-11.155,7.996-18.592,5.342-24.224,7.801c-1.529,0.668,2.04,3.334,1.429,6.48
	c0,0-2.353,0.809-4.332,1.213c-1.95,0.396-0.252,6.141,5.14,8.627c2.049,0.943,7.394-1.842,8.495,2.055
	c0.637,2.252-0.868,3.176,0.771,2.84C37.861,57.611,37.259,27.549,29.908,32.818z"/>
<linearGradient id="SVGID_5_" gradientUnits="userSpaceOnUse" x1="17.8984" y1="43.4365" x2="11.1941" y2="37.0851">
	<stop  offset="0" style="stop-color:#CDD4D9"/>
	<stop  offset="0.2793" style="stop-color:#D5DCE1;stop-opacity:0.6755"/>
	<stop  offset="0.7225" style="stop-color:#ECF3F7;stop-opacity:0.1605"/>
	<stop  offset="0.8606" style="stop-color:#F5FBFF;stop-opacity:0"/>
	<a:midPointStop  offset="0" style="stop-color:#CDD4D9"/>
	<a:midPointStop  offset="0.6056" style="stop-color:#CDD4D9"/>
	<a:midPointStop  offset="0.8606" style="stop-color:#F5FBFF;stop-opacity:0"/>
</linearGradient>
<path fill="url(#SVGID_5_)" d="M25.149,37.953c-7.288,2.104-14.467,1.875-19.409,3.389C8.28,45.469,7.113,47.1,7.113,47.1
	C18.457,42.871,30.78,36.328,25.149,37.953z"/>
<linearGradient id="SVGID_6_" gradientUnits="userSpaceOnUse" x1="6.5757" y1="54.5566" x2="26.3465" y2="34.7859">
	<stop  offset="0.1576" style="stop-color:#CDD4D9;stop-opacity:0"/>
	<stop  offset="1" style="stop-color:#CDD4D9"/>
	<a:midPointStop  offset="0.1576" style="stop-color:#CDD4D9;stop-opacity:0"/>
	<a:midPointStop  offset="0.4729" style="stop-color:#CDD4D9;stop-opacity:0"/>
	<a:midPointStop  offset="1" style="stop-color:#CDD4D9"/>
</linearGradient>
<path fill="url(#SVGID_6_)" d="M28.292,38.785c-8.121,6-19.26,8.709-24.361,10.188c-0.728,3.936,4.744,7.125,4.744,7.125
	C24.615,47.891,33.436,34.986,28.292,38.785z"/>
<linearGradient id="SVGID_7_" gradientUnits="userSpaceOnUse" x1="14.1567" y1="59.9424" x2="32.4545" y2="41.6446">
	<stop  offset="0.1576" style="stop-color:#CDD4D9;stop-opacity:0"/>
	<stop  offset="1" style="stop-color:#CDD4D9"/>
	<a:midPointStop  offset="0.1576" style="stop-color:#CDD4D9;stop-opacity:0"/>
	<a:midPointStop  offset="0.4729" style="stop-color:#CDD4D9;stop-opacity:0"/>
	<a:midPointStop  offset="1" style="stop-color:#CDD4D9"/>
</linearGradient>
<path fill="url(#SVGID_7_)" d="M30.249,41.619c-7.834,9.615-11.625,10.738-19.516,14.9c8.447-1.125,6.4,4.486,6.4,4.486
	C31.623,55.707,34.402,36.523,30.249,41.619z"/>
<path fill="#1A1626" d="M48.56,31.932c-3.203-1.643-9.604-4.277-13.063-5.32c-0.639-0.193-0.668-0.857-0.051-1.148
	c4.156-1.922,8.002-3.887,12.543-6.346c0.836-0.451,1.672,0.813,0.977,1.516c-1.855,1.885-4.502,3.643-6.436,4.941
	c2.207,1.152,5.246,3.18,7.215,4.994C50.522,31.283,49.349,32.338,48.56,31.932z"/>
<path fill="#1A1626" d="M14.257,30.568c1.969-1.814,5.006-3.842,7.213-4.994c-1.932-1.299-4.58-3.057-6.436-4.941
	c-0.695-0.703,0.143-1.967,0.977-1.516c4.541,2.459,8.387,4.424,12.543,6.346c0.619,0.291,0.59,0.955-0.051,1.148
	c-3.457,1.043-9.859,3.678-13.061,5.32C14.653,32.338,13.478,31.283,14.257,30.568z"/>
</svg>
