<svg xmlns="http://www.w3.org/2000/svg" xmlns:xlink="http://www.w3.org/1999/xlink" viewBox="0 0 400 400"><defs><style>.a{fill:#ccfffe;}.b,.f{fill:#333;isolation:isolate;}.b{opacity:0.2;}.c{fill:#ffe97b;}.d,.h{fill:none;stroke:#333;stroke-miterlimit:10;stroke-width:3px;}.d{stroke-linecap:round;}.e{fill:#fff;}.f{opacity:0.1;}.g{fill:#ff8383;}.i{fill:#ea3d3d;}.j{fill:#ff5757;}.k{fill:url(#a);}</style><linearGradient id="a" x1="285.74" y1="192.25" x2="289.63" y2="189.86" gradientTransform="matrix(1, 0, 0, -1, 0, 402)" gradientUnits="userSpaceOnUse"><stop offset="0" stop-color="#e34248"/><stop offset="1" stop-color="#9e55a0"/></linearGradient></defs><circle class="a" cx="200" cy="200" r="200"/><path class="b" d="M299.5,144.7H199.6a11,11,0,0,0,8.9-4.5c.2,0,.3.1.5.1s.3.1.4.1a7.72,7.72,0,0,0,1.5.2h0l12.6,1,38.9,3.1a8.53,8.53,0,0,0,1.6,0,13.24,13.24,0,0,0,12.4-16.1l-3.1-14.5-3.1-14.5a13.27,13.27,0,0,0-19.4-8.8l-34.2,18.8-11.1,6.1c-.5.3-1,.6-1.4.9a10.55,10.55,0,0,0-5-1.2h0a12,12,0,0,0-5.6,1.5l-1.8-1.2-11.1-6.1L146.4,90.8A13.27,13.27,0,0,0,127,99.6l-3.1,14.5-3.1,14.5a13.29,13.29,0,0,0,12.4,16.1h1.6l38.9-3.1,12.6-1h0a7.72,7.72,0,0,0,1.5-.2c.1,0,.3-.1.4-.1l1.1-.3c.1,0,.2-.1.4-.1s.2,0,.2-.1a11.27,11.27,0,0,0,9.2,4.9H98.5a8.81,8.81,0,0,0-8.8,8.8v35.2a8.81,8.81,0,0,0,8.8,8.8h11.4v42.2h-.1v23.1h.1v29.1h0v14.7A16.47,16.47,0,0,0,126.3,323H271.4a16.47,16.47,0,0,0,16.4-16.4V262.8h.1V239.7h-.1V197.5h11.8a7.67,7.67,0,0,0,3.4-.7,10.93,10.93,0,0,0,1.5-.8,10.25,10.25,0,0,0,2.4-2.4,9.13,9.13,0,0,0,1.5-4.9V153.5A8.9,8.9,0,0,0,299.5,144.7Z"/><path class="c" d="M271.6,316.2H126.5a16.47,16.47,0,0,1-16.4-16.4V183.2a16.47,16.47,0,0,1,16.4-16.4H271.6A16.47,16.47,0,0,1,288,183.2V299.9A16.39,16.39,0,0,1,271.6,316.2Z"/><path class="d" d="M288,221v78.8a16.47,16.47,0,0,1-16.4,16.4H126.5a16.47,16.47,0,0,1-16.4-16.4V183.2a16.47,16.47,0,0,1,16.4-16.4H271.6A16.47,16.47,0,0,1,288,183.2V201"/><rect class="e" x="110.05" y="232.98" width="178.1" height="23.1"/><rect class="f" x="110" y="250.7" width="178.1" height="5.3"/><path class="g" d="M299.3,190.8H98.8A8.81,8.81,0,0,1,90,182V146.8a8.81,8.81,0,0,1,8.8-8.8H299.4a8.81,8.81,0,0,1,8.8,8.8V182A8.9,8.9,0,0,1,299.3,190.8Z"/><path class="f" d="M299.8,179.8H99.2a8.81,8.81,0,0,1-8.8-8.8v11a8.81,8.81,0,0,0,8.8,8.8H299.8a8.81,8.81,0,0,0,8.8-8.8V171A8.81,8.81,0,0,1,299.8,179.8Z"/><path class="h" d="M299.8,190.8H99.2a8.81,8.81,0,0,1-8.8-8.8V146.8a8.81,8.81,0,0,1,8.8-8.8H299.8a8.81,8.81,0,0,1,8.8,8.8V182A8.81,8.81,0,0,1,299.8,190.8Z"/><path class="i" d="M192.1,109.1c11.5,6.4,7.8,23.8-5.3,24.9l-12.6,1-38.9,3.1a13.21,13.21,0,0,1-14-16l3.1-14.5,3.1-14.5a13.27,13.27,0,0,1,19.4-8.8l34.2,18.8Z"/><path class="i" d="M205.9,109.1c-11.5,6.4-7.8,23.8,5.3,24.9l12.6,1,38.9,3.1a13.21,13.21,0,0,0,14-16l-3.1-14.5L270.5,93a13.27,13.27,0,0,0-19.4-8.8L217,103Z"/><path class="h" d="M192.1,109.1c11.5,6.4,7.8,23.8-5.3,24.9l-12.6,1-38.9,3.1a13.21,13.21,0,0,1-14-16l3.1-14.5,3.1-14.5a13.27,13.27,0,0,1,19.4-8.8l34.2,18.8Z"/><path class="h" d="M205.9,109.1c-11.5,6.4-7.8,23.8,5.3,24.9l12.6,1,38.9,3.1a13.21,13.21,0,0,0,14-16l-3.1-14.5L270.5,93a13.27,13.27,0,0,0-19.4-8.8L217,103Z"/><path class="f" d="M186.8,127.3l-12.6,1-38.9,3.1a13.31,13.31,0,0,1-13.9-10l-.1.5a13.25,13.25,0,0,0,14,16l38.9-3.1,12.6-1a13.2,13.2,0,0,0,11.8-16.6A12.85,12.85,0,0,1,186.8,127.3Z"/><path class="f" d="M276.7,121.5a13.31,13.31,0,0,1-13.9,10l-38.9-3.1-12.6-1a12.87,12.87,0,0,1-11.8-10A13.2,13.2,0,0,0,211.3,134l12.6,1,38.9,3.1a13.21,13.21,0,0,0,14-16Z"/><path class="j" d="M199.5,108.7h0a11.14,11.14,0,0,0-11.1,11.1V127a11.14,11.14,0,0,0,11.1,11.1h0A11.14,11.14,0,0,0,210.6,127v-7.2A11.14,11.14,0,0,0,199.5,108.7Z"/><path class="f" d="M199.9,131.5a11.14,11.14,0,0,1-11.1-11.1V127a11.1,11.1,0,1,0,22.2,0v-6.6A11.14,11.14,0,0,1,199.9,131.5Z"/><path class="h" d="M199.5,108.7h0a11.14,11.14,0,0,0-11.1,11.1V127a11.14,11.14,0,0,0,11.1,11.1h0A11.14,11.14,0,0,0,210.6,127v-7.2A11.14,11.14,0,0,0,199.5,108.7Z"/><rect class="h" x="110.05" y="232.98" width="178.1" height="23.1"/><rect class="e" x="188.4" y="190.8" width="23.1" height="125.4"/><rect class="h" x="188.4" y="190.8" width="23.1" height="125.4"/><path class="f" d="M271.6,301.5H126.5a16.47,16.47,0,0,1-16.4-16.4v14.7a16.47,16.47,0,0,0,16.4,16.4H271.6A16.47,16.47,0,0,0,288,299.8V285.1A16.47,16.47,0,0,1,271.6,301.5Z"/><circle class="k" cx="288.1" cy="211.2" r="1.7"/></svg>