<svg xmlns="http://www.w3.org/2000/svg" xmlns:xlink="http://www.w3.org/1999/xlink" viewBox="0 0 400 400"><defs><style>.a{fill:#ccfffe;}.b,.g{fill:#333;}.b{opacity:0.2;isolation:isolate;}.c{fill:#fff;}.d{fill:#dd150b;}.e{fill:none;stroke:#333;stroke-linecap:round;stroke-miterlimit:10;stroke-width:3.02px;}.f{opacity:0.1;}.h{fill:url(#a);}</style><linearGradient id="a" x1="256.65" y1="295.25" x2="260.54" y2="292.86" gradientTransform="matrix(1, 0, 0, -1, 0, 402)" gradientUnits="userSpaceOnUse"><stop offset="0" stop-color="#e34248"/><stop offset="1" stop-color="#9e55a0"/></linearGradient></defs><circle class="a" cx="200" cy="200" r="200"/><path class="b" d="M256.4,221.1A78.25,78.25,0,0,0,168.3,96a20.38,20.38,0,0,0-6.8,32.7l.6.6a19.76,19.76,0,0,0,22.3,4.4A37.28,37.28,0,0,1,228,191.3h0L120.3,293.5a20.71,20.71,0,0,0-.7,29.3h0a20.71,20.71,0,0,0,29.3.7L256.4,221.1Z"/><path class="c" d="M256.4,211.3A78.25,78.25,0,0,0,168.3,86.2a20.38,20.38,0,0,0-6.8,32.7l.6.6a19.76,19.76,0,0,0,22.3,4.4A37.28,37.28,0,0,1,228,181.5h0L120.3,283.7a20.71,20.71,0,0,0-.7,29.3h0a20.71,20.71,0,0,0,29.3.7L256.4,211.3Z"/><path class="d" d="M168.5,86.2A20.32,20.32,0,0,0,158.3,114l50.3-33.4A77.85,77.85,0,0,0,168.5,86.2Z"/><path class="d" d="M226.6,85l-58.4,38.8a20.75,20.75,0,0,0,16.4.2,37.16,37.16,0,0,1,24.6-1.5L247.6,97A74.65,74.65,0,0,0,226.6,85Z"/><path class="d" d="M267.1,119.5l-52.4,4.9a34.85,34.85,0,0,1,11.4,8.2,37.21,37.21,0,0,1,7.5,11.6l41.7-3.9A80.47,80.47,0,0,0,267.1,119.5Z"/><path class="d" d="M272,186.6a78,78,0,0,0,5-21.2l-42-17a37,37,0,0,1-1,22.8Z"/><path class="d" d="M226.6,182.9l-17.1,16.3,41.9,17,5.2-4.9a79.37,79.37,0,0,0,9.4-12.4Z"/><polygon class="d" points="240.8 226.3 198.9 209.3 181.7 225.6 223.7 242.6 240.8 226.3"/><polygon class="d" points="195.7 269.2 212.8 253 170.8 235.9 153.7 252.2 195.7 269.2"/><polygon class="d" points="167.7 295.9 184.8 279.6 142.8 262.6 125.6 278.8 167.7 295.9"/><path class="d" d="M116.1,289.8a20.81,20.81,0,0,0,3.6,23.2h0a19.94,19.94,0,0,0,3.2,2.7l8.3,3.4a20.8,20.8,0,0,0,17.8-5.3l7.8-7.5Z"/><path class="e" d="M252.4,101.2a78.29,78.29,0,0,0-84.1-15,20.38,20.38,0,0,0-6.8,32.7l.6.6a19.76,19.76,0,0,0,22.3,4.4A37.28,37.28,0,0,1,228,181.5h0L120.3,283.7a20.71,20.71,0,0,0-.7,29.3h0a20.71,20.71,0,0,0,29.3.7L256.4,211.2h0a78.27,78.27,0,0,0,8.4-95.3"/><g class="f"><path class="g" d="M255.6,104.3a35.14,35.14,0,0,0-3.4-3.3c-.5-.5-1.1-1-1.6-1.5a78.16,78.16,0,0,1-1.1,104.9L142,306.9a20.71,20.71,0,0,1-25.1,2.6,21.86,21.86,0,0,0,2.7,3.5h0a20.71,20.71,0,0,0,29.3.7L256.4,211.2a78.29,78.29,0,0,0,8.5-95.2A85.24,85.24,0,0,0,255.6,104.3Z"/><path class="g" d="M159.1,115.7a18.5,18.5,0,0,0,2.5,3.2l.6.6a19.76,19.76,0,0,0,22.3,4.4,37.16,37.16,0,0,1,37.1,4.8c-.8-1-1.6-2-2.5-3a37.3,37.3,0,0,0-41.5-8.7A20.11,20.11,0,0,1,159.1,115.7Z"/></g><circle class="h" cx="259" cy="108.2" r="1.7"/></svg>