<svg xmlns="http://www.w3.org/2000/svg" xmlns:xlink="http://www.w3.org/1999/xlink" viewBox="0 0 400 400"><defs><style>.a{fill:#abefac;}.b,.e,.j{fill:#333;}.b,.r{opacity:0.2;}.b,.j,.r{isolation:isolate;}.c{fill:#e08b51;}.d,.j{opacity:0.1;}.f{fill:#fff;}.g{fill:#81cf48;}.h{fill:#f9f7f7;}.i{fill:#ff3e3e;}.k,.l,.m,.q,.r{fill:none;}.k,.l,.m,.o,.q{stroke:#333;}.k,.q,.r{stroke-linecap:round;}.k{stroke-linejoin:round;}.k,.l{stroke-width:3px;}.l,.o,.q,.r{stroke-miterlimit:10;}.m{stroke-miterlimit:10;stroke-width:3px;}.n{fill:url(#a);}.o,.p{fill:#ff0068;}.o,.q,.r{stroke-width:1.6px;}.r{stroke:#fff;}</style><linearGradient id="a" x1="248.08" y1="1978.07" x2="251.96" y2="1980.46" gradientTransform="translate(0 -1758)" gradientUnits="userSpaceOnUse"><stop offset="0" stop-color="#e34248"/><stop offset="1" stop-color="#9e55a0"/></linearGradient></defs><circle class="a" cx="200" cy="200" r="200"/><path class="b" d="M285.2,157.3H236l-.4-2.2a42.5,42.5,0,1,0-66.2,1.5l-.1.5H118.5a21.28,21.28,0,0,0-21.2,21.2h0a21.28,21.28,0,0,0,21.2,21.2h39.2l-11.9,73.3-5.7,27.9c-2.2,10.8,3.9,21.8,14.5,25a21.38,21.38,0,0,0,27.1-16.1l4.8-23.6a16.69,16.69,0,0,1,16.3-13.3h0A16.69,16.69,0,0,1,219.1,286l3.8,18.9c2.4,11.7,14.1,21.2,26,21.2h0c11.9,0,19.7-9.6,17.4-21.2l-6.5-32.2h.2l-12.5-73.3h38a21.28,21.28,0,0,0,21.2-21.2h0A21.75,21.75,0,0,0,285.2,157.3Z"/><path class="c" d="M283.4,150.3H234.3l-.4-2.2a42.5,42.5,0,1,0-66.2,1.5l-.1.5H116.8a21.28,21.28,0,0,0-21.2,21.2h0a21.28,21.28,0,0,0,21.2,21.2H156l-11.9,73.3-5.7,27.9c-2.2,10.8,3.9,21.8,14.5,25A21.38,21.38,0,0,0,180,302.6l4.8-23.6a16.69,16.69,0,0,1,16.3-13.3h0A16.69,16.69,0,0,1,217.4,279l3.8,18.9c2.4,11.7,14.1,21.2,26,21.2h0c11.9,0,19.7-9.6,17.4-21.2l-6.5-32.2h.2l-12.5-73.3h38A21.28,21.28,0,0,0,305,171.2h0A21.84,21.84,0,0,0,283.4,150.3Z"/><g class="d"><path class="e" d="M234.7,143.1h2.9a42.38,42.38,0,0,0,5.3-22.7c0-.5-.1-1-.1-1.5a42.81,42.81,0,0,1-8.5,22.1Z"/><path class="e" d="M156.3,185.6H117.1A21.36,21.36,0,0,1,96.2,168a21.86,21.86,0,0,0-.3,3.6h0a21.28,21.28,0,0,0,21.2,21.2h38.1Z"/><path class="e" d="M167.9,143.1l.1-.5a41.67,41.67,0,0,1-9.8-23.7c-.1,1.2-.2,2.4-.2,3.6a42.83,42.83,0,0,0,5.4,20.7h4.5Z"/><path class="e" d="M247.4,312.4h0c-11.9,0-23.6-9.6-26-21.2l-3.8-18.9A16.69,16.69,0,0,0,201.3,259h0A16.69,16.69,0,0,0,185,272.3l-4.8,23.6a21.18,21.18,0,0,1-41.7-.8c-1.7,10.5,4.3,21,14.6,24.1a21.38,21.38,0,0,0,27.1-16.1l4.8-23.6a16.69,16.69,0,0,1,16.3-13.3h0a16.69,16.69,0,0,1,16.3,13.3l3.8,18.9c2.4,11.7,14.1,21.2,26,21.2h0c11.8,0,19.5-9.3,17.4-20.8C263.3,306.7,256.6,312.4,247.4,312.4Z"/><path class="e" d="M283.9,185.6h-38l1.2,7.2h36.8a21.28,21.28,0,0,0,21.2-21.2h0a21.86,21.86,0,0,0-.3-3.6A21.28,21.28,0,0,1,283.9,185.6Z"/></g><circle class="f" cx="183.3" cy="113.9" r="6.2"/><circle class="f" cx="216.7" cy="113.9" r="6.2"/><g class="d"><path class="e" d="M183.3,115.7a6.22,6.22,0,0,1-5.8-4,5.38,5.38,0,0,0-.4,2.2,6.2,6.2,0,1,0,12.4,0,7.8,7.8,0,0,0-.4-2.2A6.32,6.32,0,0,1,183.3,115.7Z"/><path class="e" d="M216.6,115.7a6.22,6.22,0,0,1-5.8-4,5.38,5.38,0,0,0-.4,2.2,6.2,6.2,0,0,0,12.4,0,7.8,7.8,0,0,0-.4-2.2A6.22,6.22,0,0,1,216.6,115.7Z"/></g><path class="g" d="M199.9,145.3a17.61,17.61,0,0,1-16.5-11.6,3,3,0,0,1,5.6-2,11.43,11.43,0,0,0,10.8,7.6,11.56,11.56,0,0,0,10.8-7.6,3,3,0,0,1,5.6,2A17.16,17.16,0,0,1,199.9,145.3Z"/><rect class="h" x="125.7" y="150.3" width="5.6" height="42.5"/><rect class="h" x="268.8" y="150.3" width="5.6" height="42.5"/><rect class="h" x="160.54" y="258.97" width="4.4" height="42.7" transform="translate(-136.32 405.33) rotate(-82.55)"/><rect class="h" x="217.8" y="278.11" width="42.7" height="4.4" transform="translate(-34.33 33.38) rotate(-7.45)"/><circle class="i" cx="199.9" cy="192.8" r="7.3"/><circle class="i" cx="199.9" cy="217.9" r="7.3"/><path class="j" d="M199.9,197.4a7.4,7.4,0,0,1-7.2-5.9,5.7,5.7,0,0,0-.1,1.3,7.3,7.3,0,1,0,14.6,0,5.28,5.28,0,0,0-.1-1.3A7.32,7.32,0,0,1,199.9,197.4Z"/><path class="j" d="M199.9,222.5a7.4,7.4,0,0,1-7.2-5.9,5.7,5.7,0,0,0-.1,1.3,7.3,7.3,0,1,0,14.6,0,5.28,5.28,0,0,0-.1-1.3A7.32,7.32,0,0,1,199.9,222.5Z"/><path class="k" d="M248.6,212.1l-3.3-19.3h38a21.28,21.28,0,0,0,21.2-21.2h0a21.28,21.28,0,0,0-21.2-21.2H234.2l-.4-2.2a42.5,42.5,0,1,0-66.2,1.5l-.1.5H116.7a21.28,21.28,0,0,0-21.2,21.2h0a21.28,21.28,0,0,0,21.2,21.2h39.2L144,265.9l-5.7,27.9c-2.2,10.8,3.9,21.8,14.5,25a21.38,21.38,0,0,0,27.1-16.1l4.8-23.6A16.69,16.69,0,0,1,201,265.8h0a16.69,16.69,0,0,1,16.3,13.3l3.8,18.9c2.4,11.7,14.1,21.2,26,21.2h0c11.9,0,19.7-9.6,17.4-21.2L258,265.8h.2l-6-35.1"/><path class="l" d="M199.9,145.3a17.61,17.61,0,0,1-16.5-11.6,3,3,0,0,1,5.6-2,11.43,11.43,0,0,0,10.8,7.6,11.56,11.56,0,0,0,10.8-7.6,3,3,0,0,1,5.6,2A17.16,17.16,0,0,1,199.9,145.3Z"/><circle class="l" cx="183.3" cy="113.9" r="6.2"/><circle class="l" cx="216.7" cy="113.9" r="6.2"/><rect class="l" x="125.7" y="150.3" width="5.6" height="42.5"/><rect class="l" x="268.8" y="150.3" width="5.6" height="42.5"/><rect class="m" x="160.54" y="258.97" width="4.4" height="42.7" transform="translate(-136.32 405.33) rotate(-82.55)"/><rect class="m" x="217.8" y="278.11" width="42.7" height="4.4" transform="translate(-34.33 33.38) rotate(-7.45)"/><circle class="l" cx="199.9" cy="192.8" r="7.3"/><circle class="l" cx="199.9" cy="217.9" r="7.3"/><circle class="n" cx="250.4" cy="221.5" r="1.7"/><path class="j" d="M251.5,85.9,232.2,84a3,3,0,0,0-2.1.5l-.6-.3a1.42,1.42,0,0,0-.6-.2,3.11,3.11,0,0,0-1.1-1.9l-14.3-13a3.56,3.56,0,0,0-2.7-.9,2.35,2.35,0,0,0-.8.2,4.88,4.88,0,0,0-.7.3,3.64,3.64,0,0,0-1.4,1.6l-4.9,11-3.5,7.9h0l-1.3,3a2.77,2.77,0,0,0-.3,1.3,2,2,0,0,0,.1.8.76.76,0,0,0,.2.5,2.62,2.62,0,0,0,.5.9l.3.3a3.58,3.58,0,0,0,2.2,1.1L220.5,99h.6a3.26,3.26,0,0,0,1.4-.4,4.35,4.35,0,0,0,.7.4c.2.1.5.2.7.3a4.25,4.25,0,0,0,1,1.7l14.3,13a3.56,3.56,0,0,0,2.7.9.6.6,0,0,0,.4-.1,4.18,4.18,0,0,0,1-.4,3.13,3.13,0,0,0,1.1-.9,2.51,2.51,0,0,0,.4-.7l4.9-11,4.9-11a2.77,2.77,0,0,0,.3-1.3A3.77,3.77,0,0,0,251.5,85.9Z"/><path class="o" d="M252.3,83,233,81.1a3.64,3.64,0,0,0-3.6,2.1,3.5,3.5,0,0,0-.8-4l-14.3-13a3.54,3.54,0,0,0-5.6,1.2l-4.9,11-4.9,11a3.59,3.59,0,0,0,2.9,5l19.3,1.9a3.64,3.64,0,0,0,3.6-2.1h0a3.5,3.5,0,0,0,.8,4l14.3,13a3.54,3.54,0,0,0,5.6-1.2l4.9-11,4.9-11A3.54,3.54,0,0,0,252.3,83Z"/><path class="j" d="M241.1,108,226.8,95a3.38,3.38,0,0,1-.8-4h0a3.64,3.64,0,0,1-3.6,2.1l-19.3-1.9a3.56,3.56,0,0,1-2.9-5l-1.3,3a3.59,3.59,0,0,0,2.9,5l19.3,1.9a3.64,3.64,0,0,0,3.6-2.1h0a3.5,3.5,0,0,0,.8,4l14.3,13a3.54,3.54,0,0,0,5.6-1.2l1.3-3A3.53,3.53,0,0,1,241.1,108Z"/><path class="k" d="M227,88.5l2.4-5.4A3.64,3.64,0,0,1,233,81l19.3,1.9a3.56,3.56,0,0,1,2.9,5l-4.9,11-4.9,11a3.54,3.54,0,0,1-5.6,1.2l-14.3-13a3.38,3.38,0,0,1-.8-4Z"/><path class="k" d="M227,88.5l-2.4,5.4A3.64,3.64,0,0,1,221,96l-19.3-1.9a3.56,3.56,0,0,1-2.9-5l4.9-11,4.9-11a3.54,3.54,0,0,1,5.6-1.2l14.3,13a3.38,3.38,0,0,1,.8,4Z"/><path class="p" d="M230.3,81.2h0a5.27,5.27,0,0,0-7,2.7l-2.2,4.9a5.27,5.27,0,0,0,2.7,7h0a5.27,5.27,0,0,0,7-2.7l2.2-4.9A5.31,5.31,0,0,0,230.3,81.2Z"/><path class="j" d="M224.9,93.4a5.31,5.31,0,0,1-2.7-7L221,89a5.31,5.31,0,1,0,9.7,4.3l1.2-2.6A5.27,5.27,0,0,1,224.9,93.4Z"/><path class="k" d="M230.3,81.2h0a5.27,5.27,0,0,0-7,2.7l-2.2,4.9a5.27,5.27,0,0,0,2.7,7h0a5.27,5.27,0,0,0,7-2.7l2.2-4.9A5.31,5.31,0,0,0,230.3,81.2Z"/><line class="q" x1="232.2" y1="90.9" x2="231.5" y2="97.1"/><line class="q" x1="238.7" y1="87.8" x2="232.9" y2="90"/><line class="q" x1="232.5" y1="90.4" x2="236.5" y2="93.5"/><line class="q" x1="221.9" y1="85.8" x2="220.9" y2="79.6"/><line class="q" x1="216.6" y1="90.5" x2="221.5" y2="86.8"/><line class="q" x1="221.7" y1="86.3" x2="217.1" y2="84.5"/><path class="r" d="M201.9,88.9l8.4-19s1.2-4.1,5.4,1.5"/></svg>