<svg xmlns="http://www.w3.org/2000/svg" viewBox="0 0 400 400"><defs><style>.a{fill:#e2a06a;}.b,.d{opacity:0.1;}.c,.d{fill:#333;}.d{isolation:isolate;}.e{fill:#ff3b3b;}.f{fill:#fff;}.g{fill:#f9f9f9;}</style></defs><circle class="a" cx="200" cy="200" r="200"/><g class="b"><circle class="c" cx="46.3" cy="111.2" r="30"/><circle class="c" cx="90.2" cy="111.2" r="30"/><circle class="c" cx="134.1" cy="111.2" r="30"/><circle class="c" cx="178" cy="111.2" r="30"/><circle class="c" cx="222" cy="111.2" r="30"/><circle class="c" cx="265.9" cy="111.2" r="30"/><circle class="c" cx="309.8" cy="111.2" r="30"/><circle class="c" cx="353.7" cy="111.2" r="30"/></g><path class="d" d="M200,362.1A150,150,0,0,1,119.9,339a151.5,151.5,0,0,1-54.5-60,20,20,0,0,1,35.7-17.9,110.51,110.51,0,0,0,197.6,0A20,20,0,1,1,334.4,279a150.77,150.77,0,0,1-54.5,60A148.8,148.8,0,0,1,200,362.1Z"/><path class="e" d="M380.2,113.2a200,200,0,0,0-360.4,0Z"/><g class="b"><circle class="c" cx="109.9" cy="190.3" r="30"/><circle class="c" cx="290.1" cy="190.3" r="30"/></g><circle class="f" cx="109.9" cy="187.3" r="30"/><circle class="f" cx="290.1" cy="187.3" r="30"/><circle class="g" cx="46.3" cy="105.8" r="30"/><circle class="g" cx="90.2" cy="105.8" r="30"/><circle class="g" cx="134.1" cy="105.8" r="30"/><circle class="g" cx="178" cy="105.8" r="30"/><circle class="g" cx="222" cy="105.8" r="30"/><circle class="g" cx="265.9" cy="105.8" r="30"/><circle class="g" cx="309.8" cy="105.8" r="30"/><circle class="g" cx="353.7" cy="105.8" r="30"/><path class="f" d="M200.5,356.1A150,150,0,0,1,120.4,333a151.5,151.5,0,0,1-54.5-60,20,20,0,0,1,35.7-17.9,110.51,110.51,0,0,0,197.6,0A20,20,0,1,1,334.9,273a150.77,150.77,0,0,1-54.5,60A147.94,147.94,0,0,1,200.5,356.1Z"/></svg>