<svg xmlns="http://www.w3.org/2000/svg" xmlns:xlink="http://www.w3.org/1999/xlink" viewBox="0 0 400 400"><defs><style>.a{fill:#abefac;}.b,.d{fill:#333;isolation:isolate;}.b{opacity:0.2;}.c{fill:#fff;}.d{opacity:0.1;}.e{fill:#9ff8ff;}.f,.g{fill:none;stroke:#333;stroke-miterlimit:10;stroke-width:3px;}.g{stroke-linecap:round;}.h{fill:url(#a);}</style><linearGradient id="a" x1="281.13" y1="200.96" x2="285.01" y2="198.57" gradientTransform="matrix(1, 0, 0, -1, 0, 402)" gradientUnits="userSpaceOnUse"><stop offset="0" stop-color="#e34248"/><stop offset="1" stop-color="#9e55a0"/></linearGradient></defs><circle class="a" cx="200" cy="200" r="200"/><path class="b" d="M305.7,230.7,268,200.3V185.4a65,65,0,0,0-.7-9.9h10.9a12.72,12.72,0,0,0,12.7-12.7V124.5a12.72,12.72,0,0,0-12.7-12.7H110a12.72,12.72,0,0,0-12.7,12.7v38.3A12.72,12.72,0,0,0,110,175.5h11.7a79.54,79.54,0,0,0-.7,9.9v85.1A73.75,73.75,0,0,0,194.5,344h0A73.75,73.75,0,0,0,268,270.5v-4.3l5.5,4.4a25.71,25.71,0,0,0,36.1-3.9h0A25.69,25.69,0,0,0,305.7,230.7Z"/><path class="c" d="M278.7,165.9H110.5a12.72,12.72,0,0,1-12.7-12.7V115a12.72,12.72,0,0,1,12.7-12.7H278.7A12.72,12.72,0,0,1,291.4,115v38.3A12.7,12.7,0,0,1,278.7,165.9Z"/><path class="d" d="M278.2,150H110a12.72,12.72,0,0,1-12.7-12.7v15.9A12.72,12.72,0,0,0,110,165.9H278.2a12.72,12.72,0,0,0,12.7-12.7V137.3A12.72,12.72,0,0,1,278.2,150Z"/><path class="e" d="M306.2,221.1l-37.7-30.4V175.8a65,65,0,0,0-.7-9.9H122.2a79.54,79.54,0,0,0-.7,9.9v85.1A73.75,73.75,0,0,0,195,334.4h0a73.75,73.75,0,0,0,73.5-73.5v-4.3L274,261a25.71,25.71,0,0,0,36.1-3.9h0A25.68,25.68,0,0,0,306.2,221.1Z"/><path class="d" d="M309.6,238.3h0a25.81,25.81,0,0,1-36.1,3.9l-5.5-4.4v4.3a73.75,73.75,0,0,1-73.5,73.5h0A73.75,73.75,0,0,1,121,242.1v18.8a73.75,73.75,0,0,0,73.5,73.5h0A73.75,73.75,0,0,0,268,260.9v-4.3l5.5,4.4a25.71,25.71,0,0,0,36.1-3.9h0a25.76,25.76,0,0,0,3.9-25.5A28,28,0,0,1,309.6,238.3Z"/><path class="f" d="M278.7,165.9H110.5a12.72,12.72,0,0,1-12.7-12.7V115a12.72,12.72,0,0,1,12.7-12.7H278.7A12.72,12.72,0,0,1,291.4,115v38.3A12.7,12.7,0,0,1,278.7,165.9Z"/><path class="g" d="M276.2,196.9l-.3-.2-7.4-6V175.8a65,65,0,0,0-.7-9.9H122.2a79.54,79.54,0,0,0-.7,9.9v85.1A73.75,73.75,0,0,0,195,334.4h0a73.75,73.75,0,0,0,73.5-73.5v-4.3L274,261a25.71,25.71,0,0,0,36.1-3.9h0a25.71,25.71,0,0,0-3.9-36.1l-15.3-12.3"/><circle class="h" cx="283.5" cy="202.5" r="1.7"/></svg>