<svg xmlns="http://www.w3.org/2000/svg" xmlns:xlink="http://www.w3.org/1999/xlink" viewBox="0 0 400 400"><defs><style>.a{fill:#ccfffe;}.b,.d{fill:#333;isolation:isolate;}.b{opacity:0.2;}.c{fill:#fff;}.d{opacity:0.1;}.e{fill:#ff4d4d;}.f,.g{fill:none;stroke:#333;stroke-miterlimit:10;stroke-width:3px;}.g{stroke-linecap:round;}.h{fill:url(#a);}</style><linearGradient id="a" x1="280.85" y1="200.94" x2="284.74" y2="198.56" gradientTransform="matrix(1, 0, 0, -1, 0, 402)" gradientUnits="userSpaceOnUse"><stop offset="0" stop-color="#e34248"/><stop offset="1" stop-color="#9e55a0"/></linearGradient></defs><circle class="a" cx="200" cy="200" r="200"/><path class="b" d="M305.4,230.7l-37.7-30.4V185.4a65,65,0,0,0-.7-9.9h10.9a12.72,12.72,0,0,0,12.7-12.7V124.5a12.72,12.72,0,0,0-12.7-12.7H109.7A12.72,12.72,0,0,0,97,124.5v38.3a12.72,12.72,0,0,0,12.7,12.7h11.7a79.54,79.54,0,0,0-.7,9.9v85.1A73.75,73.75,0,0,0,194.2,344h0a73.75,73.75,0,0,0,73.5-73.5v-4.3l5.5,4.4a25.71,25.71,0,0,0,36.1-3.9h0A25.69,25.69,0,0,0,305.4,230.7Z"/><path class="c" d="M278.4,165.9H110.2a12.72,12.72,0,0,1-12.7-12.7V115a12.72,12.72,0,0,1,12.7-12.7H278.4A12.72,12.72,0,0,1,291.1,115v38.3A12.7,12.7,0,0,1,278.4,165.9Z"/><path class="d" d="M277.9,150H109.8a12.72,12.72,0,0,1-12.7-12.7v15.9a12.72,12.72,0,0,0,12.7,12.7H278a12.72,12.72,0,0,0,12.7-12.7V137.3A12.87,12.87,0,0,1,277.9,150Z"/><path class="e" d="M305.9,221.1l-37.7-30.4V175.8a65,65,0,0,0-.7-9.9H121.9a79.54,79.54,0,0,0-.7,9.9v85.1a73.75,73.75,0,0,0,73.5,73.5h0a73.75,73.75,0,0,0,73.5-73.5v-4.3l5.5,4.4a25.71,25.71,0,0,0,36.1-3.9h0A25.59,25.59,0,0,0,305.9,221.1Z"/><path class="d" d="M309.3,238.3h0a25.81,25.81,0,0,1-36.1,3.9l-5.5-4.4v4.3a73.75,73.75,0,0,1-73.5,73.5h0a73.75,73.75,0,0,1-73.5-73.5v18.8a73.75,73.75,0,0,0,73.5,73.5h0a73.75,73.75,0,0,0,73.5-73.5v-4.3l5.5,4.4a25.71,25.71,0,0,0,36.1-3.9h0a25.76,25.76,0,0,0,3.9-25.5A28,28,0,0,1,309.3,238.3Z"/><path class="f" d="M278.4,165.9H110.2a12.72,12.72,0,0,1-12.7-12.7V115a12.72,12.72,0,0,1,12.7-12.7H278.4A12.72,12.72,0,0,1,291.1,115v38.3A12.7,12.7,0,0,1,278.4,165.9Z"/><path class="g" d="M275.9,196.9l-.3-.2-7.4-6V175.8a65,65,0,0,0-.7-9.9H121.9a79.54,79.54,0,0,0-.7,9.9v85.1a73.75,73.75,0,0,0,73.5,73.5h0a73.75,73.75,0,0,0,73.5-73.5v-4.3l5.5,4.4a25.71,25.71,0,0,0,36.1-3.9h0a25.71,25.71,0,0,0-3.9-36.1l-15.3-12.3"/><circle class="h" cx="283.2" cy="202.5" r="1.7"/></svg>