<svg xmlns="http://www.w3.org/2000/svg" xmlns:xlink="http://www.w3.org/1999/xlink" viewBox="0 0 400 400"><defs><style>.a{fill:#ccfffe;}.b,.d{fill:#333;isolation:isolate;}.b{opacity:0.2;}.c{fill:#ff2e2e;}.d{opacity:0.1;}.e{fill:#fff;}.f,.h{fill:none;stroke:#333;stroke-miterlimit:10;stroke-width:3px;}.g{fill:#f4f4f4;}.h{stroke-linecap:round;}.i{fill:url(#a);}</style><linearGradient id="a" x1="282.1" y1="83.78" x2="285.99" y2="81.39" gradientTransform="matrix(1, 0, 0, -1, 0, 402)" gradientUnits="userSpaceOnUse"><stop offset="0" stop-color="#e34248"/><stop offset="1" stop-color="#9e55a0"/></linearGradient></defs><circle class="a" cx="200" cy="200" r="200"/><path class="b" d="M314.4,233.3H301.9V188.2A102.08,102.08,0,0,0,199.8,86.1h0A102.08,102.08,0,0,0,97.7,188.2v45.1H85.6a10.24,10.24,0,0,0-10.2,10.2V283a11,11,0,0,1-.2-1.8v8.3a10.24,10.24,0,0,0,10.2,10.2H255c0,.3.1.7.1,1a19.78,19.78,0,0,0,1,4.2,29.14,29.14,0,0,0,55.6,0,32,32,0,0,0,1-4.2c0-.3.1-.7.1-1h1.6a10.24,10.24,0,0,0,10.2-10.2V243.4A10.22,10.22,0,0,0,314.4,233.3Z"/><path class="c" d="M200.4,80.3h0A102.08,102.08,0,0,0,98.3,182.4v78.3H302.5V182.4A102.08,102.08,0,0,0,200.4,80.3Z"/><rect class="d" x="98.3" y="207.6" width="204.2" height="20"/><path class="e" d="M315,294H86.2A10.24,10.24,0,0,1,76,283.8V237.7a10.24,10.24,0,0,1,10.2-10.2H315a10.24,10.24,0,0,1,10.2,10.2v46.1A10.24,10.24,0,0,1,315,294Z"/><path class="d" d="M314.8,285.7H86a10.24,10.24,0,0,1-10.2-10.2v8.3A10.24,10.24,0,0,0,86,294H314.8A10.24,10.24,0,0,0,325,283.8v-8.3A10.24,10.24,0,0,1,314.8,285.7Z"/><rect class="c" x="266.5" y="207.6" width="36" height="95.1"/><path class="f" d="M300.9,227.5H315a10.24,10.24,0,0,1,10.2,10.2v46.1A10.24,10.24,0,0,1,315,294H86.2A10.24,10.24,0,0,1,76,283.8V237.7a10.24,10.24,0,0,1,10.2-10.2H266.7"/><rect class="d" x="266.5" y="207.6" width="11.7" height="95.1"/><path class="f" d="M311.7,299.2a32,32,0,0,0,1-4.2c0-.3.1-.7.1-1h1.6a10.24,10.24,0,0,0,10.2-10.2v-46a10.24,10.24,0,0,0-10.2-10.2H301.9V182.5A102.08,102.08,0,0,0,199.8,80.4h0A102.08,102.08,0,0,0,97.7,182.5v45.1H85.6a10.24,10.24,0,0,0-10.2,10.2v39.5a11,11,0,0,1-.2-1.8v8.3A10.24,10.24,0,0,0,85.4,294H255c0,.3.1.7.1,1"/><polyline class="f" points="265.5 227.5 265.5 302.7 301.5 302.7 301.5 227.5"/><circle class="g" cx="284.5" cy="290.6" r="29.1"/><path class="d" d="M284.5,309.9a29.13,29.13,0,0,1-28.7-24.2,26.29,26.29,0,0,0-.4,4.9,29.1,29.1,0,0,0,58.2,0,26.29,26.29,0,0,0-.4-4.9A29.21,29.21,0,0,1,284.5,309.9Z"/><path class="h" d="M294.2,318a29.09,29.09,0,1,0-19.7-.1"/><circle class="i" cx="284.5" cy="319.7" r="1.7"/></svg>