<svg xmlns="http://www.w3.org/2000/svg" xmlns:xlink="http://www.w3.org/1999/xlink" viewBox="0 0 400 400"><defs><style>.a{fill:#abefac;}.b,.f{fill:#333;}.b{opacity:0.2;}.b,.f,.i{isolation:isolate;}.c{fill:#64ffff;}.d{fill:#7bdbd8;}.e,.h,.i{fill:none;stroke-miterlimit:10;}.e,.h{stroke:#333;stroke-width:3px;}.e,.i{stroke-linecap:round;}.f{opacity:0.1;}.g{fill:#b5f4f2;}.i{stroke:#fffdfd;stroke-width:5.33px;opacity:0.8;}.j{fill:#ffcf6e;}.k{fill:url(#a);}</style><linearGradient id="a" x1="273.37" y1="224.53" x2="277.25" y2="222.15" gradientTransform="matrix(1, 0, 0, -1, 0, 402)" gradientUnits="userSpaceOnUse"><stop offset="0" stop-color="#e34248"/><stop offset="1" stop-color="#9e55a0"/></linearGradient></defs><circle class="a" cx="200" cy="200" r="200"/><path class="b" d="M290.4,227.4c-.1.7-.2,1.3-.3,1.9a2.77,2.77,0,0,0-.1-.9c-.1-.6-.1-1.2-.2-1.8,0-.2-.1-.5-.1-.7-.1-.8-.2-1.7-.3-2.5a.76.76,0,0,0-.1-.4,15.52,15.52,0,0,0-.4-2.1c-.1-.3-.1-.6-.2-.8-.1-.6-.2-1.1-.3-1.7-.1-.3-.1-.6-.2-.9a9.36,9.36,0,0,0-.4-1.6c-.1-.3-.1-.6-.2-.9-.2-.6-.3-1.2-.5-1.8-.1-.2-.1-.4-.2-.6-.2-.8-.5-1.6-.7-2.4-.1-.2-.1-.3-.2-.5l-.6-1.8c-.1-.3-.2-.5-.3-.8l-.6-1.5-.3-.9-.6-1.5c-.1-.3-.2-.5-.3-.8-.3-.6-.5-1.2-.8-1.8-.1-.2-.1-.3-.2-.5-.3-.7-.7-1.5-1-2.2l-.3-.6c-.3-.5-.5-1.1-.8-1.6,0-.1-.1-.2-.1-.3h0a67.14,67.14,0,0,0-4-6.8,1.72,1.72,0,0,0,.9-1.5,1.69,1.69,0,0,0-1.7-1.7,2.1,2.1,0,0,0-1.1.4,74.65,74.65,0,0,0-4.8-6.3h0c-.1-.2-.3-.3-.4-.5-.3-.4-.7-.8-1-1.2-.2-.2-.4-.5-.6-.7-.3-.4-.6-.7-.9-1.1a4.62,4.62,0,0,0-.7-.7c-.3-.3-.6-.7-.9-1l-.7-.7-1-1a4.62,4.62,0,0,1-.7-.7,9.43,9.43,0,0,1-1-1c-.2-.2-.5-.4-.7-.6-.4-.3-.7-.7-1.1-1a2.65,2.65,0,0,0-.6-.5,17.38,17.38,0,0,1-1.5-1.3c-.1-.1-.2-.2-.3-.2l-1.8-1.5a2.18,2.18,0,0,1-.5-.4l-1.3-1c-.2-.2-.5-.3-.7-.5a8.34,8.34,0,0,0-1.2-.8,3.51,3.51,0,0,0-.8-.5,10.47,10.47,0,0,1-1.1-.8,3.51,3.51,0,0,0-.8-.5c-.4-.2-.8-.5-1.2-.7s-.5-.3-.8-.5-.8-.5-1.2-.7l-.6-.3a8.14,8.14,0,0,0,3.4-2.4l.1-.1.1-.1a9.87,9.87,0,0,0,2.7-6.8V125.3a10,10,0,0,0-10-10h-8.4a34.68,34.68,0,0,0-67.6,0h-8.3a10,10,0,0,0-10,10v24.4a9.87,9.87,0,0,0,2.7,6.8l.1.1.1.1a9.16,9.16,0,0,0,3.5,2.4,91,91,0,0,0-40.4,107.1h0c0,.1,0,.1.1.2.3,1,.7,1.9,1,2.9.1.2.2.5.3.7.4,1,.8,1.9,1.2,2.9a.1.1,0,0,0,.1.1c.4.9.8,1.8,1.2,2.8l.3.6c.4.9.9,1.8,1.3,2.7.1.2.2.3.3.5.4.8.9,1.6,1.3,2.4.1.2.2.3.3.5.5.9,1,1.7,1.5,2.6.1.2.3.4.4.6.5.9,1.1,1.7,1.7,2.6l.1.1c.6.8,1.1,1.6,1.7,2.4.1.2.3.4.4.6l1.8,2.4c.1.2.3.3.4.5.6.7,1.1,1.4,1.7,2,.1.2.3.3.4.5.6.7,1.3,1.5,2,2.2a2.65,2.65,0,0,1,.5.6c.7.7,1.3,1.4,2,2.1l.2.2c.7.7,1.4,1.3,2,2a2.65,2.65,0,0,0,.6.5,20,20,0,0,0,2.2,1.9c.2.2.4.3.5.4.6.5,1.3,1.1,2,1.6a2.18,2.18,0,0,1,.5.4c.8.6,1.5,1.2,2.3,1.8.2.2.5.3.7.5.8.5,1.5,1.1,2.3,1.6.1.1.3.2.4.3.8.5,1.5,1,2.3,1.5.2.2.5.3.7.5.8.5,1.7,1,2.5,1.5a2.09,2.09,0,0,1,.6.4c.7.4,1.5.8,2.2,1.2a4.88,4.88,0,0,0,.7.3c.9.4,1.7.9,2.6,1.3a3,3,0,0,1,.8.4,27.18,27.18,0,0,0,2.5,1.1c.2.1.3.1.5.2a27.73,27.73,0,0,0,2.6,1c.3.1.5.2.8.3.9.3,1.8.7,2.8,1,.2.1.5.1.7.2.8.3,1.6.5,2.5.8.2.1.5.1.7.2,1,.3,1.9.5,2.9.8.3.1.5.1.8.2,1,.2,1.9.5,2.9.7a.37.37,0,0,1,.3.1c1,.2,2,.4,3,.5.3,0,.5.1.8.1a29.09,29.09,0,0,0,3.1.4,1.27,1.27,0,0,1,.6.1l2.8.3a1.27,1.27,0,0,1,.6.1c1.1.1,2.1.1,3.2.2h.7c1.1,0,2.2.1,3.3.1h.4a90.8,90.8,0,0,0,90.8-90.8A48.66,48.66,0,0,0,290.4,227.4ZM199.7,107.9a14.7,14.7,0,0,1,12.6,7.1H187A15,15,0,0,1,199.7,107.9Z"/><circle class="c" cx="200" cy="229.2" r="90.8"/><path class="d" d="M285.9,257.2h0a1.13,1.13,0,0,0-2,0L276,270.8a1.13,1.13,0,0,1-2,0l-21.6-37.4a1.13,1.13,0,0,0-2,0l-19.7,34.1a1.13,1.13,0,0,1-2,0l-4.3-7.5-22.8-39.6a1.13,1.13,0,0,0-2,0L176.8,260l-3.3,5.7a1.13,1.13,0,0,1-2,0l-8.6-14.9a1.13,1.13,0,0,0-2,0l-12.7,22a1.13,1.13,0,0,1-2,0L126.7,239a1.13,1.13,0,0,0-2,0L114,257a1.15,1.15,0,0,0-.1,1,90.76,90.76,0,0,0,172.1.2A.92.92,0,0,0,285.9,257.2Z"/><path class="e" d="M280.5,187.3a90.5,90.5,0,1,1-10.6-16"/><path class="f" d="M200.5,300.3a90.72,90.72,0,0,1-90.2-80.9,80,80,0,0,0-.5,9.9,90.8,90.8,0,1,0,181.6,0c0-3.3-.2-6.6-.5-9.9A91.06,91.06,0,0,1,200.5,300.3Z"/><path class="g" d="M242.1,107H157.8a10,10,0,0,0-10,10v24.4a10,10,0,0,0,10,10h84.3a10,10,0,0,0,10-10V117A10,10,0,0,0,242.1,107Z"/><path class="f" d="M243,135.7H157c-5,0-9.1-4.9-9.1-10.9v15.7c0,6,4.1,10.9,9.1,10.9h86c5,0,9.1-4.9,9.1-10.9V124.8C252.1,130.8,248,135.7,243,135.7Z"/><path class="h" d="M242.1,107H157.8a10,10,0,0,0-10,10v24.4a10,10,0,0,0,10,10h84.3a10,10,0,0,0,10-10V117A10,10,0,0,0,242.1,107Z"/><path class="i" d="M156.3,165.7s-16.3,5.5-24.5,31"/><path class="j" d="M187.3,107a14.92,14.92,0,0,1,12.6-7.1,14.7,14.7,0,0,1,12.6,7.1h21.2a34.68,34.68,0,0,0-67.6,0Z"/><path class="f" d="M212.6,99.4A14.92,14.92,0,0,0,200,92.3a14.7,14.7,0,0,0-12.6,7.1H168.9a32.69,32.69,0,0,0-2.7,7.6h21.2A14.92,14.92,0,0,1,200,99.9a14.7,14.7,0,0,1,12.6,7.1h21.2a34.41,34.41,0,0,0-2.7-7.6Z"/><path class="h" d="M187.3,107a14.92,14.92,0,0,1,12.6-7.1,14.7,14.7,0,0,1,12.6,7.1h21.2a34.68,34.68,0,0,0-67.6,0Z"/><circle class="k" cx="275.7" cy="178.9" r="1.7"/></svg>