<svg xmlns="http://www.w3.org/2000/svg" viewBox="0 0 400 400"><defs><style>.a{fill:#fcd2ac;}.b,.f{opacity:0.2;}.c,.f,.g{fill:#333;}.d{fill:#ff4d4d;}.e{fill:#fffdfd;}.f,.g{isolation:isolate;}.g{opacity:0.1;}.h{fill:none;stroke:#2d2d2d;stroke-linecap:round;stroke-miterlimit:10;stroke-width:10px;}</style></defs><circle class="a" cx="200" cy="200" r="200"/><g class="b"><circle class="c" cx="35" cy="123.7" r="31.6"/><circle class="c" cx="71.7" cy="123.7" r="31.6"/><circle class="c" cx="108.3" cy="123.7" r="31.6"/><circle class="c" cx="145" cy="123.7" r="31.6"/><circle class="c" cx="181.7" cy="123.7" r="31.6"/><circle class="c" cx="218.3" cy="123.7" r="31.6"/><circle class="c" cx="255" cy="123.7" r="31.6"/><circle class="c" cx="291.7" cy="123.7" r="31.6"/><circle class="c" cx="328.3" cy="123.7" r="31.6"/><circle class="c" cx="365" cy="123.7" r="31.6"/></g><path class="d" d="M20,112.7H380a200.09,200.09,0,0,0-360,0Z"/><path class="e" d="M15.7,277.9a200.14,200.14,0,0,0,368.6,0L197.5,252.5Z"/><ellipse class="c" cx="115" cy="186.7" rx="29" ry="35.8"/><ellipse class="c" cx="285" cy="186.7" rx="29" ry="35.8"/><ellipse class="f" cx="114.6" cy="262.69" rx="101" ry="32.6" transform="translate(-52.49 29.84) rotate(-12.09)"/><ellipse class="f" cx="284.97" cy="262.18" rx="32.6" ry="101" transform="translate(-31.1 485.9) rotate(-77.91)"/><ellipse class="e" cx="114.61" cy="256.79" rx="101" ry="32.6" transform="translate(-51.26 29.71) rotate(-12.09)"/><ellipse class="e" cx="285" cy="256.26" rx="32.6" ry="101" transform="translate(-25.29 481.25) rotate(-77.91)"/><path class="g" d="M121.6,274.2c-42.5,9.1-81.3,6-99.9-6.2a36,36,0,0,0-5.7,9.9c15.4,15.9,58.2,20.9,105.6,10.8s84.4-32.3,91.9-53.1a29.39,29.39,0,0,0-5.7-4.6C194.2,248.6,161.6,265.7,121.6,274.2Z"/><path class="g" d="M278.4,273.7c-40-8.6-72.5-25.6-86.3-43.2a29.39,29.39,0,0,0-5.7,4.6c7.5,20.8,44.5,42.9,91.9,53.1s90.2,5.2,105.6-10.8a36,36,0,0,0-5.7-9.9C359.6,279.8,320.9,282.8,278.4,273.7Z"/><circle class="d" cx="200" cy="242.1" r="14.2"/><path class="g" d="M200,251.7a14.2,14.2,0,0,1-14-11.9,16.41,16.41,0,0,0-.2,2.3,14.2,14.2,0,0,0,28.4,0,17.85,17.85,0,0,0-.2-2.3A14.2,14.2,0,0,1,200,251.7Z"/><circle class="e" cx="35" cy="116.9" r="31.6"/><circle class="e" cx="71.7" cy="116.9" r="31.6"/><circle class="e" cx="108.3" cy="116.9" r="31.6"/><circle class="e" cx="145" cy="116.9" r="31.6"/><circle class="e" cx="181.7" cy="116.9" r="31.6"/><circle class="e" cx="218.3" cy="116.9" r="31.6"/><circle class="e" cx="255" cy="116.9" r="31.6"/><circle class="e" cx="291.7" cy="116.9" r="31.6"/><circle class="e" cx="328.3" cy="116.9" r="31.6"/><circle class="e" cx="365" cy="116.9" r="31.6"/><path class="g" d="M365,138.7a31.23,31.23,0,0,1-18.3-5.9,31.33,31.33,0,0,1-36.6,0,31.33,31.33,0,0,1-36.6,0,31.33,31.33,0,0,1-36.6,0,31.33,31.33,0,0,1-36.6,0,31.33,31.33,0,0,1-36.6,0,31.33,31.33,0,0,1-36.6,0,31.33,31.33,0,0,1-36.6,0,31.33,31.33,0,0,1-36.6,0A31.5,31.5,0,0,1,4.5,112.5a32.87,32.87,0,0,0-.5,5.4,31.6,31.6,0,0,0,31.6,31.6,31.23,31.23,0,0,0,18.3-5.9,31.33,31.33,0,0,0,36.6,0,31.33,31.33,0,0,0,36.6,0,31.33,31.33,0,0,0,36.6,0,31.33,31.33,0,0,0,36.6,0,31.33,31.33,0,0,0,36.6,0,31.33,31.33,0,0,0,36.6,0,31.33,31.33,0,0,0,36.6,0,31.33,31.33,0,0,0,36.6,0,31.53,31.53,0,0,0,49.9-25.7,32.87,32.87,0,0,0-.5-5.4A31.59,31.59,0,0,1,365,138.7Z"/><path class="h" d="M170.2,303.7a35.51,35.51,0,0,0,59.6,0"/></svg>