<svg xmlns="http://www.w3.org/2000/svg" xmlns:xlink="http://www.w3.org/1999/xlink" viewBox="0 0 400 400"><defs><style>.a{fill:#abefac;}.b,.d,.e{fill:#333;isolation:isolate;}.b{opacity:0.2;}.c{fill:red;}.d{opacity:0.15;}.e{opacity:0.1;}.f,.h{fill:none;stroke:#333;stroke-miterlimit:10;stroke-width:3px;}.g{fill:#fff;}.h{stroke-linecap:round;}.i{fill:url(#a);}</style><linearGradient id="a" x1="268" y1="289.87" x2="271.89" y2="287.48" gradientTransform="matrix(1, 0, 0, -1, 0, 402)" gradientUnits="userSpaceOnUse"><stop offset="0" stop-color="#e34248"/><stop offset="1" stop-color="#9e55a0"/></linearGradient></defs><circle class="a" cx="200" cy="200" r="200"/><path class="b" d="M304.2,259.6v-.9c0-.5-.1-1.1-.1-1.6a1.7,1.7,0,0,0-.1-.7v-.5c-.1-.6-.1-1.1-.2-1.7v-.3c0-.2-.1-.5-.1-.7a.6.6,0,0,0-.1-.4,20.48,20.48,0,0,0-.5-2.4.37.37,0,0,0-.1-.3,49.45,49.45,0,0,0-1.5-5.5v-.1a55.16,55.16,0,0,0-31.2-33.1L257,204.1V169.4h1.7a11.93,11.93,0,0,0,11.9-11.9V119.2a11.93,11.93,0,0,0-11.9-11.9h-151a11.93,11.93,0,0,0-11.9,11.9v38.3a11.93,11.93,0,0,0,11.9,11.9h1.7v68.4a5.7,5.7,0,0,0,.1,1.3,5.28,5.28,0,0,1,.1,1.3,8.89,8.89,0,0,0,.7,3.6,10.83,10.83,0,0,0,3.6,4.9,8.34,8.34,0,0,0,1.2.8l99.4,54.2c6.3,3.7,12.7,7.4,19.6,9.9h0a50.09,50.09,0,0,0,6.9,2c.3.1.6.1.8.2.4.1.8.1,1.1.2s.8.1,1.1.2.7.1,1,.1a6.6,6.6,0,0,0,1.4.1,2.2,2.2,0,0,1,.8.1c.8,0,1.5.1,2.3.1a54.61,54.61,0,0,0,54.6-54.6A24.4,24.4,0,0,0,304.2,259.6Z"/><path class="c" d="M270.1,199.4l-13.3-7.3V152.6a9.56,9.56,0,0,0-9.5-9.5H119a9.56,9.56,0,0,0-9.5,9.5v73.3a5.7,5.7,0,0,0,.1,1.3,5.28,5.28,0,0,1,.1,1.3,10.52,10.52,0,0,0,5.5,9.3L214.6,292c10.7,6.2,21.7,12.8,35.1,12.8a54.69,54.69,0,0,0,20.4-105.4Z"/><path class="d" d="M232.4,287.4a58.19,58.19,0,0,0,1.8,14.5,46.86,46.86,0,0,0,15.5,2.9,54.66,54.66,0,0,0,49.6-77.5q-3.15-.3-6.3-.3A60.26,60.26,0,0,0,232.4,287.4Z"/><path class="d" d="M154.6,243.5a47.05,47.05,0,0,0-45.2-47v29.3a5.7,5.7,0,0,0,.1,1.3,5.28,5.28,0,0,1,.1,1.3,10.52,10.52,0,0,0,5.5,9.3L152.3,258A45.88,45.88,0,0,0,154.6,243.5Z"/><path class="e" d="M249.6,283.4c-13.4,0-24.4-6.6-35.1-12.8l-99.4-54.2a10.64,10.64,0,0,1-5.5-9.3,6.15,6.15,0,0,0-.1-1.3,5.7,5.7,0,0,1-.1-1.3v21.3a5.7,5.7,0,0,0,.1,1.3,5.28,5.28,0,0,1,.1,1.3,10.52,10.52,0,0,0,5.5,9.3l99.4,54.2c10.7,6.2,21.7,12.8,35.1,12.8a54.61,54.61,0,0,0,54.6-54.6,62.6,62.6,0,0,0-1-10.7A54.71,54.71,0,0,1,249.6,283.4Z"/><path class="f" d="M270.1,199.4l-13.3-7.3V152.6a9.56,9.56,0,0,0-9.5-9.5H119a9.56,9.56,0,0,0-9.5,9.5v73.3a5.7,5.7,0,0,0,.1,1.3,5.28,5.28,0,0,1,.1,1.3,10.52,10.52,0,0,0,5.5,9.3L214.6,292c10.7,6.2,21.7,12.8,35.1,12.8a54.69,54.69,0,0,0,20.4-105.4Z"/><path class="g" d="M258.5,157.4H107.7a11.93,11.93,0,0,1-11.9-11.9V107.2a11.93,11.93,0,0,1,11.9-11.9H258.5a11.93,11.93,0,0,1,11.9,11.9v38.3A11.93,11.93,0,0,1,258.5,157.4Z"/><path class="e" d="M258.8,143.9H108.1A11.93,11.93,0,0,1,96.2,132v13.5a11.93,11.93,0,0,0,11.9,11.9H258.9a11.93,11.93,0,0,0,11.9-11.9V132A12,12,0,0,1,258.8,143.9Z"/><path class="h" d="M269.9,103.8a12.13,12.13,0,0,0-11.4-8.6H107.7a11.93,11.93,0,0,0-11.9,11.9v38.3a11.93,11.93,0,0,0,11.9,11.9H258.5a11.93,11.93,0,0,0,11.9-11.9V123.2"/><circle class="i" cx="270.4" cy="113.6" r="1.7"/></svg>