<svg width="10" height="10" viewBox="0 0 10 10" fill="none" xmlns="http://www.w3.org/2000/svg">
<path d="M4.10801 1.1001C4.34003 1.1001 4.56684 1.16891 4.75975 1.29782C4.95266 1.42673 5.103 1.60996 5.19177 1.82433C5.28054 2.03869 5.30374 2.27457 5.25843 2.50212C5.21313 2.72968 5.10137 2.93868 4.93727 3.10271C4.77317 3.26674 4.56412 3.37842 4.33654 3.42362C4.10897 3.46882 3.8731 3.44552 3.65878 3.35666C3.44445 3.26781 3.26128 3.11738 3.13245 2.92442C3.00362 2.73145 2.93491 2.50462 2.93501 2.2726C2.93541 1.96167 3.05913 1.66359 3.27904 1.44378C3.49895 1.22396 3.79708 1.10036 4.10801 1.1001ZM4.10801 0.100098C3.67819 0.0999988 3.25799 0.227372 2.90057 0.466106C2.54314 0.70484 2.26455 1.04421 2.10002 1.4413C1.93548 1.83838 1.89241 2.27534 1.97624 2.69691C2.06007 3.11847 2.26704 3.50571 2.57097 3.80964C2.8749 4.11357 3.26213 4.32054 3.6837 4.40437C4.10527 4.4882 4.54223 4.44512 4.93931 4.28059C5.3364 4.11606 5.67577 3.83746 5.9145 3.48004C6.15324 3.12262 6.28061 2.70242 6.28051 2.2726C6.28051 1.69641 6.05162 1.14383 5.6442 0.736408C5.23678 0.328985 4.68419 0.100098 4.10801 0.100098Z" fill="#FAFAFA"/>
<path d="M9.46097 3.36378H8.83497V2.73828C8.83497 2.60567 8.78229 2.4785 8.68853 2.38473C8.59476 2.29096 8.46758 2.23828 8.33497 2.23828C8.20236 2.23828 8.07519 2.29096 7.98142 2.38473C7.88765 2.4785 7.83497 2.60567 7.83497 2.73828V3.36428H7.20947C7.07686 3.36428 6.94969 3.41696 6.85592 3.51073C6.76215 3.6045 6.70947 3.73167 6.70947 3.86428C6.70947 3.99689 6.76215 4.12407 6.85592 4.21783C6.94969 4.3116 7.07686 4.36428 7.20947 4.36428H7.83497V4.98828C7.83497 5.12089 7.88765 5.24807 7.98142 5.34183C8.07519 5.4356 8.20236 5.48828 8.33497 5.48828C8.46758 5.48828 8.59476 5.4356 8.68853 5.34183C8.78229 5.24807 8.83497 5.12089 8.83497 4.98828V4.36378H9.46097C9.59358 4.36378 9.72076 4.3111 9.81453 4.21733C9.90829 4.12357 9.96097 3.99639 9.96097 3.86378C9.96097 3.73117 9.90829 3.604 9.81453 3.51023C9.72076 3.41646 9.59358 3.36378 9.46097 3.36378Z" fill="#FAFAFA"/>
<path d="M4.6935 5.98828C5.3576 5.99157 5.99353 6.25698 6.46293 6.72676C6.93234 7.19654 7.19724 7.83268 7.2 8.49678V8.87678H1V8.49678C1.0025 7.83226 1.26759 7.19566 1.73749 6.72577C2.20738 6.25587 2.84397 5.99078 3.5085 5.98828H4.6935ZM4.6935 4.98828H3.5085C2.57884 4.99105 1.68805 5.36158 1.03068 6.01896C0.373304 6.67633 0.00276981 7.56712 0 8.49678V9.22128C0.000527527 9.39497 0.0697584 9.56139 0.192574 9.68421C0.31539 9.80702 0.481813 9.87625 0.6555 9.87678H7.5465C7.71984 9.87573 7.88575 9.80626 8.00813 9.6835C8.13052 9.56075 8.19948 9.39462 8.2 9.22128V8.49678C8.19723 7.56747 7.82697 6.67698 7.17003 6.01966C6.51309 5.36235 5.62281 4.99158 4.6935 4.98828Z" fill="#FAFAFA"/>
</svg>
