<svg width="12" height="12" viewBox="0 0 12 12" fill="none" xmlns="http://www.w3.org/2000/svg">
<path d="M6.01474 9.39106C5.90826 9.3911 5.80284 9.36989 5.70466 9.32868C5.60647 9.28747 5.5175 9.22708 5.44294 9.15106L0.408944 4.01326C0.260237 3.86153 0.177895 3.65694 0.180033 3.44449C0.182171 3.23205 0.268613 3.02916 0.420344 2.88046C0.572074 2.73175 0.776664 2.64941 0.989105 2.65154C1.20155 2.65368 1.40444 2.74012 1.55314 2.89186L6.01474 7.44586L10.4769 2.89186C10.55 2.81429 10.6378 2.75208 10.7352 2.70886C10.8326 2.66564 10.9376 2.64229 11.0441 2.64017C11.1507 2.63805 11.2565 2.65721 11.3556 2.69652C11.4546 2.73583 11.5448 2.7945 11.6209 2.8691C11.697 2.9437 11.7574 3.03273 11.7986 3.13097C11.8399 3.22921 11.8611 3.3347 11.8611 3.44125C11.861 3.5478 11.8397 3.65327 11.7984 3.75149C11.7571 3.84971 11.6967 3.9387 11.6205 4.01326L6.58654 9.15106C6.51199 9.22708 6.42302 9.28747 6.32483 9.32868C6.22665 9.36989 6.12123 9.3911 6.01474 9.39106V9.39106Z" fill="#FAFAFA"/>
</svg>
