<svg width="16" height="16" viewBox="0 0 16 16" fill="none" xmlns="http://www.w3.org/2000/svg">
<path d="M15.9994 8.1779C15.9994 7.52037 15.945 7.04006 15.827 6.54242H8.16339V9.51095H12.6616C12.5712 10.2487 12.081 11.3596 10.9927 12.1064L10.9776 12.2059L13.4007 14.0456L13.5684 14.0623C15.1102 12.6663 15.9994 10.6128 15.9994 8.1779Z" fill="#4285F4"/>
<path d="M8.16128 15.9989C10.3648 15.9989 12.2152 15.2881 13.5663 14.0617L10.9906 12.1064C10.3013 12.5777 9.37609 12.9065 8.16128 12.9065C6.00293 12.9065 4.17089 11.5111 3.51762 9.58221L3.42196 9.58992L0.902574 11.5009L0.869812 11.5908C2.21174 14.2036 4.96897 15.9989 8.16128 15.9989Z" fill="#34A853"/>
<path d="M3.51862 9.58222C3.34629 9.08458 3.24669 8.55097 3.24669 8.00003C3.24669 7.44909 3.34629 6.91549 3.50944 6.41784L3.50486 6.31189L0.954024 4.37076L0.870809 4.40993C0.317134 5.49383 0 6.71129 0 8.00003C0 9.28877 0.317134 10.5062 0.870809 11.5908L3.51862 9.58222Z" fill="#FBBC05"/>
<path d="M8.16128 3.09423C9.69387 3.09423 10.7278 3.74277 11.3175 4.28537L13.6214 2.08096C12.206 0.792223 10.3648 0.00112915 8.16128 0.00112915C4.96897 0.00112915 2.21174 1.7965 0.869812 4.4093L3.5091 6.41785C4.17089 4.48956 6.00293 3.09423 8.16128 3.09423Z" fill="#EB4335"/>
</svg>
