<svg width="16" height="16" viewBox="0 0 16 16" fill="none" xmlns="http://www.w3.org/2000/svg">
<path d="M0.880002 0.23999C0.667829 0.23999 0.464346 0.324276 0.314316 0.474305C0.164287 0.624334 0.0800018 0.827817 0.0800018 1.03999V14.9872C0.0800018 15.1994 0.164287 15.4028 0.314316 15.5529C0.464346 15.7029 0.667829 15.7872 0.880002 15.7872C1.09218 15.7872 1.29566 15.7029 1.44569 15.5529C1.59572 15.4028 1.68 15.1994 1.68 14.9872V1.03999C1.68 0.827817 1.59572 0.624334 1.44569 0.474305C1.29566 0.324276 1.09218 0.23999 0.880002 0.23999Z" fill="#FAFAFA"/>
<path d="M15.736 7.44802L10.5648 2.27682C10.4139 2.13109 10.2118 2.05045 10.0021 2.05228C9.79232 2.0541 9.59167 2.13823 9.44335 2.28656C9.29502 2.43489 9.21089 2.63554 9.20906 2.84529C9.20724 3.05505 9.28788 3.25713 9.4336 3.40802L13.2384 7.21362H3.7848C3.57263 7.21362 3.36915 7.2979 3.21912 7.44793C3.06909 7.59796 2.9848 7.80144 2.9848 8.01362C2.9848 8.22579 3.06909 8.42927 3.21912 8.5793C3.36915 8.72933 3.57263 8.81362 3.7848 8.81362H13.2384L9.4336 12.6192C9.35719 12.693 9.29625 12.7813 9.25432 12.8789C9.21239 12.9765 9.19033 13.0815 9.1894 13.1877C9.18848 13.2939 9.20872 13.3993 9.24895 13.4976C9.28917 13.5959 9.34857 13.6852 9.42369 13.7603C9.4988 13.8354 9.58812 13.8948 9.68644 13.9351C9.78476 13.9753 9.8901 13.9955 9.99632 13.9946C10.1025 13.9937 10.2075 13.9716 10.3051 13.9297C10.4027 13.8878 10.491 13.8268 10.5648 13.7504L15.736 8.57922C15.886 8.42919 15.9702 8.22575 15.9702 8.01362C15.9702 7.80148 15.886 7.59804 15.736 7.44802Z" fill="#FAFAFA"/>
</svg>
