<svg width="10" height="10" viewBox="0 0 10 10" fill="none" xmlns="http://www.w3.org/2000/svg">
<path d="M9.49 4.009C9.62261 4.009 9.74978 3.95632 9.84355 3.86255C9.93732 3.76878 9.99 3.64161 9.99 3.509V0.499999C9.99 0.36739 9.93732 0.240213 9.84355 0.146445C9.74978 0.052677 9.62261 -1.43051e-06 9.49 -1.43051e-06H1.25C1.11739 -1.43051e-06 0.990215 0.052677 0.896447 0.146445C0.802678 0.240213 0.75 0.36739 0.75 0.499999V2.2655H0.5C0.367392 2.2655 0.240215 2.31818 0.146447 2.41195C0.0526784 2.50571 0 2.63289 0 2.7655C0 2.89811 0.0526784 3.02528 0.146447 3.11905C0.240215 3.21282 0.367392 3.2655 0.5 3.2655H0.75V4.4905H0.5C0.367392 4.4905 0.240215 4.54318 0.146447 4.63694C0.0526784 4.73071 0 4.85789 0 4.9905C0 5.12311 0.0526784 5.25028 0.146447 5.34405C0.240215 5.43782 0.367392 5.4905 0.5 5.4905H0.75V6.7155H0.5C0.367392 6.7155 0.240215 6.76818 0.146447 6.86194C0.0526784 6.95571 0 7.08289 0 7.2155C0 7.34811 0.0526784 7.47528 0.146447 7.56905C0.240215 7.66282 0.367392 7.7155 0.5 7.7155H0.75V9.5C0.75 9.63261 0.802678 9.75978 0.896447 9.85355C0.990215 9.94732 1.11739 10 1.25 10H9.49C9.62261 10 9.74978 9.94732 9.84355 9.85355C9.93732 9.75978 9.99 9.63261 9.99 9.5V6.5275C9.99 6.39489 9.93732 6.26771 9.84355 6.17394C9.74978 6.08018 9.62261 6.0275 9.49 6.0275C9.35739 6.0275 9.23021 6.08018 9.13645 6.17394C9.04268 6.26771 8.99 6.39489 8.99 6.5275V9H1.75V7.7155H2C2.13261 7.7155 2.25979 7.66282 2.35355 7.56905C2.44732 7.47528 2.5 7.34811 2.5 7.2155C2.5 7.08289 2.44732 6.95571 2.35355 6.86194C2.25979 6.76818 2.13261 6.7155 2 6.7155H1.75V5.4905H2C2.13261 5.4905 2.25979 5.43782 2.35355 5.34405C2.44732 5.25028 2.5 5.12311 2.5 4.9905C2.5 4.85789 2.44732 4.73071 2.35355 4.63694C2.25979 4.54318 2.13261 4.4905 2 4.4905H1.75V3.2655H2C2.13261 3.2655 2.25979 3.21282 2.35355 3.11905C2.44732 3.02528 2.5 2.89811 2.5 2.7655C2.5 2.63289 2.44732 2.50571 2.35355 2.41195C2.25979 2.31818 2.13261 2.2655 2 2.2655H1.75V0.999999H8.99V3.509C8.99 3.64161 9.04268 3.76878 9.13645 3.86255C9.23021 3.95632 9.35739 4.009 9.49 4.009Z" fill="#FAFAFA"/>
</svg>
