<svg width="200" height="200" viewBox="0 0 200 200" fill="none" xmlns="http://www.w3.org/2000/svg">
<path d="M100.246 156.517C98.4711 156.518 96.7141 156.165 95.0777 155.478C93.4413 154.791 91.9584 153.784 90.7159 152.517L6.81585 66.8873C4.3374 64.3585 2.96505 60.9487 3.00068 57.408C3.03631 53.8673 4.47701 50.4858 7.00585 48.0073C9.53469 45.5289 12.9445 44.1565 16.4852 44.1922C20.0259 44.2278 23.4074 45.6685 25.8859 48.1973L100.246 124.097L174.616 48.1973C175.833 46.9046 177.297 45.8677 178.92 45.1474C180.543 44.4272 182.293 44.038 184.069 44.0026C185.844 43.9673 187.609 44.2866 189.26 44.9417C190.91 45.5969 192.413 46.5747 193.681 47.8181C194.949 49.0614 195.956 50.5452 196.644 52.1826C197.331 53.82 197.685 55.578 197.684 57.3539C197.684 59.1297 197.329 60.8876 196.641 62.5245C195.952 64.1615 194.945 65.6448 193.676 66.8873L109.776 152.517C108.533 153.784 107.05 154.791 105.414 155.478C103.778 156.165 102.021 156.518 100.246 156.517Z" fill="#FAFAFA"/>
</svg>
