<svg width="200" height="200" viewBox="0 0 200 200" fill="none" xmlns="http://www.w3.org/2000/svg">
<path fill-rule="evenodd" clip-rule="evenodd" d="M75.6999 144.4H63.7C58.7 144.4 54.7 140.4 54.7 135.4V123.4C54.7 118.4 58.7 114.4 63.7 114.4H75.6999C80.6999 114.4 84.6999 118.4 84.6999 123.4V135.4C84.6999 140.3 80.6999 144.4 75.6999 144.4Z" fill="#5A5A5A"/>
<path fill-rule="evenodd" clip-rule="evenodd" d="M135.7 144.4H123.7C118.7 144.4 114.7 140.4 114.7 135.4V123.4C114.7 118.4 118.7 114.4 123.7 114.4H135.7C140.7 114.4 144.7 118.4 144.7 123.4V135.4C144.7 140.3 140.7 144.4 135.7 144.4Z" fill="url(#paint0_linear)"/>
<path d="M149.7 20.1H149.6V9.9C149.6 4.5 145.2 0 139.7 0C134.2 0 129.8 4.4 129.8 9.9V20.2H69.6V9.9C69.6 4.5 65.2 0 59.7 0C54.2 0 49.8 4.4 49.8 9.9V20.2H49.7C27.8 20.1 10 38 10 59.9V159.9C10 181.8 27.8 199.6 49.7 199.6H149.7C171.6 199.6 189.4 181.8 189.4 159.9V59.9C189.4 38 171.6 20.1 149.7 20.1ZM49.7 39.9H49.8V42.4C49.8 47.8 54.2 52.3 59.7 52.3C65.2 52.3 69.6 47.9 69.6 42.4V39.9H129.9V42.4C129.9 47.8 134.3 52.3 139.8 52.3C145.3 52.3 149.7 47.9 149.7 42.4V39.9H149.8C160.8 39.9 169.8 48.9 169.8 59.9V67.5H29.8V59.9C29.7 48.8 38.7 39.9 49.7 39.9ZM149.7 179.9H49.7C38.7 179.9 29.7 170.9 29.7 159.9V87.2H169.7V159.8C169.7 170.9 160.7 179.9 149.7 179.9Z" fill="#5A5A5A"/>
<defs>
<linearGradient id="paint0_linear" x1="116.168" y1="118.354" x2="143.24" y2="140.35" gradientUnits="userSpaceOnUse">
<stop stop-color="#E34248"/>
<stop offset="1" stop-color="#9E55A0"/>
</linearGradient>
</defs>
</svg>
