<svg width="20" height="20" viewBox="0 0 20 20" fill="none" xmlns="http://www.w3.org/2000/svg">
    <path d="M18.974 1.99789C19.5257 1.99789 19.973 1.55064 19.973 0.998943C19.973 0.447242 19.5257 0 18.974 0C18.4223 0 17.9751 0.447242 17.9751 0.998943C17.9751 1.55064 18.4223 1.99789 18.974 1.99789Z" fill="#DCDCDC"/>
    <path d="M10.9823 1.99789C11.534 1.99789 11.9813 1.55064 11.9813 0.998943C11.9813 0.447242 11.534 0 10.9823 0C10.4306 0 9.9834 0.447242 9.9834 0.998943C9.9834 1.55064 10.4306 1.99789 10.9823 1.99789Z" fill="#DCDCDC"/>
    <path d="M18.9486 10.1143C19.5004 10.1143 19.9476 9.66704 19.9476 9.11534C19.9476 8.56364 19.5004 8.11639 18.9486 8.11639C18.3969 8.11639 17.9497 8.56364 17.9497 9.11534C17.9497 9.66704 18.3969 10.1143 18.9486 10.1143Z" fill="#DCDCDC"/>
    <path d="M10.506 9.49391C9.65695 8.64481 5.32953 4.4992 3.52743 6.2973C3.24369 6.58377 3.0834 6.96996 3.08091 7.37316L0.0341316 18.7421C-0.0113295 18.9115 -0.011378 19.0899 0.0339914 19.2594C0.0793609 19.4288 0.168548 19.5833 0.292583 19.7074C0.416619 19.8314 0.571128 19.9206 0.740572 19.966C0.910015 20.0113 1.08842 20.0113 1.25784 19.9658L12.6258 16.9201C13.0285 16.9168 13.4139 16.7562 13.6997 16.4725C14.3839 15.7873 14.289 14.6684 13.416 13.147C12.7697 12.0212 11.7367 10.7236 10.506 9.49391ZM7.51421 16.2208L3.77917 12.4857L4.32659 10.4409C5.03884 11.457 5.84124 12.4069 6.72405 13.2789C7.59608 14.1617 8.54593 14.9641 9.56205 15.6764L7.51421 16.2208ZM9.09354 10.9064C10.7568 12.5697 11.6748 14.0031 12.0075 14.7803C11.2293 14.4467 9.7968 13.5296 8.13356 11.8664C6.47032 10.2032 5.55329 8.76968 5.21964 7.9925C5.99882 8.32515 7.4303 9.24318 9.09354 10.9064ZM3.1818 14.7144L5.28857 16.8182L2.41161 17.5883L3.1818 14.7144Z" fill="#DCDCDC"/>
    <path d="M8.98458 6.96763C9.13479 6.96755 9.28302 6.9334 9.41812 6.86774C9.50702 6.82478 11.6158 5.78089 11.8815 3.48432C11.9091 3.22234 11.8322 2.96005 11.6673 2.75455C11.5025 2.54905 11.2632 2.41698 11.0015 2.38707C10.7397 2.35717 10.4768 2.43187 10.2699 2.5949C10.0629 2.75793 9.92879 2.9961 9.89661 3.25756C9.76076 4.43631 8.57801 5.05565 8.54305 5.07164C8.33906 5.17042 8.17473 5.33563 8.07705 5.54014C7.97936 5.74465 7.95412 5.9763 8.00547 6.19705C8.05683 6.4178 8.18172 6.61452 8.35964 6.75491C8.53756 6.89531 8.75794 6.97102 8.98458 6.96963V6.96763Z" fill="#DCDCDC"/>
    <path d="M16.4628 8.21531C14.1652 8.47804 13.1233 10.5888 13.0794 10.6787C13.0169 10.7974 12.9789 10.9274 12.9678 11.0611C12.9567 11.1947 12.9726 11.3292 13.0145 11.4566C13.0565 11.584 13.1236 11.7016 13.212 11.8024C13.3004 11.9033 13.4082 11.9853 13.529 12.0436C13.6498 12.1019 13.781 12.1353 13.915 12.1418C14.0489 12.1483 14.1828 12.1277 14.3087 12.0814C14.4345 12.035 14.5497 11.9638 14.6474 11.8719C14.7452 11.7801 14.8234 11.6695 14.8775 11.5468C14.8824 11.5348 15.4928 10.3371 16.6885 10.2002C16.8189 10.1853 16.945 10.1448 17.0597 10.0811C17.1743 10.0174 17.2754 9.93174 17.3569 9.82901C17.4385 9.72627 17.4991 9.60848 17.5351 9.48235C17.5712 9.35621 17.5821 9.22422 17.5671 9.09388C17.5521 8.96355 17.5117 8.83744 17.448 8.72276C17.3843 8.60807 17.2986 8.50705 17.1959 8.42547C17.0932 8.34389 16.9754 8.28334 16.8492 8.24728C16.7231 8.21122 16.5911 8.20036 16.4608 8.21531H16.4628Z" fill="#DCDCDC"/>
    <path d="M11.3369 8.69777C11.4297 8.79065 11.5399 8.86433 11.6611 8.9146C11.7824 8.96487 11.9124 8.99075 12.0437 8.99075C12.175 8.99075 12.3049 8.96487 12.4262 8.9146C12.5475 8.86433 12.6577 8.79065 12.7504 8.69777L17.5264 3.92083C17.7083 3.73242 17.809 3.48009 17.8067 3.21817C17.8045 2.95625 17.6994 2.7057 17.5142 2.52049C17.329 2.33528 17.0784 2.23022 16.8165 2.22794C16.5546 2.22567 16.3023 2.32635 16.1139 2.50832L11.3369 7.28427C11.244 7.37704 11.1704 7.48721 11.1201 7.60848C11.0698 7.72975 11.0439 7.85974 11.0439 7.99102C11.0439 8.12229 11.0698 8.25228 11.1201 8.37355C11.1704 8.49482 11.244 8.60499 11.3369 8.69777Z" fill="#DCDCDC"/>
</svg>
