<svg width="16" height="16" viewBox="0 0 16 16" fill="none" xmlns="http://www.w3.org/2000/svg">
<g clip-path="url(#clip0_1394_18524)">
<path d="M12.808 4.03518C13.2498 4.03518 13.608 3.67701 13.608 3.23518C13.608 2.79335 13.2498 2.43518 12.808 2.43518C12.3662 2.43518 12.008 2.79335 12.008 3.23518C12.008 3.67701 12.3662 4.03518 12.808 4.03518Z" fill="url(#paint0_linear_1394_18524)"/>
<path d="M6.62159 9.16485C6.40942 9.16485 6.20594 9.08057 6.05591 8.93054C5.90588 8.78051 5.82159 8.57703 5.82159 8.36485V4.03525C5.82152 3.89023 5.86087 3.74792 5.93544 3.62354C6.01 3.49915 6.11697 3.39738 6.24491 3.32909C6.37285 3.26081 6.51694 3.22859 6.66178 3.23587C6.80662 3.24316 6.94675 3.28968 7.06719 3.37045L10.292 5.53525C10.4011 5.6084 10.4904 5.70728 10.5522 5.82315C10.614 5.93902 10.6464 6.06833 10.6464 6.19965C10.6464 6.33098 10.614 6.46028 10.5522 6.57616C10.4904 6.69203 10.4011 6.7909 10.292 6.86405L7.06719 9.02885C6.93544 9.11739 6.78033 9.16473 6.62159 9.16485ZM7.42159 5.53525V6.86485L8.41039 6.20085L7.42159 5.53525Z" fill="#FAFAFA"/>
<path d="M12.804 0H3.1832C2.33895 0.000847752 1.52954 0.336712 0.932708 0.93384C0.33588 1.53097 0.000423503 2.34055 0 3.1848V9.2168C0.00105846 10.0607 0.33677 10.8698 0.933506 11.4665C1.53024 12.0632 2.33929 12.3989 3.1832 12.4H4.7568L3.5664 10.896C3.5421 10.8657 3.52017 10.8336 3.5008 10.8H3.1808C2.76132 10.7994 2.35925 10.6323 2.06286 10.3354C1.76647 10.0386 1.6 9.63627 1.6 9.2168V3.1848C1.59968 2.97673 1.64041 2.77063 1.71984 2.57832C1.79927 2.386 1.91585 2.21124 2.06291 2.06404C2.20996 1.91684 2.38461 1.80008 2.57684 1.72045C2.76908 1.64083 2.97513 1.59989 3.1832 1.6H12.804C13.0121 1.59989 13.2181 1.64083 13.4104 1.72045C13.6026 1.80008 13.7772 1.91684 13.9243 2.06404C14.0713 2.21124 14.1879 2.386 14.2674 2.57832C14.3468 2.77063 14.3875 2.97673 14.3872 3.1848V9.2168C14.3872 9.63669 14.2204 10.0394 13.9235 10.3363C13.6266 10.6332 13.2239 10.8 12.804 10.8H12.484C12.4646 10.8336 12.4427 10.8657 12.4184 10.896L11.228 12.4H12.8016C13.6455 12.3989 14.4546 12.0632 15.0513 11.4665C15.648 10.8698 15.9837 10.0607 15.9848 9.2168V3.1848C15.9844 2.34096 15.6493 1.53175 15.0529 0.934686C14.4566 0.337627 13.6478 0.00148292 12.804 0Z" fill="#FAFAFA"/>
<path d="M10.4568 10.8L9.18959 12.4L7.99359 13.9104L6.79759 12.4L5.53039 10.8H3.50079C3.52016 10.8337 3.54209 10.8658 3.56639 10.896L7.36639 15.696C7.44129 15.7906 7.53662 15.8671 7.64523 15.9196C7.75385 15.9721 7.87294 15.9994 7.99359 15.9994C8.11425 15.9994 8.23334 15.9721 8.34196 15.9196C8.45057 15.8671 8.5459 15.7906 8.62079 15.696L12.4208 10.896C12.4451 10.8658 12.467 10.8337 12.4864 10.8H10.4568Z" fill="#FAFAFA"/>
<path d="M7.99357 13.9104L6.79757 12.4H4.75677L7.36637 15.696C7.44127 15.7906 7.5366 15.867 7.64521 15.9196C7.75383 15.9721 7.87292 15.9994 7.99357 15.9994C8.11423 15.9994 8.23332 15.9721 8.34194 15.9196C8.45055 15.867 8.54588 15.7906 8.62077 15.696L11.2304 12.4H9.19357L7.99357 13.9104Z" fill="#FAFAFA"/>
</g>
<defs>
<linearGradient id="paint0_linear_1394_18524" x1="11.9024" y1="2.27518" x2="13.68" y2="4.15918" gradientUnits="userSpaceOnUse">
<stop stop-color="#E34248"/>
<stop offset="1" stop-color="#9E55A0"/>
</linearGradient>
<clipPath id="clip0_1394_18524">
<rect width="15.9872" height="16" fill="white"/>
</clipPath>
</defs>
</svg>
