<svg width="18" height="18" viewBox="0 0 18 18" fill="none" xmlns="http://www.w3.org/2000/svg">
<g clip-path="url(#clip0_1935_41409)">
<path d="M17.0758 1.79802C17.5723 1.79802 17.9748 1.39552 17.9748 0.899011C17.9748 0.402501 17.5723 0 17.0758 0C16.5793 0 16.1768 0.402501 16.1768 0.899011C16.1768 1.39552 16.5793 1.79802 17.0758 1.79802Z" fill="#FAFAFA"/>
<path d="M9.88363 1.79802C10.3801 1.79802 10.7826 1.39552 10.7826 0.899011C10.7826 0.402501 10.3801 0 9.88363 0C9.38712 0 8.98462 0.402501 8.98462 0.899011C8.98462 1.39552 9.38712 1.79802 9.88363 1.79802Z" fill="#FAFAFA"/>
<path d="M17.0533 9.10246C17.5498 9.10246 17.9523 8.69996 17.9523 8.20345C17.9523 7.70694 17.5498 7.30444 17.0533 7.30444C16.5568 7.30444 16.1543 7.70694 16.1543 8.20345C16.1543 8.69996 16.5568 9.10246 17.0533 9.10246Z" fill="#FAFAFA"/>
<path d="M9.45481 8.54423C8.69065 7.78007 4.79613 4.04917 3.17432 5.66739C2.91895 5.9252 2.7747 6.27276 2.77246 6.63563L0.0304731 16.8673C-0.0104403 17.0197 -0.010484 17.1803 0.0303468 17.3328C0.0711777 17.4853 0.151443 17.6243 0.26307 17.736C0.374697 17.8476 0.51375 17.9279 0.666243 17.9687C0.818735 18.0095 0.979291 18.0095 1.13176 17.9686L11.3625 15.2275C11.7249 15.2245 12.0717 15.08 12.3289 14.8247C12.9448 14.208 12.8594 13.2011 12.0736 11.8319C11.492 10.8187 10.5624 9.65091 9.45481 8.54423ZM6.76227 14.5982L3.40087 11.2368L3.89352 9.39649C4.53452 10.311 5.25665 11.1658 6.05115 11.9506C6.83595 12.7451 7.69077 13.4672 8.60524 14.1082L6.76227 14.5982ZM8.1836 9.81543C9.68046 11.3123 10.5066 12.6024 10.806 13.3018C10.1057 13.0015 8.81651 12.1762 7.31965 10.6794C5.8228 9.18253 4.99751 7.89244 4.69724 7.19301C5.39847 7.49238 6.68675 8.31858 8.1836 9.81543ZM2.86326 13.2425L4.75927 15.1358L2.17012 15.8289L2.86326 13.2425Z" fill="#FAFAFA"/>
<path d="M8.08569 6.2706C8.22087 6.27053 8.35428 6.23979 8.47586 6.1807C8.55587 6.14204 10.4537 5.20257 10.6928 3.13575C10.7177 2.89997 10.6484 2.66393 10.5001 2.47898C10.3517 2.29404 10.1364 2.17518 9.90081 2.14827C9.66526 2.12136 9.42862 2.18858 9.2424 2.3353C9.05617 2.48202 8.93544 2.69637 8.90649 2.93167C8.78422 3.9925 7.71979 4.54989 7.68833 4.56428C7.50475 4.65318 7.35686 4.80186 7.26895 4.98591C7.18103 5.16996 7.15832 5.37844 7.20453 5.5771C7.25075 5.77577 7.36315 5.95281 7.52327 6.07916C7.6834 6.20551 7.88173 6.27365 8.08569 6.2724V6.2706Z" fill="#FAFAFA"/>
<path d="M14.8157 7.39349C12.748 7.62993 11.8103 9.52955 11.7707 9.61046C11.7145 9.71725 11.6804 9.83428 11.6703 9.95455C11.6603 10.0748 11.6746 10.1959 11.7124 10.3105C11.7501 10.4252 11.8106 10.531 11.8901 10.6218C11.9697 10.7125 12.0667 10.7864 12.1754 10.8388C12.2841 10.8913 12.4022 10.9214 12.5228 10.9272C12.6433 10.933 12.7638 10.9145 12.8771 10.8728C12.9903 10.8311 13.094 10.767 13.1819 10.6843C13.2699 10.6017 13.3403 10.5021 13.389 10.3917C13.3934 10.3809 13.9427 9.303 15.0189 9.17983C15.1362 9.16637 15.2496 9.12994 15.3529 9.07262C15.4561 9.0153 15.547 8.93821 15.6204 8.84576C15.6938 8.7533 15.7483 8.64729 15.7808 8.53378C15.8132 8.42026 15.823 8.30147 15.8095 8.18418C15.7961 8.06688 15.7597 7.95339 15.7023 7.85018C15.645 7.74696 15.5679 7.65605 15.4755 7.58263C15.383 7.50921 15.277 7.45472 15.1635 7.42226C15.05 7.38981 14.9312 7.38004 14.8139 7.39349H14.8157Z" fill="#FAFAFA"/>
<path d="M10.2029 7.8277C10.2864 7.91129 10.3855 7.9776 10.4947 8.02284C10.6038 8.06808 10.7208 8.09137 10.8389 8.09137C10.9571 8.09137 11.0741 8.06808 11.1832 8.02284C11.2923 7.9776 11.3915 7.91129 11.475 7.8277L15.7732 3.52863C15.9369 3.35907 16.0275 3.13198 16.0255 2.89627C16.0234 2.66055 15.9289 2.43506 15.7622 2.26838C15.5955 2.1017 15.37 2.00715 15.1343 2.0051C14.8986 2.00305 14.6715 2.09367 14.5019 2.25743L10.2029 6.5556C10.1193 6.63909 10.053 6.73825 10.0077 6.84738C9.9625 6.95652 9.93921 7.07351 9.93921 7.19165C9.93921 7.30979 9.9625 7.42678 10.0077 7.53592C10.053 7.64506 10.1193 7.74421 10.2029 7.8277Z" fill="#FAFAFA"/>
</g>
<defs>
<clipPath id="clip0_1935_41409">
<rect width="17.9748" height="18" fill="white"/>
</clipPath>
</defs>
</svg>
