<svg id="Layer_1" data-name="Layer 1" xmlns="http://www.w3.org/2000/svg" viewBox="0 0 1348.01 600"><defs><style>.cls-1{fill:#ef3e3a;}.cls-2{fill:#fff;}</style></defs><polygon class="cls-1" points="1188.01 193.86 1188.01 113.86 1108.01 113.86 1028.01 113.86 948.01 113.86 948.01 193.86 1028.01 193.86 1028.01 413.86 1108.01 413.86 1108.01 193.86 1188.01 193.86"/><path class="cls-1" d="M1238,213.86a110,110,0,0,0-110,110v170h80V429.71a110,110,0,1,0,30-215.85Zm0,140a30,30,0,1,1,30-30A30,30,0,0,1,1238,353.86Z"/><polygon class="cls-1" points="190.23 467.44 189.9 466.59 189.9 116.76 133.27 116.76 133.27 323.37 56.96 116.76 56.96 116.76 0.34 116.76 0.34 140.14 0 140.27 0.34 141.12 0.34 490.95 56.96 490.95 56.96 284.34 133.27 490.95 133.27 490.95 189.9 490.95 189.9 467.57 190.23 467.44"/><path class="cls-1" d="M345.79,116.76H235.44V491h56.62V347.13h54c49.6-4.87,54-65.34,54-65.34V182C393.74,118.36,345.79,116.76,345.79,116.76Zm8.34,152.52s-.69,22.23-22.24,22.23H292.06V167.1h41.21s20.86.69,20.86,20.85Z"/><rect class="cls-2" x="583.99" y="279.96" width="160.04" height="40.02"/><rect class="cls-2" x="661.54" y="245.81" width="80" height="40.14" transform="translate(393.49 -418.19) rotate(45)"/><rect class="cls-2" x="657.4" y="304.04" width="108.29" height="40.14" transform="translate(1443.87 50.16) rotate(135)"/></svg>