<svg width="200" height="200" viewBox="0 0 200 200" fill="none" xmlns="http://www.w3.org/2000/svg">
<path fill-rule="evenodd" clip-rule="evenodd" d="M159.84 84.04H70.32V50.64C70.32 46.7476 71.0866 42.8934 72.5762 39.2973C74.0657 35.7012 76.249 32.4337 79.0013 29.6814C81.7536 26.929 85.0211 24.7458 88.6172 23.2562C92.2133 21.7667 96.0676 21 99.96 21C103.852 21 107.707 21.7667 111.303 23.2562C114.899 24.7458 118.166 26.929 120.919 29.6814C123.671 32.4337 125.854 35.7012 127.344 39.2973C128.833 42.8934 129.6 46.7476 129.6 50.64V59.04C129.6 61.6922 130.654 64.2357 132.529 66.1111C134.404 67.9864 136.948 69.04 139.6 69.04C142.252 69.04 144.796 67.9864 146.671 66.1111C148.546 64.2357 149.6 61.6922 149.6 59.04V50.64C149.6 37.4747 144.37 24.8485 135.061 15.5392C125.751 6.22992 113.125 1 99.96 1C86.7946 1 74.1685 6.22992 64.8592 15.5392C55.5499 24.8485 50.32 37.4747 50.32 50.64V84.04H40.08C32.6273 84.04 25.4794 86.9985 20.2067 92.2656C14.9341 97.5326 11.9679 104.677 11.96 112.13V171.66C11.9679 179.112 14.9344 186.255 20.2073 191.521C25.4803 196.786 32.6282 199.743 40.08 199.74H159.84C167.292 199.743 174.44 196.786 179.713 191.521C184.986 186.255 187.952 179.112 187.96 171.66V112.13C187.952 104.677 184.986 97.5326 179.713 92.2656C174.441 86.9985 167.293 84.04 159.84 84.04V84.04ZM167.96 171.66C167.96 173.803 167.109 175.858 165.593 177.373C164.078 178.889 162.023 179.74 159.88 179.74H40.08C39.0155 179.745 37.9605 179.54 36.9756 179.136C35.9907 178.733 35.0952 178.138 34.3407 177.388C33.5861 176.637 32.9874 175.744 32.5788 174.761C32.1703 173.778 31.9599 172.724 31.96 171.66V112.13C31.9586 111.065 32.168 110.01 32.5759 109.026C32.9839 108.041 33.5824 107.148 34.3371 106.396C35.0918 105.644 35.9877 105.049 36.9733 104.644C37.9589 104.24 39.0147 104.035 40.08 104.04H159.84C161.983 104.04 164.038 104.891 165.553 106.407C167.069 107.922 167.92 109.977 167.92 112.12L167.96 171.66Z" fill="url(#paint0_linear_774_12)"/>
<path fill-rule="evenodd" clip-rule="evenodd" d="M99.96 126.9C97.3078 126.9 94.7642 127.954 92.8889 129.829C91.0135 131.704 89.96 134.248 89.96 136.9V146.9C89.96 149.552 91.0135 152.096 92.8889 153.971C94.7642 155.846 97.3078 156.9 99.96 156.9C102.612 156.9 105.156 155.846 107.031 153.971C108.906 152.096 109.96 149.552 109.96 146.9V136.9C109.96 134.248 108.906 131.704 107.031 129.829C105.156 127.954 102.612 126.9 99.96 126.9Z" fill="url(#paint1_linear_774_12)"/>
<defs>
<linearGradient id="paint0_linear_774_12" x1="12" y1="0.999999" x2="188" y2="200" gradientUnits="userSpaceOnUse">
<stop stop-color="#E34248"/>
<stop offset="1" stop-color="#9E55A0"/>
</linearGradient>
<linearGradient id="paint1_linear_774_12" x1="90" y1="127" x2="106.5" y2="157" gradientUnits="userSpaceOnUse">
<stop stop-color="#E34248"/>
<stop offset="1" stop-color="#9E55A0"/>
</linearGradient>
</defs>
</svg>
