<?xml version="1.0" encoding="utf-8"?>
<!-- Generator: Adobe Illustrator 15.0.0, SVG Export Plug-In . SVG Version: 6.00 Build 0)  -->
<!DOCTYPE svg PUBLIC "-//W3C//DTD SVG 1.1//EN" "http://www.w3.org/Graphics/SVG/1.1/DTD/svg11.dtd" [
	<!ENTITY ns_flows "http://ns.adobe.com/Flows/1.0/">
	<!ENTITY ns_extend "http://ns.adobe.com/Extensibility/1.0/">
	<!ENTITY ns_ai "http://ns.adobe.com/AdobeIllustrator/10.0/">
	<!ENTITY ns_graphs "http://ns.adobe.com/Graphs/1.0/">
]>
<svg version="1.1" id="Layer_1" xmlns:x="&ns_extend;" xmlns:i="&ns_ai;" xmlns:graph="&ns_graphs;"
	 xmlns="http://www.w3.org/2000/svg" xmlns:xlink="http://www.w3.org/1999/xlink" xmlns:a="http://ns.adobe.com/AdobeSVGViewerExtensions/3.0/"
	 x="0px" y="0px" width="64px" height="64px" viewBox="0 0 64 64" enable-background="new 0 0 64 64" xml:space="preserve">
<linearGradient id="SVGID_1_" gradientUnits="userSpaceOnUse" x1="427.791" y1="61" x2="427.791" y2="3.0005" gradientTransform="matrix(-1 0 0 1 458.7813 0)">
	<stop  offset="0" style="stop-color:#FF7B00"/>
	<stop  offset="0.3236" style="stop-color:#FFAE00"/>
	<stop  offset="0.6205" style="stop-color:#FFD600"/>
	<stop  offset="0.8558" style="stop-color:#FFEE00"/>
	<stop  offset="1" style="stop-color:#FFF700"/>
	<a:midPointStop  offset="0" style="stop-color:#FF7B00"/>
	<a:midPointStop  offset="0.4" style="stop-color:#FF7B00"/>
	<a:midPointStop  offset="1" style="stop-color:#FFF700"/>
</linearGradient>
<ellipse fill="url(#SVGID_1_)" cx="30.99" cy="32" rx="28.989" ry="29"/>
<linearGradient id="SVGID_2_" gradientUnits="userSpaceOnUse" x1="47.8594" y1="40.373" x2="45.8422" y2="46.8781">
	<stop  offset="0" style="stop-color:#C48324;stop-opacity:0.8"/>
	<stop  offset="0.8606" style="stop-color:#C48324;stop-opacity:0"/>
	<a:midPointStop  offset="0" style="stop-color:#C48324;stop-opacity:0.8"/>
	<a:midPointStop  offset="0.4303" style="stop-color:#C48324;stop-opacity:0.8"/>
	<a:midPointStop  offset="0.8606" style="stop-color:#C48324;stop-opacity:0"/>
</linearGradient>
<path fill="url(#SVGID_2_)" d="M36.694,41.106c7.313,1.413,15.148,6.751,15.619,10.537c5.094-5.538,6.711-12.056,6.711-12.056
	S50.099,42.491,36.694,41.106z"/>
<linearGradient id="SVGID_3_" gradientUnits="userSpaceOnUse" x1="46.9209" y1="26.2695" x2="49.3431" y2="36.7493">
	<stop  offset="0.3394" style="stop-color:#C48324;stop-opacity:0"/>
	<stop  offset="1" style="stop-color:#C48324;stop-opacity:0.39"/>
	<a:midPointStop  offset="0.3394" style="stop-color:#C48324;stop-opacity:0"/>
	<a:midPointStop  offset="0.5697" style="stop-color:#C48324;stop-opacity:0"/>
	<a:midPointStop  offset="1" style="stop-color:#C48324;stop-opacity:0.39"/>
</linearGradient>
<path fill="url(#SVGID_3_)" d="M36.005,33.131c8.563,2.465,18.666,2.31,23.846,1.624c0.656-5.572-1.04-10.934-1.04-10.934
	S47.943,28.239,36.005,33.131z"/>
<linearGradient id="SVGID_4_" gradientUnits="userSpaceOnUse" x1="33.1973" y1="38.4043" x2="62.1591" y2="38.4043" gradientTransform="matrix(1.0837 0.007 0.007 1.0006 -4.1364 -0.355)">
	<stop  offset="0" style="stop-color:#FFBA0C;stop-opacity:0"/>
	<stop  offset="0.1455" style="stop-color:#FFBA0C"/>
	<stop  offset="1" style="stop-color:#FFCD4F"/>
	<a:midPointStop  offset="0" style="stop-color:#FFBA0C;stop-opacity:0"/>
	<a:midPointStop  offset="0.5" style="stop-color:#FFBA0C;stop-opacity:0"/>
	<a:midPointStop  offset="0.1455" style="stop-color:#FFBA0C"/>
	<a:midPointStop  offset="0.5" style="stop-color:#FFBA0C"/>
	<a:midPointStop  offset="1" style="stop-color:#FFCD4F"/>
</linearGradient>
<path fill="url(#SVGID_4_)" d="M32.29,40.409c8.391,1.307,16.493,2.709,24.864,3.411c8.537,0.716,9.393-9.498,0.855-10.213
	c-7.867-0.659-19.264-0.535-25.092-0.681C27.797,32.8,27.07,39.595,32.29,40.409z"/>
<linearGradient id="SVGID_5_" gradientUnits="userSpaceOnUse" x1="45.9014" y1="33.5" x2="47.1516" y2="45.2035">
	<stop  offset="0.2303" style="stop-color:#FFBA0C;stop-opacity:0"/>
	<stop  offset="0.6093" style="stop-color:#E69806;stop-opacity:0.4924"/>
	<stop  offset="1" style="stop-color:#CF7800"/>
	<a:midPointStop  offset="0.2303" style="stop-color:#FFBA0C;stop-opacity:0"/>
	<a:midPointStop  offset="0.4706" style="stop-color:#FFBA0C;stop-opacity:0"/>
	<a:midPointStop  offset="1" style="stop-color:#CF7800"/>
</linearGradient>
<path fill="url(#SVGID_5_)" d="M32.29,40.409c8.391,1.307,16.493,2.709,24.864,3.411c8.537,0.716,9.393-9.498,0.855-10.213
	c-7.867-0.659-19.264-0.535-25.092-0.681C27.797,32.8,27.07,39.595,32.29,40.409z"/>
<ellipse fill="#1A1626" cx="24.334" cy="27.232" rx="3.867" ry="4.833"/>
<ellipse fill="#1A1626" cx="43.667" cy="27.232" rx="3.867" ry="4.833"/>
<path fill="#1A1626" d="M40.712,48.363c-1.689-3.521-11.732-3.521-13.421,0c-1.346,2.807,2.181,1.363,6.712,1.363
	C38.524,49.727,42.058,51.17,40.712,48.363z"/>
<linearGradient id="SVGID_6_" gradientUnits="userSpaceOnUse" x1="48.8359" y1="28.6514" x2="45.4484" y2="41.1734">
	<stop  offset="0.097" style="stop-color:#FFFAD1"/>
	<stop  offset="0.1258" style="stop-color:#FFF9C8;stop-opacity:0.9662"/>
	<stop  offset="0.3434" style="stop-color:#FFF38B;stop-opacity:0.7116"/>
	<stop  offset="0.5425" style="stop-color:#FFEE5A;stop-opacity:0.4786"/>
	<stop  offset="0.7165" style="stop-color:#FFEB37;stop-opacity:0.275"/>
	<stop  offset="0.8588" style="stop-color:#FFE922;stop-opacity:0.1086"/>
	<stop  offset="0.9515" style="stop-color:#FFE81A;stop-opacity:0"/>
	<a:midPointStop  offset="0.097" style="stop-color:#FFFAD1"/>
	<a:midPointStop  offset="0.3857" style="stop-color:#FFFAD1"/>
	<a:midPointStop  offset="0.9515" style="stop-color:#FFE81A;stop-opacity:0"/>
</linearGradient>
<path fill="url(#SVGID_6_)" d="M32.29,40.409c8.391,1.307,16.493,2.709,24.864,3.411c8.537,0.716,9.393-9.498,0.855-10.213
	c-7.867-0.659-19.264-0.535-25.092-0.681C27.797,32.8,27.07,39.595,32.29,40.409z"/>
<path fill="#D69600" d="M18.872,13.346c-9.245,6.62-2.92,7.324,5.574,2.686C29.238,13.416,24.958,8.986,18.872,13.346z"/>
<path fill="#D69600" d="M47.208,15.552c-7.012-2.621-9.988,2.772-4.679,4.046C51.942,21.861,57.864,19.53,47.208,15.552z"/>
</svg>
