<?xml version="1.0" encoding="utf-8"?>
<!-- Generator: Adobe Illustrator 15.0.0, SVG Export Plug-In . SVG Version: 6.00 Build 0)  -->
<!DOCTYPE svg PUBLIC "-//W3C//DTD SVG 1.1//EN" "http://www.w3.org/Graphics/SVG/1.1/DTD/svg11.dtd" [
	<!ENTITY ns_flows "http://ns.adobe.com/Flows/1.0/">
	<!ENTITY ns_extend "http://ns.adobe.com/Extensibility/1.0/">
	<!ENTITY ns_ai "http://ns.adobe.com/AdobeIllustrator/10.0/">
	<!ENTITY ns_graphs "http://ns.adobe.com/Graphs/1.0/">
]>
<svg version="1.1" id="Layer_1" xmlns:x="&ns_extend;" xmlns:i="&ns_ai;" xmlns:graph="&ns_graphs;"
	 xmlns="http://www.w3.org/2000/svg" xmlns:xlink="http://www.w3.org/1999/xlink" xmlns:a="http://ns.adobe.com/AdobeSVGViewerExtensions/3.0/"
	 x="0px" y="0px" width="64px" height="64px" viewBox="0 0 64 64" enable-background="new 0 0 64 64" xml:space="preserve">
<linearGradient id="SVGID_1_" gradientUnits="userSpaceOnUse" x1="32.144" y1="49.0146" x2="32.144" y2="-10.9868" gradientTransform="matrix(1 0 0 1 -0.1445 12.9863)">
	<stop  offset="0" style="stop-color:#FF7B00"/>
	<stop  offset="0.3236" style="stop-color:#FFAE00"/>
	<stop  offset="0.6205" style="stop-color:#FFD600"/>
	<stop  offset="0.8558" style="stop-color:#FFEE00"/>
	<stop  offset="1" style="stop-color:#FFF700"/>
	<a:midPointStop  offset="0" style="stop-color:#FF7B00"/>
	<a:midPointStop  offset="0.4" style="stop-color:#FF7B00"/>
	<a:midPointStop  offset="1" style="stop-color:#FFF700"/>
</linearGradient>
<path fill="url(#SVGID_1_)" d="M32,1.999c16.568,0.002,30,13.432,30,30.004c0,16.564-13.432,29.998-30,29.998
	c-16.567,0-29.999-13.432-30-30C2.001,15.433,15.432,2.001,32,1.999z"/>
<path fill="#FFFFFF" d="M28.001,25.421c-0.001,4.695-3.811,8.502-8.5,8.5c-4.693,0.002-8.501-3.805-8.5-8.5
	c0-4.691,3.807-8.498,8.5-8.5C24.19,16.921,28.001,20.729,28.001,25.421z"/>
<path fill="#FFFFFF" d="M51,20.001c0,5.523-4.48,9.998-10,10c-5.523-0.002-10-4.477-10-10.002c0-5.518,4.477-9.998,10-10
	C46.52,9.999,51,14.479,51,20.001z"/>
<path fill="#1A1626" d="M25.501,26.001c-0.001,1.934-1.571,3.5-3.502,3.498c-1.934,0.002-3.5-1.564-3.498-3.5
	c0-1.932,1.563-3.498,3.5-3.498C23.931,22.501,25.501,24.067,25.501,26.001z"/>
<path fill="#1A1626" d="M42.5,18.999c0,2.488-2.018,4.5-4.5,4.502c-2.488-0.002-4.5-2.014-4.5-4.502c0-2.484,2.012-4.498,4.5-4.5
	C40.482,14.501,42.5,16.515,42.5,18.999z"/>
<path fill="#1A1626" d="M47.764,33.614c-3.703-0.037-8.869,0.217-15.24,1.34c-6.372,1.123-11.316,2.652-14.783,3.955
	c-1.751,0.658-2.473,2.33-2.119,3.832c1.787,7.559,8.776,12.938,20.201,10.924c11.424-2.014,16.148-9.459,15.242-17.174
	C50.883,34.958,49.633,33.634,47.764,33.614z"/>
<linearGradient id="SVGID_2_" gradientUnits="userSpaceOnUse" x1="32.5405" y1="-1.5376" x2="64.5176" y2="-1.5376" gradientTransform="matrix(0.9848 -0.1736 0.1736 0.9848 -14.2221 49.3224)">
	<stop  offset="0" style="stop-color:#CFD7E6"/>
	<stop  offset="0.0368" style="stop-color:#DAE0EC"/>
	<stop  offset="0.1263" style="stop-color:#EEF1F6"/>
	<stop  offset="0.2147" style="stop-color:#FBFCFD"/>
	<stop  offset="0.3" style="stop-color:#FFFFFF"/>
	<stop  offset="0.7" style="stop-color:#FFFFFF"/>
	<stop  offset="0.7853" style="stop-color:#FBFCFD"/>
	<stop  offset="0.8737" style="stop-color:#EEF1F6"/>
	<stop  offset="0.9632" style="stop-color:#DAE0EC"/>
	<stop  offset="1" style="stop-color:#CFD7E6"/>
	<a:midPointStop  offset="0" style="stop-color:#CFD7E6"/>
	<a:midPointStop  offset="0.3" style="stop-color:#CFD7E6"/>
	<a:midPointStop  offset="0.3" style="stop-color:#FFFFFF"/>
	<a:midPointStop  offset="0.5" style="stop-color:#FFFFFF"/>
	<a:midPointStop  offset="0.7" style="stop-color:#FFFFFF"/>
	<a:midPointStop  offset="0.7" style="stop-color:#FFFFFF"/>
	<a:midPointStop  offset="1" style="stop-color:#CFD7E6"/>
</linearGradient>
<path fill="url(#SVGID_2_)" d="M47.369,35.628c-2.551-0.006-7.912,0.135-14.5,1.295c-6.588,1.162-11.676,2.865-14.069,3.742
	c-1.495,0.553-1.408,1.23-0.977,2.484c0.38,1.098,0.555,1.377,1.754,1.184c1.101-0.178,14.157-2.496,14.157-2.496
	s13.063-2.287,14.156-2.496c1.197-0.229,1.264-0.553,1.244-1.711C49.113,36.302,48.963,35.636,47.369,35.628z"/>
<linearGradient id="SVGID_3_" gradientUnits="userSpaceOnUse" x1="277.6465" y1="-202.8369" x2="277.6465" y2="-184.064" gradientTransform="matrix(0.9852 -0.4431 0.4102 0.912 -151.4305 354.1015)">
	<stop  offset="0" style="stop-color:#690900"/>
	<stop  offset="0.0186" style="stop-color:#76120B"/>
	<stop  offset="0.0782" style="stop-color:#9A2C2B"/>
	<stop  offset="0.1433" style="stop-color:#B94247"/>
	<stop  offset="0.2141" style="stop-color:#D2545D"/>
	<stop  offset="0.2928" style="stop-color:#E5626E"/>
	<stop  offset="0.3837" style="stop-color:#F36C7A"/>
	<stop  offset="0.4978" style="stop-color:#FB7181"/>
	<stop  offset="0.7091" style="stop-color:#FD7383"/>
	<a:midPointStop  offset="0" style="stop-color:#690900"/>
	<a:midPointStop  offset="0.1833" style="stop-color:#690900"/>
	<a:midPointStop  offset="0.7091" style="stop-color:#FD7383"/>
</linearGradient>
<path fill="url(#SVGID_3_)" d="M31.98,52.241c0.301,0.662,1.646,3.592,2.184,4.785c2.936,6.525,8.01,8.174,12.453,6.178
	c4.441-2,6.572-6.895,3.639-13.416c-0.539-1.197-1.883-4.123-2.186-4.787c-1.754-3.898-8.998,1.5-8.998,1.5
	S30.226,48.343,31.98,52.241z"/>
<linearGradient id="SVGID_4_" gradientUnits="userSpaceOnUse" x1="39.7891" y1="46.3496" x2="44.9476" y2="57.8172" gradientTransform="matrix(1 0 0 1 -0.7134 0.1572)">
	<stop  offset="0" style="stop-color:#420600;stop-opacity:0.18"/>
	<stop  offset="0.1185" style="stop-color:#5F0800;stop-opacity:0.1658"/>
	<stop  offset="0.2926" style="stop-color:#820B00;stop-opacity:0.1449"/>
	<stop  offset="0.4686" style="stop-color:#9E0D00;stop-opacity:0.1238"/>
	<stop  offset="0.6448" style="stop-color:#B20F00;stop-opacity:0.1026"/>
	<stop  offset="0.8217" style="stop-color:#BE1000;stop-opacity:0.0814"/>
	<stop  offset="1" style="stop-color:#C21000;stop-opacity:0.06"/>
	<a:midPointStop  offset="0" style="stop-color:#420600;stop-opacity:0.18"/>
	<a:midPointStop  offset="0.2909" style="stop-color:#420600;stop-opacity:0.18"/>
	<a:midPointStop  offset="1" style="stop-color:#C21000;stop-opacity:0.06"/>
</linearGradient>
<path fill="url(#SVGID_4_)" d="M37.84,46.813l6.363,11.021l-4.08-12.049c-0.645,0.41-1.051,0.715-1.051,0.715
	S38.572,46.604,37.84,46.813z"/>
</svg>
