<?xml version="1.0" encoding="utf-8"?>
<!-- Generator: Adobe Illustrator 15.0.0, SVG Export Plug-In . SVG Version: 6.00 Build 0)  -->
<!DOCTYPE svg PUBLIC "-//W3C//DTD SVG 1.1//EN" "http://www.w3.org/Graphics/SVG/1.1/DTD/svg11.dtd" [
	<!ENTITY ns_flows "http://ns.adobe.com/Flows/1.0/">
	<!ENTITY ns_extend "http://ns.adobe.com/Extensibility/1.0/">
	<!ENTITY ns_ai "http://ns.adobe.com/AdobeIllustrator/10.0/">
	<!ENTITY ns_graphs "http://ns.adobe.com/Graphs/1.0/">
]>
<svg version="1.1" id="Layer_1" xmlns:x="&ns_extend;" xmlns:i="&ns_ai;" xmlns:graph="&ns_graphs;"
	 xmlns="http://www.w3.org/2000/svg" xmlns:xlink="http://www.w3.org/1999/xlink" xmlns:a="http://ns.adobe.com/AdobeSVGViewerExtensions/3.0/"
	 x="0px" y="0px" width="64px" height="64px" viewBox="0 0 64 64" enable-background="new 0 0 64 64" xml:space="preserve">
<linearGradient id="SVGID_1_" gradientUnits="userSpaceOnUse" x1="32" y1="62" x2="32" y2="2.0005">
	<stop  offset="0" style="stop-color:#FF7B00"/>
	<stop  offset="0.3236" style="stop-color:#FFAE00"/>
	<stop  offset="0.6205" style="stop-color:#FFD600"/>
	<stop  offset="0.8558" style="stop-color:#FFEE00"/>
	<stop  offset="1" style="stop-color:#FFF700"/>
	<a:midPointStop  offset="0" style="stop-color:#FF7B00"/>
	<a:midPointStop  offset="0.4" style="stop-color:#FF7B00"/>
	<a:midPointStop  offset="1" style="stop-color:#FFF700"/>
</linearGradient>
<circle fill="url(#SVGID_1_)" cx="32" cy="32" r="30"/>
<linearGradient id="SVGID_2_" gradientUnits="userSpaceOnUse" x1="32.0005" y1="38.498" x2="32.0005" y2="18.1416">
	<stop  offset="0" style="stop-color:#1A1626"/>
	<stop  offset="0.4251" style="stop-color:#1F1B2B"/>
	<stop  offset="0.9255" style="stop-color:#2D2938"/>
	<stop  offset="1" style="stop-color:#302C3B"/>
	<a:midPointStop  offset="0" style="stop-color:#1A1626"/>
	<a:midPointStop  offset="0.6727" style="stop-color:#1A1626"/>
	<a:midPointStop  offset="1" style="stop-color:#302C3B"/>
</linearGradient>
<path fill="url(#SVGID_2_)" d="M36.124,20.813c-2.357,1.205-5.893,1.205-8.249,0c-2.518-1.321-5.592-2.169-9.275-2.498
	c-3.593-0.323-11.215-0.312-15.027,1.062c-0.438,0.156-0.866,0.359-1.283,0.577c-0.234,0.122-0.282,0.212-0.282,0.66v0.578
	c0,1.089-0.133,0.666,0.627,1.119c1.48,0.887,2.321,3.188,2.771,6.358c0.642,4.62,2.855,7.514,6.453,8.897
	c3.338,1.28,7.071,1.236,10.384-0.115c1.811-0.741,3.4-1.911,4.665-3.812c2.217-3.332,1.553-5.411,2.695-8.273
	c0.996-2.498,3.795-2.498,4.793,0c1.145,2.862,0.48,4.941,2.695,8.273c1.26,1.9,2.854,3.07,4.665,3.812
	c3.311,1.352,7.044,1.396,10.382,0.115c3.596-1.384,5.813-4.277,6.453-8.897c0.45-3.17,1.291-5.472,2.771-6.358
	c0.76-0.453,0.627-0.03,0.627-1.119v-0.578c0-0.448-0.048-0.538-0.281-0.66c-0.415-0.218-0.848-0.421-1.283-0.577
	c-3.813-1.373-11.433-1.386-15.025-1.062C41.716,18.645,38.64,19.492,36.124,20.813"/>
<linearGradient id="SVGID_3_" gradientUnits="userSpaceOnUse" x1="46.7939" y1="35.8877" x2="46.7939" y2="20.5928">
	<stop  offset="0" style="stop-color:#708694"/>
	<stop  offset="1" style="stop-color:#C2DFF0"/>
	<a:midPointStop  offset="0" style="stop-color:#708694"/>
	<a:midPointStop  offset="0.5" style="stop-color:#708694"/>
	<a:midPointStop  offset="1" style="stop-color:#C2DFF0"/>
</linearGradient>
<path opacity="0.3" fill="url(#SVGID_3_)" d="M37.698,22.843c-1.434,1.272-0.132,10.479,4.22,12.183
	c2.716,1.063,8.052,1.705,11.743-1.547c3.021-2.662,3.672-10.725,1.525-11.979C52.827,20.122,40.764,20.122,37.698,22.843z"/>
<linearGradient id="SVGID_4_" gradientUnits="userSpaceOnUse" x1="17.394" y1="35.8916" x2="17.394" y2="20.5957">
	<stop  offset="0" style="stop-color:#708694"/>
	<stop  offset="1" style="stop-color:#C2DFF0"/>
	<a:midPointStop  offset="0" style="stop-color:#708694"/>
	<a:midPointStop  offset="0.5" style="stop-color:#708694"/>
	<a:midPointStop  offset="1" style="stop-color:#C2DFF0"/>
</linearGradient>
<path opacity="0.3" fill="url(#SVGID_4_)" d="M26.49,22.846c1.433,1.272,0.132,10.48-4.219,12.182
	c-2.716,1.063-8.054,1.708-11.744-1.545c-3.021-2.663-3.672-10.725-1.525-11.979C11.361,20.125,23.424,20.125,26.49,22.846z"/>
<path fill="#1A1626" d="M24.659,50.002c7.75,2.006,17.273-1.016,21.293-7.303c0.329-0.516-0.183-1.063-0.7-0.654
	c-4.201,3.316-13.119,5.785-19.649,3.875C23.103,45.189,22.016,49.318,24.659,50.002z"/>
</svg>
