<svg width="200" height="200" viewBox="0 0 200 200" fill="none" xmlns="http://www.w3.org/2000/svg">
<path d="M100.004 188.565C98.2403 188.562 96.5091 188.091 94.987 187.2C54.1986 163.44 25.8925 137.592 10.8414 110.39C-0.105727 90.6526 -0.13583 76.7655 0.0347485 73.5045C0.0997576 61.9251 3.36282 50.5888 9.46379 40.7468C15.5648 30.9048 24.2664 22.9399 34.6083 17.731C44.9502 12.5222 56.5301 10.2721 68.0701 11.2289C79.6101 12.1858 90.6613 16.3125 100.004 23.1536C109.369 16.2905 120.453 12.1562 132.025 11.2093C143.597 10.2625 155.206 12.5401 165.562 17.7895C175.919 23.039 184.618 31.0549 190.696 40.9481C196.774 50.8412 199.992 62.2247 199.993 73.8356C199.993 73.9761 199.993 74.1266 199.993 74.267C200.084 78.5817 199.401 91.927 189.187 110.39C174.136 137.592 145.829 163.44 105.041 187.2C103.513 188.095 101.774 188.566 100.004 188.565ZM20.0727 74.6985C20.0727 75.7019 20.0727 86.4383 29.4345 102.573C38.4652 118.036 57.9613 141.495 100.004 166.891C142.047 141.495 161.563 118.036 170.573 102.573C179.975 86.4383 179.965 75.7421 179.935 74.6985C179.855 73.9783 179.855 73.2514 179.935 72.5311C179.678 64.2072 176.994 56.1398 172.216 49.3196C167.437 42.4993 160.77 37.2232 153.034 34.1391C145.298 31.055 136.83 30.2973 128.67 31.9589C120.509 33.6205 113.012 37.6292 107.098 43.4926C105.219 45.3554 102.68 46.4005 100.034 46.4005C97.3881 46.4005 94.8493 45.3554 92.9701 43.4926C86.9755 37.5493 79.3557 33.5136 71.0711 31.8939C62.7865 30.2743 54.2079 31.1434 46.4164 34.3915C38.6249 37.6397 31.9693 43.1216 27.2883 50.1463C22.6074 57.1711 20.1107 65.4242 20.1129 73.8657C20.1203 74.1439 20.1069 74.4223 20.0727 74.6985Z" fill="#FAFAFA"/>
</svg>
