<svg width="200" height="200" viewBox="0 0 200 200" fill="none" xmlns="http://www.w3.org/2000/svg">
<path d="M190.46 9.19945e-06H115.302C101.416 -0.00645614 87.7408 3.39503 75.4825 9.90473C63.2242 16.4144 52.7588 25.8325 45.0085 37.329C37.2582 48.8256 32.461 62.0476 31.0396 75.83C29.6181 89.6125 31.6161 103.532 36.8574 116.363C12.6566 137.749 0 162.816 0 190.002C0 192.653 1.05579 195.196 2.9351 197.072C4.81441 198.947 7.3633 200 10.021 200C12.6788 200 15.2277 198.947 17.107 197.072C18.9863 195.196 20.0421 192.653 20.0421 190.002C20.0421 167.195 31.6765 148.728 46.9185 134.31C57.4465 148.717 72.2731 159.431 89.2757 164.918C106.278 170.405 124.585 170.384 141.575 164.857C158.565 159.331 173.366 148.583 183.861 134.152C194.356 119.721 200.005 102.347 200 84.5173V9.52858C200.001 8.27774 199.756 7.03891 199.277 5.88291C198.798 4.72691 198.095 3.67641 197.209 2.79147C196.323 1.90653 195.271 1.2045 194.113 0.725524C192.955 0.246546 191.714 8.50938e-06 190.46 9.19945e-06ZM180.91 84.5173C180.914 98.4199 176.48 111.962 168.25 123.181C160.021 134.4 148.423 142.711 135.14 146.911C121.857 151.11 107.579 150.979 94.3756 146.536C81.1724 142.093 69.7307 133.57 61.7096 122.202C88.1852 103.255 117.617 94.2559 118.158 94.0959C120.688 93.3254 122.81 91.5881 124.061 89.2629C125.313 86.9376 125.592 84.2131 124.838 81.6834C124.084 79.1537 122.358 77.0239 120.037 75.7586C117.716 74.4933 114.987 74.195 112.446 74.9288C92.9725 81.1864 74.4004 89.9524 57.2001 101.005C55.6569 102.005 54.1938 103.005 52.6706 104.004C49.6094 94.2032 48.9002 83.8212 50.6 73.6962C52.2999 63.5712 56.3613 53.9865 62.4565 45.7156C68.5518 37.4447 76.5102 30.7192 85.6898 26.0815C94.8693 21.4438 105.013 19.024 115.302 19.0172H180.91V84.5173Z" fill="#FAFAFA"/>
</svg>
