<svg width="200" height="200" viewBox="0 0 200 200" fill="none" xmlns="http://www.w3.org/2000/svg">
<path d="M186.405 68.8341V68.1105C186.405 48.5527 172.918 33.3064 154.084 30.3215C152.43 23.6044 149.055 17.4335 144.293 12.4161C139.53 7.39871 133.543 3.70755 126.922 1.70577C120.3 -0.29601 113.271 -0.53944 106.526 0.999421C99.7817 2.53828 93.5539 5.80642 88.4557 10.4823C83.0735 8.31539 77.2832 7.34927 71.489 7.65143C65.6948 7.95359 60.0364 9.51673 54.9088 12.2317C49.7812 14.9468 45.3079 18.7482 41.8013 23.3707C38.2947 27.9932 35.8393 33.3253 34.6064 38.9949C20.918 47.3467 13.1994 62.6431 13.1994 81.7386C13.1994 82.3818 13.1994 83.0452 13.2496 83.7487C12.9168 85.2141 12.9168 86.7355 13.2496 88.2009L36.4657 192.131C36.9618 194.362 38.2041 196.358 39.9874 197.789C41.7707 199.22 43.9885 200 46.2748 200H150.235C152.521 200 154.739 199.22 156.522 197.789C158.305 196.358 159.547 194.362 160.044 192.131L182.898 89.618C186.405 82.9547 186.405 75.1859 186.405 68.8341ZM47.8828 54.6934C49.5633 53.949 51.0075 52.7581 52.0583 51.2501C53.1091 49.7421 53.7262 47.9749 53.8426 46.1406C54.0731 42.6403 55.2323 39.2647 57.2008 36.3612C59.1693 33.4577 61.876 31.1313 65.0422 29.6213C68.2085 28.1114 71.72 27.4725 75.2152 27.7705C78.7104 28.0684 82.063 29.2924 84.928 31.3165C86.0184 32.0887 87.2518 32.6357 88.5561 32.9255C89.8604 33.2154 91.2094 33.2422 92.5242 33.0045C93.839 32.7668 95.0933 32.2694 96.2135 31.5412C97.3338 30.813 98.2976 29.8688 99.0486 28.7637C101.416 25.2744 104.839 22.6345 108.815 21.2304C112.791 19.8263 117.112 19.7318 121.146 20.9607C125.18 22.1896 128.714 24.6773 131.232 28.0598C133.75 31.4423 135.119 35.542 135.139 39.7587V40.0904C135.12 41.5581 135.422 43.0122 136.025 44.3505C136.629 45.6887 137.517 46.8786 138.63 47.8366C139.742 48.7945 141.05 49.4972 142.463 49.8953C143.876 50.2933 145.359 50.3771 146.807 50.1406C147.189 50.0803 147.611 49.9999 148.064 49.8894C158.848 50.2411 166.315 57.6281 166.315 68.1004V68.8341C166.315 70.9145 166.315 73.5678 166.104 75.8693H33.6718C34.6567 68.3617 37.9934 59.0652 47.8828 54.6934ZM152.315 134.392L143.802 95.9798H160.888L152.315 134.392ZM86.4356 95.9798L105.039 179.899H91.0989L72.4959 95.9798H86.4356ZM107.018 95.9798H123.219L141.812 179.899H125.621L107.018 95.9798ZM35.5813 95.9798H51.9029L70.5059 179.899H54.2748L35.5813 95.9798Z" fill="#FAFAFA"/>
</svg>
