<svg width="200" height="201" viewBox="0 0 200 201" fill="none" xmlns="http://www.w3.org/2000/svg">
<g clip-path="url(#clip0_946_46)">
<path d="M189.94 20C195.463 20 199.94 15.5228 199.94 10C199.94 4.47715 195.463 0 189.94 0C184.418 0 179.94 4.47715 179.94 10C179.94 15.5228 184.418 20 189.94 20Z" fill="#FAFAFA"/>
<path d="M109.94 20C115.463 20 119.94 15.5228 119.94 10C119.94 4.47715 115.463 0 109.94 0C104.418 0 99.9404 4.47715 99.9404 10C99.9404 15.5228 104.418 20 109.94 20Z" fill="#FAFAFA"/>
<path d="M189.69 101.25C195.213 101.25 199.69 96.7728 199.69 91.25C199.69 85.7272 195.213 81.25 189.69 81.25C184.168 81.25 179.69 85.7272 179.69 91.25C179.69 96.7728 184.168 101.25 189.69 101.25Z" fill="#FAFAFA"/>
<path d="M105.17 95.04C96.6697 86.54 53.3497 45.04 35.3097 63.04C32.4692 65.9077 30.8647 69.7737 30.8397 73.81L0.339724 187.62C-0.115368 189.316 -0.115854 191.102 0.338321 192.798C0.792495 194.494 1.68531 196.041 2.92698 197.283C4.16864 198.524 5.71537 199.417 7.4116 199.871C9.10783 200.326 10.8937 200.325 12.5897 199.87L126.39 169.38C130.42 169.347 134.279 167.739 137.14 164.9C143.99 158.04 143.04 146.84 134.3 131.61C127.83 120.34 117.49 107.35 105.17 95.04ZM75.2197 162.38L37.8297 124.99L43.3097 104.52C50.4398 114.692 58.4723 124.2 67.3097 132.93C76.0393 141.767 85.5478 149.8 95.7197 156.93L75.2197 162.38ZM91.0297 109.18C107.68 125.83 116.87 140.18 120.2 147.96C112.41 144.62 98.0697 135.44 81.4197 118.79C64.7697 102.14 55.5897 87.79 52.2497 80.01C60.0497 83.34 74.3797 92.53 91.0297 109.18ZM31.8497 147.3L52.9397 168.36L24.1397 176.07L31.8497 147.3Z" fill="#FAFAFA"/>
<path d="M89.9404 69.75C91.4441 69.7492 92.928 69.4073 94.2804 68.75C95.1704 68.32 116.28 57.87 118.94 34.88C119.217 32.2574 118.446 29.6318 116.796 27.5746C115.146 25.5174 112.751 24.1953 110.131 23.896C107.511 23.5966 104.878 24.3444 102.807 25.9764C100.735 27.6084 99.3925 29.9926 99.0704 32.61C97.7104 44.41 85.8704 50.61 85.5204 50.77C83.4784 51.7589 81.8334 53.4127 80.8555 55.46C79.8776 57.5072 79.6249 59.8262 80.139 62.036C80.6531 64.2458 81.9033 66.2151 83.6844 67.6206C85.4655 69.026 87.6716 69.784 89.9404 69.77V69.75Z" fill="#FAFAFA"/>
<path d="M164.8 82.24C141.8 84.87 131.37 106 130.93 106.9C130.304 108.088 129.924 109.39 129.813 110.728C129.701 112.065 129.86 113.412 130.28 114.687C130.7 115.962 131.373 117.14 132.258 118.149C133.143 119.159 134.222 119.98 135.431 120.564C136.64 121.147 137.954 121.482 139.295 121.547C140.636 121.611 141.976 121.406 143.236 120.942C144.495 120.477 145.649 119.764 146.627 118.845C147.605 117.926 148.388 116.819 148.93 115.59C148.98 115.47 155.09 103.48 167.06 102.11C168.364 101.96 169.627 101.555 170.775 100.917C171.923 100.28 172.934 99.4224 173.751 98.394C174.567 97.3656 175.174 96.1864 175.535 94.9237C175.896 93.6611 176.004 92.3397 175.855 91.035C175.705 89.7303 175.3 88.4679 174.662 87.3198C174.024 86.1717 173.167 85.1605 172.139 84.3438C171.11 83.5271 169.931 82.921 168.668 82.56C167.406 82.199 166.084 82.0903 164.78 82.24H164.8Z" fill="#FAFAFA"/>
<path d="M113.49 87.0701C114.418 87.9999 115.521 88.7375 116.735 89.2407C117.949 89.7439 119.25 90.003 120.565 90.003C121.879 90.003 123.18 89.7439 124.394 89.2407C125.608 88.7375 126.711 87.9999 127.64 87.0701L175.45 39.2501C177.271 37.3641 178.279 34.8381 178.256 32.2161C178.233 29.5941 177.182 27.086 175.328 25.2319C173.474 23.3778 170.965 22.3261 168.344 22.3034C165.722 22.2806 163.196 23.2885 161.31 25.1101L113.49 72.9201C112.56 73.8488 111.822 74.9517 111.319 76.1657C110.816 77.3797 110.557 78.6809 110.557 79.9951C110.557 81.3092 110.816 82.6105 111.319 83.8245C111.822 85.0385 112.56 86.1414 113.49 87.0701Z" fill="#FAFAFA"/>
</g>
<defs>
<clipPath id="clip0_946_46">
<rect width="199.94" height="200.22" fill="white"/>
</clipPath>
</defs>
</svg>
