<svg width="200" height="200" viewBox="0 0 200 200" fill="none" xmlns="http://www.w3.org/2000/svg">
<g clip-path="url(#clip0_851_23)">
<path d="M100 20C115.823 20 131.29 24.6919 144.446 33.4824C157.602 42.2729 167.855 54.7672 173.91 69.3853C179.965 84.0034 181.55 100.089 178.463 115.607C175.376 131.126 167.757 145.38 156.569 156.569C145.38 167.757 131.126 175.376 115.607 178.463C100.089 181.55 84.0035 179.965 69.3854 173.91C54.7673 167.855 42.273 157.602 33.4825 144.446C24.692 131.29 20 115.823 20 100C20.0239 78.79 28.4601 58.4555 43.4578 43.4578C58.4556 28.46 78.79 20.0238 100 20V20ZM100 0C80.2219 0 60.8879 5.8649 44.443 16.853C27.9981 27.8412 15.1809 43.459 7.61209 61.7317C0.0433283 80.0043 -1.93701 100.111 1.92152 119.509C5.78004 138.907 15.3041 156.725 29.2894 170.711C43.2746 184.696 61.0929 194.22 80.491 198.079C99.8891 201.937 119.996 199.957 138.268 192.388C156.541 184.819 172.159 172.002 183.147 155.557C194.135 139.112 200 119.778 200 100C200 73.4784 189.464 48.043 170.711 29.2893C151.957 10.5357 126.522 0 100 0Z" fill="#FAFAFA"/>
<path d="M69.5703 72.1499C67.1969 72.1499 64.8769 72.8537 62.9035 74.1723C60.9301 75.4908 59.392 77.365 58.4838 79.5577C57.5755 81.7504 57.3379 84.1632 57.8009 86.491C58.2639 88.8188 59.4068 90.9569 61.085 92.6352C62.7633 94.3134 64.9015 95.4563 67.2292 95.9193C69.557 96.3823 71.9698 96.1447 74.1625 95.2365C76.3552 94.3282 78.2294 92.7901 79.548 90.8167C80.8665 88.8434 81.5703 86.5233 81.5703 84.1499C81.5703 80.9673 80.306 77.9151 78.0556 75.6646C75.8052 73.4142 72.7529 72.1499 69.5703 72.1499V72.1499Z" fill="#FAFAFA"/>
<path d="M130.43 72.1499C128.056 72.1499 125.736 72.8537 123.763 74.1723C121.789 75.4908 120.251 77.365 119.343 79.5577C118.435 81.7504 118.197 84.1632 118.66 86.491C119.123 88.8188 120.266 90.9569 121.944 92.6352C123.623 94.3134 125.761 95.4563 128.089 95.9193C130.416 96.3823 132.829 96.1447 135.022 95.2365C137.215 94.3282 139.089 92.7901 140.407 90.8167C141.726 88.8434 142.43 86.5233 142.43 84.1499C142.43 80.9673 141.165 77.9151 138.915 75.6646C136.665 73.4142 133.612 72.1499 130.43 72.1499Z" fill="#FAFAFA"/>
<path d="M100 148.15C93.0376 148.164 86.1405 146.804 79.7052 144.145C73.2699 141.487 67.423 137.584 62.5003 132.66C60.6252 130.784 59.5723 128.239 59.5732 125.586C59.5742 122.934 60.6289 120.39 62.5053 118.515C64.3817 116.64 66.9261 115.587 69.5788 115.588C72.2315 115.589 74.7752 116.644 76.6503 118.52C82.8467 124.706 91.2446 128.18 100 128.18C108.756 128.18 117.154 124.706 123.35 118.52C124.279 117.591 125.381 116.854 126.594 116.351C127.808 115.848 129.108 115.588 130.422 115.588C131.735 115.587 133.036 115.846 134.25 116.348C135.463 116.85 136.566 117.586 137.495 118.515C138.424 119.443 139.161 120.546 139.665 121.759C140.168 122.972 140.427 124.273 140.427 125.586C140.428 126.9 140.17 128.201 139.667 129.414C139.165 130.628 138.429 131.731 137.5 132.66C132.578 137.584 126.731 141.487 120.295 144.145C113.86 146.804 106.963 148.164 100 148.15V148.15Z" fill="#FAFAFA"/>
</g>
<defs>
<clipPath id="clip0_851_23">
<rect width="200" height="200" fill="white"/>
</clipPath>
</defs>
</svg>
