<?xml version="1.0" encoding="utf-8"?>
<!-- Generator: Adobe Illustrator 15.0.0, SVG Export Plug-In . SVG Version: 6.00 Build 0)  -->
<!DOCTYPE svg PUBLIC "-//W3C//DTD SVG 1.1//EN" "http://www.w3.org/Graphics/SVG/1.1/DTD/svg11.dtd" [
	<!ENTITY ns_flows "http://ns.adobe.com/Flows/1.0/">
	<!ENTITY ns_extend "http://ns.adobe.com/Extensibility/1.0/">
	<!ENTITY ns_ai "http://ns.adobe.com/AdobeIllustrator/10.0/">
	<!ENTITY ns_graphs "http://ns.adobe.com/Graphs/1.0/">
]>
<svg version="1.1" id="Layer_1" xmlns:x="&ns_extend;" xmlns:i="&ns_ai;" xmlns:graph="&ns_graphs;"
	 xmlns="http://www.w3.org/2000/svg" xmlns:xlink="http://www.w3.org/1999/xlink" xmlns:a="http://ns.adobe.com/AdobeSVGViewerExtensions/3.0/"
	 x="0px" y="0px" width="64px" height="64px" viewBox="0 0 64 64" enable-background="new 0 0 64 64" xml:space="preserve">
<linearGradient id="Oval_1_" gradientUnits="userSpaceOnUse" x1="-211.9189" y1="275.9346" x2="-211.9189" y2="276.9346" gradientTransform="matrix(60 0 0 -60 12747.1563 16618.0625)">
	<stop  offset="0" style="stop-color:#FF7B00"/>
	<stop  offset="0.3236" style="stop-color:#FFAE00"/>
	<stop  offset="0.6205" style="stop-color:#FFD600"/>
	<stop  offset="0.8558" style="stop-color:#FFEE00"/>
	<stop  offset="1" style="stop-color:#FFF700"/>
	<a:midPointStop  offset="0" style="stop-color:#FF7B00"/>
	<a:midPointStop  offset="0.4" style="stop-color:#FF7B00"/>
	<a:midPointStop  offset="1" style="stop-color:#FFF700"/>
</linearGradient>
<circle id="Oval_26_" fill="url(#Oval_1_)" cx="32" cy="32" r="30"/>
<circle id="Oval_25_" fill="#FFFFFF" cx="43" cy="31" r="7"/>
<circle id="Oval_24_" fill="#1A1626" cx="43.002" cy="31" r="4.667"/>
<ellipse id="Oval_23_" fill="#FFFFFF" cx="44.208" cy="34.475" rx="2.187" ry="2.529"/>
<ellipse id="Oval_22_" fill="#FFFFFF" cx="41.272" cy="31" rx="1.28" ry="1.479"/>
<circle id="Oval_21_" fill="#FFFFFF" cx="21" cy="31" r="7"/>
<circle id="Oval_20_" fill="#1A1626" cx="21.002" cy="31" r="4.667"/>
<ellipse id="Oval_19_" fill="#FFFFFF" cx="22.208" cy="34.475" rx="2.187" ry="2.529"/>
<ellipse id="Oval_18_" fill="#FFFFFF" cx="19.272" cy="31" rx="1.28" ry="1.479"/>
<path fill="#1A1626" d="M24.894,51.229c3.662-2.574,10.258-2.744,14.215,0c0.916,0.633,2.434,0.193,2.094-0.547
	c-3.459-7.537-14.953-7.521-18.402,0C22.46,51.422,23.981,51.867,24.894,51.229z"/>
<path fill="#D69600" d="M13.707,17.218c-8.634,7.399-2.271,7.551,5.786,2.189C24.04,16.383,19.39,12.344,13.707,17.218z"/>
<path fill="#D69600" d="M50.292,17.233c-5.683-4.873-10.332-0.835-5.784,2.189C52.565,24.785,58.928,24.634,50.292,17.233z"/>
<radialGradient id="SVGID_1_" cx="15.9326" cy="47.9834" r="9.632" gradientTransform="matrix(0.0149 0.9999 -0.6745 0.0101 48.0603 31.5698)" gradientUnits="userSpaceOnUse">
	<stop  offset="0.4303" style="stop-color:#66E4FF"/>
	<stop  offset="0.5507" style="stop-color:#61E0FF"/>
	<stop  offset="0.6944" style="stop-color:#52D5FF"/>
	<stop  offset="0.8493" style="stop-color:#3BC2FF"/>
	<stop  offset="1" style="stop-color:#1CAAFF"/>
	<a:midPointStop  offset="0.4303" style="stop-color:#66E4FF"/>
	<a:midPointStop  offset="0.6702" style="stop-color:#66E4FF"/>
	<a:midPointStop  offset="1" style="stop-color:#1CAAFF"/>
</radialGradient>
<path fill="url(#SVGID_1_)" d="M17.172,41c-3.426,4.688-5.398,9.004-5.398,12.546c0,3.012,2.42,5.454,5.4,5.454
	c2.982,0,5.4-2.442,5.4-5.454C22.574,50.004,20.547,45.612,17.172,41z"/>
<radialGradient id="SVGID_2_" cx="-456.9761" cy="100.1836" r="3.9031" gradientTransform="matrix(0.53 0.0805 -0.1698 1.1169 274.0093 -24.357)" gradientUnits="userSpaceOnUse">
	<stop  offset="0" style="stop-color:#D4F2FF"/>
	<stop  offset="0.5519" style="stop-color:#D1F1FF;stop-opacity:0.4481"/>
	<stop  offset="0.8834" style="stop-color:#C9EFFF;stop-opacity:0.1166"/>
	<stop  offset="1" style="stop-color:#C4EEFF;stop-opacity:0"/>
	<a:midPointStop  offset="0" style="stop-color:#D4F2FF"/>
	<a:midPointStop  offset="0.8" style="stop-color:#D4F2FF"/>
	<a:midPointStop  offset="1" style="stop-color:#C4EEFF;stop-opacity:0"/>
</radialGradient>
<path fill="url(#SVGID_2_)" d="M16.869,51.067c-0.366,2.407-1.59,4.218-2.731,4.045c-1.143-0.174-1.772-2.268-1.405-4.674
	c0.365-2.408,1.588-4.219,2.732-4.045C16.606,46.567,17.234,48.659,16.869,51.067z"/>
</svg>
