<?xml version="1.0" encoding="utf-8"?>
<!-- Generator: Adobe Illustrator 15.0.0, SVG Export Plug-In . SVG Version: 6.00 Build 0)  -->
<!DOCTYPE svg PUBLIC "-//W3C//DTD SVG 1.1//EN" "http://www.w3.org/Graphics/SVG/1.1/DTD/svg11.dtd" [
	<!ENTITY ns_flows "http://ns.adobe.com/Flows/1.0/">
	<!ENTITY ns_extend "http://ns.adobe.com/Extensibility/1.0/">
	<!ENTITY ns_ai "http://ns.adobe.com/AdobeIllustrator/10.0/">
	<!ENTITY ns_graphs "http://ns.adobe.com/Graphs/1.0/">
]>
<svg version="1.1" id="Layer_1" xmlns:x="&ns_extend;" xmlns:i="&ns_ai;" xmlns:graph="&ns_graphs;"
	 xmlns="http://www.w3.org/2000/svg" xmlns:xlink="http://www.w3.org/1999/xlink" xmlns:a="http://ns.adobe.com/AdobeSVGViewerExtensions/3.0/"
	 x="0px" y="0px" width="64px" height="64px" viewBox="0 0 64 64" enable-background="new 0 0 64 64" xml:space="preserve">
<linearGradient id="SVGID_1_" gradientUnits="userSpaceOnUse" x1="32.0005" y1="62.001" x2="32.0005" y2="1.9995">
	<stop  offset="0" style="stop-color:#FF7B00"/>
	<stop  offset="0.3236" style="stop-color:#FFAE00"/>
	<stop  offset="0.6205" style="stop-color:#FFD600"/>
	<stop  offset="0.8558" style="stop-color:#FFEE00"/>
	<stop  offset="1" style="stop-color:#FFF700"/>
	<a:midPointStop  offset="0" style="stop-color:#FF7B00"/>
	<a:midPointStop  offset="0.4" style="stop-color:#FF7B00"/>
	<a:midPointStop  offset="1" style="stop-color:#FFF700"/>
</linearGradient>
<path fill="url(#SVGID_1_)" d="M32,1.999c16.57,0,30,13.439,30,30.004c0,16.572-13.43,29.998-30,29.998
	c-16.572,0-29.996-13.426-30-29.998C2,15.438,15.428,1.999,32,1.999z"/>
<path fill="#FFFFFF" d="M53.125,29.257c-1.429,5.334-6.912,8.497-12.244,7.07c-5.336-1.43-8.502-6.915-7.074-12.248
	C35.236,18.747,54.555,23.924,53.125,29.257z"/>
<path fill="#1A1626" d="M47.469,26.665c0,2.766-2.244,5-5.002,5.002c-2.764,0-5-2.24-4.998-5c-0.002-2.764,2.234-4.998,4.998-5
	C45.225,21.669,47.469,23.903,47.469,26.665z"/>
<linearGradient id="SVGID_2_" gradientUnits="userSpaceOnUse" x1="-59.2534" y1="-78.29" x2="-59.2534" y2="-88.2944" gradientTransform="matrix(0.9659 0.2588 -0.2588 0.9659 80.4369 117.6242)">
	<stop  offset="0" style="stop-color:#FFAA00"/>
	<stop  offset="0.1741" style="stop-color:#FFB400"/>
	<stop  offset="0.6855" style="stop-color:#FFCC00"/>
	<stop  offset="1" style="stop-color:#FFD500"/>
	<a:midPointStop  offset="0" style="stop-color:#FFAA00"/>
	<a:midPointStop  offset="0.4" style="stop-color:#FFAA00"/>
	<a:midPointStop  offset="1" style="stop-color:#FFD500"/>
</linearGradient>
<path fill="url(#SVGID_2_)" d="M53.125,29.257l-19.318-5.178c1.43-5.332,6.915-8.502,12.248-7.073
	C51.389,18.437,54.555,23.924,53.125,29.257z"/>
<path fill="#1A1626" d="M50.891,39.651c-0.102,3.358-2.008,6.476-4.975,8.134c-3.25,1.817-7.162,1.6-11.015-0.613
	c-3.991-2.293-7.421-1.334-10.448-0.487c-3.834,1.071-6.604,1.85-10.074-3.878c-0.635-1.049-2.773,0.247-2.138,1.296
	c4.454,7.35,8.933,6.098,12.886,4.99c2.801-0.783,5.447-1.524,8.529,0.246c2.462,1.415,5.02,2.134,7.48,2.149
	c2.115,0.015,4.156-0.489,5.999-1.521c3.729-2.084,6.126-6.008,6.253-10.241C53.428,38.452,50.929,38.376,50.891,39.651z"/>
<path fill="#D69600" d="M48.348,9.533c9.246,6.619,2.92,7.324-5.574,2.686C37.98,9.602,42.262,5.174,48.348,9.533z"/>
<path fill="#D69600" d="M19.943,12.101c7.305-1.638,9.518,4.109,4.082,4.648C14.395,17.705,8.846,14.588,19.943,12.101z"/>
<path fill="#FFFFFF" d="M29.653,26.671c0,4.971-4.03,8.998-9,8.998s-9-4.027-9-8.998c0-4.974,4.03-9.002,9-9.002
	S29.653,21.697,29.653,26.671z"/>
<circle fill="#1A1626" cx="21.38" cy="23.771" r="3.5"/>
<linearGradient id="SVGID_3_" gradientUnits="userSpaceOnUse" x1="19.9463" y1="26.2363" x2="19.9463" y2="17.6689">
	<stop  offset="0" style="stop-color:#FFAA00"/>
	<stop  offset="0.1741" style="stop-color:#FFB400"/>
	<stop  offset="0.6855" style="stop-color:#FFCC00"/>
	<stop  offset="1" style="stop-color:#FFD500"/>
	<a:midPointStop  offset="0" style="stop-color:#FFAA00"/>
	<a:midPointStop  offset="0.4" style="stop-color:#FFAA00"/>
	<a:midPointStop  offset="1" style="stop-color:#FFD500"/>
</linearGradient>
<path fill="url(#SVGID_3_)" d="M20.653,17.669c-4.823,0-8.749,3.797-8.978,8.567l16.541-4.433
	C26.615,19.318,23.83,17.669,20.653,17.669z"/>
</svg>
