<svg xmlns="http://www.w3.org/2000/svg" xmlns:xlink="http://www.w3.org/1999/xlink" viewBox="0 0 400 400"><defs><style>.a{fill:#ffb776;}.b,.g,.i{fill:#333;}.b{opacity:0.2;}.b,.i,.j{isolation:isolate;}.c{fill:#4f2c16;}.d,.j{opacity:0.05;}.e,.j{fill:#fff;}.f{opacity:0.4;}.h{fill:#b2804d;}.i{opacity:0.1;}.k{fill:#895437;}.l,.m,.n{fill:none;stroke:#333;}.l,.m{stroke-linecap:round;stroke-width:3px;}.l{stroke-linejoin:round;}.m{stroke-miterlimit:10;}.n{stroke-miterlimit:10;stroke-width:3px;}.o{fill:url(#a);}</style><linearGradient id="a" x1="283.52" y1="262.87" x2="287.4" y2="260.48" gradientTransform="matrix(1, 0, 0, -1, 0, 402)" gradientUnits="userSpaceOnUse"><stop offset="0" stop-color="#e34248"/><stop offset="1" stop-color="#9e55a0"/></linearGradient></defs><circle class="a" cx="200" cy="200" r="200"/><path class="b" d="M300,188.8c0-1.22,0-2.44-.11-3.64v-.1c-2-34.39-31.55-63.08-71.52-72.47l.23-.12,1-.51.55-.27,1.18-.53.44-.19c.55-.23,1.1-.45,1.67-.66a42.83,42.83,0,0,1,15.8-2.73h0a2.23,2.23,0,0,0,1.83.26c2.16-.81,2.18-6.1,0-11.81s-5.61-9.7-7.77-8.89a.61.61,0,0,1,.19,0A43.22,43.22,0,0,0,203,109.37h-3.09c-52.13,0-94.94,31.67-99.62,72.1h0c-.14,1.2-.25,2.41-.32,3.62v.1c-.07,1.21-.11,2.42-.11,3.63h0a65.75,65.75,0,0,0,8.42,32h0l.55-1c1,53.15,38.7,92.82,91.08,107.33l.28-.08.28.08c52.09-14.43,89.64-53.72,91.06-106.4h0A65.63,65.63,0,0,0,300,188.8Zm-56.12-88.48.15.34Zm1.42,2.81.16.28Zm3.27,4-.12-.08h0l.16.12ZM242,89.07a8.41,8.41,0,0,0-.24,2.12A8.41,8.41,0,0,1,242,89.07Z"/><path class="c" d="M233.46,103.31a42.83,42.83,0,0,1,15.8-2.73c-2-1.06-4.34-4.36-5.94-8.64-2.14-5.72-2.11-11,.05-11.81h.19a43.25,43.25,0,0,0-38,68.1A43.26,43.26,0,0,1,233.46,103.31Z"/><g class="d"><path class="e" d="M249,100.58a1.31,1.31,0,0,1,.28,0c-.21-.12-.41-.26-.61-.4Z"/><path class="e" d="M202.27,140.28A43.22,43.22,0,0,1,242,81.91a2.45,2.45,0,0,1,1.35-1.78h.19a43.25,43.25,0,0,0-38,68.1c0-.42-.07-.83-.1-1.25A42.72,42.72,0,0,1,202.27,140.28Z"/></g><g class="f"><path class="g" d="M205.32,144.08a43.2,43.2,0,0,1-7.64-22.79,43.22,43.22,0,0,0,7.86,26.89C205.4,146.81,205.33,145.45,205.32,144.08Z"/><path class="g" d="M245.77,96.89A43.25,43.25,0,0,0,205.37,142a43.27,43.27,0,0,1,43.89-41.38A10.75,10.75,0,0,1,245.77,96.89Z"/></g><ellipse class="h" cx="247.23" cy="90.48" rx="4.18" ry="11.05" transform="matrix(0.94, -0.35, 0.35, 0.94, -16.03, 92.17)"/><path class="h" d="M199.94,123.69c-52.86,0-91.13,32.69-91.13,86.94s38,94.79,91.13,109.5c53.11-14.71,91.14-55.26,91.14-109.5S252.81,123.69,199.94,123.69Z"/><path class="i" d="M200.5,306.76c-50.89-14.09-87.9-51.92-90.91-102.79-.13,2.19-.22,4.4-.22,6.66,0,54.24,38,94.79,91.13,109.5,53.11-14.71,91.13-55.26,91.13-109.5,0-2.26-.09-4.47-.22-6.66C288.4,254.84,251.39,292.67,200.5,306.76Z"/><path class="c" d="M199.94,166.23c40.95,0,76.15,19.54,91.64,47.52A65.75,65.75,0,0,0,300,181.8c0-43.89-44.8-79.47-100.06-79.47s-100,35.58-100,79.47a65.75,65.75,0,0,0,8.42,31.95C123.8,185.77,159,166.23,199.94,166.23Z"/><path class="j" d="M199.94,108.56c53.95,0,97.91,33.9,100,76.34.05-1,.08-2.06.08-3.1,0-43.89-44.8-79.47-100.06-79.47S100,137.91,100,181.8c0,1,0,2.07.08,3.1C102,142.46,146,108.56,199.94,108.56Z"/><path class="b" d="M291.58,199c-15.49-28-50.69-47.51-91.64-47.51S123.8,171.06,108.31,199a66.54,66.54,0,0,1-8-24.61,64.91,64.91,0,0,0-.43,7.37,65.75,65.75,0,0,0,8.42,32c15.49-28,50.69-47.52,91.63-47.52s76.15,19.54,91.64,47.52A65.72,65.72,0,0,0,300,181.8a64.91,64.91,0,0,0-.43-7.37A66.58,66.58,0,0,1,291.58,199Z"/><g class="d"><path class="e" d="M117.74,209.3a88.33,88.33,0,0,1,8.14-8.39c2.86-2.65,5.9-5.12,9-7.48A119.8,119.8,0,0,1,155,181.24a103.1,103.1,0,0,1,22.34-7.72A96.94,96.94,0,0,1,201,171.41a92.72,92.72,0,0,1,23.38,3.86c1,.28,1.91.53,2.85.83l2.78,1,2.78,1c.92.36,1.86.65,2.75,1.09l5.37,2.47a57.63,57.63,0,0,1,5.21,2.76,143.36,143.36,0,0,1,36.4,29.27c-11.62-10.32-24.16-19.57-37.85-26.51-3.37-1.84-7-3.21-10.46-4.75-.86-.4-1.79-.66-2.69-1l-2.7-.92-2.71-.93c-.92-.27-1.84-.49-2.76-.74-1.86-.44-3.67-1-5.54-1.41l-5.61-1.06c-1.87-.32-3.78-.44-5.66-.68s-3.79-.33-5.69-.36A102,102,0,0,0,156.33,184,133.4,133.4,0,0,0,136,195c-1.64,1-3.19,2.16-4.79,3.25s-3.12,2.28-4.64,3.47-3,2.4-4.51,3.66S119.13,207.94,117.74,209.3Z"/></g><path class="k" d="M122.48,146.48a27.61,27.61,0,0,0,4.67,5.5,31.76,31.76,0,0,0,5.63,4.07,27.63,27.63,0,0,0,3.13,1.55c1.13.44,2.19.88,3.29,1.35.55.25,1.13.38,1.7.59l1.73.6c1.17.36,2.36.68,3.56,1.16a34.53,34.53,0,0,1-3.8.3,37.3,37.3,0,0,1-3.8-.37,22.8,22.8,0,0,1-3.73-1c-.6-.23-1.23-.42-1.81-.71l-1.75-.88a19.91,19.91,0,0,1-5.9-5.1A13.79,13.79,0,0,1,122.48,146.48Z"/><path class="k" d="M137.59,142a34.55,34.55,0,0,1-1.73,10.52,42,42,0,0,1-4.51,9.76,34.51,34.51,0,0,1-7,8.19c-.7.57-1.39,1.15-2.1,1.7L120,173.61c-.38.22-.76.46-1.15.67s-.82.39-1.23.56c-.82.36-1.64.71-2.47,1,.67-.6,1.35-1.16,2-1.71.34-.29.68-.55,1-.82s.63-.6.94-.9l1.89-1.75c.57-.65,1.17-1.26,1.74-1.88a57.53,57.53,0,0,0,6.13-8.11,80.48,80.48,0,0,0,4.87-9C135.11,148.51,136.4,145.3,137.59,142Z"/><path class="k" d="M154.48,128.11a29.85,29.85,0,0,0,8,14.06,36,36,0,0,0,3,2.65c1,.89,2.2,1.59,3.32,2.4.55.42,1.17.72,1.76,1.09l1.79,1.1c1.23.68,2.49,1.32,3.73,2.12a41.88,41.88,0,0,1-4.29-.76,35.53,35.53,0,0,1-4.12-1.49,24.09,24.09,0,0,1-3.87-2.17,16.63,16.63,0,0,1-1.8-1.32l-1.67-1.5a21.91,21.91,0,0,1-4.91-7.47A16,16,0,0,1,154.48,128.11Z"/><path class="k" d="M172.85,126.63a46.08,46.08,0,0,1-3,8.62,64.74,64.74,0,0,1-4.3,8.05,53.7,53.7,0,0,1-5.51,7.32,30.65,30.65,0,0,1-7,5.94c1.81-2.49,3.5-4.92,5.16-7.38s3.22-5,4.82-7.49,3.16-5,4.79-7.55S171,129.1,172.85,126.63Z"/><path class="k" d="M187.37,114.09a103.16,103.16,0,0,0,2.17,10.28,55.25,55.25,0,0,0,3.57,9.56,32.61,32.61,0,0,0,5.75,8.22,33.24,33.24,0,0,0,8.36,6,20.26,20.26,0,0,1-9.92-4.29,25.05,25.05,0,0,1-6.87-8.62,34.06,34.06,0,0,1-3.17-10.43A33,33,0,0,1,187.37,114.09Z"/><path class="k" d="M213.74,119.43a61.18,61.18,0,0,1-5.78,8.65,77.74,77.74,0,0,1-7,7.74,53.72,53.72,0,0,1-8.11,6.63c-.76.46-1.45,1-2.25,1.39L188.3,145c-.84.32-1.66.64-2.49.93a15.41,15.41,0,0,1-2.59.51,41.2,41.2,0,0,0,8.27-5.9c2.53-2.23,5-4.52,7.43-6.91l7.3-7.15C208.66,124.12,211.12,121.73,213.74,119.43Z"/><path class="k" d="M230.63,123.69c1,3.43,2.12,6.75,3.34,10a81.32,81.32,0,0,0,4.24,9.43,53.18,53.18,0,0,0,5.63,8.54,46.78,46.78,0,0,0,7.53,7.22,24.44,24.44,0,0,1-9.24-5.62,33.61,33.61,0,0,1-6.57-8.73,42.38,42.38,0,0,1-3.82-10.16A36.6,36.6,0,0,1,230.63,123.69Z"/><path class="k" d="M248.42,131.14a25.33,25.33,0,0,1-5.07,8.28,31.2,31.2,0,0,1-7.56,6.27,30,30,0,0,1-9.11,3.69,28.08,28.08,0,0,1-4.83.76,19.7,19.7,0,0,1-2.43,0c-.81,0-1.62-.06-2.42-.13.78-.26,1.55-.48,2.31-.7a22.75,22.75,0,0,0,2.28-.65c1.49-.51,3-.93,4.4-1.54a51.87,51.87,0,0,0,8.25-4,53.25,53.25,0,0,0,7.47-5.36A67.64,67.64,0,0,0,248.42,131.14Z"/><path class="k" d="M268.26,143.62c1,5.42,1.68,10.65,3,15.71a44,44,0,0,0,2.52,7.32,25.49,25.49,0,0,0,4.27,6.63,14.49,14.49,0,0,1-6.33-5.47,25.12,25.12,0,0,1-3.36-7.73,35.36,35.36,0,0,1-1.07-8.26A29.84,29.84,0,0,1,268.26,143.62Z"/><path class="k" d="M278,155.07a5.17,5.17,0,0,1-1.16,5.31,10.4,10.4,0,0,1-4.72,3,16.79,16.79,0,0,1-5.27.69,16.18,16.18,0,0,1-5.15-1,19.39,19.39,0,0,1,2.49-.77c.82-.18,1.62-.44,2.42-.6,1.59-.36,3.12-.78,4.6-1.2a16.28,16.28,0,0,0,4-1.83A6.58,6.58,0,0,0,278,155.07Z"/><path class="c" d="M119.81,232.11a103.55,103.55,0,0,0,6,14.59c1.19,2.33,2.43,4.64,3.81,6.86A68.82,68.82,0,0,0,134,260a63.58,63.58,0,0,0,5,6,61.2,61.2,0,0,0,5.63,5.41,66.17,66.17,0,0,0,13.11,8.66,47.4,47.4,0,0,1-14.09-7.44,57.2,57.2,0,0,1-11.24-11.44,68.86,68.86,0,0,1-8-13.87A63.74,63.74,0,0,1,119.81,232.11Z"/><path class="l" d="M279.71,133.18c-12.69-13-30.38-22.86-50.79-27.65l.23-.12,1-.51.55-.27,1.18-.53.44-.19c.55-.23,1.11-.46,1.67-.67a43.24,43.24,0,0,1,15.8-2.73h0a2.29,2.29,0,0,0,1.84.25c2.16-.8,2.18-6.09,0-11.81s-5.62-9.69-7.78-8.89H244a43.22,43.22,0,0,0-40.52,22.29h-3.09c-52.13,0-94.95,31.67-99.62,72.1h0c-.14,1.2-.25,2.41-.32,3.63v.1c-.07,1.2-.11,2.41-.11,3.63h0a65.59,65.59,0,0,0,8.43,32h0c.17-.32.37-.63.55-.94,1,53.15,38.69,92.82,91.08,107.32l.28-.08.28.08c52.08-14.42,89.64-53.71,91.06-106.4h0a65.59,65.59,0,0,0,8.43-32c0-1.22,0-2.43-.11-3.64v-.09a66.37,66.37,0,0,0-9.22-29.82m-42.09-48.12L249,100h0l.16.12Z"/><path class="m" d="M280.37,134.52c-18.23-19.53-47.47-32.19-80.43-32.19-55.25,0-100,35.58-100,79.47a65.75,65.75,0,0,0,8.42,31.95c15.49-28,50.69-47.52,91.63-47.52s76.15,19.54,91.64,47.52a64.92,64.92,0,0,0-.95-65.57"/><ellipse class="n" cx="247.23" cy="90.48" rx="4.18" ry="11.05" transform="matrix(0.94, -0.35, 0.35, 0.94, -16.03, 92.17)"/><circle class="o" cx="285.89" cy="140.59" r="1.67"/></svg>