<svg xmlns="http://www.w3.org/2000/svg" xmlns:xlink="http://www.w3.org/1999/xlink" viewBox="0 0 400 400"><defs><style>.a{fill:#ffd15f;}.b,.e{fill:#333;}.b{opacity:0.2;}.b,.d,.e{isolation:isolate;}.c{fill:#ffa310;}.d{fill:#fff;}.d,.e{opacity:0.1;}.f{fill:#fad181;}.g,.h{fill:none;stroke:#333;}.g{stroke-linecap:round;stroke-miterlimit:10;stroke-width:3px;}.h{stroke-miterlimit:10;stroke-width:3px;}.i{fill:url(#a);}</style><linearGradient id="a" x1="266.42" y1="264.26" x2="270.31" y2="261.87" gradientTransform="matrix(1, 0, 0, -1, 0, 402)" gradientUnits="userSpaceOnUse"><stop offset="0" stop-color="#e34248"/><stop offset="1" stop-color="#9e55a0"/></linearGradient></defs><circle class="a" cx="200" cy="200" r="200"/><ellipse class="b" cx="200" cy="211" rx="91.7" ry="142.1" transform="translate(-90.62 203.22) rotate(-45)"/><ellipse class="c" cx="200" cy="200" rx="91.7" ry="142.1" transform="translate(-82.84 200) rotate(-45)"/><path class="d" d="M99.9,105.3C135.7,69.5,209.7,85.5,265.2,141c34.5,34.5,53.7,76.2,54.7,111.4,1.1-36.3-18.3-80.8-54.7-117.2C209.7,79.7,135.7,63.7,99.9,99.5,86.4,113,80.2,132,80.8,153.4,81.4,134.4,87.6,117.6,99.9,105.3Z"/><path class="e" d="M301,278.7c-35.8,35.8-109.8,19.8-165.3-35.7C103.9,211.2,85,173.2,81.5,139.9c-4.4,37.6,15.1,85.8,54.2,124.9,55.5,55.5,129.5,71.5,165.3,35.7,15.3-15.3,21.1-37.4,18.5-62.2C317.7,254.1,311.6,268.1,301,278.7Z"/><ellipse class="f" cx="159.11" cy="159.2" rx="34.6" ry="9.2" transform="translate(-65.97 159.14) rotate(-45)"/><ellipse class="f" cx="199.96" cy="199.98" rx="55.8" ry="14.9" transform="translate(-82.84 199.97) rotate(-45)"/><ellipse class="f" cx="240.81" cy="240.91" rx="34.6" ry="9.2" transform="translate(-99.82 240.84) rotate(-45)"/><path class="g" d="M262,132.4C206.8,79.2,134.7,64.3,99.5,99.5c-35.8,35.8-19.8,109.8,35.7,165.3s129.5,71.5,165.3,35.7c33.4-33.4,21.7-100.3-25.3-154.2"/><ellipse class="h" cx="159.11" cy="159.2" rx="34.6" ry="9.2" transform="translate(-65.97 159.14) rotate(-45)"/><ellipse class="h" cx="199.96" cy="199.98" rx="55.8" ry="14.9" transform="translate(-82.84 199.97) rotate(-45)"/><ellipse class="h" cx="240.81" cy="240.91" rx="34.6" ry="9.2" transform="translate(-99.82 240.84) rotate(-45)"/><path class="e" d="M165.6,165.7c13.5-13.5,21.6-27.4,18-31l-49,49C138.2,187.3,152.1,179.2,165.6,165.7Z"/><path class="e" d="M210.5,210.5c21.8-21.8,34.8-44.2,29-50l-78.9,78.9C166.3,245.3,188.7,232.3,210.5,210.5Z"/><path class="e" d="M247.3,247.4c13.5-13.5,21.6-27.4,18-31l-49,49C219.9,269,233.8,260.9,247.3,247.4Z"/><circle class="i" cx="268.8" cy="139.2" r="1.7"/></svg>