<svg xmlns="http://www.w3.org/2000/svg" xmlns:xlink="http://www.w3.org/1999/xlink" viewBox="0 0 400 400"><defs><style>.a{fill:#abefac;}.b,.d,.f{fill:#333;}.b{opacity:0.2;}.b,.d,.g{isolation:isolate;}.c{fill:#fff2dc;}.d,.j{opacity:0.1;}.e{fill:#f5e5c3;}.g,.h{fill:none;stroke-linecap:round;stroke-width:3px;}.g{stroke:#fff;stroke-miterlimit:10;opacity:0.94;}.h{stroke:#333;stroke-linejoin:round;}.i{fill:#fab631;}.k{fill:url(#a);}</style><linearGradient id="a" x1="287.9" y1="233.58" x2="291.79" y2="231.19" gradientTransform="matrix(1, 0, 0, -1, 0, 402)" gradientUnits="userSpaceOnUse"><stop offset="0" stop-color="#e34248"/><stop offset="1" stop-color="#9e55a0"/></linearGradient></defs><circle class="a" cx="200" cy="200" r="200"/><path class="b" d="M188.6,186.9c0-.1,0-.2-.1-.2a1.42,1.42,0,0,0-.2-.6c0-.1-.1-.2-.1-.3l-.3-.6c0-.1-.1-.1-.1-.2s-.3-.5-.4-.7v-.1a10.7,10.7,0,0,0-1.4-1.6h0c-.3-.2-.5-.5-.8-.7l-.1-.1a8.65,8.65,0,0,0-1-.7h0c-4.6-3.2-12.2-5.6-21.5-6.9a16.13,16.13,0,0,0,2.4-8.4,7.57,7.57,0,0,0-.1-1.5,4.25,4.25,0,0,0-.2-1.1v-.3a16.71,16.71,0,0,0-3.9-8h0s-9.5-10.9-3.9-18.5a1.73,1.73,0,0,0-.4.3h0c-2.8,1.8-19,12.7-23.1,23.3h0c-.1.4-.3.8-.4,1.2h0c-.1.4-.2.7-.3,1.1v.3a2.77,2.77,0,0,0-.1.9c0,.4-.1.8-.1,1.2h.1c0,.4-.1.8-.1,1.2a16.13,16.13,0,0,0,2.4,8.4c-15.2,2-26.1,7.4-26.1,13.6V300.4a18.41,18.41,0,0,0,.3,3.3,1.38,1.38,0,0,1-.3-.4,20.25,20.25,0,0,0,20,17.2h39.8a20.27,20.27,0,0,0,20.2-20.2V187.8A6.37,6.37,0,0,0,188.6,186.9Z"/><path class="b" d="M290.1,145c-.7-7.5-11.7-13.8-26.9-16.1a17.76,17.76,0,0,0,2.5-9.1,7.57,7.57,0,0,0-.1-1.5c0-.3-.1-.6-.1-.8s-.1-.4-.1-.6c-.1-.4-.1-.7-.2-1.1,0-.1,0-.2-.1-.2a5.64,5.64,0,0,0-.4-1.2h0A18.53,18.53,0,0,0,261,108h0s-9.6-11-5-19.4c.2-.3.4-.7.6-1,0,0-.3.2-.8.5h0c-4.1,2.7-22.4,15.3-25.6,27.1a.37.37,0,0,1-.1.3c-.1.3-.1.6-.2.9a4.33,4.33,0,0,1-.1.5c0,.2-.1.4-.1.6,0,.4-.1.8-.1,1.2h.1c0,.4-.1.9-.1,1.3a17.78,17.78,0,0,0,3,9.9c-13,2.8-22,8.6-22.6,15.3V293.8a36,36,0,0,0,1.1,8.8,2.18,2.18,0,0,0-.4-.5c2.5,10.3,9.7,18,18.2,18.5h40.8c11.1,0,20.2-12.1,20.2-26.8V144.4C290.1,144.5,290.1,144.7,290.1,145Z"/><ellipse class="c" cx="251.3" cy="137.9" rx="40" ry="17.8"/><path class="d" d="M287.8,130.8a8.52,8.52,0,0,1,.3,2.3c0,9.8-17.9,17.8-40,17.8-16.4,0-30.6-4.4-36.7-10.7,2.5,8.8,19.3,15.5,39.7,15.5,22.1,0,40-8,40-17.8C291.1,135.3,289.9,133,287.8,130.8Z"/><path class="e" d="M251.3,155.6c-22.1,0-40-8.6-40-19.3V285.7c0,14.7,9.1,26.8,20.2,26.8h39.6c11.1,0,20.2-12.1,20.2-26.8V136.3C291.3,147,273.4,155.6,251.3,155.6Z"/><ellipse class="c" cx="149.9" cy="179.9" rx="40" ry="14.5"/><path class="d" d="M185.3,173.1a6.84,6.84,0,0,1,1.6,4.1c0,8-17.9,14.5-40,14.5-15.4,0-28.7-3.2-35.4-7.8,4.8,6,20.2,10.4,38.4,10.4,22.1,0,40-6.5,40-14.5C189.9,177.4,188.2,175.1,185.3,173.1Z"/><path class="e" d="M149.9,194.4c-22.1,0-40-6.5-40-14.5V292.4a20.27,20.27,0,0,0,20.2,20.2h39.6a20.27,20.27,0,0,0,20.2-20.2V179.9C189.9,187.9,172,194.4,149.9,194.4Z"/><path class="d" d="M185.5,186.3v96.5A20.27,20.27,0,0,1,165.3,303H125.7a20.05,20.05,0,0,1-15.8-7.7,20.25,20.25,0,0,0,20,17.2h39.6a20.27,20.27,0,0,0,20.2-20.2V179.8C189.6,182.2,188.1,184.4,185.5,186.3Z"/><path class="d" d="M286.9,144.9V276.2c0,14.7-9.1,26.8-20.2,26.8H227.1c-6,0-11.4-3.5-15.1-9,2.6,10.7,10.3,18.6,19.2,18.6h39.6c11.1,0,20.2-12.1,20.2-26.8V136.4C291,139.4,289.5,142.3,286.9,144.9Z"/><path class="f" d="M158,128.5a1.73,1.73,0,0,0-.4.3.35.35,0,0,0,.1.2A2.19,2.19,0,0,1,158,128.5Z"/><line class="g" x1="117" y1="200.6" x2="117" y2="258.9"/><line class="g" x1="217.4" y1="161.5" x2="217.4" y2="219.9"/><path class="h" d="M188.6,179c0-.1,0-.2-.1-.2a1.42,1.42,0,0,0-.2-.6c0-.1-.1-.2-.1-.3l-.3-.6c0-.1-.1-.1-.1-.2s-.3-.5-.4-.7v-.1a10.7,10.7,0,0,0-1.4-1.6h0c-.3-.2-.5-.5-.8-.7l-.1-.1a8.65,8.65,0,0,0-1-.7h0c-4.6-3.2-12.2-5.6-21.5-6.9a16.13,16.13,0,0,0,2.4-8.4,7.57,7.57,0,0,0-.1-1.5,4.25,4.25,0,0,0-.2-1.1V155a16.71,16.71,0,0,0-3.9-8h0s-9.5-10.9-3.9-18.5a1.73,1.73,0,0,0-.4.3h0c-2.8,1.8-19,12.7-23.1,23.3h0c-.1.4-.3.8-.4,1.2h0c-.1.4-.2.7-.3,1.1v.3a2.77,2.77,0,0,0-.1.9c0,.4-.1.8-.1,1.2h.1c0,.4-.1.8-.1,1.2a16.13,16.13,0,0,0,2.4,8.4c-15.2,2-26.1,7.4-26.1,13.6V292.5a18.41,18.41,0,0,0,.3,3.3,1.38,1.38,0,0,1-.3-.4,20.25,20.25,0,0,0,20,17.2h39.8a20.27,20.27,0,0,0,20.2-20.2V179.9C188.7,179.6,188.7,179.3,188.6,179Z"/><path class="h" d="M290.1,160V137.1c-.7-7.5-11.7-13.8-26.9-16.1a17.76,17.76,0,0,0,2.5-9.1,7.57,7.57,0,0,0-.1-1.5c0-.3-.1-.6-.1-.8s-.1-.4-.1-.6c-.1-.4-.1-.7-.2-1.1,0-.1,0-.2-.1-.2a5.64,5.64,0,0,0-.4-1.2h0a18.53,18.53,0,0,0-3.7-6.4h0s-9.6-11-5-19.4c.2-.3.4-.7.6-1,0,0-.3.2-.8.5h0c-4.1,2.7-22.4,15.3-25.6,27.1a.37.37,0,0,1-.1.3c-.1.3-.1.6-.2.9a4.33,4.33,0,0,1-.1.5c0,.2-.1.4-.1.6,0,.4-.1.8-.1,1.2h.1c0,.4-.1.9-.1,1.3a17.78,17.78,0,0,0,3,9.9c-13,2.8-22,8.6-22.6,15.3V285.9a36,36,0,0,0,1.1,8.8,2.18,2.18,0,0,0-.4-.5c2.5,10.3,9.7,18,18.2,18.5h40.8c11.1,0,20.2-12.1,20.2-26.8V179.8"/><ellipse class="h" cx="148.9" cy="179.9" rx="40" ry="14.5"/><path class="i" d="M161.9,147h0s-9.5-10.9-3.9-18.5c0,0-24.5,15.3-24.4,28.2h.1c0,.4-.1.8-.1,1.2a16.3,16.3,0,1,0,32.6,0A16.85,16.85,0,0,0,161.9,147Z"/><path class="d" d="M149.9,163a16.24,16.24,0,0,1-15.3-10.9,12.54,12.54,0,0,0-.9,4.6h.1c0,.4-.1.8-.1,1.2a16.3,16.3,0,1,0,32.6,0,17.35,17.35,0,0,0-1-5.6A16.64,16.64,0,0,1,149.9,163Z"/><ellipse class="h" cx="250.3" cy="137.9" rx="40" ry="17.8"/><path class="h" d="M160.9,147h0s-9.5-10.9-3.9-18.5c0,0-24.5,15.3-24.4,28.2h.1c0,.4-.1.8-.1,1.2a16.3,16.3,0,1,0,32.6,0A16.85,16.85,0,0,0,160.9,147Z"/><path class="i" d="M262.2,99.9h0s-10.4-12-4.3-20.4c0,0-27,16.9-26.9,31.1h.1c0,.4-.1.9-.1,1.3a17.9,17.9,0,1,0,31.2-12Z"/><g class="j"><path class="f" d="M257.9,79.5s-.3.2-.8.5c.1.2.1.3.2.5A8.79,8.79,0,0,0,257.9,79.5Z"/><path class="f" d="M248.9,118.7a18,18,0,0,1-17.1-12.6,14.23,14.23,0,0,0-.8,4.5h.1c0,.4-.1.9-.1,1.3a17.9,17.9,0,0,0,35.8,0,16.69,16.69,0,0,0-.9-5.5A17.71,17.71,0,0,1,248.9,118.7Z"/></g><path class="h" d="M261.2,99.9h0s-10.4-12-4.3-20.4c0,0-27,16.9-26.9,31.1h.1c0,.4-.1.9-.1,1.3a17.9,17.9,0,1,0,31.2-12Z"/><circle class="k" cx="290.3" cy="169.9" r="1.7"/></svg>