<svg xmlns="http://www.w3.org/2000/svg" xmlns:xlink="http://www.w3.org/1999/xlink" viewBox="0 0 400 400"><defs><style>.a,.f,.j{fill:none;}.b{fill:#ffb776;}.c{fill:#333;opacity:0.2;}.c,.e{isolation:isolate;}.d{fill:#5da069;}.e{opacity:0.1;}.f,.j{stroke:#333;stroke-miterlimit:10;stroke-width:3px;}.g{fill:#ffcf64;}.h{clip-path:url(#a);}.i{fill:#fff4a6;}.j{stroke-linecap:round;}.k{fill:#75d182;}.l{fill:url(#b);}</style><clipPath id="a"><ellipse class="a" cx="199.94" cy="200" rx="69.8" ry="120"/></clipPath><linearGradient id="b" x1="261.75" y1="250.69" x2="265.64" y2="248.3" gradientTransform="matrix(1, 0, 0, -1, 0, 402)" gradientUnits="userSpaceOnUse"><stop offset="0" stop-color="#e34248"/><stop offset="1" stop-color="#9e55a0"/></linearGradient></defs><circle class="b" cx="200" cy="200" r="200"/><path class="c" d="M299,204.22a119.76,119.76,0,0,0-30.38-2.73c-3.06-61.42-33-109.64-69.53-109.64S132.6,140,129.53,201.42a120,120,0,0,0-27.5,2.8c-1.68,34.69,11.63,73.28,48.39,104.28a117.65,117.65,0,0,0,25.28,16.71,41.41,41.41,0,0,0,22.54,6.64h2.61a41.79,41.79,0,0,0,24.43-6.59,117.82,117.82,0,0,0,25.3-16.72C287.34,277.5,300.65,238.91,299,204.22Z"/><path class="d" d="M299.86,192.37c1.68,34.69-11.63,73.28-48.39,104.28s-67.44,28.46-84.71,8-14.61-51.16,22.15-82.16S266,184.86,299.86,192.37Z"/><path class="e" d="M297.48,191.88c-5.38,25.78-19.68,51.89-46,74.1-36.75,31-67.43,28.47-84.71,8a44.47,44.47,0,0,1-7.48-12.43c-5.71,16.46-2.36,31.43,7.48,43.1,17.28,20.48,48,23,84.71-8s50.08-69.59,48.39-104.28Z"/><path class="f" d="M299.86,192.37c1.68,34.69-11.63,73.28-48.39,104.28s-67.44,28.46-84.71,8-14.61-51.16,22.15-82.16S266,184.86,299.86,192.37Z"/><ellipse class="g" cx="199.94" cy="200" rx="69.8" ry="120"/><g class="h"><path class="i" d="M135.51,82.73h12.07a3.4,3.4,0,0,1,3.4,3.4h0a3.4,3.4,0,0,1-3.4,3.4H135.51a3.4,3.4,0,0,1-3.4-3.4h0A3.4,3.4,0,0,1,135.51,82.73Z"/><path class="i" d="M163.79,82.73h12.07a3.4,3.4,0,0,1,3.4,3.4h0a3.4,3.4,0,0,1-3.4,3.4H163.79a3.4,3.4,0,0,1-3.4-3.4h0A3.4,3.4,0,0,1,163.79,82.73Z"/><path class="i" d="M192.06,82.73h12.07a3.4,3.4,0,0,1,3.4,3.4h0a3.4,3.4,0,0,1-3.4,3.4H192.06a3.4,3.4,0,0,1-3.4-3.4h0A3.4,3.4,0,0,1,192.06,82.73Z"/><path class="i" d="M220.33,82.73H232.4a3.4,3.4,0,0,1,3.4,3.4h0a3.4,3.4,0,0,1-3.4,3.4H220.33a3.4,3.4,0,0,1-3.4-3.4h0A3.4,3.4,0,0,1,220.33,82.73Z"/><path class="i" d="M248.61,82.73h12.07a3.4,3.4,0,0,1,3.4,3.4h0a3.4,3.4,0,0,1-3.4,3.4H248.61a3.4,3.4,0,0,1-3.4-3.4h0A3.4,3.4,0,0,1,248.61,82.73Z"/><path class="i" d="M135.51,96.77h12.07a3.4,3.4,0,0,1,3.4,3.4h0a3.4,3.4,0,0,1-3.4,3.4H135.51a3.4,3.4,0,0,1-3.4-3.4h0A3.4,3.4,0,0,1,135.51,96.77Z"/><path class="i" d="M163.79,96.77h12.07a3.4,3.4,0,0,1,3.4,3.4h0a3.4,3.4,0,0,1-3.4,3.4H163.79a3.4,3.4,0,0,1-3.4-3.4h0A3.4,3.4,0,0,1,163.79,96.77Z"/><path class="i" d="M192.06,96.77h12.07a3.4,3.4,0,0,1,3.4,3.4h0a3.4,3.4,0,0,1-3.4,3.4H192.06a3.4,3.4,0,0,1-3.4-3.4h0A3.4,3.4,0,0,1,192.06,96.77Z"/><path class="i" d="M220.33,96.77H232.4a3.4,3.4,0,0,1,3.4,3.4h0a3.4,3.4,0,0,1-3.4,3.4H220.33a3.4,3.4,0,0,1-3.4-3.4h0A3.4,3.4,0,0,1,220.33,96.77Z"/><path class="i" d="M248.61,96.77h12.07a3.4,3.4,0,0,1,3.4,3.4h0a3.4,3.4,0,0,1-3.4,3.4H248.61a3.4,3.4,0,0,1-3.4-3.4h0A3.4,3.4,0,0,1,248.61,96.77Z"/><path class="i" d="M135.51,110.8h12.07a3.4,3.4,0,0,1,3.4,3.4h0a3.4,3.4,0,0,1-3.4,3.4H135.51a3.4,3.4,0,0,1-3.4-3.4h0A3.4,3.4,0,0,1,135.51,110.8Z"/><path class="i" d="M163.79,110.8h12.07a3.4,3.4,0,0,1,3.4,3.4h0a3.4,3.4,0,0,1-3.4,3.4H163.79a3.4,3.4,0,0,1-3.4-3.4h0A3.4,3.4,0,0,1,163.79,110.8Z"/><path class="i" d="M192.06,110.8h12.07a3.4,3.4,0,0,1,3.4,3.4h0a3.4,3.4,0,0,1-3.4,3.4H192.06a3.4,3.4,0,0,1-3.4-3.4h0A3.4,3.4,0,0,1,192.06,110.8Z"/><path class="i" d="M220.33,110.8H232.4a3.4,3.4,0,0,1,3.4,3.4h0a3.4,3.4,0,0,1-3.4,3.4H220.33a3.4,3.4,0,0,1-3.4-3.4h0A3.4,3.4,0,0,1,220.33,110.8Z"/><path class="i" d="M248.61,110.8h12.07a3.4,3.4,0,0,1,3.4,3.4h0a3.4,3.4,0,0,1-3.4,3.4H248.61a3.4,3.4,0,0,1-3.4-3.4h0A3.4,3.4,0,0,1,248.61,110.8Z"/><rect class="i" x="132.11" y="124.84" width="18.87" height="6.8" rx="3.4"/><rect class="i" x="160.39" y="124.84" width="18.87" height="6.8" rx="3.4"/><rect class="i" x="188.66" y="124.84" width="18.87" height="6.8" rx="3.4"/><rect class="i" x="216.93" y="124.84" width="18.87" height="6.8" rx="3.4"/><rect class="i" x="245.21" y="124.84" width="18.87" height="6.8" rx="3.4"/><rect class="i" x="132.11" y="138.88" width="18.87" height="6.8" rx="3.4"/><rect class="i" x="160.39" y="138.88" width="18.87" height="6.8" rx="3.4"/><rect class="i" x="188.66" y="138.88" width="18.87" height="6.8" rx="3.4"/><rect class="i" x="216.93" y="138.88" width="18.87" height="6.8" rx="3.4"/><rect class="i" x="245.21" y="138.88" width="18.87" height="6.8" rx="3.4"/><rect class="i" x="132.11" y="152.92" width="18.87" height="6.8" rx="3.4"/><rect class="i" x="160.39" y="152.92" width="18.87" height="6.8" rx="3.4"/><rect class="i" x="188.66" y="152.92" width="18.87" height="6.8" rx="3.4"/><rect class="i" x="216.93" y="152.92" width="18.87" height="6.8" rx="3.4"/><rect class="i" x="245.21" y="152.92" width="18.87" height="6.8" rx="3.4"/><rect class="i" x="132.11" y="166.96" width="18.87" height="6.8" rx="3.4"/><rect class="i" x="160.39" y="166.96" width="18.87" height="6.8" rx="3.4"/><rect class="i" x="188.66" y="166.96" width="18.87" height="6.8" rx="3.4"/><rect class="i" x="216.93" y="166.96" width="18.87" height="6.8" rx="3.4"/><rect class="i" x="245.21" y="166.96" width="18.87" height="6.8" rx="3.4"/><rect class="i" x="132.11" y="181" width="18.87" height="6.8" rx="3.4"/><rect class="i" x="160.39" y="181" width="18.87" height="6.8" rx="3.4"/><rect class="i" x="188.66" y="181" width="18.87" height="6.8" rx="3.4"/><rect class="i" x="216.93" y="181" width="18.87" height="6.8" rx="3.4"/><rect class="i" x="245.21" y="181" width="18.87" height="6.8" rx="3.4"/><rect class="i" x="132.11" y="195.04" width="18.87" height="6.8" rx="3.4"/><rect class="i" x="160.39" y="195.04" width="18.87" height="6.8" rx="3.4"/><rect class="i" x="188.66" y="195.04" width="18.87" height="6.8" rx="3.4"/><rect class="i" x="216.93" y="195.04" width="18.87" height="6.8" rx="3.4"/><rect class="i" x="245.21" y="195.04" width="18.87" height="6.8" rx="3.4"/><rect class="i" x="132.11" y="209.08" width="18.87" height="6.8" rx="3.4"/><rect class="i" x="160.39" y="209.08" width="18.87" height="6.8" rx="3.4"/><rect class="i" x="188.66" y="209.08" width="18.87" height="6.8" rx="3.4"/><rect class="i" x="216.93" y="209.08" width="18.87" height="6.8" rx="3.4"/><rect class="i" x="245.21" y="209.08" width="18.87" height="6.8" rx="3.4"/><rect class="i" x="132.11" y="223.12" width="18.87" height="6.8" rx="3.4"/><rect class="i" x="160.39" y="223.12" width="18.87" height="6.8" rx="3.4"/><rect class="i" x="188.66" y="223.12" width="18.87" height="6.8" rx="3.4"/><rect class="i" x="216.93" y="223.12" width="18.87" height="6.8" rx="3.4"/><rect class="i" x="245.21" y="223.12" width="18.87" height="6.8" rx="3.4"/><rect class="i" x="132.11" y="237.16" width="18.87" height="6.8" rx="3.4"/><rect class="i" x="160.39" y="237.16" width="18.87" height="6.8" rx="3.4"/><rect class="i" x="188.66" y="237.16" width="18.87" height="6.8" rx="3.4"/><rect class="i" x="216.93" y="237.16" width="18.87" height="6.8" rx="3.4"/><rect class="i" x="245.21" y="237.16" width="18.87" height="6.8" rx="3.4"/><rect class="i" x="132.11" y="251.2" width="18.87" height="6.8" rx="3.4"/><rect class="i" x="160.39" y="251.2" width="18.87" height="6.8" rx="3.4"/><rect class="i" x="188.66" y="251.2" width="18.87" height="6.8" rx="3.4"/><rect class="i" x="216.93" y="251.2" width="18.87" height="6.8" rx="3.4"/><rect class="i" x="245.21" y="251.2" width="18.87" height="6.8" rx="3.4"/><path class="i" d="M135.51,265.24h12.07a3.4,3.4,0,0,1,3.4,3.4h0a3.4,3.4,0,0,1-3.4,3.4H135.51a3.4,3.4,0,0,1-3.4-3.4h0A3.4,3.4,0,0,1,135.51,265.24Z"/><path class="i" d="M163.79,265.24h12.07a3.4,3.4,0,0,1,3.4,3.4h0a3.4,3.4,0,0,1-3.4,3.4H163.79a3.4,3.4,0,0,1-3.4-3.4h0A3.4,3.4,0,0,1,163.79,265.24Z"/><path class="i" d="M192.06,265.24h12.07a3.4,3.4,0,0,1,3.4,3.4h0a3.4,3.4,0,0,1-3.4,3.4H192.06a3.4,3.4,0,0,1-3.4-3.4h0A3.4,3.4,0,0,1,192.06,265.24Z"/><path class="i" d="M220.33,265.24H232.4a3.4,3.4,0,0,1,3.4,3.4h0a3.4,3.4,0,0,1-3.4,3.4H220.33a3.4,3.4,0,0,1-3.4-3.4h0A3.4,3.4,0,0,1,220.33,265.24Z"/><path class="i" d="M248.61,265.24h12.07a3.4,3.4,0,0,1,3.4,3.4h0a3.4,3.4,0,0,1-3.4,3.4H248.61a3.4,3.4,0,0,1-3.4-3.4h0A3.4,3.4,0,0,1,248.61,265.24Z"/><path class="i" d="M135.51,279.28h12.07a3.4,3.4,0,0,1,3.4,3.4h0a3.4,3.4,0,0,1-3.4,3.4H135.51a3.4,3.4,0,0,1-3.4-3.4h0A3.4,3.4,0,0,1,135.51,279.28Z"/><path class="i" d="M163.79,279.28h12.07a3.4,3.4,0,0,1,3.4,3.4h0a3.4,3.4,0,0,1-3.4,3.4H163.79a3.4,3.4,0,0,1-3.4-3.4h0A3.4,3.4,0,0,1,163.79,279.28Z"/><path class="i" d="M192.06,279.28h12.07a3.4,3.4,0,0,1,3.4,3.4h0a3.4,3.4,0,0,1-3.4,3.4H192.06a3.4,3.4,0,0,1-3.4-3.4h0A3.4,3.4,0,0,1,192.06,279.28Z"/><path class="i" d="M220.33,279.28H232.4a3.4,3.4,0,0,1,3.4,3.4h0a3.4,3.4,0,0,1-3.4,3.4H220.33a3.4,3.4,0,0,1-3.4-3.4h0A3.4,3.4,0,0,1,220.33,279.28Z"/><path class="i" d="M248.61,279.28h12.07a3.4,3.4,0,0,1,3.4,3.4h0a3.4,3.4,0,0,1-3.4,3.4H248.61a3.4,3.4,0,0,1-3.4-3.4h0A3.4,3.4,0,0,1,248.61,279.28Z"/><path class="i" d="M135.51,293.32h12.07a3.4,3.4,0,0,1,3.4,3.4h0a3.4,3.4,0,0,1-3.4,3.4H135.51a3.4,3.4,0,0,1-3.4-3.4h0A3.4,3.4,0,0,1,135.51,293.32Z"/><path class="i" d="M163.79,293.32h12.07a3.4,3.4,0,0,1,3.4,3.4h0a3.4,3.4,0,0,1-3.4,3.4H163.79a3.4,3.4,0,0,1-3.4-3.4h0A3.4,3.4,0,0,1,163.79,293.32Z"/><path class="i" d="M192.06,293.32h12.07a3.4,3.4,0,0,1,3.4,3.4h0a3.4,3.4,0,0,1-3.4,3.4H192.06a3.4,3.4,0,0,1-3.4-3.4h0A3.4,3.4,0,0,1,192.06,293.32Z"/><path class="i" d="M220.33,293.32H232.4a3.4,3.4,0,0,1,3.4,3.4h0a3.4,3.4,0,0,1-3.4,3.4H220.33a3.4,3.4,0,0,1-3.4-3.4h0A3.4,3.4,0,0,1,220.33,293.32Z"/><path class="i" d="M248.61,293.32h12.07a3.4,3.4,0,0,1,3.4,3.4h0a3.4,3.4,0,0,1-3.4,3.4H248.61a3.4,3.4,0,0,1-3.4-3.4h0A3.4,3.4,0,0,1,248.61,293.32Z"/><path class="i" d="M135.51,307.35h12.07a3.4,3.4,0,0,1,3.4,3.4h0a3.4,3.4,0,0,1-3.4,3.4H135.51a3.4,3.4,0,0,1-3.4-3.4h0A3.4,3.4,0,0,1,135.51,307.35Z"/><path class="i" d="M163.79,307.35h12.07a3.4,3.4,0,0,1,3.4,3.4h0a3.4,3.4,0,0,1-3.4,3.4H163.79a3.4,3.4,0,0,1-3.4-3.4h0A3.4,3.4,0,0,1,163.79,307.35Z"/><path class="i" d="M192.06,307.35h12.07a3.4,3.4,0,0,1,3.4,3.4h0a3.4,3.4,0,0,1-3.4,3.4H192.06a3.4,3.4,0,0,1-3.4-3.4h0A3.4,3.4,0,0,1,192.06,307.35Z"/><path class="i" d="M220.33,307.35H232.4a3.4,3.4,0,0,1,3.4,3.4h0a3.4,3.4,0,0,1-3.4,3.4H220.33a3.4,3.4,0,0,1-3.4-3.4h0A3.4,3.4,0,0,1,220.33,307.35Z"/><path class="i" d="M248.61,307.35h12.07a3.4,3.4,0,0,1,3.4,3.4h0a3.4,3.4,0,0,1-3.4,3.4H248.61a3.4,3.4,0,0,1-3.4-3.4h0A3.4,3.4,0,0,1,248.61,307.35Z"/><path class="i" d="M135.51,321.39h12.07a3.4,3.4,0,0,1,3.4,3.4h0a3.4,3.4,0,0,1-3.4,3.4H135.51a3.4,3.4,0,0,1-3.4-3.4h0A3.4,3.4,0,0,1,135.51,321.39Z"/><path class="i" d="M163.79,321.39h12.07a3.4,3.4,0,0,1,3.4,3.4h0a3.4,3.4,0,0,1-3.4,3.4H163.79a3.4,3.4,0,0,1-3.4-3.4h0A3.4,3.4,0,0,1,163.79,321.39Z"/><path class="i" d="M192.06,321.39h12.07a3.4,3.4,0,0,1,3.4,3.4h0a3.4,3.4,0,0,1-3.4,3.4H192.06a3.4,3.4,0,0,1-3.4-3.4h0A3.4,3.4,0,0,1,192.06,321.39Z"/><path class="i" d="M220.33,321.39H232.4a3.4,3.4,0,0,1,3.4,3.4h0a3.4,3.4,0,0,1-3.4,3.4H220.33a3.4,3.4,0,0,1-3.4-3.4h0A3.4,3.4,0,0,1,220.33,321.39Z"/><path class="i" d="M248.61,321.39h12.07a3.4,3.4,0,0,1,3.4,3.4h0a3.4,3.4,0,0,1-3.4,3.4H248.61a3.4,3.4,0,0,1-3.4-3.4h0A3.4,3.4,0,0,1,248.61,321.39Z"/><path class="i" d="M135.51,68.69h12.07a3.4,3.4,0,0,1,3.4,3.4h0a3.4,3.4,0,0,1-3.4,3.4H135.51a3.4,3.4,0,0,1-3.4-3.4h0A3.4,3.4,0,0,1,135.51,68.69Z"/><path class="i" d="M163.79,68.69h12.07a3.4,3.4,0,0,1,3.4,3.4h0a3.4,3.4,0,0,1-3.4,3.4H163.79a3.4,3.4,0,0,1-3.4-3.4h0A3.4,3.4,0,0,1,163.79,68.69Z"/><path class="i" d="M192.06,68.69h12.07a3.4,3.4,0,0,1,3.4,3.4h0a3.4,3.4,0,0,1-3.4,3.4H192.06a3.4,3.4,0,0,1-3.4-3.4h0A3.4,3.4,0,0,1,192.06,68.69Z"/><path class="i" d="M220.33,68.69H232.4a3.4,3.4,0,0,1,3.4,3.4h0a3.4,3.4,0,0,1-3.4,3.4H220.33a3.4,3.4,0,0,1-3.4-3.4h0A3.4,3.4,0,0,1,220.33,68.69Z"/><path class="i" d="M248.61,68.69h12.07a3.4,3.4,0,0,1,3.4,3.4h0a3.4,3.4,0,0,1-3.4,3.4H248.61a3.4,3.4,0,0,1-3.4-3.4h0A3.4,3.4,0,0,1,248.61,68.69Z"/></g><path class="j" d="M266.32,162.77A200.45,200.45,0,0,1,269.74,200c0,66.27-31.25,120-69.8,120s-69.79-53.73-69.79-120S161.4,80,199.94,80c26.45,0,49.47,25.3,61.31,62.58"/><path class="e" d="M199.94,301.33c-36.72,0-66.81-48.75-69.58-110.66q-.21,4.62-.21,9.33c0,66.27,31.25,120,69.79,120s69.8-53.73,69.8-120q0-4.71-.21-9.33C266.76,252.58,236.67,301.33,199.94,301.33Z"/><path class="k" d="M102.92,192.37c-1.69,34.69,11.63,73.28,48.39,104.28s67.44,28.46,84.71,8,14.6-51.16-22.15-82.16S136.82,184.86,102.92,192.37Z"/><path class="e" d="M236,289.52c-17.28,20.48-48,23-84.72-8C119.77,255,105.5,222.79,103.12,192.3l-.23,0c-1.68,34.69,11.64,73.28,48.39,104.28s67.44,28.46,84.72,8a41.72,41.72,0,0,0,9.59-35A42.55,42.55,0,0,1,236,289.52Z"/><path class="f" d="M102.92,192.37c-1.69,34.69,11.63,73.28,48.39,104.28s67.44,28.46,84.71,8,14.6-51.16-22.15-82.16S136.82,184.86,102.92,192.37Z"/><circle class="l" cx="264.12" cy="152.77" r="1.67"/></svg>