<svg xmlns="http://www.w3.org/2000/svg" xmlns:xlink="http://www.w3.org/1999/xlink" viewBox="0 0 400 400"><defs><style>.a{fill:#ffd15f;}.b,.f{fill:#333;}.b{opacity:0.2;isolation:isolate;}.c{fill:#ff8355;}.d{opacity:0.1;}.e{fill:#fff;}.g{fill:none;stroke:#333;stroke-linecap:round;stroke-linejoin:round;stroke-width:3px;}.h{fill:url(#a);}</style><linearGradient id="a" x1="243.69" y1="269.58" x2="247.58" y2="267.19" gradientTransform="matrix(1, 0, 0, -1, 0, 402)" gradientUnits="userSpaceOnUse"><stop offset="0" stop-color="#e34248"/><stop offset="1" stop-color="#9e55a0"/></linearGradient></defs><circle class="a" cx="200" cy="200" r="200"/><path class="b" d="M323.9,255.6c-.1.1-.2.2-.3.2a163.09,163.09,0,0,0-24-22.2,60.1,60.1,0,0,0,5.1-11.9c.1.1.3.2.4.3,4.3-13.5,4.9-29.1,4.4-41.8l-.3,5.1a194.8,194.8,0,0,0-2.9-30.2s-7.5-.9-18.4-1-24.9.8-38,4.2C248,123.5,200.3,89,200.3,89h0s-47.7,34.5-49.5,69.5c-13.1-3.4-27.2-4.3-38-4.2s-18.4,1-18.4,1a192.84,192.84,0,0,0-2.9,38.2v-.8c.4,14,2.7,29.3,9.5,41-1.3.9-2.5,1.9-3.7,2.9h0a172.78,172.78,0,0,0-27.4,27.8s1.8,1.8,4.9,4.6h0c11.1,9.9,39.2,32.5,66.2,32.4,1.6,0,3.2-.1,4.8-.2v.2h.5a54.5,54.5,0,0,0,50-32.8v57.3a4,4,0,0,0,8,0V267.4a54.51,54.51,0,0,0,50.5,34h.5v-.2a38.54,38.54,0,0,0,4.8.2c34.7.1,71.1-37.1,71.1-37.1S328.5,260.8,323.9,255.6Z"/><path class="c" d="M299.3,224.6c16.5-28.6,6.6-78.4,6.6-78.4s-30.1-3.7-56.4,3.2C247.7,114.5,200,80,200,80s-47.7,34.5-49.5,69.5c-26.3-6.9-56.4-3.2-56.4-3.2s-9.9,49.8,6.6,78.4a167.54,167.54,0,0,0-31.1,30.7s39.9,40.7,75.9,36.8v.3a54.41,54.41,0,0,0,53.3-43.3H201a54.49,54.49,0,0,0,53.3,43.3v-.3c36,3.9,75.9-36.8,75.9-36.8A164.83,164.83,0,0,0,299.3,224.6Z"/><g class="d"><path class="e" d="M299.3,235.3a170.07,170.07,0,0,1,26.2,24.6c3.1-2.8,4.9-4.6,4.9-4.6A168.28,168.28,0,0,0,303,227.5,69.7,69.7,0,0,1,299.3,235.3Z"/><path class="e" d="M74.5,259.9a165.49,165.49,0,0,1,26.2-24.6,69.7,69.7,0,0,1-3.7-7.8,172.78,172.78,0,0,0-27.4,27.8S71.3,257.1,74.5,259.9Z"/><path class="e" d="M94,156.9s30.1-3.7,56.4,3.2c1.8-35,49.5-69.5,49.5-69.5s47.7,34.5,49.5,69.5c26.3-6.9,56.4-3.2,56.4-3.2a186.45,186.45,0,0,1,2.9,27.5,184.34,184.34,0,0,0-2.9-38.2s-30.1-3.7-56.4,3.2c-1.8-35-49.5-69.5-49.5-69.5s-47.7,34.5-49.5,69.5c-26.3-6.9-56.4-3.2-56.4-3.2a192.84,192.84,0,0,0-2.9,38.2A204.36,204.36,0,0,1,94,156.9Z"/></g><g class="d"><path class="f" d="M304.8,213.1c4.3-13.5,4.9-29.1,4.4-41.8-.6,13.1-3.1,27-9.4,37.9C301.5,210.5,303.2,211.8,304.8,213.1Z"/><path class="f" d="M255,276.7v.3a54.41,54.41,0,0,1-53.3-43.3h-2.2A54.49,54.49,0,0,1,146.2,277v-.3c-26.7,2.9-55.5-18.7-68.6-30.1-4.6,5.1-7.3,8.7-7.3,8.7S110,296,146,292.1v.3a54.41,54.41,0,0,0,53.3-43.3h2.2a54.49,54.49,0,0,0,53.3,43.3v-.3c36,3.9,75.9-36.8,75.9-36.8s-2.7-3.6-7.3-8.7C310.5,258,281.7,279.5,255,276.7Z"/><path class="f" d="M101.2,209.2c-6.3-10.9-8.7-24.8-9.4-37.9-.6,12.7,0,28.3,4.4,41.8C97.8,211.8,99.5,210.5,101.2,209.2Z"/></g><path class="f" d="M200,161.3h0a4,4,0,0,0-4,4V316.9a4,4,0,0,0,4,4h0a4,4,0,0,0,4-4V165.3A4,4,0,0,0,200,161.3Z"/><path class="f" d="M200,240.1l42.4-42.4a3.18,3.18,0,0,0-4.5-4.5L200,231.1Z"/><path class="f" d="M199.9,240.1v-9l-37.9-38a3.18,3.18,0,0,0-4.5,4.5Z"/><path class="g" d="M241.6,124.8C227.5,99.9,200,80,200,80s-47.7,34.5-49.5,69.5c-26.3-6.9-56.4-3.2-56.4-3.2s-9.9,49.8,6.6,78.4a167.54,167.54,0,0,0-31.1,30.7s39.9,40.7,75.9,36.8v.3a54.41,54.41,0,0,0,53.3-43.3H201a54.49,54.49,0,0,0,53.3,43.3v-.3c36,3.9,75.9-36.8,75.9-36.8a167.54,167.54,0,0,0-31.1-30.7c16.5-28.6,6.6-78.4,6.6-78.4s-30.1-3.7-56.4,3.2a46.64,46.64,0,0,0-.8-6.4"/><circle class="h" cx="246.1" cy="133.9" r="1.7"/></svg>