<svg xmlns="http://www.w3.org/2000/svg" xmlns:xlink="http://www.w3.org/1999/xlink" viewBox="0 0 400 400"><defs><style>.a{fill:#ffb776;}.b,.g{fill:#333;isolation:isolate;}.b{opacity:0.2;}.c{fill:#a0592b;}.d,.e{fill:none;stroke:#333;stroke-linejoin:round;stroke-width:3px;}.e{stroke-linecap:round;}.f{fill:#f7b239;}.g{opacity:0.1;}.h{fill:#f4d69a;}.i{fill:url(#a);}</style><linearGradient id="a" x1="329.54" y1="165.55" x2="333.43" y2="163.16" gradientTransform="matrix(1, 0, 0, -1, 0, 402)" gradientUnits="userSpaceOnUse"><stop offset="0" stop-color="#e34248"/><stop offset="1" stop-color="#9e55a0"/></linearGradient></defs><circle class="a" cx="200" cy="200" r="200"/><path class="b" d="M336.3,197.2A29.23,29.23,0,0,0,307.1,168h-.6a24.26,24.26,0,0,0,3.5-13.1c-.2-13.6-12.1-24.8-25.7-24.3a24.72,24.72,0,0,0-15.7,6.5v-1.3A24.72,24.72,0,0,0,224.1,121c10.8,1.3,26.2,8.5,42.4,19.8,3.8,2.6,7.6,5.5,11.4,8.6a196.12,196.12,0,0,1,21.7,20.5l.3.3c.8.9,1.6,1.8,2.3,2.7,11.8,13.9,18.2,26.7,16.3,34h-.2c2.3-9-7.7-26-24.7-43.2-4.8-4.8-10.1-9.7-15.8-14.4-22-17.9-44.4-28.7-57.4-28.7h-.5a16.37,16.37,0,0,0-5.2.7,4.33,4.33,0,0,0,.5.1,9.16,9.16,0,0,0-3.2,1.8l-.2-.1L63.7,207h.2v92.5a9.39,9.39,0,0,0,9.4,9.4H322.5a9.39,9.39,0,0,0,9.4-9.4V212.6A29.11,29.11,0,0,0,336.3,197.2Z"/><path class="c" d="M307.1,158h-.6a24.71,24.71,0,0,0-37.9-30.9v-1.3A24.72,24.72,0,0,0,224.1,111c10.8,1.3,26.2,8.5,42.4,19.8,3.8,2.6,7.6,5.5,11.4,8.6a196.12,196.12,0,0,1,21.7,20.5l.3.3c.8.9,1.6,1.8,2.3,2.7,11.8,13.9,18.2,26.7,16.3,34h-39A29.18,29.18,0,1,0,307.1,158Z"/><path class="d" d="M307.1,158h-.6a24.71,24.71,0,0,0-37.9-30.9v-1.3A24.72,24.72,0,0,0,224.1,111c10.8,1.3,26.2,8.5,42.4,19.8,3.8,2.6,7.6,5.5,11.4,8.6a196.12,196.12,0,0,1,21.7,20.5l.3.3c.8.9,1.6,1.8,2.3,2.7,11.8,13.9,18.2,26.7,16.3,34h-39A29.18,29.18,0,1,0,307.1,158Z"/><path class="c" d="M63.9,197V298.9h268V197Zm254.7,85.2H63.9V197H318.7v85.2Z"/><path class="e" d="M331.9,228.3V197H63.9V298.9h268V247.5m-13.3,34.7H63.9V197H318.7v85.2Z"/><rect class="f" x="63.9" y="197" width="254.8" height="85.3"/><polygon class="g" points="307.4 197 307.4 298.9 331.9 298.9 331.9 247.3 331.9 240.9 331.9 228.3 331.9 197 307.4 197"/><rect class="d" x="63.9" y="197" width="254.8" height="85.3"/><path class="h" d="M245.6,197v16.3a8.71,8.71,0,0,0,8.7,8.7h0a8.71,8.71,0,0,0,8.7-8.7V197Z"/><path class="h" d="M262.9,197v36.6a8.7,8.7,0,1,0,17.4,0V197Z"/><path class="g" d="M262.9,203.1a8.71,8.71,0,0,1-8.7,8.7h0a8.73,8.73,0,0,1-8.7-8.5v10a8.71,8.71,0,0,0,8.7,8.7h0a8.71,8.71,0,0,0,8.7-8.7V197h0Z"/><path class="g" d="M271.6,232.1a8.71,8.71,0,0,1-8.7-8.7v10.2a8.7,8.7,0,1,0,17.4,0V223.4A8.71,8.71,0,0,1,271.6,232.1Z"/><path class="h" d="M285.4,197h33c2.9-11.5-14.3-36.1-40.6-57.5-28.2-23-57-34.2-65.8-26l-.2-.1L63.7,197H285.4Z"/><path class="g" d="M277.1,139.4c-25.2-20.5-50.8-31.6-62.3-28,13.2,2.6,32.3,12.7,51,28,26.3,21.4,43.5,46.1,40.6,57.5h11.3C320.6,185.5,303.4,160.9,277.1,139.4Z"/><path class="d" d="M277.9,139.4c-28.2-23-57-34.2-65.8-26l-.2-.1L63.7,197H245.6v16.3a8.71,8.71,0,0,0,8.7,8.7h0a8.71,8.71,0,0,0,8.7-8.7v20.3a8.7,8.7,0,1,0,17.4,0V197h38.2C321.4,185.5,304.2,160.9,277.9,139.4Z"/><circle class="i" cx="331.9" cy="237.9" r="1.7"/></svg>