<svg xmlns="http://www.w3.org/2000/svg" xmlns:xlink="http://www.w3.org/1999/xlink" viewBox="0 0 400 400"><defs><style>.a{fill:#f7aa63;}.b,.f{fill:#333;}.b,.e{opacity:0.1;}.b{isolation:isolate;}.c{fill:#f6c163;}.d{fill:#ef7371;}.g{fill:#eb9e58;}.h{fill:#fff;}.i,.j{fill:none;stroke:#333;stroke-miterlimit:10;stroke-width:3px;}.j{stroke-linecap:round;}.k{fill:url(#a);}</style><linearGradient id="a" x1="303.28" y1="309.89" x2="307.17" y2="307.5" gradientTransform="matrix(1, 0, 0, -1, 0, 402)" gradientUnits="userSpaceOnUse"><stop offset="0" stop-color="#e34248"/><stop offset="1" stop-color="#9e55a0"/></linearGradient></defs><circle class="a" cx="200" cy="200" r="200"/><path class="b" d="M198.5,218.7h-52c-22.7,0-36,25.5-23.1,44.1L146,295.6,176,339a28.13,28.13,0,0,0,46.3,0l30-43.4L273.5,265c-15.8,38.4,21.3,62.6,48.3,36.5C349.2,274.9,307.7,174.8,198.5,218.7Z"/><path class="c" d="M222.2,331.7a28.13,28.13,0,0,1-46.3,0l-30-43.4-22.6-32.8c-12.9-18.7.5-44.1,23.1-44.1H251.6c22.7,0,36,25.5,23.1,44.1l-22.6,32.8Z"/><path class="b" d="M274.8,244.1l-22.6,32.8-30,43.4a28.13,28.13,0,0,1-46.3,0l-30-43.4-22.6-32.8a27.76,27.76,0,0,1-4.4-10.2,27.84,27.84,0,0,0,4.4,21.7l22.6,32.8,30,43.4a28.13,28.13,0,0,0,46.3,0l30-43.4,22.6-32.8a27.76,27.76,0,0,0,4.4-21.7A26.19,26.19,0,0,1,274.8,244.1Z"/><path class="d" d="M198.5,211.5h52.6s41.2,4.5,23.1,44.1,19.8,65.2,47.4,38.7S307.7,167.6,198.5,211.5Z"/><g class="e"><path class="f" d="M321.6,283.9c-21.1,20.4-48.3,10.1-51.8-13.7-4.1,30.8,27.8,47.2,51.8,24,6.5-6.3,9.2-16.7,8-28.4C328.8,273.2,326.1,279.5,321.6,283.9Z"/></g><ellipse class="g" cx="177.6" cy="232.9" rx="3.9" ry="7.8"/><ellipse class="g" cx="220.5" cy="232.9" rx="3.9" ry="7.8"/><path class="b" d="M177.6,237.5c-1.9,0-3.5-2.6-3.9-6.1a8.6,8.6,0,0,0-.1,1.6c0,4.3,1.8,7.8,3.9,7.8s3.9-3.5,3.9-7.8a8.08,8.08,0,0,0-.1-1.6C181,234.8,179.4,237.5,177.6,237.5Z"/><path class="b" d="M220.5,237.5c-1.9,0-3.5-2.6-3.9-6.1a8.6,8.6,0,0,0-.1,1.6c0,4.3,1.8,7.8,3.9,7.8s3.9-3.5,3.9-7.8a8.08,8.08,0,0,0-.1-1.6C224,234.8,222.4,237.5,220.5,237.5Z"/><ellipse class="h" cx="124.3" cy="140.3" rx="46.6" ry="61.1"/><circle cx="124.3" cy="164.5" r="24.1"/><ellipse class="h" cx="275.7" cy="140.3" rx="46.6" ry="61.1"/><ellipse class="i" cx="124.3" cy="140.3" rx="46.6" ry="61.1"/><path class="j" d="M298.6,87.1a38,38,0,0,0-22.8-7.9c-25.7,0-46.6,27.4-46.6,61.1s20.8,61.1,46.6,61.1,46.6-27.4,46.6-61.1c0-14.9-4-28.5-10.8-39.1"/><circle cx="275.7" cy="164.5" r="24.1"/><path class="i" d="M222.2,331.7a28.13,28.13,0,0,1-46.3,0l-30-43.4-22.6-32.8c-12.9-18.7.5-44.1,23.1-44.1H251.6c22.7,0,36,25.5,23.1,44.1l-22.6,32.8Z"/><ellipse class="i" cx="177.6" cy="232.9" rx="3.9" ry="7.8"/><ellipse class="i" cx="220.5" cy="232.9" rx="3.9" ry="7.8"/><path class="i" d="M198.5,211.5h52.6s41.2,4.5,23.1,44.1,19.8,65.2,47.4,38.7S307.7,167.6,198.5,211.5Z"/><circle class="k" cx="305.7" cy="93.6" r="1.7"/></svg>