<?xml version="1.0" encoding="utf-8"?>
<!-- Generator: Adobe Illustrator 15.0.0, SVG Export Plug-In . SVG Version: 6.00 Build 0)  -->
<!DOCTYPE svg PUBLIC "-//W3C//DTD SVG 1.1//EN" "http://www.w3.org/Graphics/SVG/1.1/DTD/svg11.dtd" [
	<!ENTITY ns_flows "http://ns.adobe.com/Flows/1.0/">
	<!ENTITY ns_extend "http://ns.adobe.com/Extensibility/1.0/">
	<!ENTITY ns_ai "http://ns.adobe.com/AdobeIllustrator/10.0/">
	<!ENTITY ns_graphs "http://ns.adobe.com/Graphs/1.0/">
]>
<svg version="1.1" id="Layer_1" xmlns:x="&ns_extend;" xmlns:i="&ns_ai;" xmlns:graph="&ns_graphs;"
	 xmlns="http://www.w3.org/2000/svg" xmlns:xlink="http://www.w3.org/1999/xlink" xmlns:a="http://ns.adobe.com/AdobeSVGViewerExtensions/3.0/"
	 x="0px" y="0px" width="64px" height="64px" viewBox="0 0 64 64" enable-background="new 0 0 64 64" xml:space="preserve">
<radialGradient id="SVGID_1_" cx="31.8599" cy="62.4746" r="26.2352" gradientTransform="matrix(1 0 0 0.2151 0 49.0333)" gradientUnits="userSpaceOnUse">
	<stop  offset="0.497" style="stop-color:#A6E639"/>
	<stop  offset="0.6082" style="stop-color:#A2E339"/>
	<stop  offset="0.7064" style="stop-color:#98DC39"/>
	<stop  offset="0.7997" style="stop-color:#86CF39"/>
	<stop  offset="0.89" style="stop-color:#6CBC3A"/>
	<stop  offset="0.9773" style="stop-color:#4CA53A"/>
	<stop  offset="1" style="stop-color:#429E3A"/>
	<a:midPointStop  offset="0.497" style="stop-color:#A6E639"/>
	<a:midPointStop  offset="0.732" style="stop-color:#A6E639"/>
	<a:midPointStop  offset="1" style="stop-color:#429E3A"/>
</radialGradient>
<path fill="url(#SVGID_1_)" d="M53.701,59.689c1.57,1.59-10.896,1.049-9.174,2.363c5.656,4.313-8.531-0.031-14.906,0.969
	c-10.861,1.703-19.188,0.531-14.596-2.084c2.391-1.361-4.184-0.775-4.83-1.248C5.777,56.469,49.465,55.396,53.701,59.689z"/>
<linearGradient id="SVGID_2_" gradientUnits="userSpaceOnUse" x1="32.0005" y1="62" x2="32.0005" y2="2.0005">
	<stop  offset="0" style="stop-color:#FF7400"/>
	<stop  offset="0.2175" style="stop-color:#FFA000"/>
	<stop  offset="0.4606" style="stop-color:#FFC700"/>
	<stop  offset="0.6791" style="stop-color:#E1E100"/>
	<stop  offset="0.8583" style="stop-color:#C5F000"/>
	<stop  offset="1" style="stop-color:#A6F600"/>
	<a:midPointStop  offset="0" style="stop-color:#FF7400"/>
	<a:midPointStop  offset="0.5" style="stop-color:#FF7400"/>
	<a:midPointStop  offset="0.2175" style="stop-color:#FFA000"/>
	<a:midPointStop  offset="0.5" style="stop-color:#FFA000"/>
	<a:midPointStop  offset="0.4606" style="stop-color:#FFC700"/>
	<a:midPointStop  offset="0.5" style="stop-color:#FFC700"/>
	<a:midPointStop  offset="0.6791" style="stop-color:#E1E100"/>
	<a:midPointStop  offset="0.5" style="stop-color:#E1E100"/>
	<a:midPointStop  offset="0.8583" style="stop-color:#C5F000"/>
	<a:midPointStop  offset="0.5" style="stop-color:#C5F000"/>
	<a:midPointStop  offset="1" style="stop-color:#A6F600"/>
</linearGradient>
<circle fill="url(#SVGID_2_)" cx="32" cy="32" r="30"/>
<path fill="#1A1626" d="M48.559,36.336c-3.203-1.643-9.604-4.277-13.063-5.32c-0.639-0.193-0.668-0.857-0.051-1.148
	c4.156-1.922,8.002-3.887,12.543-6.346c0.836-0.451,1.672,0.813,0.977,1.516c-1.855,1.885-4.502,3.643-6.436,4.941
	c2.207,1.152,5.246,3.18,7.215,4.994C50.521,35.688,49.348,36.742,48.559,36.336z"/>
<path fill="#1A1626" d="M14.256,34.973c1.969-1.814,5.006-3.842,7.213-4.994c-1.932-1.299-4.58-3.057-6.436-4.941
	c-0.695-0.703,0.143-1.967,0.977-1.516c4.541,2.459,8.387,4.424,12.543,6.346c0.619,0.291,0.59,0.955-0.051,1.148
	c-3.457,1.043-9.859,3.678-13.061,5.32C14.652,36.742,13.477,35.688,14.256,34.973z"/>
<path fill="#1A1626" d="M31.998,38c-6.402,0-19.158,1.844-15.279,11c3.904,9.209,26.658,9.209,30.561,0
	C51.16,39.844,38.404,38,31.998,38z"/>
<linearGradient id="SVGID_3_" gradientUnits="userSpaceOnUse" x1="31.9624" y1="62.3848" x2="31.9624" y2="46">
	<stop  offset="0" style="stop-color:#A6E639"/>
	<stop  offset="0.1229" style="stop-color:#A1E138"/>
	<stop  offset="0.27" style="stop-color:#92D436"/>
	<stop  offset="0.4292" style="stop-color:#7ABD32"/>
	<stop  offset="0.5973" style="stop-color:#599E2C"/>
	<stop  offset="0.7705" style="stop-color:#2E7525"/>
	<stop  offset="0.7879" style="stop-color:#297124"/>
	<stop  offset="0.8682" style="stop-color:#215B1D"/>
	<stop  offset="1" style="stop-color:#12300F"/>
	<a:midPointStop  offset="0" style="stop-color:#A6E639"/>
	<a:midPointStop  offset="0.6698" style="stop-color:#A6E639"/>
	<a:midPointStop  offset="0.7879" style="stop-color:#297124"/>
	<a:midPointStop  offset="0.5429" style="stop-color:#297124"/>
	<a:midPointStop  offset="1" style="stop-color:#12300F"/>
</linearGradient>
<path fill="url(#SVGID_3_)" d="M41.5,46h-19c-2.896,2.896-2,16.385-2,16.385h23C43.5,62.385,44.074,49.186,41.5,46z"/>
<path opacity="0.15" fill="#244D05" d="M38.523,57.816c0-13.436,2.205-13.436,2.205,0C40.729,60.248,38.523,60.248,38.523,57.816z"
	/>
<path opacity="0.15" fill="#244D05" d="M28.768,57.383c0-14.299,2.205-14.299,2.205,0C30.973,59.371,28.768,59.371,28.768,57.383z"
	/>
<path opacity="0.15" fill="#244D05" d="M33.014,54.357c0-10.244,3.16-10.244,3.16,0C36.174,56.789,33.014,56.789,33.014,54.357z"/>
<path opacity="0.15" fill="#244D05" d="M23.549,54.857c0-10.854,3.16-10.854,3.16,0C26.709,56.82,23.549,56.82,23.549,54.857z"/>
<linearGradient id="SVGID_4_" gradientUnits="userSpaceOnUse" x1="19.8921" y1="42" x2="44.1084" y2="42">
	<stop  offset="0" style="stop-color:#CFD7E6"/>
	<stop  offset="0.0368" style="stop-color:#DAE0EC"/>
	<stop  offset="0.1263" style="stop-color:#EEF1F6"/>
	<stop  offset="0.2147" style="stop-color:#FBFCFD"/>
	<stop  offset="0.3" style="stop-color:#FFFFFF"/>
	<stop  offset="0.7" style="stop-color:#FFFFFF"/>
	<stop  offset="0.7853" style="stop-color:#FBFCFD"/>
	<stop  offset="0.8737" style="stop-color:#EEF1F6"/>
	<stop  offset="0.9632" style="stop-color:#DAE0EC"/>
	<stop  offset="1" style="stop-color:#CFD7E6"/>
	<a:midPointStop  offset="0" style="stop-color:#CFD7E6"/>
	<a:midPointStop  offset="0.3" style="stop-color:#CFD7E6"/>
	<a:midPointStop  offset="0.3" style="stop-color:#FFFFFF"/>
	<a:midPointStop  offset="0.5" style="stop-color:#FFFFFF"/>
	<a:midPointStop  offset="0.7" style="stop-color:#FFFFFF"/>
	<a:midPointStop  offset="0.7" style="stop-color:#FFFFFF"/>
	<a:midPointStop  offset="1" style="stop-color:#CFD7E6"/>
</linearGradient>
<path fill="url(#SVGID_4_)" d="M44.072,42.965c0.096-0.26-0.006-0.617-0.23-0.797c0,0-2.705-2.168-11.844-2.168
	c-9.137,0-11.84,2.168-11.84,2.168c-0.223,0.18-0.326,0.537-0.23,0.797l0.207,0.563C20.23,43.787,20.547,44,20.838,44h22.32
	c0.293,0,0.611-0.213,0.707-0.473L44.072,42.965z"/>
<path opacity="0.15" fill="#244D05" d="M36.951,51.201c0-1.049,1.223-1.049,1.223,0C38.174,52.141,36.951,52.141,36.951,51.201z"/>
<path opacity="0.15" fill="#244D05" d="M41.965,55c0-0.795,0.926-0.795,0.926,0C42.891,55.713,41.965,55.713,41.965,55z"/>
<path opacity="0.15" fill="#244D05" d="M21.285,54.316c0-1.369,1.598-1.369,1.598,0C22.883,55.547,21.285,55.547,21.285,54.316z"/>
<path opacity="0.15" fill="#244D05" d="M27.039,50.215c0-1.15,1.34-1.15,1.34,0C28.379,51.248,27.039,51.248,27.039,50.215z"/>
<path fill="#A6E639" d="M33.316,60.398c0.018-1.594,1.871-1.646,2.684-0.73c0.492-2.041,3.33-2.232,4.271-0.578
	c0.746-0.916,3.115-0.664,3.383,0.713c0.578-0.336,2.021,0.475,1.77,1.334c-0.148,0.506-14.303,0.635-14.488,0.027
	C30.543,59.869,32.912,59.426,33.316,60.398z"/>
<path fill="#A6E639" d="M19.811,60.471c0.016-1.594,1.783-1.646,2.557-0.73c0.471-2.041,3.174-2.232,4.07-0.58
	c0.709-0.914,2.969-0.664,3.223,0.715c0.551-0.338,1.926,0.473,1.686,1.334c-0.141,0.506-13.627,0.633-13.803,0.027
	C17.168,59.941,19.426,59.496,19.811,60.471z"/>
<path opacity="0.15" fill="#244D05" d="M40.438,60.801c0,1.018,1.527,1.018,1.527,0S40.438,59.783,40.438,60.801z"/>
<path fill="#A6E639" d="M35.891,56.943c0,1.018,1.527,1.018,1.527,0C37.418,55.928,35.891,55.928,35.891,56.943z"/>
<path opacity="0.15" fill="#244D05" d="M22.883,60.801c0,0.496,0.744,0.496,0.744,0S22.883,60.305,22.883,60.801z"/>
<path opacity="0.15" fill="#244D05" d="M36.951,60.955c0,0.498,0.744,0.498,0.744,0C37.695,60.459,36.951,60.459,36.951,60.955z"/>
<path fill="#A6E639" d="M33.014,58.631c0,0.498,0.744,0.498,0.744,0C33.758,58.135,33.014,58.135,33.014,58.631z"/>
<path fill="#A6E639" d="M45.221,58.695c0,0.496,0.746,0.496,0.746,0S45.221,58.199,45.221,58.695z"/>
<path fill="#A6E639" d="M26.18,56.857c0,0.496,0.744,0.496,0.744,0S26.18,56.361,26.18,56.857z"/>
<path opacity="0.15" fill="#244D05" d="M17.928,61.328c0,0.498,0.744,0.498,0.744,0C18.672,60.832,17.928,60.832,17.928,61.328z"/>
<path opacity="0.15" fill="#244D05" d="M27.494,60.037c0,0.736,1.104,0.736,1.104,0C28.598,59.303,27.494,59.303,27.494,60.037z"/>
<path fill="#A6E639" d="M17.928,58.875c0,0.736,1.104,0.736,1.104,0S17.928,58.139,17.928,58.875z"/>
<path fill="#529320" d="M16.872,14.55c-9.245,6.62-2.92,7.324,5.574,2.686C27.238,14.62,22.958,10.19,16.872,14.55z"/>
<path fill="#529320" d="M47.126,14.565c-6.086-4.359-10.366,0.07-5.572,2.686C50.05,21.892,56.375,21.186,47.126,14.565z"/>
</svg>
