<?xml version="1.0" encoding="utf-8"?>
<!-- Generator: Adobe Illustrator 15.0.0, SVG Export Plug-In . SVG Version: 6.00 Build 0)  -->
<!DOCTYPE svg PUBLIC "-//W3C//DTD SVG 1.1//EN" "http://www.w3.org/Graphics/SVG/1.1/DTD/svg11.dtd" [
	<!ENTITY ns_flows "http://ns.adobe.com/Flows/1.0/">
	<!ENTITY ns_extend "http://ns.adobe.com/Extensibility/1.0/">
	<!ENTITY ns_ai "http://ns.adobe.com/AdobeIllustrator/10.0/">
	<!ENTITY ns_graphs "http://ns.adobe.com/Graphs/1.0/">
]>
<svg version="1.1" id="Layer_1" xmlns:x="&ns_extend;" xmlns:i="&ns_ai;" xmlns:graph="&ns_graphs;"
	 xmlns="http://www.w3.org/2000/svg" xmlns:xlink="http://www.w3.org/1999/xlink" xmlns:a="http://ns.adobe.com/AdobeSVGViewerExtensions/3.0/"
	 x="0px" y="0px" width="64px" height="64px" viewBox="0 0 64 64" enable-background="new 0 0 64 64" xml:space="preserve">
<linearGradient id="SVGID_1_" gradientUnits="userSpaceOnUse" x1="32.0005" y1="62" x2="32.0005" y2="2.0005">
	<stop  offset="0" style="stop-color:#FF0000"/>
	<stop  offset="1" style="stop-color:#FFC000"/>
	<a:midPointStop  offset="0" style="stop-color:#FF0000"/>
	<a:midPointStop  offset="0.5" style="stop-color:#FF0000"/>
	<a:midPointStop  offset="1" style="stop-color:#FFC000"/>
</linearGradient>
<circle fill="url(#SVGID_1_)" cx="32.001" cy="32" r="30"/>
<path fill="#1A1626" d="M45.718,48c-1.5-3.592-5.146-6-13.717-6c-8.568,0-12.213,2.408-13.715,6c-1.915,4.586,3.676,6,13.717,6
	C42.031,54,47.633,52.586,45.718,48z"/>
<linearGradient id="SVGID_2_" gradientUnits="userSpaceOnUse" x1="32.0015" y1="64" x2="32.0015" y2="45">
	<stop  offset="0.2909" style="stop-color:#FD7383"/>
	<stop  offset="0.5022" style="stop-color:#FB7181"/>
	<stop  offset="0.6163" style="stop-color:#F36C7A"/>
	<stop  offset="0.7072" style="stop-color:#E5626E"/>
	<stop  offset="0.7859" style="stop-color:#D2545D"/>
	<stop  offset="0.8567" style="stop-color:#B94247"/>
	<stop  offset="0.9218" style="stop-color:#9A2C2B"/>
	<stop  offset="0.9814" style="stop-color:#76120B"/>
	<stop  offset="1" style="stop-color:#690900"/>
	<a:midPointStop  offset="0.2909" style="stop-color:#FD7383"/>
	<a:midPointStop  offset="0.8167" style="stop-color:#FD7383"/>
	<a:midPointStop  offset="1" style="stop-color:#690900"/>
</linearGradient>
<path fill="url(#SVGID_2_)" d="M23.251,47.806c0,0.738,0,3.978,0,5.306c0,7.249,3.92,10.886,8.75,10.889
	c4.832-0.003,8.75-3.64,8.75-10.889c0-1.328,0-4.567,0-5.306c0-4.331-8.75-2.356-8.75-2.356S23.251,43.475,23.251,47.806z"/>
<linearGradient id="SVGID_3_" gradientUnits="userSpaceOnUse" x1="31.9995" y1="58.0322" x2="31.9995" y2="45.2266">
	<stop  offset="0" style="stop-color:#C21000;stop-opacity:0.06"/>
	<stop  offset="0.1783" style="stop-color:#BE1000;stop-opacity:0.0814"/>
	<stop  offset="0.3552" style="stop-color:#B20F00;stop-opacity:0.1026"/>
	<stop  offset="0.5314" style="stop-color:#9E0D00;stop-opacity:0.1238"/>
	<stop  offset="0.7074" style="stop-color:#820B00;stop-opacity:0.1449"/>
	<stop  offset="0.8815" style="stop-color:#5F0800;stop-opacity:0.1658"/>
	<stop  offset="1" style="stop-color:#420600;stop-opacity:0.18"/>
	<a:midPointStop  offset="0" style="stop-color:#C21000;stop-opacity:0.06"/>
	<a:midPointStop  offset="0.7091" style="stop-color:#C21000;stop-opacity:0.06"/>
	<a:midPointStop  offset="1" style="stop-color:#420600;stop-opacity:0.18"/>
</linearGradient>
<path fill="url(#SVGID_3_)" d="M30.757,45.227l1.244,12.806l1.24-12.806c-0.748,0.112-1.24,0.223-1.24,0.223
	S31.505,45.339,30.757,45.227z"/>
<ellipse fill="#1A1626" cx="22" cy="33" rx="4" ry="5"/>
<ellipse fill="#1A1626" cx="42" cy="33" rx="4" ry="5"/>
<path fill="#C25507" d="M16.873,20.021c-9.246,6.62-2.92,7.324,5.573,2.686C27.238,20.09,22.958,15.66,16.873,20.021z"/>
<path fill="#C25507" d="M47.125,20.036c-6.084-4.359-10.365,0.069-5.571,2.686C50.049,27.361,56.375,26.656,47.125,20.036z"/>
<radialGradient id="SVGID_4_" cx="-274.6475" cy="-4.2788" r="3.7635" gradientTransform="matrix(-0.8787 -0.5404 -0.7531 1.5696 -227.1855 -129.5561)" gradientUnits="userSpaceOnUse">
	<stop  offset="0.4303" style="stop-color:#66E4FF"/>
	<stop  offset="0.5507" style="stop-color:#61E0FF"/>
	<stop  offset="0.6944" style="stop-color:#52D5FF"/>
	<stop  offset="0.8493" style="stop-color:#3BC2FF"/>
	<stop  offset="1" style="stop-color:#1CAAFF"/>
	<a:midPointStop  offset="0.4303" style="stop-color:#66E4FF"/>
	<a:midPointStop  offset="0.6702" style="stop-color:#66E4FF"/>
	<a:midPointStop  offset="1" style="stop-color:#1CAAFF"/>
</radialGradient>
<path fill="url(#SVGID_4_)" d="M13.351,11.923c1.689-3.134,6.31-4.731,6.806-4.666c0.65,0.088-1.311,0.828-0.814,7.093
	C20.043,23.193,8.943,20.096,13.351,11.923z"/>
<radialGradient id="SVGID_5_" cx="211.9941" cy="-52.8984" r="2.4365" gradientTransform="matrix(0.4276 0.3659 -0.6812 1.0204 -111.6515 -11.3529)" gradientUnits="userSpaceOnUse">
	<stop  offset="0" style="stop-color:#D4F2FF"/>
	<stop  offset="0.5519" style="stop-color:#D1F1FF;stop-opacity:0.4481"/>
	<stop  offset="0.8834" style="stop-color:#C9EFFF;stop-opacity:0.1166"/>
	<stop  offset="1" style="stop-color:#C4EEFF;stop-opacity:0"/>
	<a:midPointStop  offset="0" style="stop-color:#D4F2FF"/>
	<a:midPointStop  offset="0.8" style="stop-color:#D4F2FF"/>
	<a:midPointStop  offset="1" style="stop-color:#C4EEFF;stop-opacity:0"/>
</radialGradient>
<path fill="url(#SVGID_5_)" d="M16.073,13.13c-0.917,1.372-2.127,2.085-2.702,1.594c-0.574-0.492-0.298-2.004,0.618-3.377
	c0.917-1.374,2.125-2.088,2.701-1.596C17.265,10.244,16.99,11.756,16.073,13.13z"/>
<radialGradient id="SVGID_6_" cx="-222.835" cy="92.3877" r="5.1122" gradientTransform="matrix(0.9948 -0.1169 0.1613 1.7958 263.4865 -156.3045)" gradientUnits="userSpaceOnUse">
	<stop  offset="0.4303" style="stop-color:#66E4FF"/>
	<stop  offset="0.5507" style="stop-color:#61E0FF"/>
	<stop  offset="0.6944" style="stop-color:#52D5FF"/>
	<stop  offset="0.8493" style="stop-color:#3BC2FF"/>
	<stop  offset="1" style="stop-color:#1CAAFF"/>
	<a:midPointStop  offset="0.4303" style="stop-color:#66E4FF"/>
	<a:midPointStop  offset="0.6702" style="stop-color:#66E4FF"/>
	<a:midPointStop  offset="1" style="stop-color:#1CAAFF"/>
</radialGradient>
<path fill="url(#SVGID_6_)" d="M61.859,37.783c-0.672-4.98-5.726-9.771-6.377-9.984c-0.856-0.279,1.259,1.832-2.256,9.474
	C48.261,48.06,63.608,50.775,61.859,37.783z"/>
<radialGradient id="SVGID_7_" cx="187.3887" cy="45.498" r="3.3096" gradientTransform="matrix(-0.5191 0.1528 0.2816 1.2518 144.0675 -48.4082)" gradientUnits="userSpaceOnUse">
	<stop  offset="0" style="stop-color:#D4F2FF"/>
	<stop  offset="0.5519" style="stop-color:#D1F1FF;stop-opacity:0.4481"/>
	<stop  offset="0.8834" style="stop-color:#C9EFFF;stop-opacity:0.1166"/>
	<stop  offset="1" style="stop-color:#C4EEFF;stop-opacity:0"/>
	<a:midPointStop  offset="0" style="stop-color:#D4F2FF"/>
	<a:midPointStop  offset="0.8" style="stop-color:#D4F2FF"/>
	<a:midPointStop  offset="1" style="stop-color:#C4EEFF;stop-opacity:0"/>
</radialGradient>
<path fill="url(#SVGID_7_)" d="M57.888,37.684c0.515,2.287,1.702,3.916,2.649,3.638c0.951-0.281,1.303-2.361,0.787-4.649
	c-0.515-2.289-1.702-3.918-2.65-3.638C57.725,33.313,57.373,35.396,57.888,37.684z"/>
<radialGradient id="SVGID_8_" cx="-168.0527" cy="94.8623" r="4.8476" gradientTransform="matrix(-0.9747 -0.2304 -0.3664 1.7654 -121.1462 -164.4269)" gradientUnits="userSpaceOnUse">
	<stop  offset="0.4303" style="stop-color:#66E4FF"/>
	<stop  offset="0.5507" style="stop-color:#61E0FF"/>
	<stop  offset="0.6944" style="stop-color:#52D5FF"/>
	<stop  offset="0.8493" style="stop-color:#3BC2FF"/>
	<stop  offset="1" style="stop-color:#1CAAFF"/>
	<a:midPointStop  offset="0.4303" style="stop-color:#66E4FF"/>
	<a:midPointStop  offset="0.6702" style="stop-color:#66E4FF"/>
	<a:midPointStop  offset="1" style="stop-color:#1CAAFF"/>
</radialGradient>
<path fill="url(#SVGID_8_)" d="M2.828,43.199c1.176-4.617,6.457-8.58,7.094-8.711c0.838-0.17-1.385,1.59,1.094,9.17
	C14.519,54.359-0.233,55.246,2.828,43.199z"/>
<radialGradient id="SVGID_9_" cx="95.6943" cy="65.5322" r="3.1387" gradientTransform="matrix(0.4981 0.2114 -0.4235 1.2112 -14.8954 -56.7284)" gradientUnits="userSpaceOnUse">
	<stop  offset="0" style="stop-color:#D4F2FF"/>
	<stop  offset="0.5519" style="stop-color:#D1F1FF;stop-opacity:0.4481"/>
	<stop  offset="0.8834" style="stop-color:#C9EFFF;stop-opacity:0.1166"/>
	<stop  offset="1" style="stop-color:#C4EEFF;stop-opacity:0"/>
	<a:midPointStop  offset="0" style="stop-color:#D4F2FF"/>
	<a:midPointStop  offset="0.8" style="stop-color:#D4F2FF"/>
	<a:midPointStop  offset="1" style="stop-color:#C4EEFF;stop-opacity:0"/>
</radialGradient>
<path fill="url(#SVGID_9_)" d="M6.58,43.537c-0.732,2.098-2.029,3.504-2.892,3.139c-0.864-0.369-0.969-2.367-0.235-4.465
	c0.734-2.102,2.031-3.506,2.894-3.139C7.21,39.439,7.314,41.439,6.58,43.537z"/>
</svg>
