<?xml version="1.0" encoding="utf-8"?>
<!-- Generator: Adobe Illustrator 15.0.0, SVG Export Plug-In . SVG Version: 6.00 Build 0)  -->
<!DOCTYPE svg PUBLIC "-//W3C//DTD SVG 1.1//EN" "http://www.w3.org/Graphics/SVG/1.1/DTD/svg11.dtd" [
	<!ENTITY ns_flows "http://ns.adobe.com/Flows/1.0/">
	<!ENTITY ns_extend "http://ns.adobe.com/Extensibility/1.0/">
	<!ENTITY ns_ai "http://ns.adobe.com/AdobeIllustrator/10.0/">
	<!ENTITY ns_graphs "http://ns.adobe.com/Graphs/1.0/">
]>
<svg version="1.1" id="Layer_1" xmlns:x="&ns_extend;" xmlns:i="&ns_ai;" xmlns:graph="&ns_graphs;"
	 xmlns="http://www.w3.org/2000/svg" xmlns:xlink="http://www.w3.org/1999/xlink" xmlns:a="http://ns.adobe.com/AdobeSVGViewerExtensions/3.0/"
	 x="0px" y="0px" width="64px" height="64px" viewBox="0 0 64 64" enable-background="new 0 0 64 64" xml:space="preserve">
<linearGradient id="SVGID_1_" gradientUnits="userSpaceOnUse" x1="32.0005" y1="62" x2="32.0005" y2="2.0005">
	<stop  offset="0" style="stop-color:#FF7B00"/>
	<stop  offset="0.3236" style="stop-color:#FFAE00"/>
	<stop  offset="0.6205" style="stop-color:#FFD600"/>
	<stop  offset="0.8558" style="stop-color:#FFEE00"/>
	<stop  offset="1" style="stop-color:#FFF700"/>
	<a:midPointStop  offset="0" style="stop-color:#FF7B00"/>
	<a:midPointStop  offset="0.4" style="stop-color:#FF7B00"/>
	<a:midPointStop  offset="1" style="stop-color:#FFF700"/>
</linearGradient>
<circle fill="url(#SVGID_1_)" cx="32" cy="32" r="30"/>
<path fill="#1A1626" d="M36.141,42.286c-2.38-5.872-9.771-8.365-16.445-6.102c-2.275,0.772-1.992,4.695,0.175,3.884
	c5.657-2.117,12.63-0.128,15.598,2.877C35.832,43.314,36.336,42.769,36.141,42.286z"/>
<path fill="#FFFFFF" d="M17.203,60.436C7.18,62.519,2.779,54.183,5.731,46.765c1.058-2.652-1.72-6.6,1.194-8.143
	c2.996-1.585,5.801,0.789,5.9,5.963c2.664-0.543,6.279-2.577,8.572-2.434c1.252,0.079,5.629,1.861,7.066,1.956
	c4.951,0.327,4.783,6.051-1.586,5.438c0.1,0.872-0.297,2.429-1.223,3.332c0.404,1.012,0.463,2.511-0.938,3.856
	C25.268,60.246,20.479,62.321,17.203,60.436z"/>
<path fill="#99A8AE" d="M16.977,61.188C6.256,63.478,2.064,54.047,4.875,47.042c1.162-2.902-1.922-7.418,1.195-9.112
	c3.203-1.743,7.186,0.142,7.29,5.826c2.851-0.601,5.966-2.64,8.418-2.482c1.341,0.088,6.026,2.151,7.567,2.257
	c5.294,0.357,4.878,7.103-1.934,6.431c0.106,0.957-0.088,2.104-1.078,3.096c0.431,1.113,0.492,2.758-1.002,4.238
	C25.915,61.15,20.479,63.26,16.977,61.188z M18.962,58.517l-1.19,1.222c4.898,2.186,8.329-2.95,3.15-4.827
	c1.463,0.063,2.521,0.612,3.033,1.012c1.518-2.108,1.352-3.477-1.656-5.312c2.055,0.422,2.808,1.336,2.808,1.336
	c1.485-2.664,0.622-3.78-2.11-5.171c2.032,0.126,3.305,1.191,4.529,1.476c3.08,0.717,4.41-3.014,1.842-3.182
	c-3.162-0.209-6.189-2.137-8.049-1.988c-2.656,0.213-4.207,1.734-10.018,3.313c0.273-5.147-1.186-7.783-3.738-7.002
	c-2.21,0.674,0.528,3.738-0.841,7.786C3.654,56.253,10.728,62.289,18.962,58.517z"/>
<ellipse transform="matrix(0.2588 -0.9659 0.9659 0.2588 -4.6198 36.541)" fill="#1A1626" cx="21.5" cy="21.281" rx="5" ry="4"/>
<ellipse transform="matrix(0.2588 -0.9659 0.9659 0.2588 6.2915 57.1356)" fill="#1A1626" cx="40.375" cy="24.468" rx="5" ry="4"/>
<path fill="#D69600" d="M42.753,12.922c-7.48-0.291-8.619,5.76-3.175,5.309C49.223,17.431,54.117,13.362,42.753,12.922z"/>
<path fill="#D69600" d="M21.736,7.165c-11.339,0.837-6.306,4.733,3.361,5.195C30.553,12.621,29.204,6.611,21.736,7.165z"/>
</svg>
