<svg xmlns="http://www.w3.org/2000/svg" xmlns:xlink="http://www.w3.org/1999/xlink" viewBox="0 0 400 400"><defs><style>.a{fill:#abefac;}.b{opacity:0.2;}.c,.e{fill:#333;}.d{fill:#c5fffc;}.e{opacity:0.1;isolation:isolate;}.f,.k{fill:none;stroke:#333;stroke-width:3px;}.f{stroke-miterlimit:10;}.g{fill:#d5003b;}.h{fill:#f1d651;}.i{fill:#ffefae;}.j{fill:#606060;}.k{stroke-linecap:round;stroke-linejoin:round;}.l{fill:url(#a);}</style><linearGradient id="a" x1="260.42" y1="250.66" x2="264.31" y2="248.27" gradientTransform="matrix(1, 0, 0, -1, 0, 402)" gradientUnits="userSpaceOnUse"><stop offset="0" stop-color="#e34248"/><stop offset="1" stop-color="#9e55a0"/></linearGradient></defs><circle class="a" cx="200" cy="200" r="200"/><g class="b"><path class="c" d="M302.1,231.9c.6-.2,1.3-.3,1.9-.5l.9-.3a30,30,0,0,0,4.1-1.8,5.58,5.58,0,0,0,.8-.5c.5-.3.9-.6,1.4-.9,1.2-.8,2.4-1.7,3.5-2.6.4-.3.7-.7,1.1-1a29.14,29.14,0,0,0,8.7-20.9,1.2,1.2,0,0,0-.7-1,.6.6,0,0,0-.4-.1H256.2a28.15,28.15,0,0,0-6.5.7,58.53,58.53,0,0,0,7.5-15c.4,0,.7.1,1.1.1h.3c1.1.1,2.1.2,3.2.2h.1c.4-1.3.7-2.7,1-4.1a66.93,66.93,0,0,0,1.3-12.8,64.14,64.14,0,0,0-14.6-40.8A65.48,65.48,0,0,0,238.5,120a79.44,79.44,0,0,0-7.8-5,64.4,64.4,0,0,0-27.3-7.7c-1.1-.1-2.2-.1-3.3-.1h-1.3a.6.6,0,0,1-.1.4.6.6,0,0,0-.1-.4,64,64,0,0,0-62.5,59.4v-.3c-.1,1.7-.2,3.3-.2,5a65.34,65.34,0,0,0,2.2,16.7h.1l3-.3c.3,0,.7-.1,1-.1a1.27,1.27,0,0,0,.6-.1,60.74,60.74,0,0,0,7.6,15.3,33.9,33.9,0,0,0-6.4-.7H76.6a1.11,1.11,0,0,0-1.1,1.1,29.56,29.56,0,0,0,3.8,14.5c.4.8.9,1.5,1.4,2.3a37.62,37.62,0,0,0,2.5,3.1,38.33,38.33,0,0,0,2.9,2.8c.7.6,1.4,1.1,2.1,1.6a28.4,28.4,0,0,0,9.9,4.3c.4.1.9.2,1.4.3a23.58,23.58,0,0,0,2.8.4.1.1,0,0,1-.1.1,1.42,1.42,0,0,0-.2.6h0a29.08,29.08,0,0,0,2,10.7c.2.4.3.8.5,1.2a32.85,32.85,0,0,0,5,7.7,9,9,0,0,1,.9,1c.6.6,1.3,1.2,1.9,1.8a7,7,0,0,0,1,.8,29.16,29.16,0,0,0,14.7,6,29.29,29.29,0,0,0,20.3,21.5l-6,27.7c-1.3,7.4,4.1,14.2,11.2,14.2h93.2c7.1,0,12.5-6.8,11.2-14.2l-.7-3.4c-.1.3-.2.5-.3.8l-5.3-25c.5-.2,1.1-.3,1.6-.5.8-.3,1.5-.6,2.3-.9.4-.2.7-.3,1.1-.5,1.2-.6,2.4-1.4,3.6-2.1a15.76,15.76,0,0,0,1.5-1.2c.3-.3.6-.5.9-.8.6-.5,1.2-1.1,1.8-1.7l.1-.1a36.47,36.47,0,0,0,3.5-4.3,5.58,5.58,0,0,0,.5-.8c.6-1.1,1.2-2.2,1.7-3.3.2-.4.4-.9.6-1.3l.3-.9c.3-.9.6-1.9.9-2.9,0-.1.1-.2.1-.3a26.51,26.51,0,0,0,6.2-1.4c.6-.2,1.1-.4,1.7-.6.4-.2.8-.3,1.2-.5l1.8-.9a8.64,8.64,0,0,0,1.6-1c.4-.2.7-.5,1.1-.7a24.33,24.33,0,0,0,2.5-2c.3-.3.7-.6,1-.9.8-.8,1.5-1.6,2.2-2.4.3-.3.5-.7.8-1a30.55,30.55,0,0,0,4.3-8.2,29.38,29.38,0,0,0,1.5-9.4h0a.6.6,0,0,0-.1-.4c0-.1-.1-.2-.2-.3l2.6-.3C300.8,232.2,301.5,232.1,302.1,231.9Z"/><path class="c" d="M168.9,97.3h62a5.7,5.7,0,0,0,5.7-5.7A5.53,5.53,0,0,0,231,86H169a5.7,5.7,0,0,0-5.7,5.7A5.53,5.53,0,0,0,168.9,97.3Z"/></g><path class="d" d="M324.5,197.4a1.11,1.11,0,0,0-1.1-1.1H256.1a30.41,30.41,0,0,0-30.4,30.2,30.61,30.61,0,0,0-25.6,22.6,30.41,30.41,0,0,0-26.2,30.1h69.4a29.38,29.38,0,0,0,28.6-22.7,29.35,29.35,0,0,0,26-29.2h0a.91.91,0,0,0-.3-.7A29.24,29.24,0,0,0,324.5,197.4Z"/><path class="d" d="M75.5,197.4a1.11,1.11,0,0,1,1.1-1.1h67.3a30.41,30.41,0,0,1,30.4,30.2,30.61,30.61,0,0,1,25.6,22.6,30.41,30.41,0,0,1,26.2,30.1H156.7a29.38,29.38,0,0,1-28.6-22.7,29.35,29.35,0,0,1-26-29.2h0a.91.91,0,0,1,.3-.7A29.24,29.24,0,0,1,75.5,197.4Z"/><path class="e" d="M323.4,196.4h-2a29.41,29.41,0,0,1-23.7,16.1.91.91,0,0,1,.3.7h0a29.43,29.43,0,0,1-26,29.2,29.38,29.38,0,0,1-28.6,22.7H156.6A29.38,29.38,0,0,1,128,242.4a29.35,29.35,0,0,1-26-29.2h0a.91.91,0,0,1,.3-.7,29.41,29.41,0,0,1-23.7-16.1h-2a1.11,1.11,0,0,0-1.1,1.1,29.39,29.39,0,0,0,26.8,29.3.91.91,0,0,0-.3.7h0a29.43,29.43,0,0,0,26,29.2,29.38,29.38,0,0,0,28.6,22.7h86.8A29.38,29.38,0,0,0,272,256.7a29.35,29.35,0,0,0,26-29.2h0a.91.91,0,0,0-.3-.7,29.39,29.39,0,0,0,26.8-29.3A1,1,0,0,0,323.4,196.4Z"/><path class="f" d="M324.5,197.4a1.11,1.11,0,0,0-1.1-1.1H256.1a30.41,30.41,0,0,0-30.4,30.2,30.61,30.61,0,0,0-25.6,22.6,30.41,30.41,0,0,0-26.2,30.1h69.4a29.38,29.38,0,0,0,28.6-22.7,29.35,29.35,0,0,0,26-29.2h0a.91.91,0,0,0-.3-.7A29.24,29.24,0,0,0,324.5,197.4Z"/><path class="f" d="M75.5,197.4a1.11,1.11,0,0,1,1.1-1.1h67.3a30.41,30.41,0,0,1,30.4,30.2,30.61,30.61,0,0,1,25.6,22.6,30.41,30.41,0,0,1,26.2,30.1H156.7a29.38,29.38,0,0,1-28.6-22.7,29.35,29.35,0,0,1-26-29.2h0a.91.91,0,0,1,.3-.7A29.24,29.24,0,0,1,75.5,197.4Z"/><path class="g" d="M246.2,320H153.6c-7.1,0-12.5-6.8-11.2-14.2l25.5-118.1h64.5l25,118.1C258.8,313.2,253.4,320,246.2,320Z"/><path class="e" d="M257.3,302.4a11.42,11.42,0,0,1-10.5,7.3H154.2a11.42,11.42,0,0,1-10.5-7.3l-.7,3.4c-1.3,7.4,4.1,14.2,11.2,14.2h92.6c7.1,0,12.5-6.8,11.2-14.2Z"/><path class="h" d="M231,80H169a5.7,5.7,0,0,0-5.7,5.7h0a5.7,5.7,0,0,0,5.7,5.7h62a5.7,5.7,0,0,0,5.7-5.7h0A5.7,5.7,0,0,0,231,80Z"/><path class="f" d="M246.3,320H153.7c-7.1,0-12.5-6.8-11.2-14.2L168,187.7h64.5l25,118.1C258.8,313.2,253.4,320,246.3,320Z"/><circle class="i" cx="200" cy="162.8" r="60.4"/><path class="e" d="M199.9,214a60.43,60.43,0,0,1-60.2-55.8c-.1,1.5-.2,3-.2,4.6a60.4,60.4,0,0,0,120.8,0c0-1.5-.1-3.1-.2-4.6A60.36,60.36,0,0,1,199.9,214Z"/><circle class="f" cx="200" cy="162.8" r="60.4"/><path class="h" d="M200,115.5a64.58,64.58,0,0,0-1.5-14,64.21,64.21,0,0,0-62.7,64.1,65.34,65.34,0,0,0,2.2,16.7A67,67,0,0,0,200,115.5Z"/><path class="h" d="M261.9,182.4a62.5,62.5,0,0,0,2.3-16.8,64.1,64.1,0,0,0-64.1-64.1h-1.3a64.58,64.58,0,0,0-1.5,14A66.83,66.83,0,0,0,261.9,182.4Z"/><path class="e" d="M261.8,172.3a66.93,66.93,0,0,1-63.3-53.2A67.12,67.12,0,0,1,138,172.2a62.48,62.48,0,0,1-2-11.6c-.1,1.7-.2,3.3-.2,5a65.34,65.34,0,0,0,2.2,16.7,67,67,0,0,0,60.5-53.1,66.93,66.93,0,0,0,63.3,53.2,62.5,62.5,0,0,0,2.3-16.8c0-1.7-.1-3.3-.2-5A65.16,65.16,0,0,1,261.8,172.3Z"/><circle class="j" cx="174.8" cy="185.4" r="7.4"/><circle class="j" cx="225.5" cy="185.4" r="7.4"/><circle class="d" cx="200.5" cy="243.5" r="5.5"/><circle class="d" cx="200.5" cy="266.1" r="5.5"/><path class="k" d="M260.3,143.7A64.16,64.16,0,0,0,200,101.5h-1.3a.6.6,0,0,1-.1.4.6.6,0,0,0-.1-.4,64.21,64.21,0,0,0-62.7,64.1,65.34,65.34,0,0,0,2.2,16.7,67,67,0,0,0,60.5-53.1,66.93,66.93,0,0,0,63.3,53.2,62.5,62.5,0,0,0,2.3-16.8c0-1.1,0-2.2-.1-3.3"/><circle class="f" cx="200.5" cy="243.5" r="5.5"/><circle class="f" cx="200.5" cy="266.1" r="5.5"/><circle class="j" cx="174.8" cy="185.4" r="7.4"/><circle class="j" cx="225.5" cy="185.4" r="7.4"/><path class="k" d="M231,80H169a5.7,5.7,0,0,0-5.7,5.7h0a5.7,5.7,0,0,0,5.7,5.7h62a5.7,5.7,0,0,0,5.7-5.7h0A5.7,5.7,0,0,0,231,80Z"/><circle class="l" cx="262.8" cy="152.8" r="1.7"/></svg>