<svg xmlns="http://www.w3.org/2000/svg" xmlns:xlink="http://www.w3.org/1999/xlink" viewBox="0 0 400 400"><defs><style>.a{fill:#ffc392;}.b,.j{opacity:0.2;}.c,.f{fill:#333;}.d{fill:#ffea55;}.e{fill:#ffe443;}.f{opacity:0.1;}.f,.j{isolation:isolate;}.g{fill:#fcd92d;}.h{fill:#ff1717;}.i{fill:#4dff4d;}.j,.k,.m,.n{fill:none;stroke-width:3px;}.j{stroke:#fff;}.j,.m,.n{stroke-linecap:round;}.j,.k,.m{stroke-miterlimit:10;}.k,.m,.n{stroke:#333;}.l{fill:#ff6c6c;}.n{stroke-linejoin:round;}.o{fill:url(#a);}</style><linearGradient id="a" x1="303.75" y1="145.84" x2="307.64" y2="143.46" gradientTransform="matrix(1, 0, 0, -1, 0, 402)" gradientUnits="userSpaceOnUse"><stop offset="0" stop-color="#e34248"/><stop offset="1" stop-color="#9e55a0"/></linearGradient></defs><circle class="a" cx="200" cy="200" r="200"/><g class="b"><path class="c" d="M229.4,299H169.3a30,30,0,0,0,30,30h.6a29.8,29.8,0,0,0,17.9-5.9,10.63,10.63,0,0,0,1.1-.9c.7-.6,1.5-1.3,2.1-1.9l1-1a30.2,30.2,0,0,0,6-9.9,29.36,29.36,0,0,0,1.8-10.3h-.4Z"/><path class="c" d="M307.1,266.6a1.62,1.62,0,0,0-1.2-1.6v-.7l-.3-2.1h0a26,26,0,0,0-1-4h0c0-.1,0-.1-.1-.2-.1-.3-.2-.5-.3-.8V257a26.25,26.25,0,0,0-24.4-16.7h-4.1v-10h0V190c0-1.1.1-2.2.1-3.3a75.78,75.78,0,0,0-29.3-59.9V100.4a11.48,11.48,0,0,0-17.2-9.9l-11.8,6.8-6.1,3.5a17.39,17.39,0,0,0-11.5-4.3,17.92,17.92,0,0,0-8.3,2.1c-.1.1-.2.1-.3.2-.3.2-.5.3-.8.5a5.55,5.55,0,0,0-.8.6h0l-1.2.9-6-3.5-11.8-6.8a11.47,11.47,0,0,0-16.8,6.9,11.24,11.24,0,0,0-.4,3.2v26.3A76,76,0,0,0,127.7,164c-.1.2-.1.3-.2.5l-.9,3c-.1.3-.1.6-.2.9-.2,1-.5,1.9-.7,2.9-.1.4-.1.7-.2,1.1-.1.7-.3,1.4-.4,2s-.2,1.3-.3,2a11,11,0,0,0-.2,1.8c-.1.6-.1,1.2-.2,1.8a1.7,1.7,0,0,1-.1.7c-.1,1.2-.2,2.5-.2,3.7v.4c0,.7-.1,1.3-.1,2h-.1v.1h0v53.6H120a26.26,26.26,0,0,0-25.4,19.8,20.32,20.32,0,0,0-.7,4.3v.2a14.77,14.77,0,0,0-.1,2.1A26.29,26.29,0,0,0,120,293.1H279.7a12.1,12.1,0,0,0,1.9-.1h.4c.6-.1,1.2-.1,1.8-.2h.3l1.6-.3c.1,0,.2-.1.3-.1a10.93,10.93,0,0,0,1.7-.5c.1,0,.2-.1.3-.1l1.5-.6c.1,0,.1-.1.2-.1.5-.2,1.1-.5,1.6-.7.1-.1.2-.1.4-.2l1.5-.9h.1a7.1,7.1,0,0,0,1.4-1c.1-.1.2-.1.3-.2a13.44,13.44,0,0,0,1.4-1.1l.2-.2a12,12,0,0,0,1.2-1.1c.1-.1.2-.1.2-.2a15.38,15.38,0,0,0,1.2-1.3c.1-.1.2-.2.2-.3a6.42,6.42,0,0,0,1-1.3l.1-.1a12.13,12.13,0,0,0,1-1.4c.1-.1.1-.2.2-.3l.9-1.5a.1.1,0,0,1,.1-.1,10.09,10.09,0,0,0,.7-1.5c.1-.1.1-.2.2-.4.2-.5.5-1.1.7-1.6v-.1h0a28.05,28.05,0,0,0,1.5-7.1A2.28,2.28,0,0,0,307.1,266.6Z"/></g><path class="d" d="M276.4,177.8a75.9,75.9,0,1,0-151.8,0h-.1v78.9H276.2V181.1C276.3,180,276.4,178.9,276.4,177.8Z"/><path class="e" d="M280.4,283.9H120.6a26.29,26.29,0,0,1-26.2-26.2h0a26.29,26.29,0,0,1,26.2-26.2H280.3a26.29,26.29,0,0,1,26.2,26.2h0A26.14,26.14,0,0,1,280.4,283.9Z"/><path class="f" d="M280.4,275H120.6a26.49,26.49,0,0,1-25.9-21.8,31.28,31.28,0,0,0-.4,4.4,26.29,26.29,0,0,0,26.2,26.2H280.2a26.29,26.29,0,0,0,26.2-26.2,21.19,21.19,0,0,0-.4-4.4A25.94,25.94,0,0,1,280.4,275Z"/><path class="g" d="M200.5,320a30,30,0,0,0,30-30H170.4A30.11,30.11,0,0,0,200.5,320Z"/><path class="f" d="M200.5,317a30,30,0,0,1-29.9-27h-.2a30,30,0,0,0,60,0h-.2A29.73,29.73,0,0,1,200.5,317Z"/><path class="h" d="M206.2,115a11.53,11.53,0,0,1,0-19.9L218,88.3l11.8-6.8A11.48,11.48,0,0,1,247,91.4v27.2a11.48,11.48,0,0,1-17.2,9.9L218,121.7Z"/><path class="h" d="M194.8,115a11.53,11.53,0,0,0,0-19.9L183,88.4l-11.8-6.8A11.48,11.48,0,0,0,154,91.5v27.2a11.48,11.48,0,0,0,17.2,9.9l11.8-6.8Z"/><path class="f" d="M229.8,121.1,218,114.3l-11.8-6.8a11.54,11.54,0,0,1-5.1-6.1,11.4,11.4,0,0,0,5.1,13.7l11.8,6.8,11.8,6.8a11.48,11.48,0,0,0,17.2-9.9v-7.6A11.46,11.46,0,0,1,229.8,121.1Z"/><path class="f" d="M194.8,107.5,183,114.3l-11.8,6.8a11.48,11.48,0,0,1-17.2-9.9v7.6a11.48,11.48,0,0,0,17.2,9.9l11.8-6.8,11.8-6.8a11.4,11.4,0,0,0,5.1-13.7A12,12,0,0,1,194.8,107.5Z"/><rect class="i" x="124.6" y="207.2" width="151.7" height="24.2"/><rect class="f" x="124.6" y="221.3" width="151.7" height="10.1"/><path class="j" d="M166.6,84.8s-9.1-1.1-8.2,10"/><path class="j" d="M134.9,153.3s-5.3,7.4-5.3,20.4v24"/><path class="j" d="M117.4,235.1s-14.9,2.1-17.5,13.9"/><path class="k" d="M206.3,115a11.53,11.53,0,0,1,0-19.9l11.8-6.8,11.8-6.8a11.48,11.48,0,0,1,17.2,9.9v27.2a11.48,11.48,0,0,1-17.2,9.9l-11.8-6.8Z"/><path class="k" d="M194.8,115a11.53,11.53,0,0,0,0-19.9L183,88.4l-11.8-6.8A11.48,11.48,0,0,0,154,91.5v27.2a11.48,11.48,0,0,0,17.2,9.9l11.8-6.8Z"/><path class="l" d="M217.9,103.1v0Z"/><path class="l" d="M183,105.1a19.48,19.48,0,0,1,.2-2.5,17.48,17.48,0,0,0,34.6,0,17.49,17.49,0,1,0-17.3,20h0A17.46,17.46,0,0,1,183,105.1Z"/><path class="f" d="M217.8,102.6h0a.9.9,0,0,0,.1.5A.75.75,0,0,0,217.8,102.6Z"/><path class="f" d="M217.9,103.4a9.15,9.15,0,0,1,.1,1.7,17.46,17.46,0,0,1-17.5,17.5h0A17.46,17.46,0,0,0,218,105.1,9.7,9.7,0,0,0,217.9,103.4Z"/><path class="l" d="M218,105.1a9.7,9.7,0,0,0-.1-1.7V103a.6.6,0,0,0-.1-.4,17.48,17.48,0,0,1-34.6,0,21.05,21.05,0,0,0-.2,2.5,17.5,17.5,0,1,0,35,0Z"/><path class="f" d="M218,105.1a9.7,9.7,0,0,0-.1-1.7V103a.6.6,0,0,0-.1-.4,17.48,17.48,0,0,1-34.6,0,21.05,21.05,0,0,0-.2,2.5,17.5,17.5,0,1,0,35,0Z"/><path class="m" d="M304.8,248a26.25,26.25,0,0,0-24.4-16.7h-4.1V181c0-1.1.1-2.2.1-3.3a75.78,75.78,0,0,0-29.3-59.9V91.4a11.48,11.48,0,0,0-17.2-9.9L218,88.3l-6.1,3.5a17.53,17.53,0,0,0-23,0l-6.1-3.5L171,81.5a11.48,11.48,0,0,0-17.2,9.9v26.4a75.78,75.78,0,0,0-29.3,59.9h-.1v53.6h-3.9a26.2,26.2,0,0,0,0,52.4H280.2a26.21,26.21,0,0,0,24.4-16.6"/><path class="k" d="M200,320a30,30,0,0,0,30-30H170A30,30,0,0,0,200,320Z"/><path class="n" d="M217.8,103.4V103a.9.9,0,0,0-.1-.5h0a17.48,17.48,0,1,0-17.3,19.9h0a17.46,17.46,0,0,0,17.5-17.5A8.64,8.64,0,0,0,217.8,103.4Z"/><circle class="o" cx="306.1" cy="257.6" r="1.7"/><path class="m" d="M305.1,266.4a26.3,26.3,0,0,1-24.7,17.5H120.6a26.29,26.29,0,0,1-26.2-26.2h0a26.29,26.29,0,0,1,26.2-26.2H280.3a26.28,26.28,0,0,1,24.8,17.8"/></svg>