<svg xmlns="http://www.w3.org/2000/svg" xmlns:xlink="http://www.w3.org/1999/xlink" viewBox="0 0 400 400"><defs><style>.a{fill:#abefac;}.b,.e{fill:#333;isolation:isolate;}.b{opacity:0.2;}.c{fill:#e6feff;}.d,.f{fill:none;stroke:#333;stroke-miterlimit:10;stroke-width:3px;}.e{opacity:0.1;}.f{stroke-linecap:round;}.g{fill:url(#a);}</style><linearGradient id="a" x1="286.98" y1="280.02" x2="290.87" y2="277.63" gradientTransform="matrix(1, 0, 0, -1, 0, 402)" gradientUnits="userSpaceOnUse"><stop offset="0" stop-color="#e34248"/><stop offset="1" stop-color="#9e55a0"/></linearGradient></defs><circle class="a" cx="200" cy="200" r="200"/><path class="b" d="M320.41,202.86h0a14.91,14.91,0,0,0-.25-1.63h0a16.56,16.56,0,0,0-32.41,0H272.21l17.6-14.65a3,3,0,0,0,.65-4.19,2.86,2.86,0,0,0-.65-.65,4.73,4.73,0,0,0-5.81,0l-23.41,19.49H248.21l17.6-14.65a3,3,0,0,0,.56-4.28,3,3,0,0,0-.56-.56,4.74,4.74,0,0,0-5.82,0l-23.41,19.49H231a30.43,30.43,0,0,0-6.53-15.74l4.07-4.07,30.18-2.76a4.73,4.73,0,0,0,4.12-4.11,3,3,0,0,0-2.51-3.42,2.84,2.84,0,0,0-.92,0l-22.65,2.07,8.75-8.75,30.19-2.76a4.73,4.73,0,0,0,4.11-4.12,3,3,0,0,0-2.51-3.42,2.78,2.78,0,0,0-.91,0l-22.66,2.08,10.88-10.88c.27.18.54.33.82.49l.41.24c.32.17.65.32,1,.47l.49.23c.32.13.65.24,1,.35l.55.2c.34.1.68.18,1,.26a4,4,0,0,1,.55.13c.41.09.83.14,1.25.2H272a16.74,16.74,0,0,0,3.32,0,1.07,1.07,0,0,0,.43-.06l1.17-.18.63-.16c.32-.07.63-.15.94-.24l.65-.22c.29-.11.59-.21.88-.33l.6-.27c.29-.14.58-.27.86-.42l.56-.33c.28-.17.56-.32.83-.5s.4-.3.6-.45.47-.33.7-.52a12.25,12.25,0,0,0,1-.91,1.12,1.12,0,0,0,.2-.18l.11-.12a14.67,14.67,0,0,0,1-1.09c.16-.19.3-.4.45-.6s.35-.46.51-.7.29-.47.43-.71.28-.45.41-.68.23-.48.34-.72.25-.5.35-.76.17-.45.25-.68.21-.56.3-.85.11-.43.17-.65.16-.61.22-.93.07-.45.11-.68.1-.61.13-.92,0-.67.05-1a2.52,2.52,0,0,0,0-.62V131a7.78,7.78,0,0,0-.06-1.18c-.06-.39-.07-.49-.11-.74s-.08-.6-.14-.89v-.13h0a16.55,16.55,0,0,0-32.41,0h0v.09c-.09.41-.15.83-.2,1.24a1,1,0,0,1-.05.39,15.45,15.45,0,0,0,0,3.33,3.35,3.35,0,0,0,.07.44c.05.39.1.78.17,1.16l.15.61c.08.32.15.65.25,1a5.74,5.74,0,0,0,.21.59c.07.2.21.63.34.94s.16.34.24.51.29.65.46,1c.08.15.17.29.26.43s.28.5.43.74l-11,11,2.08-22.8a3,3,0,0,0-2.51-3.42,2.78,2.78,0,0,0-.91,0,4.73,4.73,0,0,0-4.11,4.11l-2.77,30.33-8.76,8.75,2.09-22.8a3,3,0,0,0-2.51-3.42,2.78,2.78,0,0,0-.91,0,4.73,4.73,0,0,0-4.11,4.11l-2.78,30.33-4,4A30.55,30.55,0,0,0,204,174.22v-5.73l19.39-23.3a4.73,4.73,0,0,0,0-5.81,3,3,0,0,0-4.19-.65,2.86,2.86,0,0,0-.65.65L204,156.86V144.38l19.39-23.3a4.74,4.74,0,0,0,0-5.82,3,3,0,0,0-4.19-.65,2.86,2.86,0,0,0-.65.65L204,132.75V117.42a16.56,16.56,0,0,0,13.64-16.28,16.81,16.81,0,0,0-.35-3.39c-.09.41-.2.82-.31,1.22a16.55,16.55,0,1,0-19.82,18.37v15.52l-14.65-17.6a3,3,0,0,0-4.19-.65,2.86,2.86,0,0,0-.65.65,4.74,4.74,0,0,0,0,5.82l19.49,23.41v12.38l-14.65-17.6a3,3,0,0,0-4.19-.65,2.86,2.86,0,0,0-.65.65,4.73,4.73,0,0,0,0,5.81l19.49,23.41v5.62a30.56,30.56,0,0,0-15.73,6.53l-4.12-4.12-2.77-30.19a4.73,4.73,0,0,0-4.11-4.11,3,3,0,0,0-3.42,2.51,2.78,2.78,0,0,0,0,.91l2,22.65-8.75-8.75-2.76-30.19a4.73,4.73,0,0,0-4.11-4.11,3,3,0,0,0-3.42,2.51,2.84,2.84,0,0,0,0,.92l2,22.65L141.51,140.8a16.43,16.43,0,0,0,2.4-8.55v-.39a16.54,16.54,0,1,0-33.07-.81q0,.4,0,.81v.39a16.54,16.54,0,0,0,26,13.56l10.43,10.43-22.8-2.09a3,3,0,0,0-3.42,2.51,2.78,2.78,0,0,0,0,.91,4.73,4.73,0,0,0,4.11,4.11l30.33,2.78,8.75,8.75-22.79-2.09a3,3,0,0,0-3.43,2.5,2.9,2.9,0,0,0,0,.93,4.73,4.73,0,0,0,4.12,4.11l30.33,2.77,4.05,4A30.5,30.5,0,0,0,170,201.17h-5.85l-23.31-19.41a4.74,4.74,0,0,0-5.82,0,3,3,0,0,0-.56,4.28,3,3,0,0,0,.56.56l17.51,14.57H140.18l-23.32-19.41a4.73,4.73,0,0,0-5.81,0,3,3,0,0,0-.65,4.19,2.86,2.86,0,0,0,.65.65l17.5,14.57H113.26a16.56,16.56,0,0,0-32.41,0h0a13.5,13.5,0,0,0-.24,1.53v.13a15.76,15.76,0,0,0-.09,1.68h0A16.55,16.55,0,0,0,113.25,208h15.38l-17.58,14.63a3,3,0,0,0-.65,4.19,2.86,2.86,0,0,0,.65.65,4.73,4.73,0,0,0,5.81,0L140.26,208h12.38l-17.59,14.63a3,3,0,0,0-.56,4.28,3,3,0,0,0,.56.56,4.74,4.74,0,0,0,5.82,0L164.26,208H170a30.56,30.56,0,0,0,6.51,15.7l-4.08,4.09-30.21,2.76a4.73,4.73,0,0,0-4.11,4.11,3,3,0,0,0,2.51,3.42,2.78,2.78,0,0,0,.91,0L164.18,236l-8.76,8.75-30.2,2.77a4.73,4.73,0,0,0-4.11,4.11,3,3,0,0,0,2.51,3.42,2.78,2.78,0,0,0,.91,0L147.2,253l-10.84,10.85a16.55,16.55,0,0,0-25.21,10.52h0v.1c-.07.36-.12.74-.17,1.11,0,.17-.06.34-.07.52a16.44,16.44,0,0,0,0,3.29,4.32,4.32,0,0,0,.11.72c0,.24.07.59.13.88s.13.55.2.82.12.51.19.76.18.52.28.78.17.5.27.74.22.48.33.72.23.51.36.75.27.45.4.67.28.48.44.72.34.48.52.71.28.4.44.59a15.76,15.76,0,0,0,2.31,2.31c.19.16.39.3.59.44l.71.53.72.43c.23.14.44.28.67.4l.75.36.72.33.74.28c.25.09.52.19.79.27s.5.13.75.19.54.15.82.2l.87.14c.29,0,.49.08.73.1a16.24,16.24,0,0,0,3.27,0,5.83,5.83,0,0,0,.73-.1c.24,0,.58-.08.87-.14s.55-.13.82-.2.5-.11.75-.19l.79-.27c.26-.09.5-.17.74-.28l.72-.33.75-.36c.23-.12.44-.26.66-.39l.73-.44.71-.53c.2-.14.4-.28.59-.44a15.76,15.76,0,0,0,2.31-2.31c.16-.19.29-.39.44-.59s.36-.46.52-.71.3-.48.44-.72.27-.44.4-.67.24-.5.36-.75.23-.47.33-.72.18-.49.27-.74.2-.52.28-.79.13-.5.19-.75.15-.54.2-.82.09-.58.13-.87.09-.48.11-.73a16.44,16.44,0,0,0,0-3.29,4.85,4.85,0,0,0-.08-.53c-.05-.37-.1-.74-.17-1.1v-.1h0a16.67,16.67,0,0,0-2.35-5.7l10.89-10.89L150,280.55a3,3,0,0,0,2.51,3.42,2.78,2.78,0,0,0,.91,0,4.73,4.73,0,0,0,4.11-4.11l2.78-30.31,8.75-8.75L167,263.58a3,3,0,0,0,2.51,3.42,2.78,2.78,0,0,0,.91,0,4.73,4.73,0,0,0,4.11-4.11l2.77-30.31,4-4a30.55,30.55,0,0,0,15.76,6.51v5.83l-19.41,23.32a4.73,4.73,0,0,0,0,5.81,3,3,0,0,0,4.19.65,2.86,2.86,0,0,0,.65-.65l14.57-17.5V264.9l-19.41,23.31a4.74,4.74,0,0,0,0,5.82,3,3,0,0,0,4.28.56,3,3,0,0,0,.56-.56l14.57-17.51v15.31a16.54,16.54,0,0,0-12.81,12.93v-.13a16.56,16.56,0,0,0,16.2,19.95h.06a16.55,16.55,0,0,0,3.42-32.75V276.44L218.55,294a3,3,0,0,0,4.28.56,3,3,0,0,0,.56-.56,4.74,4.74,0,0,0,0-5.82l-19.47-23.39V252.44L218.55,270a3,3,0,0,0,4.19.65,2.86,2.86,0,0,0,.65-.65,4.73,4.73,0,0,0,0-5.81l-19.47-23.4V235a30.49,30.49,0,0,0,15.68-6.48l4.06,4.06,2.76,30.2a4.73,4.73,0,0,0,4.12,4.11,3,3,0,0,0,3.42-2.51,2.78,2.78,0,0,0,0-.91l-2.08-22.67,8.75,8.75,2.77,30.21a4.73,4.73,0,0,0,4.11,4.11,3,3,0,0,0,3.42-2.51,2.78,2.78,0,0,0,0-.91l-2.07-22.68,10.89,10.9a16.72,16.72,0,0,0-2.31,5.63h0v.09c-.07.38-.12.76-.17,1.13,0,.17-.06.34-.07.5a15.43,15.43,0,0,0-.09,1.67h0a10.72,10.72,0,0,0,.08,1.6,6.32,6.32,0,0,0,.11.76c0,.25.07.56.13.84s.14.57.21.86.11.47.18.71.19.56.29.83.16.47.26.69.23.52.36.78.21.47.33.69.29.5.44.74.25.44.39.65.4.56.61.83.23.32.35.47a17.1,17.1,0,0,0,2.33,2.33c.14.12.29.21.43.32s.58.44.88.65.4.24.59.36l.8.47.63.3c.28.13.55.27.84.39l.61.22c.3.12.61.23.92.33l.59.15c.32.08.65.17,1,.24l.63.09c.32.05.64.11,1,.14s.63,0,1,0a2.93,2.93,0,0,0,.67,0h.66a6.65,6.65,0,0,0,.95,0l1-.14.63-.09,1-.24.59-.15c.31-.1.62-.21.92-.33L280,293c.29-.12.56-.25.84-.39s.43-.19.63-.3l.8-.47c.27-.16.4-.23.6-.37l.87-.64c.29-.22.29-.2.43-.32a17.1,17.1,0,0,0,2.33-2.33c.12-.15.23-.31.35-.47s.42-.54.61-.83.26-.43.39-.65.31-.48.44-.74l.34-.69c.11-.23.25-.51.36-.77s.17-.47.25-.7.21-.55.29-.83.12-.48.18-.71.16-.57.21-.86.09-.56.13-.84.09-.5.11-.76c0-.53.08-1.07.08-1.6h0a11.68,11.68,0,0,0-.08-1.67,2.78,2.78,0,0,0-.08-.49,6.41,6.41,0,0,0-.17-1.14v-.09h0a16.56,16.56,0,0,0-25.27-10.48L253.7,252.92,276.42,255a3,3,0,0,0,3.42-2.51,2.78,2.78,0,0,0,0-.91,4.73,4.73,0,0,0-4.11-4.11l-30.32-2.78L236.66,236l22.78,2a3,3,0,0,0,3.42-2.51,2.78,2.78,0,0,0,0-.91,4.71,4.71,0,0,0-4.11-4.11l-30.31-2.78-4-4A30.52,30.52,0,0,0,231,208h5.72L260,227.4a4.74,4.74,0,0,0,5.82,0,3,3,0,0,0,.56-4.28,3,3,0,0,0-.56-.56L248.32,208H260.7L284,227.4a4.73,4.73,0,0,0,5.81,0,3,3,0,0,0,.65-4.19,2.86,2.86,0,0,0-.65-.65L272.33,208h15.42c.1.5.23,1,.38,1.49a16.68,16.68,0,0,0,2.08,4.34,10.71,10.71,0,0,0,1,1.27,16.51,16.51,0,0,0,12.77,6h0a16.54,16.54,0,0,0,12.78-6c.34-.41.65-.83.95-1.27a15.52,15.52,0,0,0,2.7-11Z"/><path class="c" d="M203.42,260.23V247.86l14.63,17.58a3,3,0,0,0,4.19.65,2.86,2.86,0,0,0,.65-.65,4.74,4.74,0,0,0,0-5.82l-19.47-23.39V163.8l19.39-23.3a4.73,4.73,0,0,0,0-5.81,3,3,0,0,0-4.19-.65,2.86,2.86,0,0,0-.65.65l-14.55,17.48V139.8l19.39-23.3a4.74,4.74,0,0,0,0-5.82,3,3,0,0,0-4.19-.65,2.86,2.86,0,0,0-.65.65l-14.55,17.49V110.44c0-2.26-1.54-4.11-3.42-4.11s-3.42,1.85-3.42,4.11v17.84l-14.65-17.6a3,3,0,0,0-4.19-.65,2.86,2.86,0,0,0-.65.65,4.74,4.74,0,0,0,0,5.82l19.49,23.41v12.37l-14.65-17.59a3,3,0,0,0-4.19-.65,2.86,2.86,0,0,0-.65.65,4.73,4.73,0,0,0,0,5.81l19.49,23.41v72.4l-19.41,23.31a4.74,4.74,0,0,0,0,5.82,3,3,0,0,0,4.19.65,2.86,2.86,0,0,0,.65-.65l14.57-17.5v12.37l-19.41,23.32a4.73,4.73,0,0,0,0,5.81,3,3,0,0,0,4.19.65,2.86,2.86,0,0,0,.65-.65l14.57-17.5v17.62c0,2.26,1.54,4.11,3.42,4.11s3.42-1.85,3.42-4.11v-17.7l14.63,17.58a3,3,0,0,0,4.19.65,2.86,2.86,0,0,0,.65-.65,4.73,4.73,0,0,0,0-5.81Z"/><path class="c" d="M139.76,203.43h12.38l-17.59,14.63a3,3,0,0,0-.56,4.28,3,3,0,0,0,.56.56,4.74,4.74,0,0,0,5.82,0l23.39-19.47h72.43l23.3,19.39a4.74,4.74,0,0,0,5.82,0,3,3,0,0,0,.56-4.28,3,3,0,0,0-.56-.56l-17.49-14.55H260.2l23.3,19.39a4.73,4.73,0,0,0,5.81,0,3,3,0,0,0,.65-4.19,2.86,2.86,0,0,0-.65-.65l-17.48-14.55h17.72c2.26,0,4.11-1.54,4.11-3.42s-1.85-3.43-4.11-3.43H271.71l17.6-14.64a3,3,0,0,0,.65-4.19,2.86,2.86,0,0,0-.65-.65,4.73,4.73,0,0,0-5.81,0l-23.41,19.48H247.71l17.6-14.64a3,3,0,0,0,.56-4.28,3,3,0,0,0-.56-.56,4.74,4.74,0,0,0-5.82,0l-23.41,19.48h-72.4l-23.31-19.4a4.74,4.74,0,0,0-5.82,0,3,3,0,0,0-.56,4.28,3,3,0,0,0,.56.56l17.51,14.56H139.68l-23.32-19.4a4.73,4.73,0,0,0-5.81,0,3,3,0,0,0-.65,4.19,2.86,2.86,0,0,0,.65.65l17.5,14.56H110.44c-2.26,0-4.11,1.54-4.11,3.43s1.85,3.42,4.11,3.42h17.69l-17.58,14.63a3,3,0,0,0-.65,4.19,2.86,2.86,0,0,0,.65.65,4.73,4.73,0,0,0,5.81,0Z"/><path class="c" d="M159.82,245l8.75-8.75L166.49,259a3,3,0,0,0,2.51,3.42,2.78,2.78,0,0,0,.91,0,4.73,4.73,0,0,0,4.11-4.11L176.79,228,228,176.78,258.19,174a4.73,4.73,0,0,0,4.12-4.11,3,3,0,0,0-2.51-3.42,2.84,2.84,0,0,0-.92,0l-22.65,2.07,8.75-8.75L275.17,157a4.73,4.73,0,0,0,4.11-4.11,3,3,0,0,0-2.51-3.42,2.78,2.78,0,0,0-.91,0l-22.66,2.07L265.74,139c1.6-1.6,1.81-4,.48-5.32s-3.72-1.11-5.32.48l-12.61,12.61L250.37,124a3,3,0,0,0-2.51-3.42,2.78,2.78,0,0,0-.91,0,4.71,4.71,0,0,0-4.11,4.11L240.07,155l-8.76,8.75L233.4,141a3,3,0,0,0-2.51-3.42,2.78,2.78,0,0,0-.91,0,4.73,4.73,0,0,0-4.11,4.11L223.09,172,171.9,223.21,141.69,226a4.73,4.73,0,0,0-4.11,4.11,3,3,0,0,0,2.51,3.42,2.78,2.78,0,0,0,.91,0l22.68-2.07-8.76,8.75L124.72,243a4.73,4.73,0,0,0-4.11,4.12,3,3,0,0,0,2.51,3.42,2.78,2.78,0,0,0,.91,0l22.67-2.08-12.45,12.46c-1.6,1.59-1.82,4-.49,5.32s3.73,1.11,5.33-.49l12.51-12.51L149.51,276a3,3,0,0,0,2.51,3.42,2.78,2.78,0,0,0,.91,0,4.73,4.73,0,0,0,4.11-4.11Z"/><path class="c" d="M244.91,240.12l-8.75-8.75,22.78,2.09a3,3,0,0,0,3.42-2.51,2.84,2.84,0,0,0,0-.92,4.73,4.73,0,0,0-4.11-4.11l-30.31-2.77-51.21-51.22L174,141.75a4.73,4.73,0,0,0-4.11-4.11,3,3,0,0,0-3.42,2.51,2.78,2.78,0,0,0,0,.91l2.07,22.65L159.75,155,157,124.77a4.73,4.73,0,0,0-4.11-4.11,3,3,0,0,0-3.42,2.51,2.78,2.78,0,0,0,0,.91l2.07,22.66L139,134.21c-1.6-1.6-4-1.82-5.33-.49s-1.11,3.73.49,5.32l12.61,12.61L124,149.57a3,3,0,0,0-3.42,2.51,2.78,2.78,0,0,0,0,.91,4.73,4.73,0,0,0,4.11,4.11L155,159.88l8.75,8.75L141,166.54a3,3,0,0,0-3.43,2.5,2.84,2.84,0,0,0,0,.92,4.73,4.73,0,0,0,4.12,4.11L172,176.85,223.16,228l2.76,30.21a4.73,4.73,0,0,0,4.12,4.11,3,3,0,0,0,3.42-2.51,2.78,2.78,0,0,0,0-.91l-2.08-22.67,8.75,8.75,2.77,30.2A4.73,4.73,0,0,0,247,279.3a3,3,0,0,0,3.42-2.51,2.84,2.84,0,0,0,0-.92l-2.07-22.67,12.45,12.45c1.6,1.6,4,1.82,5.33.49s1.11-3.73-.49-5.32L253.14,248.3l22.78,2.09a3,3,0,0,0,3.42-2.51,2.78,2.78,0,0,0,0-.91,4.73,4.73,0,0,0-4.11-4.11Z"/><path class="d" d="M203.42,260.23V247.86l14.63,17.58a3,3,0,0,0,4.19.65,2.86,2.86,0,0,0,.65-.65,4.74,4.74,0,0,0,0-5.82l-19.47-23.39V163.8l19.39-23.3a4.73,4.73,0,0,0,0-5.81,3,3,0,0,0-4.19-.65,2.86,2.86,0,0,0-.65.65l-14.55,17.48V139.8l19.39-23.3a4.74,4.74,0,0,0,0-5.82,3,3,0,0,0-4.19-.65,2.86,2.86,0,0,0-.65.65l-14.55,17.49V110.44c0-2.26-1.54-4.11-3.42-4.11s-3.42,1.85-3.42,4.11v17.84l-14.65-17.6a3,3,0,0,0-4.19-.65,2.86,2.86,0,0,0-.65.65,4.74,4.74,0,0,0,0,5.82l19.49,23.41v12.37l-14.65-17.59a3,3,0,0,0-4.19-.65,2.86,2.86,0,0,0-.65.65,4.73,4.73,0,0,0,0,5.81l19.49,23.41v72.4l-19.41,23.31a4.74,4.74,0,0,0,0,5.82,3,3,0,0,0,4.19.65,2.86,2.86,0,0,0,.65-.65l14.57-17.5v12.37l-19.41,23.32a4.73,4.73,0,0,0,0,5.81,3,3,0,0,0,4.19.65,2.86,2.86,0,0,0,.65-.65l14.57-17.5v17.62c0,2.26,1.54,4.11,3.42,4.11s3.42-1.85,3.42-4.11v-17.7l14.63,17.58a3,3,0,0,0,4.19.65,2.86,2.86,0,0,0,.65-.65,4.73,4.73,0,0,0,0-5.81Z"/><path class="d" d="M139.76,203.43h12.38l-17.59,14.63a3,3,0,0,0-.56,4.28,3,3,0,0,0,.56.56,4.74,4.74,0,0,0,5.82,0l23.39-19.47h72.43l23.3,19.39a4.74,4.74,0,0,0,5.82,0,3,3,0,0,0,.56-4.28,3,3,0,0,0-.56-.56l-17.49-14.55H260.2l23.3,19.39a4.73,4.73,0,0,0,5.81,0,3,3,0,0,0,.65-4.19,2.86,2.86,0,0,0-.65-.65l-17.48-14.55h17.72c2.26,0,4.11-1.54,4.11-3.42s-1.85-3.43-4.11-3.43H271.71l17.6-14.64a3,3,0,0,0,.65-4.19,2.86,2.86,0,0,0-.65-.65,4.73,4.73,0,0,0-5.81,0l-23.41,19.48H247.71l17.6-14.64a3,3,0,0,0,.56-4.28,3,3,0,0,0-.56-.56,4.74,4.74,0,0,0-5.82,0l-23.41,19.48h-72.4l-23.31-19.4a4.74,4.74,0,0,0-5.82,0,3,3,0,0,0-.56,4.28,3,3,0,0,0,.56.56l17.51,14.56H139.68l-23.32-19.4a4.73,4.73,0,0,0-5.81,0,3,3,0,0,0-.65,4.19,2.86,2.86,0,0,0,.65.65l17.5,14.56H110.44c-2.26,0-4.11,1.54-4.11,3.43s1.85,3.42,4.11,3.42h17.69l-17.58,14.63a3,3,0,0,0-.65,4.19,2.86,2.86,0,0,0,.65.65,4.73,4.73,0,0,0,5.81,0Z"/><path class="d" d="M159.82,245l8.75-8.75L166.49,259a3,3,0,0,0,2.51,3.42,2.78,2.78,0,0,0,.91,0,4.73,4.73,0,0,0,4.11-4.11L176.79,228,228,176.78,258.19,174a4.73,4.73,0,0,0,4.12-4.11,3,3,0,0,0-2.51-3.42,2.84,2.84,0,0,0-.92,0l-22.65,2.07,8.75-8.75L275.17,157a4.73,4.73,0,0,0,4.11-4.11,3,3,0,0,0-2.51-3.42,2.78,2.78,0,0,0-.91,0l-22.66,2.07L265.74,139c1.6-1.6,1.81-4,.48-5.32s-3.72-1.11-5.32.48l-12.61,12.61L250.37,124a3,3,0,0,0-2.51-3.42,2.78,2.78,0,0,0-.91,0,4.71,4.71,0,0,0-4.11,4.11L240.07,155l-8.76,8.75L233.4,141a3,3,0,0,0-2.51-3.42,2.78,2.78,0,0,0-.91,0,4.73,4.73,0,0,0-4.11,4.11L223.09,172,171.9,223.21,141.69,226a4.73,4.73,0,0,0-4.11,4.11,3,3,0,0,0,2.51,3.42,2.78,2.78,0,0,0,.91,0l22.68-2.07-8.76,8.75L124.72,243a4.73,4.73,0,0,0-4.11,4.12,3,3,0,0,0,2.51,3.42,2.78,2.78,0,0,0,.91,0l22.67-2.08-12.45,12.46c-1.6,1.59-1.82,4-.49,5.32s3.73,1.11,5.33-.49l12.51-12.51L149.51,276a3,3,0,0,0,2.51,3.42,2.78,2.78,0,0,0,.91,0,4.73,4.73,0,0,0,4.11-4.11Z"/><path class="d" d="M244.91,240.12l-8.75-8.75,22.78,2.09a3,3,0,0,0,3.42-2.51,2.84,2.84,0,0,0,0-.92,4.73,4.73,0,0,0-4.11-4.11l-30.31-2.77-51.21-51.22L174,141.75a4.73,4.73,0,0,0-4.11-4.11,3,3,0,0,0-3.42,2.51,2.78,2.78,0,0,0,0,.91l2.07,22.65L159.75,155,157,124.77a4.73,4.73,0,0,0-4.11-4.11,3,3,0,0,0-3.42,2.51,2.78,2.78,0,0,0,0,.91l2.07,22.66L139,134.21c-1.6-1.6-4-1.82-5.33-.49s-1.11,3.73.49,5.32l12.61,12.61L124,149.57a3,3,0,0,0-3.42,2.51,2.78,2.78,0,0,0,0,.91,4.73,4.73,0,0,0,4.11,4.11L155,159.88l8.75,8.75L141,166.54a3,3,0,0,0-3.43,2.5,2.84,2.84,0,0,0,0,.92,4.73,4.73,0,0,0,4.12,4.11L172,176.85,223.16,228l2.76,30.21a4.73,4.73,0,0,0,4.12,4.11,3,3,0,0,0,3.42-2.51,2.78,2.78,0,0,0,0-.91l-2.08-22.67,8.75,8.75,2.77,30.2A4.73,4.73,0,0,0,247,279.3a3,3,0,0,0,3.42-2.51,2.84,2.84,0,0,0,0-.92l-2.07-22.67,12.45,12.45c1.6,1.6,4,1.82,5.33.49s1.11-3.73-.49-5.32L253.14,248.3l22.78,2.09a3,3,0,0,0,3.42-2.51,2.78,2.78,0,0,0,0-.91,4.73,4.73,0,0,0-4.11-4.11Z"/><circle class="c" cx="200" cy="200" r="30.67"/><path class="e" d="M199.94,223.9a30.66,30.66,0,0,1-30.47-27.29,29.63,29.63,0,0,0-.19,3.39,30.67,30.67,0,1,0,61.33,1.11q0-.56,0-1.11a32.1,32.1,0,0,0-.19-3.39A30.67,30.67,0,0,1,199.94,223.9Z"/><circle class="c" cx="200" cy="96.56" r="16.56"/><circle class="c" cx="126.85" cy="126.86" r="16.56"/><circle class="c" cx="96.56" cy="200" r="16.56"/><circle class="c" cx="126.86" cy="273.15" r="16.56"/><circle class="c" cx="200" cy="303.44" r="16.56"/><circle class="c" cx="273.15" cy="273.14" r="16.56"/><circle class="c" cx="303.44" cy="200" r="16.56"/><circle class="c" cx="273.14" cy="126.85" r="16.56"/><path class="e" d="M200.5,106.33a16.56,16.56,0,0,1-16.21-13.16,16.81,16.81,0,0,0-.35,3.39,16.56,16.56,0,0,0,33.12,0,16.81,16.81,0,0,0-.35-3.39A16.56,16.56,0,0,1,200.5,106.33Z"/><path class="e" d="M126.85,137.44a16.54,16.54,0,0,1-16.2-13.16,16.56,16.56,0,1,0,32.41,0A16.55,16.55,0,0,1,126.85,137.44Z"/><path class="e" d="M96.56,209.78a16.55,16.55,0,0,1-16.21-13.17,16.56,16.56,0,1,0,32.41,0A16.55,16.55,0,0,1,96.56,209.78Z"/><path class="e" d="M126.86,282.92a16.56,16.56,0,0,1-16.21-13.16,16.74,16.74,0,0,0-.35,3.39,16.56,16.56,0,0,0,33.11,0,16.74,16.74,0,0,0-.35-3.39A16.55,16.55,0,0,1,126.86,282.92Z"/><path class="e" d="M199.94,313.22a16.55,16.55,0,0,1-16.2-13.17,16.56,16.56,0,1,0,32.41,0A16.56,16.56,0,0,1,199.94,313.22Z"/><path class="e" d="M273.15,282.92a16.56,16.56,0,0,1-16.21-13.16,16.74,16.74,0,0,0-.35,3.39,16.56,16.56,0,0,0,33.11,0,16.74,16.74,0,0,0-.35-3.39A16.55,16.55,0,0,1,273.15,282.92Z"/><path class="e" d="M303.44,209.78a16.55,16.55,0,0,1-16.2-13.17,16.56,16.56,0,1,0,32.41,0A16.56,16.56,0,0,1,303.44,209.78Z"/><path class="e" d="M273.15,136.63a16.55,16.55,0,0,1-16.21-13.17,16.56,16.56,0,1,0,32.41,0A16.55,16.55,0,0,1,273.15,136.63Z"/><circle class="d" cx="200" cy="96.56" r="16.56"/><circle class="d" cx="126.85" cy="126.86" r="16.56"/><circle class="d" cx="96.56" cy="200" r="16.56"/><circle class="d" cx="126.86" cy="273.15" r="16.56"/><circle class="d" cx="200" cy="303.44" r="16.56"/><circle class="d" cx="273.15" cy="273.14" r="16.56"/><circle class="d" cx="303.44" cy="200" r="16.56"/><path class="f" d="M284.85,115.15c-.09-.09-.17-.18-.26-.26a16.52,16.52,0,1,0,3.85,18.32"/><circle class="d" cx="200" cy="200" r="30.67"/><circle class="g" cx="289.35" cy="123.43" r="1.67"/></svg>