<svg xmlns="http://www.w3.org/2000/svg" xmlns:xlink="http://www.w3.org/1999/xlink" viewBox="0 0 400 400"><defs><style>.a{fill:#ccfffe;}.b,.e,.j{fill:#333;}.b{opacity:0.2;}.b,.j{isolation:isolate;}.c{fill:#ff99e2;}.d,.j{opacity:0.1;}.f{fill:#ffda9f;}.g,.h{fill:none;stroke:#333;stroke-linejoin:round;stroke-width:3px;}.g{stroke-linecap:round;}.i{fill:#db996b;}.k{fill:#ff1f1f;}.l{fill:#232323;}.m{fill:url(#a);}</style><linearGradient id="a" x1="281.4" y1="183.46" x2="285.29" y2="181.07" gradientTransform="matrix(1, 0, 0, -1, 0, 402)" gradientUnits="userSpaceOnUse"><stop offset="0" stop-color="#e34248"/><stop offset="1" stop-color="#9e55a0"/></linearGradient></defs><circle class="a" cx="200" cy="200" r="200"/><path class="b" d="M340.23,102c-.06.31-.13.62-.19.94a8.94,8.94,0,0,0-8.75-7H330a9.19,9.19,0,0,0-8.77,7.36c-4.8,19.88-28.94,19.51-28.94,19.51h-4.62l.31-.53a16.57,16.57,0,0,0,1.95-5.58h.45a68,68,0,0,0,.82-14.11c-.07,1.83-.2,3.73-.43,5.55a97,97,0,0,0-.27-10.23h0a5.14,5.14,0,0,0,.06-.55A9.28,9.28,0,0,0,272,96.75c0,.2,0,.41,0,.61a2.09,2.09,0,0,0,.05.55H272c-.17,20.88-5.72,26.33-8.81,27.75l-2,.5h-.06a80.22,80.22,0,0,0-7.84,2.5,88.55,88.55,0,0,0-106.09,0,81.51,81.51,0,0,0-7.77-2.47h-.07c-.64-.17-1.28-.34-2-.5-3.09-1.42-8.65-6.87-8.81-27.75h-.1c0-.19.06-.37.06-.55A9.28,9.28,0,1,0,110,96.78c0,.2,0,.41,0,.61v.55h0s-1.6,17.86,2.52,24.38l.31.53h-4.62s-24.14.37-28.95-19.51A9.17,9.17,0,0,0,70.46,96H69.27a8.85,8.85,0,0,0-8.92,8.79,7.26,7.26,0,0,0,.06,1.14c1.48,11.2,8.36,28.55,36,33.8a8.91,8.91,0,0,0,1.63.15,8.28,8.28,0,0,0,1.22,0c1.34-.09,3.81-.22,7-.24a106.94,106.94,0,0,1,26.13,3,88.38,88.38,0,0,0-7,9.56,52.23,52.23,0,0,0-5.76-3.09c-17-7.76-35.54-5.36-46.91,4.72h0v.06h0c-.21,15.2,10.13,30.84,27.1,38.6a51.55,51.55,0,0,0,12,3.79c0,1.06-.06,2.13-.06,3.21a88.24,88.24,0,0,0,25.94,62.61c0,1.09-.08,2.19-.08,3.29A62.66,62.66,0,0,0,200.22,328h.5a62.66,62.66,0,0,0,62.66-62.66h0c0-1.1,0-2.2-.09-3.29a88.23,88.23,0,0,0,25.95-62.61c0-1.1,0-2.2-.07-3.29a50.72,50.72,0,0,0,11.53-3.71c17-7.76,27.31-23.4,27.1-38.6h0v-.06h0l-.64-.54h0c-11.41-9.66-29.64-11.84-46.32-4.22a52.09,52.09,0,0,0-5.75,3.09,88.49,88.49,0,0,0-6.91-9.44,106.25,106.25,0,0,1,26.58-3.13c3.21,0,5.68.15,7,.24a8.28,8.28,0,0,0,1.22,0,8.91,8.91,0,0,0,1.63-.15c27.67-5.25,34.55-22.6,36-33.8A8.72,8.72,0,0,0,340.23,102ZM262.79,262.05v.26A2.25,2.25,0,0,0,262.79,262.05Zm25.92-64.51v-1.3h.16c-.08.41-.11.86-.16,1.3Z"/><path class="c" d="M72.47,145.84c-.2,15.2,10.14,30.84,27.11,38.6s35.56,5.37,46.93-4.73h.05v-.06h0c.21-15.21-10.14-30.84-27.11-38.61s-35.56-5.36-46.93,4.74h0v.06h0Z"/><path class="c" d="M327.53,145.84c.2,15.2-10.14,30.84-27.11,38.6s-35.56,5.37-46.93-4.73h-.05v-.06h0c-.21-15.21,10.14-30.84,27.11-38.61s35.56-5.36,46.93,4.74h0v.06h0Z"/><g class="d"><path class="e" d="M146.61,179.61a34,34,0,0,0-.7-7.32c-11.41,9.63-29.62,11.8-46.27,4.18C85.38,170,75.81,157.88,73.23,145.18l-.65.56h0v.06h0c-.21,15.2,10.13,30.84,27.11,38.6s35.56,5.37,46.93-4.73h0v-.06h0Z"/><path class="e" d="M327.58,145.72h-.05l-.65-.56c-2.58,12.7-12.15,24.77-26.4,31.29-16.66,7.62-34.87,5.45-46.28-4.18a34.6,34.6,0,0,0-.7,7.32h0v.06h.05c11.36,10.1,29.95,12.49,46.93,4.73s27.31-23.4,27.1-38.6h0Z"/></g><path class="f" d="M331.06,87.88h-1.27A9.18,9.18,0,0,0,321,95.24c-4.8,19.88-28.94,19.51-28.94,19.51h-4.62l.3-.53c4.13-6.52,2.52-24.38,2.52-24.38h0c0-.19.06-.37.06-.55a9.28,9.28,0,1,0-18.55-.61c0,.2,0,.41,0,.61a2.09,2.09,0,0,0,.05.55h-.1c-.16,20.88-5.71,26.33-8.8,27.75l-2,.5h-.06c-11.39,3-18.79,7.45-23.3,11.15a8.87,8.87,0,0,0-1.17,12.5l.06.08.35.41a8.76,8.76,0,0,0,12.29,1.25c16-13.43,46.17-12.14,52.35-11.72a9.66,9.66,0,0,0,2.4-.15c27.67-5.25,34.56-22.6,36-33.8a8.87,8.87,0,0,0-7.73-9.87A9.24,9.24,0,0,0,331.06,87.88Z"/><path class="f" d="M69.05,87.88h1.27a9.19,9.19,0,0,1,8.77,7.36C83.9,115.12,108,114.75,108,114.75h4.68l-.31-.53c-4.12-6.52-2.52-24.38-2.52-24.38h0c0-.19-.06-.37-.06-.55a9.28,9.28,0,0,1,18.56,0c0,.18,0,.36-.06.55h.1c.16,20.88,5.72,26.33,8.8,27.75l2,.5h.06c11.39,3,18.79,7.45,23.31,11.15a8.89,8.89,0,0,1,1.15,12.52l-.05.06-.35.41A8.76,8.76,0,0,1,151,143.48c-16-13.43-46.16-12.14-52.35-11.72a9.66,9.66,0,0,1-2.4-.15c-27.67-5.25-34.55-22.6-36-33.8A8.87,8.87,0,0,1,68,87.94,9.46,9.46,0,0,1,69.05,87.88Z"/><g class="d"><path class="e" d="M304.34,125.5a9.71,9.71,0,0,1-2.41.15c-6.18-.42-36.35-1.71-52.34,11.72a8.76,8.76,0,0,1-12.29-1.25l-.35-.42a8.83,8.83,0,0,1-1.56-2.71,8.93,8.93,0,0,0,1.56,8.83l.35.41a8.76,8.76,0,0,0,12.29,1.25c16-13.43,46.16-12.14,52.34-11.72a9.71,9.71,0,0,0,2.41-.15c27.67-5.25,34.55-22.6,36-33.8A8.49,8.49,0,0,0,340,94C337.9,105.11,330.2,120.59,304.34,125.5Z"/><path class="e" d="M287.9,108.63h2.26A67.43,67.43,0,0,0,291,94.51c-.17,5-.85,10.54-2.77,13.59Z"/></g><g class="d"><path class="e" d="M164.05,135.7l-.35.42a8.76,8.76,0,0,1-12.29,1.25c-16-13.43-46.16-12.14-52.34-11.72a9.71,9.71,0,0,1-2.41-.15C70.8,120.59,63.1,105.11,61,94a8.53,8.53,0,0,0-.37,3.85c1.48,11.2,8.36,28.55,36,33.8a9.71,9.71,0,0,0,2.41.15c6.18-.42,36.35-1.71,52.34,11.72a8.76,8.76,0,0,0,12.29-1.25l.35-.41a8.93,8.93,0,0,0,1.56-8.83A8.87,8.87,0,0,1,164.05,135.7Z"/><path class="e" d="M113.16,108.65h-.06l-.31-.53c-1.92-3-2.6-8.57-2.77-13.59a68,68,0,0,0,.81,14.11Z"/></g><path class="g" d="M72.47,145.84c-.2,15.2,10.14,30.84,27.11,38.6s35.56,5.37,46.93-4.73h.05v-.06h0c.21-15.21-10.14-30.84-27.11-38.61s-35.56-5.36-46.93,4.74h0v.06h0Z"/><path class="g" d="M327.53,145.84c.2,15.2-10.14,30.84-27.11,38.6s-35.56,5.37-46.93-4.73h-.05v-.06h0c-.21-15.21,10.14-30.84,27.11-38.61s35.56-5.36,46.93,4.74h0v.06h0Z"/><path class="h" d="M331.06,87.88h-1.27A9.18,9.18,0,0,0,321,95.24c-4.8,19.88-28.94,19.51-28.94,19.51h-4.62l.3-.53c4.13-6.52,2.52-24.38,2.52-24.38h0c0-.19.06-.37.06-.55a9.28,9.28,0,1,0-18.55-.61c0,.2,0,.41,0,.61a2.09,2.09,0,0,0,.05.55h-.1c-.16,20.88-5.71,26.33-8.8,27.75l-2,.5h-.06c-11.39,3-18.79,7.45-23.3,11.15a8.87,8.87,0,0,0-1.17,12.5l.06.08.35.41a8.76,8.76,0,0,0,12.29,1.25c16-13.43,46.17-12.14,52.35-11.72a9.66,9.66,0,0,0,2.4-.15c27.67-5.25,34.56-22.6,36-33.8a8.87,8.87,0,0,0-7.73-9.87A9.24,9.24,0,0,0,331.06,87.88Z"/><path class="g" d="M69.05,87.88h1.27a9.19,9.19,0,0,1,8.77,7.36C83.9,115.12,108,114.75,108,114.75h4.68l-.31-.53c-4.12-6.52-2.52-24.38-2.52-24.38h0c0-.19-.06-.37-.06-.55a9.28,9.28,0,0,1,18.56,0c0,.18,0,.36-.06.55h.1c.16,20.88,5.72,26.33,8.8,27.75l2,.5h.06c11.39,3,18.79,7.45,23.31,11.15a8.89,8.89,0,0,1,1.15,12.52l-.05.06-.35.41A8.76,8.76,0,0,1,151,143.48c-16-13.43-46.16-12.14-52.35-11.72a9.66,9.66,0,0,1-2.4-.15c-27.67-5.25-34.55-22.6-36-33.8A8.87,8.87,0,0,1,68,87.94,9.46,9.46,0,0,1,69.05,87.88Z"/><path class="i" d="M288.51,191.44a88.51,88.51,0,1,0-151.08,62.61c-.06,1.09-.09,2.19-.09,3.29a62.66,62.66,0,0,0,125.32,0c0-1.1,0-2.2-.09-3.29A88.24,88.24,0,0,0,288.51,191.44Z"/><path class="j" d="M288.82,185.71a88.18,88.18,0,0,1-25.75,56.87c.06,1.1.09,2.19.09,3.3a62.66,62.66,0,0,1-125.32,0h0c0-1.11,0-2.2.09-3.3a88.18,88.18,0,0,1-25.75-56.87c-.12,1.89-.19,3.8-.19,5.73a88.24,88.24,0,0,0,25.94,62.61c-.06,1.09-.09,2.19-.09,3.29a62.66,62.66,0,0,0,125.32,0c0-1.1,0-2.2-.09-3.29A88.27,88.27,0,0,0,289,191.44Q289,188.55,288.82,185.71Z"/><circle class="k" cx="200" cy="253.79" r="25.23"/><path class="j" d="M200.5,271.19a25.24,25.24,0,0,1-24.93-21.31,25.23,25.23,0,1,0,49.86,0A25.24,25.24,0,0,1,200.5,271.19Z"/><circle class="l" cx="155.06" cy="196.48" r="12.95"/><circle class="l" cx="244.94" cy="196.48" r="12.95" transform="translate(11.76 406.78) rotate(-80.78)"/><path class="g" d="M286.56,210a88.52,88.52,0,1,0-149.13,44.05c-.06,1.09-.09,2.19-.09,3.29a62.66,62.66,0,0,0,125.32,0c0-1.1,0-2.2-.09-3.29a88.65,88.65,0,0,0,17.37-24.57"/><circle class="g" cx="200" cy="253.79" r="25.23"/><circle class="m" cx="283.78" cy="220" r="1.67"/></svg>