<svg xmlns="http://www.w3.org/2000/svg" xmlns:xlink="http://www.w3.org/1999/xlink" viewBox="0 0 400 400"><defs><style>.a{fill:#ffc392;}.b,.f,.j{fill:#333;}.b{opacity:0.2;}.b,.j{isolation:isolate;}.c{fill:#7cce7d;}.d{fill:#ff5252;}.e,.j{opacity:0.1;}.g,.h{fill:none;stroke:#333;stroke-miterlimit:10;stroke-width:3px;}.h{stroke-linecap:round;}.i{fill:#ffd757;}.k{fill:#ff809b;}.l{fill:#ff4d7c;}.m{fill:url(#a);}</style><linearGradient id="a" x1="282.34" y1="281.95" x2="286.23" y2="279.56" gradientTransform="matrix(1, 0, 0, -1, 0, 402)" gradientUnits="userSpaceOnUse"><stop offset="0" stop-color="#e34248"/><stop offset="1" stop-color="#9e55a0"/></linearGradient></defs><circle class="a" cx="200" cy="200" r="200"/><path class="b" d="M318.6,190.9a28.36,28.36,0,0,0-11.2-18,28.43,28.43,0,0,0-19.5-34.3A28.41,28.41,0,0,0,257.8,113a28.61,28.61,0,0,0-15.9-14.4,27.92,27.92,0,0,0-21.1.7,28.38,28.38,0,0,0-39.5-.2,28.49,28.49,0,0,0-37.2,13.3,28.52,28.52,0,0,0-30.4,25.2,28.5,28.5,0,0,0-19.9,34.1,28.57,28.57,0,0,0-7.1,38.9,28.79,28.79,0,0,0-4.5,21,28.36,28.36,0,0,0,11.2,18,28.43,28.43,0,0,0,19.5,34.3A28.41,28.41,0,0,0,143,309.5a28.61,28.61,0,0,0,15.9,14.4,27.92,27.92,0,0,0,21.1-.7,28.38,28.38,0,0,0,39.5.2,28.49,28.49,0,0,0,37.2-13.3,28.52,28.52,0,0,0,30.4-25.2A28.5,28.5,0,0,0,307,250.8a28.57,28.57,0,0,0,7.1-38.9A28.79,28.79,0,0,0,318.6,190.9Zm-78.2,69a28.44,28.44,0,0,0-7.2,9.1,28.37,28.37,0,0,0-11.8,1.6,29.43,29.43,0,0,0-9.9,6.1,28.45,28.45,0,0,0-23.1-.1,28.34,28.34,0,0,0-10.1-6.3,28.75,28.75,0,0,0-11.5-1.7,28.27,28.27,0,0,0-17.6-14.9,28.58,28.58,0,0,0-11.5-20.1,26.46,26.46,0,0,0,.4-11.9,28.51,28.51,0,0,0-4.3-10.8,28.31,28.31,0,0,0,4.1-22.7,28.44,28.44,0,0,0,11.6-20,28.6,28.6,0,0,0,17.8-14.7,28.37,28.37,0,0,0,11.8-1.6,29.43,29.43,0,0,0,9.9-6.1,28.45,28.45,0,0,0,23.1.1,28.34,28.34,0,0,0,10.1,6.3,28.75,28.75,0,0,0,11.5,1.7,28.27,28.27,0,0,0,17.6,14.9,28.58,28.58,0,0,0,11.5,20.1,26.46,26.46,0,0,0-.4,11.9,28.51,28.51,0,0,0,4.3,10.8,28.31,28.31,0,0,0-4.1,22.7,28.44,28.44,0,0,0-11.6,20A27.19,27.19,0,0,0,240.4,259.9Z"/><path class="c" d="M318.1,183.9a28.36,28.36,0,0,0-11.2-18,28.43,28.43,0,0,0-19.5-34.3A28.41,28.41,0,0,0,257.3,106a28.61,28.61,0,0,0-15.9-14.4,27.92,27.92,0,0,0-21.1.7,28.38,28.38,0,0,0-39.5-.2,28.49,28.49,0,0,0-37.2,13.3,28.52,28.52,0,0,0-30.4,25.2,28.5,28.5,0,0,0-19.9,34.1,28.57,28.57,0,0,0-7.1,38.9,28.79,28.79,0,0,0-4.5,21,28.36,28.36,0,0,0,11.2,18,28.43,28.43,0,0,0,19.5,34.3,28.41,28.41,0,0,0,30.1,25.6,28.61,28.61,0,0,0,15.9,14.4,27.92,27.92,0,0,0,21.1-.7,28.38,28.38,0,0,0,39.5.2,28.49,28.49,0,0,0,37.2-13.3,28.52,28.52,0,0,0,30.4-25.2,28.5,28.5,0,0,0,19.9-34.1,28.57,28.57,0,0,0,7.1-38.9A28.79,28.79,0,0,0,318.1,183.9ZM187.9,269.7a28.34,28.34,0,0,0-10.1-6.3,28.75,28.75,0,0,0-11.5-1.7,28.27,28.27,0,0,0-17.6-14.9,28.58,28.58,0,0,0-11.5-20.1,26.46,26.46,0,0,0,.4-11.9,28.51,28.51,0,0,0-4.3-10.8,28.31,28.31,0,0,0,4.1-22.7,28.44,28.44,0,0,0,11.6-20,28.6,28.6,0,0,0,17.8-14.7,28.37,28.37,0,0,0,11.8-1.6,29.43,29.43,0,0,0,9.9-6.1,28.45,28.45,0,0,0,23.1.1,28.34,28.34,0,0,0,10.1,6.3,28.75,28.75,0,0,0,11.5,1.7,28.27,28.27,0,0,0,17.6,14.9A28.58,28.58,0,0,0,262.3,182a26.46,26.46,0,0,0-.4,11.9,28.51,28.51,0,0,0,4.3,10.8,28.31,28.31,0,0,0-4.1,22.7,28.44,28.44,0,0,0-11.6,20,28.6,28.6,0,0,0-17.8,14.7,28.37,28.37,0,0,0-11.8,1.6,29.43,29.43,0,0,0-9.9,6.1,28.54,28.54,0,0,0-11.7-2.5A27.09,27.09,0,0,0,187.9,269.7Z"/><circle class="d" cx="290.9" cy="220.5" r="11.6"/><circle class="d" cx="111.2" cy="220.5" r="11.6"/><circle class="d" cx="121.8" cy="159.2" r="11.6"/><circle class="d" cx="279.4" cy="159.2" r="11.6"/><circle class="d" cx="232.8" cy="119.1" r="11.6"/><circle class="d" cx="167" cy="119.1" r="11.6"/><circle class="d" cx="200.3" cy="295.1" r="11.6"/><circle class="d" cx="139.4" cy="274.6" r="11.6"/><circle class="d" cx="255.9" cy="274.6" r="11.6"/><g class="e"><path class="f" d="M262,216.1c.1-.1.3-.2.4-.3-.1-.3-.1-.6-.2-.9-.1.3-.1.6-.2.8Z"/><path class="f" d="M138,215.5c0-.3-.1-.5-.1-.8a1.88,1.88,0,0,0-.2-.8l-.3,1.2A1.54,1.54,0,0,1,138,215.5Z"/><path class="f" d="M262.4,183.1a30,30,0,0,0-.2,10.8,39.16,39.16,0,0,0,1.3,4.9,31,31,0,0,1,3-5.7A27.49,27.49,0,0,1,262.4,183.1Z"/><path class="f" d="M93.4,153.2c-.1-.3-.1-.6-.2-.9a5,5,0,0,0-.2,1.2A1.38,1.38,0,0,1,93.4,153.2Z"/><path class="f" d="M254.9,161.6a28.32,28.32,0,0,1-3.7-11.4,28.27,28.27,0,0,1-17.6-14.9,28.75,28.75,0,0,1-11.5-1.7,28.34,28.34,0,0,1-10.1-6.3,28.45,28.45,0,0,1-23.1-.1,29.43,29.43,0,0,1-9.9,6.1,28.37,28.37,0,0,1-11.8,1.6,28.6,28.6,0,0,1-17.8,14.7,29,29,0,0,1-3.6,11.1,28.61,28.61,0,0,1-8,8.9,28.5,28.5,0,0,1,.4,11.3,27.94,27.94,0,0,0,11.2-19.6,28.6,28.6,0,0,0,17.8-14.7A28.37,28.37,0,0,0,179,145a29.43,29.43,0,0,0,9.9-6.1,28.45,28.45,0,0,0,23.1.1,28.34,28.34,0,0,0,10.1,6.3,28.75,28.75,0,0,0,11.5,1.7,28.27,28.27,0,0,0,17.6,14.9,28.32,28.32,0,0,0,3.7,11.4,29,29,0,0,0,7.2,8.3,28.08,28.08,0,0,1,.6-11.2A30,30,0,0,1,254.9,161.6Z"/><path class="f" d="M137.9,182.1a29.09,29.09,0,0,1-4.3,10.2,29.74,29.74,0,0,1,3,5.9,23.93,23.93,0,0,0,1.5-5.4A29.53,29.53,0,0,0,137.9,182.1Z"/><path class="f" d="M303.7,253.1a28.65,28.65,0,0,1-16.9,13.2,28.52,28.52,0,0,1-30.4,25.2,28.24,28.24,0,0,1-15.8,14.1,28.69,28.69,0,0,1-21.4-.8,28.19,28.19,0,0,1-19.6,7.9,28.65,28.65,0,0,1-19.9-8.1,28.44,28.44,0,0,1-21.1.7,27.93,27.93,0,0,1-15.9-14.4,28.41,28.41,0,0,1-30.1-25.6A28.27,28.27,0,0,1,96,252.2a27,27,0,0,1-3.2-8.4,28.47,28.47,0,0,0,19.8,33.1,28.41,28.41,0,0,0,30.1,25.6,28.61,28.61,0,0,0,15.9,14.4,27.92,27.92,0,0,0,21.1-.7,28.38,28.38,0,0,0,39.5.2,28.49,28.49,0,0,0,37.2-13.3,28.52,28.52,0,0,0,30.4-25.2,28,28,0,0,0,16.9-13.2,28.36,28.36,0,0,0,3.2-20A27,27,0,0,1,303.7,253.1Z"/><path class="f" d="M307.2,154.4c.2.1.4.3.6.4-.1-.6-.2-1.1-.3-1.7C307.4,153.6,307.3,154,307.2,154.4Z"/><path class="f" d="M318.2,183.1a30.76,30.76,0,0,1-4.3,10.2,29.74,29.74,0,0,1,3,5.9,29.1,29.1,0,0,0,1.5-15.3A2.35,2.35,0,0,1,318.2,183.1Z"/><path class="f" d="M306.7,232.2a28.64,28.64,0,0,1,.4,11.3,28.32,28.32,0,0,0,11-17.8,28,28,0,0,0-.2-10.8A28.15,28.15,0,0,1,306.7,232.2Z"/><path class="f" d="M86.3,192.1a29.9,29.9,0,0,1-4.2-9.9c-.1.3-.1.5-.2.8a28.33,28.33,0,0,0,1.3,14.8A30.93,30.93,0,0,1,86.3,192.1Z"/><path class="f" d="M92.9,231a28.27,28.27,0,0,1-11-17.1,30,30,0,0,0-.2,10.8,28.24,28.24,0,0,0,10.6,17.5A30,30,0,0,1,92.9,231Z"/></g><circle class="g" cx="200.5" cy="295.1" r="11.6"/><circle class="g" cx="122" cy="159.2" r="11.6"/><path class="h" d="M278.7,113.7c-.4-.4-.8-.7-1.2-1.1a28.58,28.58,0,0,0-20.1-6.6,28.61,28.61,0,0,0-15.9-14.4,27.92,27.92,0,0,0-21.1.7,28.38,28.38,0,0,0-39.5-.2,28.49,28.49,0,0,0-37.2,13.3,28.52,28.52,0,0,0-30.4,25.2,28.5,28.5,0,0,0-19.9,34.1,28.57,28.57,0,0,0-7.1,38.9,28.79,28.79,0,0,0-4.5,21,28.36,28.36,0,0,0,11.2,18,28.43,28.43,0,0,0,19.5,34.3,28.41,28.41,0,0,0,30.1,25.6,28.61,28.61,0,0,0,15.9,14.4,27.92,27.92,0,0,0,21.1-.7,28.38,28.38,0,0,0,39.5.2,28.49,28.49,0,0,0,37.2-13.3,28.52,28.52,0,0,0,30.4-25.2,28.5,28.5,0,0,0,19.9-34.1,28.57,28.57,0,0,0,7.1-38.9,28.79,28.79,0,0,0,4.5-21,28.36,28.36,0,0,0-11.2-18,28.43,28.43,0,0,0-19.5-34.3c0-.2-.1-.5-.1-.7M188.1,269.7a28.34,28.34,0,0,0-10.1-6.3,28.75,28.75,0,0,0-11.5-1.7,28.27,28.27,0,0,0-17.6-14.9,28.58,28.58,0,0,0-11.5-20.1,26.46,26.46,0,0,0,.4-11.9,28.51,28.51,0,0,0-4.3-10.8,28.31,28.31,0,0,0,4.1-22.7,28.44,28.44,0,0,0,11.6-20A28.6,28.6,0,0,0,167,146.6a28.37,28.37,0,0,0,11.8-1.6,29.43,29.43,0,0,0,9.9-6.1,28.45,28.45,0,0,0,23.1.1,28.34,28.34,0,0,0,10.1,6.3,28.75,28.75,0,0,0,11.5,1.7A28.27,28.27,0,0,0,251,161.9,28.58,28.58,0,0,0,262.5,182a26.46,26.46,0,0,0-.4,11.9,28.51,28.51,0,0,0,4.3,10.8,28.31,28.31,0,0,0-4.1,22.7,28.44,28.44,0,0,0-11.6,20,28.6,28.6,0,0,0-17.8,14.7,28.37,28.37,0,0,0-11.8,1.6,29.43,29.43,0,0,0-9.9,6.1,28.54,28.54,0,0,0-11.7-2.5A27.09,27.09,0,0,0,188.1,269.7Z"/><circle class="g" cx="291.1" cy="220.5" r="11.6"/><circle class="g" cx="111.4" cy="220.5" r="11.6"/><circle class="g" cx="279.6" cy="159.2" r="11.6"/><circle class="g" cx="233" cy="119.1" r="11.6"/><circle class="g" cx="167.2" cy="119.1" r="11.6"/><circle class="g" cx="139.6" cy="274.6" r="11.6"/><circle class="g" cx="256.1" cy="274.6" r="11.6"/><polygon class="i" points="191.5 145.9 200.5 130.4 209.5 145.9 218 160.8 218 95.5 183 95.5 183 160.8 191.5 145.9"/><polygon class="j" points="200.5 121.3 191.5 136.9 183 151.7 183 160.8 191.5 145.9 200.5 130.4 209.5 145.9 218 160.8 218 151.7 209.5 136.9 200.5 121.3"/><polygon class="g" points="191.5 145.9 200.5 130.4 209.5 145.9 218 160.8 218 95.5 183 95.5 183 160.8 191.5 145.9"/><path class="k" d="M208.5,103.4c-11.6-5.2-11.6-18.3,0-23.5l10.7-4.8,10.7-4.8c11.6-5.2,26.1,1.3,26.1,11.8v19.2c0,10.5-14.5,17-26.1,11.8l-10.7-4.8Z"/><path class="k" d="M191.3,103.4c11.6-5.2,11.6-18.3,0-23.5l-10.7-4.8L170,70.2C158.4,65,143.9,71.5,143.9,82v19.2c0,10.5,14.5,17,26.1,11.8l10.7-4.8Z"/><path class="g" d="M208.5,103.4c-11.6-5.2-11.6-18.3,0-23.5l10.7-4.8,10.7-4.8c11.6-5.2,26.1,1.3,26.1,11.8v19.2c0,10.5-14.5,17-26.1,11.8l-10.7-4.8Z"/><path class="g" d="M191.3,103.4c11.6-5.2,11.6-18.3,0-23.5l-10.7-4.8L170,70.2C158.4,65,143.9,71.5,143.9,82v19.2c0,10.5,14.5,17,26.1,11.8l10.7-4.8Z"/><path class="l" d="M199.8,72.7h0a12.93,12.93,0,0,0-12.9,12.9V97.8a12.93,12.93,0,0,0,12.9,12.9h0a12.93,12.93,0,0,0,12.9-12.9V85.5A12.91,12.91,0,0,0,199.8,72.7Z"/><path class="j" d="M199.8,106.3h0a12.93,12.93,0,0,1-12.9-12.9v4.3a12.93,12.93,0,0,0,12.9,12.9h0a12.93,12.93,0,0,0,12.9-12.9V93.4A12.93,12.93,0,0,1,199.8,106.3Z"/><path class="g" d="M199.8,72.7h0a12.93,12.93,0,0,0-12.9,12.9V97.8a12.93,12.93,0,0,0,12.9,12.9h0a12.93,12.93,0,0,0,12.9-12.9V85.5A12.91,12.91,0,0,0,199.8,72.7Z"/><g class="e"><path class="f" d="M180.5,100.9l-10.7,4.8c-11.6,5.2-26.1-1.3-26.1-11.8v7.4c0,10.5,14.5,17,26.1,11.8l10.7-4.8,8.3-3.7a12.07,12.07,0,0,1-1.9-6.5Z"/></g><g class="e"><path class="f" d="M229.8,105.7l-10.7-4.8L212.6,98a12.07,12.07,0,0,1-1.9,6.5l8.4,3.8,10.7,4.8c11.6,5.2,26.1-1.3,26.1-11.8V93.9C255.9,104.3,241.4,110.9,229.8,105.7Z"/></g><path class="j" d="M122,164.8a11.58,11.58,0,0,1-11.2-8.6,9.48,9.48,0,0,0-.4,3,11.6,11.6,0,1,0,23.2,0,10.32,10.32,0,0,0-.4-3A11.79,11.79,0,0,1,122,164.8Z"/><path class="j" d="M111.4,226.2a11.58,11.58,0,0,1-11.2-8.6,9.48,9.48,0,0,0-.4,3,11.6,11.6,0,1,0,23.2,0,10.32,10.32,0,0,0-.4-3A11.61,11.61,0,0,1,111.4,226.2Z"/><path class="j" d="M139.6,280.2a11.58,11.58,0,0,1-11.2-8.6,9.48,9.48,0,0,0-.4,3,11.6,11.6,0,0,0,23.2,0,10.32,10.32,0,0,0-.4-3A11.5,11.5,0,0,1,139.6,280.2Z"/><path class="j" d="M200.5,300.7a11.58,11.58,0,0,1-11.2-8.6,9.48,9.48,0,0,0-.4,3,11.6,11.6,0,0,0,23.2,0,10.32,10.32,0,0,0-.4-3A11.7,11.7,0,0,1,200.5,300.7Z"/><path class="j" d="M256,280.2a11.58,11.58,0,0,1-11.2-8.6,9.48,9.48,0,0,0-.4,3,11.6,11.6,0,1,0,23.2,0,10.32,10.32,0,0,0-.4-3A11.5,11.5,0,0,1,256,280.2Z"/><path class="j" d="M279.4,164.8a11.58,11.58,0,0,1-11.2-8.6,9.48,9.48,0,0,0-.4,3,11.6,11.6,0,0,0,23.2,0,10.32,10.32,0,0,0-.4-3A11.7,11.7,0,0,1,279.4,164.8Z"/><path class="j" d="M233,124.7a11.58,11.58,0,0,1-11.2-8.6,9.48,9.48,0,0,0-.4,3,11.6,11.6,0,0,0,23.2,0,10.32,10.32,0,0,0-.4-3A11.61,11.61,0,0,1,233,124.7Z"/><path class="j" d="M167.2,124.7a11.58,11.58,0,0,1-11.2-8.6,9.48,9.48,0,0,0-.4,3,11.6,11.6,0,0,0,23.2,0,10.32,10.32,0,0,0-.4-3A11.79,11.79,0,0,1,167.2,124.7Z"/><path class="j" d="M291,226.2a11.58,11.58,0,0,1-11.2-8.6,9.48,9.48,0,0,0-.4,3,11.6,11.6,0,0,0,23.2,0,10.32,10.32,0,0,0-.4-3A11.79,11.79,0,0,1,291,226.2Z"/><circle class="m" cx="284.7" cy="121.5" r="1.7"/></svg>