<svg xmlns="http://www.w3.org/2000/svg" viewBox="0 0 400 400"><defs><style>.a{fill:#fcd2ac;}.b{opacity:0.2;}.c,.e{fill:#333;}.d{fill:#ff4d4d;}.e{opacity:0.1;isolation:isolate;}.f{fill:#fffdfd;}.g{fill:#ff97ad;}.h{fill:none;stroke:#ff4d4d;stroke-linecap:round;stroke-miterlimit:10;stroke-width:18px;}</style></defs><circle class="a" cx="200" cy="200" r="200"/><g class="b"><circle class="c" cx="35" cy="143.4" r="31.6"/><circle class="c" cx="71.7" cy="143.4" r="31.6"/><circle class="c" cx="108.3" cy="143.4" r="31.6"/><circle class="c" cx="145" cy="143.4" r="31.6"/><circle class="c" cx="181.7" cy="143.4" r="31.6"/><circle class="c" cx="218.3" cy="143.4" r="31.6"/><circle class="c" cx="255" cy="143.4" r="31.6"/><circle class="c" cx="291.7" cy="143.4" r="31.6"/><circle class="c" cx="328.3" cy="143.4" r="31.6"/><circle class="c" cx="365" cy="143.4" r="31.6"/></g><path class="d" d="M20,112.7H380a200.09,200.09,0,0,0-360,0Z"/><circle class="d" cx="200" cy="277.7" r="14.2"/><path class="e" d="M200,287.3a14.2,14.2,0,0,1-14-11.9,16.41,16.41,0,0,0-.2,2.3,14.2,14.2,0,0,0,28.4,0,17.85,17.85,0,0,0-.2-2.3A14.11,14.11,0,0,1,200,287.3Z"/><circle class="f" cx="35" cy="136.6" r="31.6"/><circle class="f" cx="71.7" cy="136.6" r="31.6"/><circle class="f" cx="108.3" cy="136.6" r="31.6"/><circle class="f" cx="145" cy="136.6" r="31.6"/><circle class="f" cx="181.7" cy="136.6" r="31.6"/><circle class="f" cx="218.3" cy="136.6" r="31.6"/><circle class="f" cx="255" cy="136.6" r="31.6"/><circle class="f" cx="291.7" cy="136.6" r="31.6"/><circle class="f" cx="328.3" cy="136.6" r="31.6"/><circle class="f" cx="365" cy="136.6" r="31.6"/><path class="e" d="M365,158.4a31.23,31.23,0,0,1-18.3-5.9,31.33,31.33,0,0,1-36.6,0,31.33,31.33,0,0,1-36.6,0,31.33,31.33,0,0,1-36.6,0,31.33,31.33,0,0,1-36.6,0,31.33,31.33,0,0,1-36.6,0,31.33,31.33,0,0,1-36.6,0,31.33,31.33,0,0,1-36.6,0,31.33,31.33,0,0,1-36.6,0A31.5,31.5,0,0,1,4.5,132.2a32.87,32.87,0,0,0-.5,5.4,31.6,31.6,0,0,0,31.6,31.6,31.23,31.23,0,0,0,18.3-5.9,31.33,31.33,0,0,0,36.6,0,31.33,31.33,0,0,0,36.6,0,31.33,31.33,0,0,0,36.6,0,31.33,31.33,0,0,0,36.6,0,31.33,31.33,0,0,0,36.6,0,31.33,31.33,0,0,0,36.6,0,31.33,31.33,0,0,0,36.6,0,31.33,31.33,0,0,0,36.6,0,31.53,31.53,0,0,0,49.9-25.7,32.87,32.87,0,0,0-.5-5.4A31.59,31.59,0,0,1,365,158.4Z"/><ellipse class="c" cx="115.4" cy="226.4" rx="29" ry="35.8"/><ellipse class="c" cx="284.6" cy="226.4" rx="29" ry="35.8"/><path class="c" d="M115.4,207h0a3.12,3.12,0,0,1-3.1-3.1V178.2a3.12,3.12,0,0,1,3.1-3.1h0a3.12,3.12,0,0,1,3.1,3.1v25.7A3,3,0,0,1,115.4,207Z"/><path class="c" d="M122.6,205.8h0a3.08,3.08,0,0,1-1.6-4.1L131,178a3.08,3.08,0,0,1,4.1-1.6h0a3.08,3.08,0,0,1,1.6,4.1l-10.1,23.7A3.14,3.14,0,0,1,122.6,205.8Z"/><path class="c" d="M108.3,205.8h0a3.08,3.08,0,0,0,1.6-4.1L99.8,178a3.08,3.08,0,0,0-4.1-1.6h0a3.08,3.08,0,0,0-1.6,4.1l10.1,23.7A3.26,3.26,0,0,0,108.3,205.8Z"/><ellipse class="c" cx="284.6" cy="226.4" rx="29" ry="35.8"/><path class="c" d="M284.6,207h0a3.12,3.12,0,0,1-3.1-3.1V178.2a3.12,3.12,0,0,1,3.1-3.1h0a3.12,3.12,0,0,1,3.1,3.1v25.7A3.12,3.12,0,0,1,284.6,207Z"/><path class="c" d="M291.7,205.8h0a3.08,3.08,0,0,1-1.6-4.1L300.2,178a3.08,3.08,0,0,1,4.1-1.6h0a3.08,3.08,0,0,1,1.6,4.1l-10.1,23.7A3.26,3.26,0,0,1,291.7,205.8Z"/><path class="c" d="M277.4,205.8h0a3.08,3.08,0,0,0,1.6-4.1L269,178a3.08,3.08,0,0,0-4.1-1.6h0a3.08,3.08,0,0,0-1.6,4.1l10.1,23.7A3.14,3.14,0,0,0,277.4,205.8Z"/><ellipse class="g" cx="79.2" cy="273.3" rx="20.7" ry="10.6"/><ellipse class="g" cx="320.7" cy="273.3" rx="20.7" ry="10.6"/><path class="h" d="M156.3,326.6a52,52,0,0,0,87.4,0"/></svg>