<svg xmlns="http://www.w3.org/2000/svg" xmlns:xlink="http://www.w3.org/1999/xlink" viewBox="0 0 400 400"><defs><style>.a{fill:#fcd2ac;}.b{fill:#e6feff;}.aa,.ac,.ad,.c,.e,.g,.h,.l,.p,.q,.w,.y,.z{fill:none;}.aa,.ac,.ad,.c,.e,.g,.h,.j,.p,.q,.w,.y,.z{stroke:#333;}.aa,.ac,.ad,.c,.e,.g,.h,.j,.l,.p,.q,.w,.y,.z{stroke-miterlimit:10;}.c,.e{stroke-width:0.32px;}.d,.v{fill:#333;}.d,.u{opacity:0.1;}.d,.x{isolation:isolate;}.aa,.ad,.e,.h,.p,.y{stroke-linecap:round;}.f{fill:url(#a);}.g,.h{stroke-width:0.17px;}.i{fill:url(#b);}.j{fill:#a07453;}.j,.w,.y{stroke-width:3px;}.k{fill:#fff;}.l{stroke:red;}.m{fill:#834d1e;}.n{fill:#80d249;}.o{fill:#5abcff;}.p,.q{stroke-width:1.82px;}.r{fill:#efd14d;}.s{fill:#ff3e3e;}.t{fill:#bbfdff;}.x{fill:#00edff;opacity:0.05;}.aa,.z{stroke-width:0.43px;}.ab{fill:url(#c);}.ac,.ad{stroke-width:0.11px;}.ae{fill:url(#d);}.af{fill:url(#e);}</style><linearGradient id="a" x1="283.83" y1="243.26" x2="284.25" y2="243.01" gradientTransform="matrix(1, 0, 0, -1, 0, 402)" gradientUnits="userSpaceOnUse"><stop offset="0" stop-color="#e34248"/><stop offset="1" stop-color="#9e55a0"/></linearGradient><linearGradient id="b" x1="132.7" y1="174.56" x2="132.92" y2="174.43" xlink:href="#a"/><linearGradient id="c" x1="155.15" y1="269.91" x2="155.71" y2="269.57" xlink:href="#a"/><linearGradient id="d" x1="262.04" y1="189.94" x2="262.18" y2="189.85" xlink:href="#a"/><linearGradient id="e" x1="308.9" y1="248.37" x2="312.79" y2="245.99" xlink:href="#a"/></defs><circle class="a" cx="200" cy="200" r="200"/><path class="b" d="M274.8,173.7v-1.3l1.6,1.9a.28.28,0,0,0,.5,0,.63.63,0,0,0,0-.6l-2.1-2.5v-7.8l2.1-2.5a.63.63,0,0,0,0-.6c-.1-.1-.4-.2-.5,0l-1.6,1.9v-1.3l2.1-2.5a.63.63,0,0,0,0-.6c-.1-.1-.4-.2-.5,0l-1.6,1.9v-1.9a.4.4,0,0,0-.8,0v1.9l-1.6-1.9a.28.28,0,0,0-.5,0,.63.63,0,0,0,0,.6l2.1,2.5v1.3l-1.6-1.9a.28.28,0,0,0-.5,0,.63.63,0,0,0,0,.6l2.1,2.5v7.8l-2.1,2.5a.63.63,0,0,0,0,.6c.1.1.4.2.5,0l1.6-1.9v1.3l-2.1,2.5a.63.63,0,0,0,0,.6c.1.1.4.2.5,0l1.6-1.9v1.9a.4.4,0,0,0,.8,0v-1.9l1.6,1.9a.28.28,0,0,0,.5,0,.63.63,0,0,0,0-.6Z"/><path class="b" d="M267.9,167.5h1.3l-1.9,1.6a.28.28,0,0,0,0,.5.63.63,0,0,0,.6,0l2.5-2.1h7.8l2.5,2.1a.63.63,0,0,0,.6,0,.28.28,0,0,0,0-.5l-1.9-1.6h1.3l2.5,2.1a.63.63,0,0,0,.6,0,.28.28,0,0,0,0-.5l-1.9-1.6h1.9a.4.4,0,0,0,0-.8h-1.9l1.9-1.6a.28.28,0,0,0,0-.5.63.63,0,0,0-.6,0l-2.5,2.1h-1.3l1.9-1.6a.28.28,0,0,0,0-.5.63.63,0,0,0-.6,0l-2.5,2.1h-7.8l-2.5-2.1a.63.63,0,0,0-.6,0,.28.28,0,0,0,0,.5l1.9,1.6h-1.3l-2.5-2.1a.63.63,0,0,0-.6,0,.28.28,0,0,0,0,.5l1.9,1.6h-1.9a.4.4,0,0,0,0,.8h1.9l-1.9,1.6a.28.28,0,0,0,0,.5.63.63,0,0,0,.6,0Z"/><path class="b" d="M270.1,172l.9-.9-.2,2.5a.37.37,0,0,0,.4.4.43.43,0,0,0,.4-.4l.3-3.3,5.5-5.5,3.3-.3a.43.43,0,0,0,.4-.4.37.37,0,0,0-.4-.4l-2.5.2.9-.9,3.3-.3a.43.43,0,0,0,.4-.4.37.37,0,0,0-.4-.4l-2.5.2,1.4-1.4a.47.47,0,0,0,.1-.6c-.1-.2-.4-.1-.6.1l-1.4,1.4.2-2.5a.37.37,0,0,0-.4-.4.43.43,0,0,0-.4.4l-.3,3.3-.9.9.2-2.5a.37.37,0,0,0-.4-.4.43.43,0,0,0-.4.4l-.3,3.3-5.5,5.5-3.3.3a.43.43,0,0,0-.4.4.37.37,0,0,0,.4.4l2.5-.2-.9.9-3.3.3a.43.43,0,0,0-.4.4.37.37,0,0,0,.4.4l2.5-.2-1.3,1.3a.47.47,0,0,0-.1.6c.1.2.4.1.6-.1l1.4-1.4-.2,2.5a.37.37,0,0,0,.4.4.43.43,0,0,0,.4-.4Z"/><path class="b" d="M279.3,171.5l-.9-.9,2.5.2a.37.37,0,0,0,.4-.4.43.43,0,0,0-.4-.4l-3.3-.3-5.5-5.5-.3-3.3a.43.43,0,0,0-.4-.4.37.37,0,0,0-.4.4l.2,2.5-.9-.9-.3-3.3a.43.43,0,0,0-.4-.4.37.37,0,0,0-.4.4l.2,2.5-1.4-1.4a.47.47,0,0,0-.6-.1.48.48,0,0,0,.1.6l1.4,1.4-2.5-.2a.37.37,0,0,0-.4.4.43.43,0,0,0,.4.4l3.3.3.9.9-2.5-.2a.4.4,0,0,0,0,.8l3.3.3,5.5,5.5.3,3.3a.43.43,0,0,0,.4.4.37.37,0,0,0,.4-.4l-.2-2.5.9.9.3,3.3a.43.43,0,0,0,.4.4.37.37,0,0,0,.4-.4l-.2-2.5,1.3,1.3a.47.47,0,0,0,.6.1.48.48,0,0,0-.1-.6l-1.4-1.4,2.5.2a.4.4,0,0,0,0-.8Z"/><path class="c" d="M274.8,173.7v-1.3l1.6,1.9a.28.28,0,0,0,.5,0,.63.63,0,0,0,0-.6l-2.1-2.5v-7.8l2.1-2.5a.63.63,0,0,0,0-.6c-.1-.1-.4-.2-.5,0l-1.6,1.9v-1.3l2.1-2.5a.63.63,0,0,0,0-.6c-.1-.1-.4-.2-.5,0l-1.6,1.9v-1.9a.4.4,0,0,0-.8,0v1.9l-1.6-1.9a.28.28,0,0,0-.5,0,.63.63,0,0,0,0,.6l2.1,2.5v1.3l-1.6-1.9a.28.28,0,0,0-.5,0,.63.63,0,0,0,0,.6l2.1,2.5v7.8l-2.1,2.5a.63.63,0,0,0,0,.6c.1.1.4.2.5,0l1.6-1.9v1.3l-2.1,2.5a.63.63,0,0,0,0,.6c.1.1.4.2.5,0l1.6-1.9v1.9a.4.4,0,0,0,.8,0v-1.9l1.6,1.9a.28.28,0,0,0,.5,0,.63.63,0,0,0,0-.6Z"/><path class="c" d="M267.9,167.5h1.3l-1.9,1.6a.28.28,0,0,0,0,.5.63.63,0,0,0,.6,0l2.5-2.1h7.8l2.5,2.1a.63.63,0,0,0,.6,0,.28.28,0,0,0,0-.5l-1.9-1.6h1.3l2.5,2.1a.63.63,0,0,0,.6,0,.28.28,0,0,0,0-.5l-1.9-1.6h1.9a.4.4,0,0,0,0-.8h-1.9l1.9-1.6a.28.28,0,0,0,0-.5.63.63,0,0,0-.6,0l-2.5,2.1h-1.3l1.9-1.6a.28.28,0,0,0,0-.5.63.63,0,0,0-.6,0l-2.5,2.1h-7.8l-2.5-2.1a.63.63,0,0,0-.6,0,.28.28,0,0,0,0,.5l1.9,1.6h-1.3l-2.5-2.1a.63.63,0,0,0-.6,0,.28.28,0,0,0,0,.5l1.9,1.6h-1.9a.4.4,0,0,0,0,.8h1.9l-1.9,1.6a.28.28,0,0,0,0,.5.63.63,0,0,0,.6,0Z"/><path class="c" d="M270.1,172l.9-.9-.2,2.5a.37.37,0,0,0,.4.4.43.43,0,0,0,.4-.4l.3-3.3,5.5-5.5,3.3-.3a.43.43,0,0,0,.4-.4.37.37,0,0,0-.4-.4l-2.5.2.9-.9,3.3-.3a.43.43,0,0,0,.4-.4.37.37,0,0,0-.4-.4l-2.5.2,1.4-1.4a.47.47,0,0,0,.1-.6c-.1-.2-.4-.1-.6.1l-1.4,1.4.2-2.5a.37.37,0,0,0-.4-.4.43.43,0,0,0-.4.4l-.3,3.3-.9.9.2-2.5a.37.37,0,0,0-.4-.4.43.43,0,0,0-.4.4l-.3,3.3-5.5,5.5-3.3.3a.43.43,0,0,0-.4.4.37.37,0,0,0,.4.4l2.5-.2-.9.9-3.3.3a.43.43,0,0,0-.4.4.37.37,0,0,0,.4.4l2.5-.2-1.3,1.3a.47.47,0,0,0-.1.6c.1.2.4.1.6-.1l1.4-1.4-.2,2.5a.37.37,0,0,0,.4.4.43.43,0,0,0,.4-.4Z"/><path class="c" d="M279.3,171.5l-.9-.9,2.5.2a.37.37,0,0,0,.4-.4.43.43,0,0,0-.4-.4l-3.3-.3-5.5-5.5-.3-3.3a.43.43,0,0,0-.4-.4.37.37,0,0,0-.4.4l.2,2.5-.9-.9-.3-3.3a.43.43,0,0,0-.4-.4.37.37,0,0,0-.4.4l.2,2.5-1.4-1.4a.47.47,0,0,0-.6-.1.48.48,0,0,0,.1.6l1.4,1.4-2.5-.2a.37.37,0,0,0-.4.4.43.43,0,0,0,.4.4l3.3.3.9.9-2.5-.2a.4.4,0,0,0,0,.8l3.3.3,5.5,5.5.3,3.3a.43.43,0,0,0,.4.4.37.37,0,0,0,.4-.4l-.2-2.5.9.9.3,3.3a.43.43,0,0,0,.4.4.37.37,0,0,0,.4-.4l-.2-2.5,1.3,1.3a.47.47,0,0,0,.6.1.48.48,0,0,0-.1-.6l-1.4-1.4,2.5.2a.4.4,0,0,0,0-.8Z"/><circle class="b" cx="274.4" cy="167.2" r="3.3"/><path class="d" d="M274.4,169.7a3.35,3.35,0,0,1-3.3-3v.4a3.3,3.3,0,0,0,6.6,0v-.4A3.35,3.35,0,0,1,274.4,169.7Z"/><circle class="b" cx="274.4" cy="156" r="1.8"/><circle class="b" cx="266.5" cy="159.2" r="1.8"/><circle class="b" cx="263.2" cy="167.2" r="1.8"/><circle class="b" cx="266.5" cy="175.1" r="1.8"/><circle class="b" cx="274.4" cy="178.4" r="1.8"/><circle class="b" cx="282.4" cy="175.1" r="1.8"/><circle class="b" cx="285.6" cy="167.2" r="1.8"/><circle class="b" cx="282.4" cy="159.2" r="1.8"/><path class="d" d="M274.5,157a1.83,1.83,0,0,1-1.8-1.4v.4a1.8,1.8,0,0,0,3.6,0v-.4A1.83,1.83,0,0,1,274.5,157Z"/><path class="d" d="M266.5,160.4a1.83,1.83,0,0,1-1.8-1.4v.4a1.8,1.8,0,1,0,3.6,0V159A1.83,1.83,0,0,1,266.5,160.4Z"/><path class="d" d="M263.2,168.2a1.83,1.83,0,0,1-1.8-1.4v.4a1.8,1.8,0,0,0,3.6,0v-.4A1.83,1.83,0,0,1,263.2,168.2Z"/><path class="d" d="M266.5,176.1a1.83,1.83,0,0,1-1.8-1.4v.4a1.8,1.8,0,1,0,3.6,0v-.4A1.83,1.83,0,0,1,266.5,176.1Z"/><path class="d" d="M274.4,179.4a1.83,1.83,0,0,1-1.8-1.4v.4a1.8,1.8,0,0,0,3.6,0V178A1.83,1.83,0,0,1,274.4,179.4Z"/><path class="d" d="M282.4,176.1a1.83,1.83,0,0,1-1.8-1.4v.4a1.8,1.8,0,1,0,3.6,0v-.4A2,2,0,0,1,282.4,176.1Z"/><path class="d" d="M285.6,168.2a1.83,1.83,0,0,1-1.8-1.4v.4a1.8,1.8,0,1,0,3.6,0v-.4A1.83,1.83,0,0,1,285.6,168.2Z"/><path class="d" d="M282.4,160.3a1.83,1.83,0,0,1-1.8-1.4v.4a1.8,1.8,0,0,0,3.6,0v-.4A2,2,0,0,1,282.4,160.3Z"/><circle class="c" cx="274.4" cy="156" r="1.8"/><circle class="c" cx="266.5" cy="159.2" r="1.8"/><circle class="c" cx="263.2" cy="167.2" r="1.8"/><circle class="c" cx="266.5" cy="175.1" r="1.8"/><circle class="c" cx="274.4" cy="178.4" r="1.8"/><circle class="c" cx="282.4" cy="175.1" r="1.8"/><circle class="c" cx="285.6" cy="167.2" r="1.8"/><path class="e" d="M283.6,158h0a1.77,1.77,0,1,0,0,2.5,2.09,2.09,0,0,0,.4-.6"/><circle class="c" cx="274.4" cy="167.2" r="3.3"/><circle class="f" cx="284.1" cy="158.9" r="0.2"/><path class="b" d="M128.1,235.1v-.7l.8,1a.21.21,0,1,0,.3-.3l-1.1-1.3v-4l1.1-1.3a.21.21,0,1,0-.3-.3l-.8,1v-.7l1.1-1.3a.21.21,0,0,0-.3-.3l-.8,1v-1a.2.2,0,0,0-.4,0v1l-.8-1a.21.21,0,0,0-.3.3l1.1,1.3v.7l-.8-1a.21.21,0,0,0-.3.3l1.1,1.3v4l-1.1,1.3a.21.21,0,0,0,.3.3l.8-1v.7l-1.1,1.3a.21.21,0,1,0,.3.3l.8-1v1a.2.2,0,0,0,.4,0v-1l.8,1a.21.21,0,1,0,.3-.3Z"/><path class="b" d="M124.6,231.9h.7l-1,.8a.21.21,0,1,0,.3.3l1.3-1.1h4l1.3,1.1a.21.21,0,0,0,.3-.3l-1-.8h.7l1.3,1.1a.21.21,0,0,0,.3-.3l-1-.8h1a.2.2,0,0,0,0-.4h-1l1-.8a.21.21,0,0,0-.3-.3l-1.3,1.1h-.7l1-.8a.21.21,0,0,0-.3-.3l-1.3,1.1h-4l-1.3-1.1a.21.21,0,0,0-.3.3l1,.8h-.7l-1.3-1.1a.21.21,0,0,0-.3.3l1,.8h-1a.2.2,0,1,0,0,.4h1l-1,.8a.21.21,0,0,0,.3.3Z"/><path class="b" d="M125.7,234.2l.5-.5L126,235a.2.2,0,1,0,.4,0l.2-1.7,2.8-2.8,1.7-.2a.2.2,0,0,0,0-.4l-1.3.1.5-.5,1.7-.2a.2.2,0,0,0,0-.4l-1.3.1.7-.7a.21.21,0,0,0-.3-.3l-.7.7.1-1.3a.2.2,0,1,0-.4,0l-.2,1.7-.5.5.1-1.3a.2.2,0,1,0-.4,0l-.2,1.7-2.8,2.8-1.7.2a.2.2,0,1,0,0,.4l1.3-.1-.5.5-1.7.2a.2.2,0,1,0,0,.4l1.3-.1-.7.7a.21.21,0,0,0,.3.3l.7-.7-.1,1.3a.2.2,0,1,0,.4,0Z"/><path class="b" d="M130.4,234l-.5-.5,1.3.1a.2.2,0,1,0,0-.4l-1.7-.2-2.8-2.8-.2-1.7a.2.2,0,0,0-.4,0l.1,1.3-.5-.5-.2-1.7a.2.2,0,0,0-.4,0l.1,1.3-.7-.7a.21.21,0,1,0-.3.3l.7.7-1.3-.1a.2.2,0,0,0,0,.4l1.7.2.5.5-1.3-.1a.2.2,0,0,0,0,.4l1.7.2,2.8,2.8.2,1.7a.2.2,0,1,0,.4,0l-.1-1.3.5.5.2,1.7a.2.2,0,0,0,.4,0l-.1-1.3.7.7a.21.21,0,0,0,.3-.3l-.7-.7,1.3.1a.2.2,0,1,0,0-.4Z"/><path class="g" d="M128.1,235.1v-.7l.8,1a.21.21,0,1,0,.3-.3l-1.1-1.3v-4l1.1-1.3a.21.21,0,1,0-.3-.3l-.8,1v-.7l1.1-1.3a.21.21,0,0,0-.3-.3l-.8,1v-1a.2.2,0,0,0-.4,0v1l-.8-1a.21.21,0,0,0-.3.3l1.1,1.3v.7l-.8-1a.21.21,0,0,0-.3.3l1.1,1.3v4l-1.1,1.3a.21.21,0,0,0,.3.3l.8-1v.7l-1.1,1.3a.21.21,0,1,0,.3.3l.8-1v1a.2.2,0,0,0,.4,0v-1l.8,1a.21.21,0,1,0,.3-.3Z"/><path class="g" d="M124.6,231.9h.7l-1,.8a.21.21,0,1,0,.3.3l1.3-1.1h4l1.3,1.1a.21.21,0,0,0,.3-.3l-1-.8h.7l1.3,1.1a.21.21,0,0,0,.3-.3l-1-.8h1a.2.2,0,0,0,0-.4h-1l1-.8a.21.21,0,0,0-.3-.3l-1.3,1.1h-.7l1-.8a.21.21,0,0,0-.3-.3l-1.3,1.1h-4l-1.3-1.1a.21.21,0,0,0-.3.3l1,.8h-.7l-1.3-1.1a.21.21,0,0,0-.3.3l1,.8h-1a.2.2,0,1,0,0,.4h1l-1,.8a.21.21,0,0,0,.3.3Z"/><path class="g" d="M125.7,234.2l.5-.5L126,235a.2.2,0,1,0,.4,0l.2-1.7,2.8-2.8,1.7-.2a.2.2,0,0,0,0-.4l-1.3.1.5-.5,1.7-.2a.2.2,0,0,0,0-.4l-1.3.1.7-.7a.21.21,0,0,0-.3-.3l-.7.7.1-1.3a.2.2,0,1,0-.4,0l-.2,1.7-.5.5.1-1.3a.2.2,0,1,0-.4,0l-.2,1.7-2.8,2.8-1.7.2a.2.2,0,1,0,0,.4l1.3-.1-.5.5-1.7.2a.2.2,0,1,0,0,.4l1.3-.1-.7.7a.21.21,0,0,0,.3.3l.7-.7-.1,1.3a.2.2,0,1,0,.4,0Z"/><path class="g" d="M130.4,234l-.5-.5,1.3.1a.2.2,0,1,0,0-.4l-1.7-.2-2.8-2.8-.2-1.7a.2.2,0,0,0-.4,0l.1,1.3-.5-.5-.2-1.7a.2.2,0,0,0-.4,0l.1,1.3-.7-.7a.21.21,0,1,0-.3.3l.7.7-1.3-.1a.2.2,0,0,0,0,.4l1.7.2.5.5-1.3-.1a.2.2,0,0,0,0,.4l1.7.2,2.8,2.8.2,1.7a.2.2,0,1,0,.4,0l-.1-1.3.5.5.2,1.7a.2.2,0,0,0,.4,0l-.1-1.3.7.7a.21.21,0,0,0,.3-.3l-.7-.7,1.3.1a.2.2,0,1,0,0-.4Z"/><circle class="b" cx="127.9" cy="231.7" r="1.7"/><path class="d" d="M127.9,233.1a1.73,1.73,0,0,1-1.7-1.5v.2a1.7,1.7,0,1,0,3.4,0v-.2A1.73,1.73,0,0,1,127.9,233.1Z"/><circle class="b" cx="127.9" cy="226" r="0.9"/><circle class="b" cx="123.8" cy="227.7" r="0.9"/><circle class="b" cx="122.2" cy="231.7" r="0.9"/><circle class="b" cx="123.8" cy="235.8" r="0.9"/><circle class="b" cx="127.9" cy="237.5" r="0.9"/><circle class="b" cx="131.9" cy="235.8" r="0.9"/><circle class="b" cx="133.6" cy="231.7" r="0.9"/><circle class="b" cx="131.9" cy="227.7" r="0.9"/><path class="d" d="M127.9,226.6a1,1,0,0,1-.9-.7v.2a.9.9,0,0,0,1.8,0v-.2A1,1,0,0,1,127.9,226.6Z"/><path class="d" d="M123.8,228.3a1,1,0,0,1-.9-.7v.2a.9.9,0,1,0,1.8,0v-.2A.88.88,0,0,1,123.8,228.3Z"/><path class="d" d="M122.2,232.3a1,1,0,0,1-.9-.7v.2a.9.9,0,0,0,1.8,0v-.2A1,1,0,0,1,122.2,232.3Z"/><path class="d" d="M123.8,236.3a1,1,0,0,1-.9-.7v.2a.9.9,0,1,0,1.8,0v-.2A.88.88,0,0,1,123.8,236.3Z"/><path class="d" d="M127.9,238a1,1,0,0,1-.9-.7v.2a.9.9,0,0,0,1.8,0v-.2A1,1,0,0,1,127.9,238Z"/><path class="d" d="M131.9,236.3a1,1,0,0,1-.9-.7v.2a.9.9,0,0,0,1.8,0v-.2A.81.81,0,0,1,131.9,236.3Z"/><path class="d" d="M133.6,232.3a1,1,0,0,1-.9-.7v.2a.9.9,0,0,0,1.8,0v-.2A.88.88,0,0,1,133.6,232.3Z"/><path class="d" d="M131.9,228.2a1,1,0,0,1-.9-.7v.2a.9.9,0,0,0,1.8,0v-.2A.81.81,0,0,1,131.9,228.2Z"/><circle class="g" cx="127.9" cy="226" r="0.9"/><circle class="g" cx="123.8" cy="227.7" r="0.9"/><circle class="g" cx="122.2" cy="231.7" r="0.9"/><circle class="g" cx="123.8" cy="235.8" r="0.9"/><circle class="g" cx="127.9" cy="237.5" r="0.9"/><circle class="g" cx="131.9" cy="235.8" r="0.9"/><circle class="g" cx="133.6" cy="231.7" r="0.9"/><path class="h" d="M132.6,227h0a.92.92,0,1,0,0,1.3c.1-.1.2-.2.2-.3"/><circle class="g" cx="127.9" cy="231.7" r="1.7"/><circle class="i" cx="132.8" cy="227.5" r="0.1"/><path class="j" d="M280.1,320H119.9a20.06,20.06,0,0,1-20-20h0a20.06,20.06,0,0,1,20-20H280a20.06,20.06,0,0,1,20,20h0A19.91,19.91,0,0,1,280.1,320Z"/><path class="d" d="M280.1,308.8H119.9a20,20,0,0,1-19.2-14.4,20.48,20.48,0,0,0-.8,5.6h0a20.06,20.06,0,0,0,20,20H280a20.06,20.06,0,0,0,20-20h0a21,21,0,0,0-.8-5.6A20,20,0,0,1,280.1,308.8Z"/><path class="k" d="M196,250c-39.4,0-73.7,8.8-92.1,22a106.71,106.71,0,0,0,8.1,9.7,20.52,20.52,0,0,1,7.8-1.6H279.9a19,19,0,0,1,7.9,1.7c1.8-1.9,3.4-3.8,5.1-5.8C276.2,260.6,239.1,250,196,250Z"/><path class="d" d="M289.4,274.7a19,19,0,0,0-7.9-1.7H121.4a20.13,20.13,0,0,0-7.8,1.6l-4.5-5.1q-1.95,1.2-3.6,2.4a106.71,106.71,0,0,0,8.1,9.7,20.52,20.52,0,0,1,7.8-1.6H281.5a19,19,0,0,1,7.9,1.7c1.8-1.9,3.4-3.8,5.1-5.8-1.1-1-2.2-1.9-3.5-2.9C290.5,273.5,290,274.1,289.4,274.7Z"/><path class="l" d="M280.1,320H119.9a20.06,20.06,0,0,1-20-20h0a20.06,20.06,0,0,1,20-20H280a20.06,20.06,0,0,1,20,20h0A19.91,19.91,0,0,1,280.1,320Z"/><path class="d" d="M205.6,260.5H196a4,4,0,0,1-4-4v4.4a4,4,0,0,0,4,4h9.6a4,4,0,0,0,4-4v-4.4A4,4,0,0,1,205.6,260.5Z"/><path class="m" d="M205.6,262.3H196a4,4,0,0,1-4-4V245.2a4,4,0,0,1,4-4h9.6a4,4,0,0,1,4,4v13.1A4,4,0,0,1,205.6,262.3Z"/><path class="n" d="M235.7,214.7h7.2a1.62,1.62,0,0,0,1.4-2.4l-21.1-36.5h0a1.62,1.62,0,0,1,1.4-2.4H227a1.62,1.62,0,0,0,1.4-2.4l-13.1-22.7-13.1-22.7a1.6,1.6,0,0,0-2.8,0l-13.1,22.7L173.2,171a1.62,1.62,0,0,0,1.4,2.4H177a1.62,1.62,0,0,1,1.4,2.4h0l-21.1,36.5a1.62,1.62,0,0,0,1.4,2.4h7.2a1.62,1.62,0,0,1,1.4,2.4l-14.5,25.2a1.62,1.62,0,0,0,1.4,2.4h93.2a1.62,1.62,0,0,0,1.4-2.4l-14.5-25.2A1.64,1.64,0,0,1,235.7,214.7Z"/><path class="o" d="M233.8,194.3l-3.2-5.5a35.14,35.14,0,0,1-43.5-42.1h0l-1,1.7-6,10.4a41.11,41.11,0,0,0,16.6,29.5A41.71,41.71,0,0,0,233.8,194.3Z"/><path class="o" d="M206.9,193.3a37.68,37.68,0,0,1-5.7-2.8,35.18,35.18,0,0,1-36.6,10.7l-3.2,5.5a41.26,41.26,0,0,0,37.9-6A38.2,38.2,0,0,0,206.9,193.3Z"/><path class="o" d="M244.2,234.5a36.6,36.6,0,0,1-46-33.1,34.18,34.18,0,0,1-6.1,3.5,43.11,43.11,0,0,0,55.5,35.4Z"/><path class="p" d="M235.5,219.2l-1.2-2a1.62,1.62,0,0,1,1.4-2.4h7.2a1.62,1.62,0,0,0,1.4-2.4l-21.1-36.5h0a1.62,1.62,0,0,1,1.4-2.4H227a1.62,1.62,0,0,0,1.4-2.4l-13.1-22.7-13.1-22.7a1.6,1.6,0,0,0-2.8,0l-13.1,22.7L173.2,171a1.62,1.62,0,0,0,1.4,2.4H177a1.62,1.62,0,0,1,1.4,2.4h0l-21.1,36.5a1.62,1.62,0,0,0,1.4,2.4h7.2a1.62,1.62,0,0,1,1.4,2.4l-14.5,25.2a1.62,1.62,0,0,0,1.4,2.4h93.2a1.62,1.62,0,0,0,1.4-2.4l-13.1-22.7"/><path class="q" d="M233.8,194.3l-3.2-5.5a35.14,35.14,0,0,1-43.5-42.1h0l-1,1.7-6,10.4a41.11,41.11,0,0,0,16.6,29.5A41.71,41.71,0,0,0,233.8,194.3Z"/><path class="q" d="M206.9,193.3a37.68,37.68,0,0,1-5.7-2.8,35.18,35.18,0,0,1-36.6,10.7l-3.2,5.5a41.26,41.26,0,0,0,37.9-6A38.2,38.2,0,0,0,206.9,193.3Z"/><path class="q" d="M244.2,234.5a36.6,36.6,0,0,1-46-33.1,34.18,34.18,0,0,1-6.1,3.5,43.11,43.11,0,0,0,55.5,35.4Z"/><path class="q" d="M200.8,244.7H192v13.6a4,4,0,0,0,4,4h9.6a4,4,0,0,0,4-4V244.7Z"/><circle class="r" cx="200.8" cy="123.2" r="7.6"/><path class="d" d="M201.1,127.1a7.62,7.62,0,0,1-7.4-5.8,11.08,11.08,0,0,0-.2,1.9,7.6,7.6,0,1,0,15.2,0,12.25,12.25,0,0,0-.2-1.9A7.62,7.62,0,0,1,201.1,127.1Z"/><circle class="s" cx="230.3" cy="201.4" r="2.7"/><circle class="s" cx="196.1" cy="152" r="2.7"/><circle class="s" cx="188.7" cy="231.8" r="2.7"/><circle class="k" cx="201.1" cy="174.1" r="2.7"/><circle class="k" cx="222.9" cy="225" r="2.7"/><circle class="k" cx="203.8" cy="141.6" r="2.7"/><circle class="k" cx="163.1" cy="238.5" r="2.7"/><circle class="t" cx="215.9" cy="169.3" r="2.7"/><circle class="t" cx="184.2" cy="190.5" r="2.7"/><circle class="t" cx="218.8" cy="210.7" r="2.7"/><circle class="t" cx="175.4" cy="214.9" r="2.7"/><circle class="q" cx="200.8" cy="123.2" r="7.6"/><circle class="q" cx="230.3" cy="201.4" r="2.7"/><circle class="q" cx="196.1" cy="152" r="2.7"/><circle class="q" cx="188.7" cy="231.8" r="2.7"/><circle class="q" cx="201.1" cy="174.1" r="2.7"/><circle class="q" cx="222.9" cy="225" r="2.7"/><circle class="q" cx="203.8" cy="141.6" r="2.7"/><circle class="q" cx="163.1" cy="238.5" r="2.7"/><circle class="q" cx="215.9" cy="169.3" r="2.7"/><circle class="q" cx="184.2" cy="190.5" r="2.7"/><circle class="q" cx="218.8" cy="210.7" r="2.7"/><circle class="q" cx="175.4" cy="214.9" r="2.7"/><g class="u"><path class="v" d="M225,169.1a1.62,1.62,0,0,0-1.4,2.4l1.1,1.9h2.7a1.62,1.62,0,0,0,1.4-2.4l-1.1-1.9H225Z"/><path class="v" d="M174.9,173.4h2.7l1.1-1.9a1.62,1.62,0,0,0-1.4-2.4h-2.7l-1.1,1.9A1.58,1.58,0,0,0,174.9,173.4Z"/><path class="v" d="M243.3,214.7a1.62,1.62,0,0,0,1.4-2.4l-1.1-1.9H236a1.62,1.62,0,0,0-1.4,2.4l1.1,1.9h7.6Z"/><path class="v" d="M248.1,240.4H154.3l-1.1,1.9a1.62,1.62,0,0,0,1.4,2.4h93.2a1.62,1.62,0,0,0,1.4-2.4Z"/><path class="v" d="M159,214.7h7.5l1.1-1.9a1.62,1.62,0,0,0-1.4-2.4h-7.5l-1.1,1.9A1.62,1.62,0,0,0,159,214.7Z"/></g><path class="p" d="M190.9,250c-37.2.7-69.4,9.4-87,21.9a106.71,106.71,0,0,0,8.1,9.7,20.52,20.52,0,0,1,7.8-1.6H279.9a19,19,0,0,1,7.9,1.7c1.8-1.9,3.4-3.8,5.1-5.8-14.8-13.5-45.4-23.3-82-25.4"/><path class="w" d="M280.1,320H119.9a20.06,20.06,0,0,1-20-20h0a20.06,20.06,0,0,1,20-20H280a20.06,20.06,0,0,1,20,20h0A19.91,19.91,0,0,1,280.1,320Z"/><path class="x" d="M119.9,280H280a19,19,0,0,1,7.9,1.7,120,120,0,1,0-175.9-.1A21,21,0,0,1,119.9,280Z"/><path class="y" d="M307.3,146.2A120,120,0,1,0,112,281.6a20.52,20.52,0,0,1,7.8-1.6H280a19,19,0,0,1,7.9,1.7,120.21,120.21,0,0,0,26.7-117.4"/><path class="b" d="M143.1,152v-1.8l2.1,2.5a.48.48,0,0,0,.7,0,.61.61,0,0,0,0-.8l-2.8-3.4V138.1l2.8-3.4a.61.61,0,0,0,0-.8.48.48,0,0,0-.7,0l-2.1,2.5v-1.8l2.8-3.4a.61.61,0,0,0,0-.8.48.48,0,0,0-.7,0l-2.1,2.5v-2.6a.51.51,0,1,0-1,0v2.6l-2.1-2.5a.48.48,0,0,0-.7,0,.61.61,0,0,0,0,.8l2.8,3.4v1.8l-2.1-2.5a.48.48,0,0,0-.7,0,.61.61,0,0,0,0,.8l2.8,3.4v10.4l-2.8,3.4a.61.61,0,0,0,0,.8.48.48,0,0,0,.7,0l2.1-2.5V152l-2.8,3.4a.61.61,0,0,0,0,.8.48.48,0,0,0,.7,0l2.1-2.5v2.5a.51.51,0,1,0,1,0v-2.5l2.1,2.5a.48.48,0,0,0,.7,0,.61.61,0,0,0,0-.8Z"/><path class="b" d="M133.9,143.8h1.8l-2.5,2.1a.48.48,0,0,0,0,.7.61.61,0,0,0,.8,0l3.4-2.8h10.4l3.4,2.8a.61.61,0,0,0,.8,0,.48.48,0,0,0,0-.7l-2.5-2.1h1.8l3.4,2.8a.61.61,0,0,0,.8,0,.48.48,0,0,0,0-.7l-2.5-2.1h2.6a.51.51,0,1,0,0-1H153l2.5-2.1a.48.48,0,0,0,0-.7.61.61,0,0,0-.8,0l-3.4,2.8h-1.8l2.5-2.1a.48.48,0,0,0,0-.7.61.61,0,0,0-.8,0l-3.4,2.8H137.4L134,140a.61.61,0,0,0-.8,0,.48.48,0,0,0,0,.7l2.5,2.1h-1.8l-3.4-2.8a.61.61,0,0,0-.8,0,.48.48,0,0,0,0,.7l2.5,2.1h-2.5a.51.51,0,1,0,0,1h2.5l-2.5,2.1a.48.48,0,0,0,0,.7.61.61,0,0,0,.8,0Z"/><path class="b" d="M136.8,149.8l1.3-1.3-.3,3.3a.47.47,0,0,0,.5.5.65.65,0,0,0,.6-.6l.4-4.4,7.4-7.4,4.3-.4a.65.65,0,0,0,.6-.6.47.47,0,0,0-.5-.5l-3.3.3,1.3-1.3,4.3-.4a.65.65,0,0,0,.6-.6.47.47,0,0,0-.5-.5l-3.3.3,1.8-1.8a.62.62,0,0,0,.1-.8c-.2-.2-.5-.2-.8.1l-1.8,1.8.3-3.3a.47.47,0,0,0-.5-.5.65.65,0,0,0-.6.6l-.4,4.4L147,138l.3-3.3a.47.47,0,0,0-.5-.5.65.65,0,0,0-.6.6l-.4,4.4-7.4,7.4-4.3.4a.65.65,0,0,0-.6.6.47.47,0,0,0,.5.5l3.3-.3-1.3,1.3-4.3.4a.65.65,0,0,0-.6.6.47.47,0,0,0,.5.5l3.3-.3-1.8,1.8a.62.62,0,0,0-.1.8c.2.2.5.2.8-.1l1.8-1.8-.3,3.3a.47.47,0,0,0,.5.5.65.65,0,0,0,.6-.6Z"/><path class="b" d="M149.1,149.1l-1.3-1.3,3.3.3a.47.47,0,0,0,.5-.5.65.65,0,0,0-.6-.6l-4.4-.4-7.4-7.4-.4-4.3a.65.65,0,0,0-.6-.6.47.47,0,0,0-.5.5l.3,3.3-1.3-1.3-.4-4.3a.65.65,0,0,0-.6-.6.47.47,0,0,0-.5.5l.3,3.3-1.8-1.8a.62.62,0,0,0-.8-.1c-.2.2-.2.5.1.8l1.8,1.8-3.3-.3a.47.47,0,0,0-.5.5.65.65,0,0,0,.6.6l4.4.4,1.3,1.3-3.3-.3a.47.47,0,0,0-.5.5.65.65,0,0,0,.6.6l4.4.4,7.4,7.4.4,4.3a.65.65,0,0,0,.6.6.47.47,0,0,0,.5-.5l-.3-3.3,1.3,1.3.4,4.3a.65.65,0,0,0,.6.6.47.47,0,0,0,.5-.5l-.3-3.3,1.8,1.8a.62.62,0,0,0,.8.1c.2-.2.2-.5-.1-.8l-1.8-1.8,3.3.3a.47.47,0,0,0,.5-.5.65.65,0,0,0-.6-.6Z"/><path class="z" d="M143.1,152v-1.8l2.1,2.5a.48.48,0,0,0,.7,0,.61.61,0,0,0,0-.8l-2.8-3.4V138.1l2.8-3.4a.61.61,0,0,0,0-.8.48.48,0,0,0-.7,0l-2.1,2.5v-1.8l2.8-3.4a.61.61,0,0,0,0-.8.48.48,0,0,0-.7,0l-2.1,2.5v-2.6a.51.51,0,1,0-1,0v2.6l-2.1-2.5a.48.48,0,0,0-.7,0,.61.61,0,0,0,0,.8l2.8,3.4v1.8l-2.1-2.5a.48.48,0,0,0-.7,0,.61.61,0,0,0,0,.8l2.8,3.4v10.4l-2.8,3.4a.61.61,0,0,0,0,.8.48.48,0,0,0,.7,0l2.1-2.5V152l-2.8,3.4a.61.61,0,0,0,0,.8.48.48,0,0,0,.7,0l2.1-2.5v2.5a.51.51,0,1,0,1,0v-2.5l2.1,2.5a.48.48,0,0,0,.7,0,.61.61,0,0,0,0-.8Z"/><path class="z" d="M133.9,143.8h1.8l-2.5,2.1a.48.48,0,0,0,0,.7.61.61,0,0,0,.8,0l3.4-2.8h10.4l3.4,2.8a.61.61,0,0,0,.8,0,.48.48,0,0,0,0-.7l-2.5-2.1h1.8l3.4,2.8a.61.61,0,0,0,.8,0,.48.48,0,0,0,0-.7l-2.5-2.1h2.6a.51.51,0,1,0,0-1H153l2.5-2.1a.48.48,0,0,0,0-.7.61.61,0,0,0-.8,0l-3.4,2.8h-1.8l2.5-2.1a.48.48,0,0,0,0-.7.61.61,0,0,0-.8,0l-3.4,2.8H137.4L134,140a.61.61,0,0,0-.8,0,.48.48,0,0,0,0,.7l2.5,2.1h-1.8l-3.4-2.8a.61.61,0,0,0-.8,0,.48.48,0,0,0,0,.7l2.5,2.1h-2.5a.51.51,0,1,0,0,1h2.5l-2.5,2.1a.48.48,0,0,0,0,.7.61.61,0,0,0,.8,0Z"/><path class="z" d="M136.8,149.8l1.3-1.3-.3,3.3a.47.47,0,0,0,.5.5.65.65,0,0,0,.6-.6l.4-4.4,7.4-7.4,4.3-.4a.65.65,0,0,0,.6-.6.47.47,0,0,0-.5-.5l-3.3.3,1.3-1.3,4.3-.4a.65.65,0,0,0,.6-.6.47.47,0,0,0-.5-.5l-3.3.3,1.8-1.8a.62.62,0,0,0,.1-.8c-.2-.2-.5-.2-.8.1l-1.8,1.8.3-3.3a.47.47,0,0,0-.5-.5.65.65,0,0,0-.6.6l-.4,4.4L147,138l.3-3.3a.47.47,0,0,0-.5-.5.65.65,0,0,0-.6.6l-.4,4.4-7.4,7.4-4.3.4a.65.65,0,0,0-.6.6.47.47,0,0,0,.5.5l3.3-.3-1.3,1.3-4.3.4a.65.65,0,0,0-.6.6.47.47,0,0,0,.5.5l3.3-.3-1.8,1.8a.62.62,0,0,0-.1.8c.2.2.5.2.8-.1l1.8-1.8-.3,3.3a.47.47,0,0,0,.5.5.65.65,0,0,0,.6-.6Z"/><path class="z" d="M149.1,149.1l-1.3-1.3,3.3.3a.47.47,0,0,0,.5-.5.65.65,0,0,0-.6-.6l-4.4-.4-7.4-7.4-.4-4.3a.65.65,0,0,0-.6-.6.47.47,0,0,0-.5.5l.3,3.3-1.3-1.3-.4-4.3a.65.65,0,0,0-.6-.6.47.47,0,0,0-.5.5l.3,3.3-1.8-1.8a.62.62,0,0,0-.8-.1c-.2.2-.2.5.1.8l1.8,1.8-3.3-.3a.47.47,0,0,0-.5.5.65.65,0,0,0,.6.6l4.4.4,1.3,1.3-3.3-.3a.47.47,0,0,0-.5.5.65.65,0,0,0,.6.6l4.4.4,7.4,7.4.4,4.3a.65.65,0,0,0,.6.6.47.47,0,0,0,.5-.5l-.3-3.3,1.3,1.3.4,4.3a.65.65,0,0,0,.6.6.47.47,0,0,0,.5-.5l-.3-3.3,1.8,1.8a.62.62,0,0,0,.8.1c.2-.2.2-.5-.1-.8l-1.8-1.8,3.3.3a.47.47,0,0,0,.5-.5.65.65,0,0,0-.6-.6Z"/><circle class="b" cx="142.6" cy="143.3" r="4.4"/><path class="d" d="M142.6,146.8a4.43,4.43,0,0,1-4.4-3.9v.5a4.4,4.4,0,0,0,8.8,0v-.5A4.36,4.36,0,0,1,142.6,146.8Z"/><circle class="b" cx="142.6" cy="128.4" r="2.4"/><circle class="b" cx="132.1" cy="132.8" r="2.4"/><circle class="b" cx="127.7" cy="143.3" r="2.4"/><circle class="b" cx="132.1" cy="153.9" r="2.4"/><circle class="b" cx="142.6" cy="158.2" r="2.4"/><circle class="b" cx="153.1" cy="153.9" r="2.4"/><circle class="b" cx="157.5" cy="143.3" r="2.4"/><circle class="b" cx="153.1" cy="132.8" r="2.4"/><path class="d" d="M142.7,129.9a2.35,2.35,0,0,1-2.3-1.9c0,.2-.1.3-.1.5a2.4,2.4,0,0,0,4.8,0,.9.9,0,0,0-.1-.5A2.46,2.46,0,0,1,142.7,129.9Z"/><path class="d" d="M132.1,134.3a2.35,2.35,0,0,1-2.3-1.9c0,.2-.1.3-.1.5a2.4,2.4,0,0,0,4.8,0,.9.9,0,0,0-.1-.5A2.35,2.35,0,0,1,132.1,134.3Z"/><path class="d" d="M127.7,144.7a2.35,2.35,0,0,1-2.3-1.9c0,.2-.1.3-.1.5a2.4,2.4,0,1,0,4.8,0,.9.9,0,0,0-.1-.5A2.28,2.28,0,0,1,127.7,144.7Z"/><path class="d" d="M132.1,155.3a2.35,2.35,0,0,1-2.3-1.9c0,.2-.1.3-.1.5a2.4,2.4,0,0,0,4.8,0,.9.9,0,0,0-.1-.5A2.35,2.35,0,0,1,132.1,155.3Z"/><path class="d" d="M142.6,159.6a2.35,2.35,0,0,1-2.3-1.9c0,.2-.1.3-.1.5a2.4,2.4,0,0,0,4.8,0,.9.9,0,0,0-.1-.5A2.28,2.28,0,0,1,142.6,159.6Z"/><path class="d" d="M153.1,155.3a2.35,2.35,0,0,1-2.3-1.9c0,.2-.1.3-.1.5a2.4,2.4,0,0,0,4.8,0,.9.9,0,0,0-.1-.5A2.2,2.2,0,0,1,153.1,155.3Z"/><path class="d" d="M157.5,144.7a2.35,2.35,0,0,1-2.3-1.9c0,.2-.1.3-.1.5a2.4,2.4,0,1,0,4.8,0,.9.9,0,0,0-.1-.5A2.28,2.28,0,0,1,157.5,144.7Z"/><path class="d" d="M153.1,134.2a2.35,2.35,0,0,1-2.3-1.9c0,.2-.1.3-.1.5a2.4,2.4,0,1,0,4.8,0,.9.9,0,0,0-.1-.5A2.2,2.2,0,0,1,153.1,134.2Z"/><circle class="z" cx="142.6" cy="128.4" r="2.4"/><circle class="z" cx="132.1" cy="132.8" r="2.4"/><circle class="z" cx="127.7" cy="143.3" r="2.4"/><circle class="z" cx="132.1" cy="153.9" r="2.4"/><circle class="z" cx="142.6" cy="158.2" r="2.4"/><circle class="z" cx="153.1" cy="153.9" r="2.4"/><circle class="z" cx="157.5" cy="143.3" r="2.4"/><path class="aa" d="M154.8,131.1h0a2.4,2.4,0,1,0,0,3.4,2.18,2.18,0,0,0,.5-.8"/><circle class="z" cx="142.6" cy="143.3" r="4.4"/><circle class="ab" cx="155.5" cy="132.3" r="0.2"/><path class="b" d="M259,217v-.4l.5.6c0,.1.1.1.2,0V217l-.7-.8v-2.6l.7-.8v-.2c0-.1-.1-.1-.2,0l-.5.6v-.4l.7-.8v-.2c0-.1-.1-.1-.2,0l-.5.6v-.6a.1.1,0,0,0-.1-.1l-.1.1v.6l-.5-.6c0-.1-.1-.1-.2,0v.2l.7.8v.4l-.5-.6c0-.1-.1-.1-.2,0v.2l.7.8v2.6l-.7.8v.2c0,.1.1.1.2,0l.5-.6v.4l-.7.8v.2c0,.1.1.1.2,0l.5-.6v.6a.1.1,0,0,0,.1.1l.1-.1v-.6l.5.6c0,.1.1.1.2,0v-.2Z"/><path class="b" d="M256.7,215h.4l-.6.5c-.1,0-.1.1,0,.2h.2l.8-.7h2.6l.8.7h.2c.1,0,.1-.1,0-.2l-.6-.5h.4l.8.7h.2c.1,0,.1-.1,0-.2l-.6-.5h.6a.1.1,0,0,0,.1-.1l-.1-.1h-.6l.6-.5c.1,0,.1-.1,0-.2h-.2l-.8.7h-.4l.6-.5c.1,0,.1-.1,0-.2h-.2l-.8.7h-2.6l-.8-.7h-.2a.14.14,0,0,0,0,.2l.6.5h-.4l-.8-.7h-.2c-.1,0-.1.1,0,.2l.6.5h-.6a.1.1,0,0,0-.1.1l.1.1h.6l-.6.5c-.1,0-.1.1,0,.2h.2Z"/><path class="b" d="M257.5,216.5l.3-.3-.1.8c0,.1,0,.1.1.1a.1.1,0,0,0,.1-.1l.1-1.1,1.8-1.8,1.1-.1a.1.1,0,0,0,.1-.1c0-.1,0-.1-.1-.1l-.8.1.3-.3,1.1-.1a.1.1,0,0,0,.1-.1c0-.1,0-.1-.1-.1l-.8.1.5-.5c.1-.1.1-.1,0-.2H261l-.5.5.1-.8c0-.1,0-.1-.1-.1a.1.1,0,0,0-.1.1l-.1,1.1-.3.3.1-.8c0-.1,0-.1-.1-.1a.1.1,0,0,0-.1.1l-.1,1.1-1.8,1.8-1.1.1a.1.1,0,0,0-.1.1c0,.1,0,.1.1.1l.8-.1-.3.3-1.1.1a.1.1,0,0,0-.1.1c0,.1,0,.1.1.1l.8-.1-.4.4c-.1.1-.1.1,0,.2h.2l.5-.5-.1.8c0,.1,0,.1.1.1a.1.1,0,0,0,.1-.1Z"/><path class="b" d="M260.5,216.3l-.3-.3.8.1c.1,0,.1,0,.1-.1a.1.1,0,0,0-.1-.1l-1.1-.1-1.8-1.8-.1-1.1a.1.1,0,0,0-.1-.1c-.1,0-.1,0-.1.1l.1.8-.3-.3-.1-1.1a.1.1,0,0,0-.1-.1c-.1,0-.1,0-.1.1l.1.8-.5-.5c-.1-.1-.1-.1-.2,0s0,.1,0,.2l.5.5-.8-.1c-.1,0-.1,0-.1.1a.1.1,0,0,0,.1.1l1.1.1.3.3-.8-.1c-.1,0-.1,0-.1.1a.1.1,0,0,0,.1.1l1.1.1,1.8,1.8.1,1.1a.1.1,0,0,0,.1.1c.1,0,.1,0,.1-.1l-.1-.8.3.3.1,1.1a.1.1,0,0,0,.1.1c.1,0,.1,0,.1-.1l-.1-.8.4.4c.1.1.1.1.2,0s0-.1,0-.2l-.5-.5.8.1c.1,0,.1,0,.1-.1a.1.1,0,0,0-.1-.1Z"/><path class="ac" d="M259,217v-.4l.5.6c0,.1.1.1.2,0V217l-.7-.8v-2.6l.7-.8v-.2c0-.1-.1-.1-.2,0l-.5.6v-.4l.7-.8v-.2c0-.1-.1-.1-.2,0l-.5.6v-.6a.1.1,0,0,0-.1-.1l-.1.1v.6l-.5-.6c0-.1-.1-.1-.2,0v.2l.7.8v.4l-.5-.6c0-.1-.1-.1-.2,0v.2l.7.8v2.6l-.7.8v.2c0,.1.1.1.2,0l.5-.6v.4l-.7.8v.2c0,.1.1.1.2,0l.5-.6v.6a.1.1,0,0,0,.1.1l.1-.1v-.6l.5.6c0,.1.1.1.2,0v-.2Z"/><path class="ac" d="M256.7,215h.4l-.6.5c-.1,0-.1.1,0,.2h.2l.8-.7h2.6l.8.7h.2c.1,0,.1-.1,0-.2l-.6-.5h.4l.8.7h.2c.1,0,.1-.1,0-.2l-.6-.5h.6a.1.1,0,0,0,.1-.1l-.1-.1h-.6l.6-.5c.1,0,.1-.1,0-.2h-.2l-.8.7h-.4l.6-.5c.1,0,.1-.1,0-.2h-.2l-.8.7h-2.6l-.8-.7h-.2a.14.14,0,0,0,0,.2l.6.5h-.4l-.8-.7h-.2c-.1,0-.1.1,0,.2l.6.5h-.6a.1.1,0,0,0-.1.1l.1.1h.6l-.6.5c-.1,0-.1.1,0,.2h.2Z"/><path class="ac" d="M257.5,216.5l.3-.3-.1.8c0,.1,0,.1.1.1a.1.1,0,0,0,.1-.1l.1-1.1,1.8-1.8,1.1-.1a.1.1,0,0,0,.1-.1c0-.1,0-.1-.1-.1l-.8.1.3-.3,1.1-.1a.1.1,0,0,0,.1-.1c0-.1,0-.1-.1-.1l-.8.1.5-.5c.1-.1.1-.1,0-.2H261l-.5.5.1-.8c0-.1,0-.1-.1-.1a.1.1,0,0,0-.1.1l-.1,1.1-.3.3.1-.8c0-.1,0-.1-.1-.1a.1.1,0,0,0-.1.1l-.1,1.1-1.8,1.8-1.1.1a.1.1,0,0,0-.1.1c0,.1,0,.1.1.1l.8-.1-.3.3-1.1.1a.1.1,0,0,0-.1.1c0,.1,0,.1.1.1l.8-.1-.4.4c-.1.1-.1.1,0,.2h.2l.5-.5-.1.8c0,.1,0,.1.1.1a.1.1,0,0,0,.1-.1Z"/><path class="ac" d="M260.5,216.3l-.3-.3.8.1c.1,0,.1,0,.1-.1a.1.1,0,0,0-.1-.1l-1.1-.1-1.8-1.8-.1-1.1a.1.1,0,0,0-.1-.1c-.1,0-.1,0-.1.1l.1.8-.3-.3-.1-1.1a.1.1,0,0,0-.1-.1c-.1,0-.1,0-.1.1l.1.8-.5-.5c-.1-.1-.1-.1-.2,0s0,.1,0,.2l.5.5-.8-.1c-.1,0-.1,0-.1.1a.1.1,0,0,0,.1.1l1.1.1.3.3-.8-.1c-.1,0-.1,0-.1.1a.1.1,0,0,0,.1.1l1.1.1,1.8,1.8.1,1.1a.1.1,0,0,0,.1.1c.1,0,.1,0,.1-.1l-.1-.8.3.3.1,1.1a.1.1,0,0,0,.1.1c.1,0,.1,0,.1-.1l-.1-.8.4.4c.1.1.1.1.2,0s0-.1,0-.2l-.5-.5.8.1c.1,0,.1,0,.1-.1a.1.1,0,0,0-.1-.1Z"/><circle class="b" cx="258.9" cy="214.9" r="1.1"/><path class="d" d="M258.9,215.7a1.09,1.09,0,0,1-1.1-1v.1a1.1,1.1,0,0,0,2.2,0v-.1A1.09,1.09,0,0,1,258.9,215.7Z"/><circle class="b" cx="258.9" cy="211.1" r="0.6"/><circle class="b" cx="256.3" cy="212.2" r="0.6"/><circle class="b" cx="255.2" cy="214.9" r="0.6"/><circle class="b" cx="256.3" cy="217.5" r="0.6"/><circle class="b" cx="258.9" cy="218.6" r="0.6"/><circle class="b" cx="261.5" cy="217.5" r="0.6"/><circle class="b" cx="262.6" cy="214.9" r="0.6"/><circle class="b" cx="261.5" cy="212.2" r="0.6"/><path class="d" d="M258.9,211.5a.63.63,0,0,1-.6-.5v.1a.6.6,0,1,0,1.2,0V211A.56.56,0,0,1,258.9,211.5Z"/><path class="d" d="M256.3,212.6a.63.63,0,0,1-.6-.5v.1a.6.6,0,1,0,1.2,0v-.1A.63.63,0,0,1,256.3,212.6Z"/><path class="d" d="M255.2,215.2a.63.63,0,0,1-.6-.5v.1a.6.6,0,1,0,1.2,0v-.1A.63.63,0,0,1,255.2,215.2Z"/><path class="d" d="M256.3,217.9a.63.63,0,0,1-.6-.5v.1a.6.6,0,0,0,1.2,0v-.1A.63.63,0,0,1,256.3,217.9Z"/><path class="d" d="M258.9,219a.63.63,0,0,1-.6-.5v.1a.6.6,0,1,0,1.2,0v-.1A.63.63,0,0,1,258.9,219Z"/><path class="d" d="M261.5,217.9a.63.63,0,0,1-.6-.5v.1a.6.6,0,0,0,1.2,0v-.1A.56.56,0,0,1,261.5,217.9Z"/><path class="d" d="M262.6,215.2a.63.63,0,0,1-.6-.5v.1a.6.6,0,0,0,1.2,0v-.1A.56.56,0,0,1,262.6,215.2Z"/><path class="d" d="M261.5,212.6a.63.63,0,0,1-.6-.5v.1a.6.6,0,0,0,1.2,0v-.1A.56.56,0,0,1,261.5,212.6Z"/><circle class="ac" cx="258.9" cy="211.1" r="0.6"/><circle class="ac" cx="256.3" cy="212.2" r="0.6"/><circle class="ac" cx="255.2" cy="214.9" r="0.6"/><circle class="ac" cx="256.3" cy="217.5" r="0.6"/><circle class="ac" cx="258.9" cy="218.6" r="0.6"/><circle class="ac" cx="261.5" cy="217.5" r="0.6"/><circle class="ac" cx="262.6" cy="214.9" r="0.6"/><path class="ad" d="M262,211.8h0a.57.57,0,1,0,0,.8c.1-.1.1-.1.1-.2"/><circle class="ac" cx="258.9" cy="214.9" r="1.1"/><circle class="ae" cx="262.1" cy="212.1" r="0.1"/><circle class="af" cx="311.3" cy="155.1" r="1.7"/></svg>