<svg xmlns="http://www.w3.org/2000/svg" xmlns:xlink="http://www.w3.org/1999/xlink" viewBox="0 0 400 400"><defs><style>.a{fill:#ffc392;}.b,.f{fill:#333;isolation:isolate;}.b{opacity:0.2;}.c{fill:#c7732a;}.d,.i{fill:none;stroke:#333;stroke-width:3px;}.d{stroke-miterlimit:10;}.e{fill:#d9feff;}.f{opacity:0.1;}.g{fill:#f0feff;}.h{fill:#6ab66c;}.i{stroke-linecap:round;stroke-linejoin:round;}.j{fill:#f33;}.k{fill:#e03232;}.l{fill:#2d2d2d;}.m{fill:#ffc91d;}.n{fill:url(#a);}</style><linearGradient id="a" x1="256.97" y1="221.13" x2="260.86" y2="218.74" gradientTransform="matrix(1, 0, 0, -1, 0, 402)" gradientUnits="userSpaceOnUse"><stop offset="0" stop-color="#e34248"/><stop offset="1" stop-color="#9e55a0"/></linearGradient></defs><circle class="a" cx="200" cy="200" r="200"/><path class="b" d="M299.84,209.63h0a3.11,3.11,0,0,0-4.26-1.08l-6.95,4.13,4.27-16.8a3.2,3.2,0,0,0,.09-.62,3,3,0,0,0-.18-1.19,3.32,3.32,0,0,0-.25-.54,3.1,3.1,0,0,0-1.91-1.43,2.84,2.84,0,0,0-.65-.1,3,3,0,0,0-1.19.18,3.17,3.17,0,0,0-1.75,1.57,2.63,2.63,0,0,0-.22.59L281,217.17l-8.64,5.13a76.94,76.94,0,0,0-13-22.44,43.43,43.43,0,0,0,.55-6.73,27.91,27.91,0,0,0-.12-3.17,1.66,1.66,0,0,0-.22-3.31h-.16a44.65,44.65,0,0,0-7.72-18.9v-1c0-1.69-.09-3.35-.25-5-.08.86-.19,1.7-.32,2.54a50.61,50.61,0,0,0-2-11.78h13.47a4,4,0,0,0,4-4V129.64a4,4,0,0,0-4-4H251.27V98a12,12,0,0,0-12-12h-78a12,12,0,0,0-12,12v27.65h-11a4,4,0,0,0-4,4v18.94a4,4,0,0,0,4,4h13a51.18,51.18,0,0,0-2,14.24v.53a44.38,44.38,0,0,0-8.38,22.28,4.81,4.81,0,0,0-.07-.53c-.12,1.34-.2,2.69-.2,4a42.67,42.67,0,0,0,.55,6.67A76.7,76.7,0,0,0,128,222.71l-9.35-5.56-5.81-22.83a3.11,3.11,0,0,0-6,1.53l4.28,16.8-7-4.13a3.12,3.12,0,0,0-4.26,1.08h0a3,3,0,0,0-.43,1.77,3.12,3.12,0,0,0,1.51,2.5l25.1,15A76.93,76.93,0,0,0,200.22,326h.06a76.47,76.47,0,0,0,11.71-.89c1.28-.19,2.54-.42,3.79-.67,2.51-.52,5-1.15,7.37-1.9a75.84,75.84,0,0,0,17-7.68c2.11-1.28,4.16-2.67,6.14-4.14,1-.74,2-1.5,2.9-2.29a76.77,76.77,0,0,0,28-59.36c0-1.21,0-2.41-.09-3.6s-.15-2.35-.25-3.51h0a77.09,77.09,0,0,0-2.5-13.56l24.39-14.49a3.15,3.15,0,0,0,1.08-4.27Z"/><path class="c" d="M299.57,203.63h0a3.12,3.12,0,0,0-4.27-1.08l-6.95,4.13,4.27-16.8a3.11,3.11,0,0,0-6-1.53l-5.81,22.83-20.63,12.26a3.11,3.11,0,0,0-1.08,4.26h0a3.12,3.12,0,0,0,4.26,1.09l35.15-20.89A3.14,3.14,0,0,0,299.57,203.63Z"/><path class="c" d="M99.51,203.63h0a3.11,3.11,0,0,1,4.26-1.08l7,4.13-4.28-16.8a3.11,3.11,0,0,1,6-1.53l5.81,22.83,20.63,12.26A3.11,3.11,0,0,1,140,227.7h0a3.12,3.12,0,0,1-4.26,1.09L100.6,207.9A3.13,3.13,0,0,1,99.51,203.63Z"/><path class="d" d="M299.57,203.63h0a3.12,3.12,0,0,0-4.27-1.08l-6.95,4.13,4.27-16.8a3.11,3.11,0,0,0-6-1.53l-5.81,22.83-20.63,12.26a3.11,3.11,0,0,0-1.08,4.26h0a3.12,3.12,0,0,0,4.26,1.09l35.15-20.89A3.14,3.14,0,0,0,299.57,203.63Z"/><path class="d" d="M99.51,203.63h0a3.11,3.11,0,0,1,4.26-1.08l7,4.13-4.28-16.8a3.11,3.11,0,0,1,6-1.53l5.81,22.83,20.63,12.26A3.11,3.11,0,0,1,140,227.7h0a3.12,3.12,0,0,1-4.26,1.09L100.6,207.9A3.13,3.13,0,0,1,99.51,203.63Z"/><circle class="e" cx="200" cy="243.07" r="76.93"/><path class="f" d="M200,305.76A76.93,76.93,0,0,1,123.41,236c-.21,2.35-.34,4.72-.34,7.12a76.93,76.93,0,0,0,153.86,0c0-2.4-.13-4.77-.34-7.12A76.93,76.93,0,0,1,200,305.76Z"/><circle class="d" cx="199.94" cy="243.07" r="76.93"/><circle class="g" cx="200" cy="160.81" r="50.99"/><path class="f" d="M200.5,201.8a51,51,0,0,1-50.74-46c-.16,1.65-.25,3.31-.25,5a51,51,0,0,0,102,0c0-1.69-.09-3.35-.25-5A51,51,0,0,1,200.5,201.8Z"/><circle class="d" cx="199.94" cy="160.81" r="50.99"/><path class="h" d="M251,161.17a51,51,0,0,1-102,0,44,44,0,0,0-8.64,26c0,27.65,26.7,50.06,59.62,50.06s59.62-22.41,59.62-50.06A44,44,0,0,0,251,161.17Z"/><rect class="h" x="228.83" y="211.8" width="19.39" height="34.85" rx="3.45"/><path class="f" d="M199.94,229.22c-31.35,0-57-20.32-59.42-46.13-.12,1.34-.2,2.69-.2,4,0,27.65,26.7,50.06,59.62,50.06s59.62-22.41,59.62-50.06c0-1.36-.07-2.71-.2-4C257,208.9,231.3,229.22,199.94,229.22Z"/><path class="f" d="M244.65,242.46H232.16a3.47,3.47,0,0,1-3.45-3.45v4.19a3.47,3.47,0,0,0,3.45,3.45h12.49a3.47,3.47,0,0,0,3.45-3.45V239A3.46,3.46,0,0,1,244.65,242.46Z"/><path class="i" d="M256.91,172.33a46.4,46.4,0,0,0-6-11.16,51,51,0,0,1-101.95,0,44,44,0,0,0-8.65,26c0,27.65,26.7,50.06,59.62,50.06,31,0,56.56-19.93,59.37-45.38"/><rect class="j" x="149.01" y="80" width="101.98" height="51.67" rx="12"/><rect class="k" x="134.02" y="119.65" width="131.85" height="26.93" rx="3.99"/><path class="f" d="M262.44,140.65H138.56a4,4,0,0,1-4-4v5.92a4,4,0,0,0,4,4H262.44a4,4,0,0,0,4-4v-5.92A4,4,0,0,1,262.44,140.65Z"/><rect class="d" x="134.57" y="119.65" width="131.85" height="26.93" rx="3.99"/><path class="d" d="M250.93,119.65V92a12,12,0,0,0-12-12H161a12,12,0,0,0-12,12v27.65Z"/><circle class="l" cx="174.44" cy="164.1" r="8.22"/><circle class="l" cx="225.56" cy="164.1" r="8.22"/><circle class="m" cx="199.94" cy="179.27" r="3.64"/><circle class="d" cx="199.94" cy="179.27" r="3.64"/><circle class="l" cx="200.06" cy="256.57" r="4.76"/><circle class="l" cx="200.06" cy="272.49" r="4.76"/><path class="d" d="M228.71,231v12.2a3.47,3.47,0,0,0,3.45,3.45h12.49a3.47,3.47,0,0,0,3.45-3.45V216.64A57.78,57.78,0,0,1,228.71,231Z"/><circle class="n" cx="259.34" cy="182.33" r="1.67"/></svg>