<svg xmlns="http://www.w3.org/2000/svg" xmlns:xlink="http://www.w3.org/1999/xlink" viewBox="0 0 400 400"><defs><style>.a{fill:#ffc392;}.b,.i,.n{fill:#333;}.b{opacity:0.2;}.b,.i{isolation:isolate;}.c{fill:#834d1e;}.d{fill:#80d249;}.e{fill:#ffbc8f;}.f,.g{fill:none;stroke:#333;stroke-miterlimit:10;stroke-width:3px;}.f{stroke-linecap:round;}.h{fill:#efd14d;}.i,.m{opacity:0.1;}.j{fill:#ff3e3e;}.k{fill:#fff;}.l{fill:#bbfdff;}.o{fill:url(#a);}</style><linearGradient id="a" x1="259.62" y1="144.56" x2="263.51" y2="142.17" gradientTransform="matrix(1, 0, 0, -1, 0, 402)" gradientUnits="userSpaceOnUse"><stop offset="0" stop-color="#e34248"/><stop offset="1" stop-color="#9e55a0"/></linearGradient></defs><circle class="a" cx="200" cy="200" r="200"/><path class="b" d="M279.8,294.5l-1.8-3.2c-.1,0-.3.1-.4.1h0l-22.1-38.2a2.68,2.68,0,0,1,2.3-4h0v.1c.1,0,.3-.1.4-.1h11.9a2.68,2.68,0,0,0,2.3-4l-1.8-3.2c-.1,0-.3.1-.4.1h0l-32.8-56.9a2.68,2.68,0,0,1,2.3-4h0v.1c.1,0,.3-.1.4-.1h4a2.68,2.68,0,0,0,2.3-4l-1.8-3.2c-.1,0-.3.1-.4.1h0l-19.8-34.3-17.5-30.2a12.63,12.63,0,0,0,6.6-11.1,10.55,10.55,0,0,0-.4-3.1c-.1.3-.2.7-.3,1A12.58,12.58,0,1,0,194,109.3l-16.4,28.4c0-.2.1-.4.1-.6h-.1l-1.6,2.7-9.9,17.1v.4l-11.5,19.9a2.68,2.68,0,0,0,2.3,4h4a2.68,2.68,0,0,1,2.3,4l-34.6,60a2.68,2.68,0,0,0,2.3,4h11.9a2.68,2.68,0,0,1,2.3,4l-23.9,41.4a2.68,2.68,0,0,0,2.3,4h62.2c0,.3-.1.5-.1.8V321h0a5.28,5.28,0,0,0,.1,1.3,6,6,0,0,0,1,2.3A8.64,8.64,0,0,0,188,326a6.71,6.71,0,0,0,4.2,1.5h16a6.66,6.66,0,0,0,6.6-6.6V299.3a2.2,2.2,0,0,0-.1-.8h62.8A2.68,2.68,0,0,0,279.8,294.5Z"/><path class="c" d="M207.9,321.5H192.1a6.66,6.66,0,0,1-6.6-6.6V293.3a6.66,6.66,0,0,1,6.6-6.6h15.8a6.66,6.66,0,0,1,6.6,6.6v21.6A6.66,6.66,0,0,1,207.9,321.5Z"/><path class="d" d="M257.4,243.2h11.9a2.68,2.68,0,0,0,2.3-4l-34.6-60h0a2.68,2.68,0,0,1,2.3-4h4a2.68,2.68,0,0,0,2.3-4L224,133.8,202.4,96.4a2.63,2.63,0,0,0-4.6,0l-21.6,37.4-21.6,37.4a2.68,2.68,0,0,0,2.3,4h4a2.68,2.68,0,0,1,2.3,4h0l-34.6,60a2.68,2.68,0,0,0,2.3,4h11.9a2.68,2.68,0,0,1,2.3,4L121,288.5a2.68,2.68,0,0,0,2.3,4H276.7a2.68,2.68,0,0,0,2.3-4l-23.9-41.4A2.63,2.63,0,0,1,257.4,243.2Z"/><path class="e" d="M254.2,209.5l-5.2-9.1a57.74,57.74,0,0,1-71.5-69.3h-.1l-1.6,2.7-9.9,17.1a68,68,0,0,0,88.3,58.6Z"/><path class="e" d="M210,208a68.08,68.08,0,0,1-9.4-4.6,61.45,61.45,0,0,1-9.1,8.5,57.74,57.74,0,0,1-51,9l-5.2,9A67.81,67.81,0,0,0,210,208Z"/><path class="e" d="M271.3,275.7a60.15,60.15,0,0,1-75.7-54.5,59.92,59.92,0,0,1-10.1,5.8,70.77,70.77,0,0,0,91.3,58.1Z"/><path class="f" d="M257.1,250.5l-1.9-3.3a2.68,2.68,0,0,1,2.3-4h11.9a2.68,2.68,0,0,0,2.3-4l-34.6-60h0a2.68,2.68,0,0,1,2.3-4h4a2.68,2.68,0,0,0,2.3-4l-21.6-37.4L202.5,96.4a2.63,2.63,0,0,0-4.6,0l-21.6,37.4-21.6,37.4a2.68,2.68,0,0,0,2.3,4h4a2.68,2.68,0,0,1,2.3,4h0l-34.6,60a2.68,2.68,0,0,0,2.3,4h11.9a2.68,2.68,0,0,1,2.3,4L121,288.5a2.68,2.68,0,0,0,2.3,4H276.7a2.68,2.68,0,0,0,2.3-4l-12.2-21.1"/><path class="g" d="M254.2,209.5l-5.2-9.1a57.74,57.74,0,0,1-71.5-69.3h-.1l-1.6,2.7-9.9,17.1a68,68,0,0,0,88.3,58.6Z"/><path class="g" d="M210,208a68.08,68.08,0,0,1-9.4-4.6,61.45,61.45,0,0,1-9.1,8.5,57.74,57.74,0,0,1-51,9l-5.2,9A67.81,67.81,0,0,0,210,208Z"/><path class="g" d="M271.3,275.7a60.15,60.15,0,0,1-75.7-54.5,59.92,59.92,0,0,1-10.1,5.8,70.77,70.77,0,0,0,91.3,58.1Z"/><path class="g" d="M199.9,292.5H185.5c0,.3-.1.5-.1.8v21.6a6.66,6.66,0,0,0,6.6,6.6h15.8a6.66,6.66,0,0,0,6.6-6.6V293.3a2.2,2.2,0,0,0-.1-.8Z"/><circle class="h" cx="200" cy="92.6" r="12.6"/><path class="i" d="M207.9,314.2H192a6.66,6.66,0,0,1-6.6-6.6v7.3a6.66,6.66,0,0,0,6.6,6.6h15.8a6.66,6.66,0,0,0,6.6-6.6v-7.3A6.57,6.57,0,0,1,207.9,314.2Z"/><path class="i" d="M200.5,99a12.55,12.55,0,0,1-12.2-9.5,15.46,15.46,0,0,0-.4,3.1,12.6,12.6,0,1,0,25.2,0,10.55,10.55,0,0,0-.4-3.1A12.55,12.55,0,0,1,200.5,99Z"/><circle class="j" cx="248.5" cy="221.2" r="4.4"/><circle class="j" cx="192.2" cy="140" r="4.4"/><circle class="j" cx="180.1" cy="271.3" r="4.4"/><circle class="k" cx="200.5" cy="176.4" r="4.4"/><circle class="k" cx="236.3" cy="260" r="4.4"/><circle class="k" cx="204.9" cy="122.9" r="4.4"/><circle class="k" cx="137.9" cy="282.3" r="4.4"/><circle class="l" cx="224.7" cy="168.5" r="4.4"/><circle class="l" cx="172.7" cy="203.3" r="4.4"/><circle class="l" cx="229.6" cy="236.5" r="4.4"/><circle class="l" cx="158.1" cy="243.4" r="4.4"/><circle class="g" cx="200" cy="92.6" r="12.6"/><circle class="g" cx="248.5" cy="221.2" r="4.4"/><circle class="g" cx="192.2" cy="140" r="4.4"/><circle class="g" cx="180.1" cy="271.3" r="4.4"/><circle class="g" cx="200.5" cy="176.4" r="4.4"/><circle class="g" cx="236.3" cy="260" r="4.4"/><circle class="g" cx="204.9" cy="122.9" r="4.4"/><circle class="g" cx="137.9" cy="282.3" r="4.4"/><circle class="g" cx="224.7" cy="168.5" r="4.4"/><circle class="g" cx="172.7" cy="203.3" r="4.4"/><circle class="g" cx="229.6" cy="236.5" r="4.4"/><circle class="g" cx="158.1" cy="243.4" r="4.4"/><g class="m"><path class="n" d="M239.7,168.1a2.68,2.68,0,0,0-2.3,4l1.8,3.2c.1,0,.3-.1.4-.1h4a2.68,2.68,0,0,0,2.3-4l-1.8-3.2c-.1,0-.3.1-.4.1Z"/><path class="n" d="M157.3,175.2h4c.2,0,.3,0,.4.1l1.8-3.2a2.68,2.68,0,0,0-2.3-4h-4c-.2,0-.3,0-.4-.1l-1.8,3.2A2.68,2.68,0,0,0,157.3,175.2Z"/><path class="n" d="M269.8,243.2a2.68,2.68,0,0,0,2.3-4l-1.8-3.2c-.1,0-.3.1-.4.1H258a2.68,2.68,0,0,0-2.3,4l1.8,3.2c.1,0,.3-.1.4-.1Z"/><path class="n" d="M277.7,285.3c-.1,0-.3.1-.4.1H123.9c-.2,0-.3,0-.4-.1l-1.8,3.2a2.68,2.68,0,0,0,2.3,4H277.4a2.68,2.68,0,0,0,2.3-4Z"/><path class="n" d="M131.2,243.2h11.9c.2,0,.3,0,.4.1l1.8-3.2a2.68,2.68,0,0,0-2.3-4H131.1c-.2,0-.3,0-.4-.1l-1.8,3.2A2.68,2.68,0,0,0,131.2,243.2Z"/></g><circle class="o" cx="262" cy="258.9" r="1.7"/></svg>