<?xml version="1.0" encoding="utf-8"?>
<!-- Generator: Adobe Illustrator 15.0.0, SVG Export Plug-In . SVG Version: 6.00 Build 0)  -->
<!DOCTYPE svg PUBLIC "-//W3C//DTD SVG 1.1//EN" "http://www.w3.org/Graphics/SVG/1.1/DTD/svg11.dtd" [
	<!ENTITY ns_flows "http://ns.adobe.com/Flows/1.0/">
	<!ENTITY ns_extend "http://ns.adobe.com/Extensibility/1.0/">
	<!ENTITY ns_ai "http://ns.adobe.com/AdobeIllustrator/10.0/">
	<!ENTITY ns_graphs "http://ns.adobe.com/Graphs/1.0/">
]>
<svg version="1.1" id="Layer_1" xmlns:x="&ns_extend;" xmlns:i="&ns_ai;" xmlns:graph="&ns_graphs;"
	 xmlns="http://www.w3.org/2000/svg" xmlns:xlink="http://www.w3.org/1999/xlink" xmlns:a="http://ns.adobe.com/AdobeSVGViewerExtensions/3.0/"
	 x="0px" y="0px" width="64px" height="64px" viewBox="0 0 64 64" enable-background="new 0 0 64 64" xml:space="preserve">
<linearGradient id="SVGID_1_" gradientUnits="userSpaceOnUse" x1="32.0005" y1="62" x2="32.0005" y2="2.0005">
	<stop  offset="0" style="stop-color:#FF7B00"/>
	<stop  offset="0.3236" style="stop-color:#FFAE00"/>
	<stop  offset="0.6205" style="stop-color:#FFD600"/>
	<stop  offset="0.8558" style="stop-color:#FFEE00"/>
	<stop  offset="1" style="stop-color:#FFF700"/>
	<a:midPointStop  offset="0" style="stop-color:#FF7B00"/>
	<a:midPointStop  offset="0.4" style="stop-color:#FF7B00"/>
	<a:midPointStop  offset="1" style="stop-color:#FFF700"/>
</linearGradient>
<circle fill="url(#SVGID_1_)" cx="32" cy="32" r="30"/>
<radialGradient id="SVGID_2_" cx="14.1895" cy="38" r="11" gradientUnits="userSpaceOnUse">
	<stop  offset="0.1" style="stop-color:#FF6399"/>
	<stop  offset="0.2424" style="stop-color:#FF6595;stop-opacity:0.8417"/>
	<stop  offset="0.3901" style="stop-color:#FF6C88;stop-opacity:0.6777"/>
	<stop  offset="0.5401" style="stop-color:#FF7874;stop-opacity:0.511"/>
	<stop  offset="0.6918" style="stop-color:#FF8857;stop-opacity:0.3424"/>
	<stop  offset="0.8449" style="stop-color:#FF9D31;stop-opacity:0.1724"/>
	<stop  offset="0.997" style="stop-color:#FFB604;stop-opacity:0.0034"/>
	<stop  offset="1" style="stop-color:#FFB703;stop-opacity:0"/>
	<a:midPointStop  offset="0.1" style="stop-color:#FF6399"/>
	<a:midPointStop  offset="0.7" style="stop-color:#FF6399"/>
	<a:midPointStop  offset="1" style="stop-color:#FFB703;stop-opacity:0"/>
</radialGradient>
<circle opacity="0.6" fill="url(#SVGID_2_)" cx="14.189" cy="38" r="11"/>
<radialGradient id="SVGID_3_" cx="49.8105" cy="38" r="11" gradientUnits="userSpaceOnUse">
	<stop  offset="0.1" style="stop-color:#FF6399"/>
	<stop  offset="0.2424" style="stop-color:#FF6595;stop-opacity:0.8417"/>
	<stop  offset="0.3901" style="stop-color:#FF6C88;stop-opacity:0.6777"/>
	<stop  offset="0.5401" style="stop-color:#FF7874;stop-opacity:0.511"/>
	<stop  offset="0.6918" style="stop-color:#FF8857;stop-opacity:0.3424"/>
	<stop  offset="0.8449" style="stop-color:#FF9D31;stop-opacity:0.1724"/>
	<stop  offset="0.997" style="stop-color:#FFB604;stop-opacity:0.0034"/>
	<stop  offset="1" style="stop-color:#FFB703;stop-opacity:0"/>
	<a:midPointStop  offset="0.1" style="stop-color:#FF6399"/>
	<a:midPointStop  offset="0.7" style="stop-color:#FF6399"/>
	<a:midPointStop  offset="1" style="stop-color:#FFB703;stop-opacity:0"/>
</radialGradient>
<path opacity="0.6" fill="url(#SVGID_3_)" d="M49.811,27c6.073,0,11,4.926,11,11c0,6.078-4.927,11-11,11c-6.076,0-11-4.922-11-11
	C38.811,31.926,43.734,27,49.811,27z"/>
<path fill="#1A1626" d="M40.945,41.264c-5.449,4.66-12.447,4.658-17.893,0c-0.771-0.658-1.232,0.055-0.986,0.613
	c4.184,9.498,15.686,9.496,19.867,0C42.18,41.318,41.721,40.605,40.945,41.264z"/>
<path fill="#1A1626" d="M36.735,29.508c2.971-2.192,8.32-2.338,11.53,0c0.742,0.54,1.973,0.165,1.697-0.465
	c-2.805-6.422-12.127-6.408-14.926,0C34.762,29.673,35.997,30.053,36.735,29.508z"/>
<path fill="#1A1626" d="M27.265,29.508c-2.971-2.192-8.32-2.338-11.53,0c-0.742,0.54-1.973,0.165-1.697-0.465
	c2.805-6.422,12.127-6.408,14.926,0C29.238,29.673,28.003,30.053,27.265,29.508z"/>
<path fill="#D69600" d="M17.395,14.631c-10.644,4.001-4.716,6.319,4.688,4.037C27.392,17.38,24.402,11.994,17.395,14.631z"/>
<path fill="#D69600" d="M46.604,14.646c-7.008-2.635-9.995,2.749-4.687,4.037C51.321,20.966,57.249,18.647,46.604,14.646z"/>
</svg>
