<svg width="16" height="16" viewBox="0 0 16 16" fill="none" xmlns="http://www.w3.org/2000/svg">
<path fill-rule="evenodd" clip-rule="evenodd" d="M12.7872 6.72316H5.62559V4.05116C5.62559 3.73977 5.68692 3.43142 5.80608 3.14374C5.92525 2.85605 6.09991 2.59465 6.3201 2.37446C6.54028 2.15428 6.80168 1.97962 7.08937 1.86045C7.37705 1.74129 7.6854 1.67996 7.99679 1.67996C8.30818 1.67996 8.61652 1.74129 8.90421 1.86045C9.19189 1.97962 9.45329 2.15428 9.67348 2.37446C9.89367 2.59465 10.0683 2.85605 10.1875 3.14374C10.3067 3.43142 10.368 3.73977 10.368 4.05116V4.72316C10.368 4.93533 10.4523 5.13881 10.6023 5.28884C10.7523 5.43887 10.9558 5.52316 11.168 5.52316C11.3802 5.52316 11.5836 5.43887 11.7337 5.28884C11.8837 5.13881 11.968 4.93533 11.968 4.72316V4.05116C11.968 2.99793 11.5496 1.98784 10.8048 1.24309C10.0601 0.498349 9.05001 0.0799561 7.99679 0.0799561C6.94356 0.0799561 5.93347 0.498349 5.18872 1.24309C4.44398 1.98784 4.02559 2.99793 4.02559 4.05116V6.72316H3.20639C2.61017 6.72316 2.03834 6.95984 1.61653 7.3812C1.19471 7.80256 0.957423 8.37414 0.956787 8.97036V13.7328C0.957423 14.3289 1.19474 14.9004 1.61658 15.3216C2.03841 15.7429 2.61025 15.9794 3.20639 15.9792H12.7872C13.3833 15.9794 13.9552 15.7429 14.377 15.3216C14.7988 14.9004 15.0362 14.3289 15.0368 13.7328V8.97036C15.0362 8.37414 14.7989 7.80256 14.377 7.3812C13.9552 6.95984 13.3834 6.72316 12.7872 6.72316ZM13.4368 13.7328C13.4368 13.9042 13.3687 14.0686 13.2475 14.1898C13.1262 14.3111 12.9618 14.3792 12.7904 14.3792H3.20639C3.12123 14.3796 3.03683 14.3632 2.95804 14.3309C2.87924 14.2986 2.80761 14.251 2.74724 14.191C2.68688 14.1309 2.63898 14.0595 2.6063 13.9809C2.57361 13.9022 2.55679 13.8179 2.55679 13.7328V8.97036C2.55668 8.88513 2.57343 8.80073 2.60607 8.722C2.6387 8.64328 2.68659 8.57178 2.74696 8.51163C2.80733 8.45148 2.87901 8.40386 2.95785 8.37151C3.0367 8.33917 3.12116 8.32273 3.20639 8.32316H12.7872C12.9586 8.32316 13.123 8.39126 13.2443 8.51248C13.3655 8.63371 13.4336 8.79812 13.4336 8.96956L13.4368 13.7328Z" fill="url(#paint0_linear_1407_18794)"/>
<path fill-rule="evenodd" clip-rule="evenodd" d="M7.99678 10.152C7.7846 10.152 7.58112 10.2363 7.43109 10.3863C7.28106 10.5363 7.19678 10.7398 7.19678 10.952V11.752C7.19678 11.9642 7.28106 12.1676 7.43109 12.3177C7.58112 12.4677 7.7846 12.552 7.99678 12.552C8.20895 12.552 8.41243 12.4677 8.56246 12.3177C8.71249 12.1676 8.79678 11.9642 8.79678 11.752V10.952C8.79678 10.7398 8.71249 10.5363 8.56246 10.3863C8.41243 10.2363 8.20895 10.152 7.99678 10.152Z" fill="url(#paint1_linear_1407_18794)"/>
<defs>
<linearGradient id="paint0_linear_1407_18794" x1="0.959991" y1="0.079956" x2="15.04" y2="16" gradientUnits="userSpaceOnUse">
<stop stop-color="#E34248"/>
<stop offset="1" stop-color="#9E55A0"/>
</linearGradient>
<linearGradient id="paint1_linear_1407_18794" x1="7.19998" y1="10.16" x2="8.51998" y2="12.56" gradientUnits="userSpaceOnUse">
<stop stop-color="#E34248"/>
<stop offset="1" stop-color="#9E55A0"/>
</linearGradient>
</defs>
</svg>
