<?xml version="1.0" encoding="utf-8"?>
<!-- Generator: Adobe Illustrator 15.0.0, SVG Export Plug-In . SVG Version: 6.00 Build 0)  -->
<!DOCTYPE svg PUBLIC "-//W3C//DTD SVG 1.1//EN" "http://www.w3.org/Graphics/SVG/1.1/DTD/svg11.dtd" [
	<!ENTITY ns_flows "http://ns.adobe.com/Flows/1.0/">
	<!ENTITY ns_extend "http://ns.adobe.com/Extensibility/1.0/">
	<!ENTITY ns_ai "http://ns.adobe.com/AdobeIllustrator/10.0/">
	<!ENTITY ns_graphs "http://ns.adobe.com/Graphs/1.0/">
]>
<svg version="1.1" id="Layer_1" xmlns:x="&ns_extend;" xmlns:i="&ns_ai;" xmlns:graph="&ns_graphs;"
	 xmlns="http://www.w3.org/2000/svg" xmlns:xlink="http://www.w3.org/1999/xlink" xmlns:a="http://ns.adobe.com/AdobeSVGViewerExtensions/3.0/"
	 x="0px" y="0px" width="64px" height="64px" viewBox="0 0 64 64" enable-background="new 0 0 64 64" xml:space="preserve">
<linearGradient id="SVGID_1_" gradientUnits="userSpaceOnUse" x1="32.0005" y1="62" x2="32.0005" y2="2.0005">
	<stop  offset="0" style="stop-color:#FF7B00"/>
	<stop  offset="0.3236" style="stop-color:#FFAE00"/>
	<stop  offset="0.6205" style="stop-color:#FFD600"/>
	<stop  offset="0.8558" style="stop-color:#FFEE00"/>
	<stop  offset="1" style="stop-color:#FFF700"/>
	<a:midPointStop  offset="0" style="stop-color:#FF7B00"/>
	<a:midPointStop  offset="0.4" style="stop-color:#FF7B00"/>
	<a:midPointStop  offset="1" style="stop-color:#FFF700"/>
</linearGradient>
<circle fill="url(#SVGID_1_)" cx="32" cy="32" r="30"/>
<path fill="#1A1626" d="M24.658,50.003c7.75,2.007,17.273-1.016,21.293-7.304c0.33-0.516-0.182-1.062-0.699-0.654
	c-4.201,3.316-13.119,5.786-19.648,3.876C23.104,45.19,22.016,49.318,24.658,50.003z"/>
<path fill="#1A1626" d="M38.08,33.357c3.093-1.643,7.505-1.745,10.841,0c0.771,0.403,1.697-0.315,1.349-0.889
	c-3.208-5.269-10.343-5.252-13.539,0C36.383,33.042,37.313,33.766,38.08,33.357z"/>
<ellipse fill="#1A1626" cx="22" cy="31" rx="4" ry="5"/>
<path fill="#D69600" d="M16.079,16.932c-9.789,5.788-3.546,7.041,5.317,3.161C26.399,17.903,22.524,13.119,16.079,16.932z"/>
<path fill="#D69600" d="M43.738,20.143c-7.486-0.081-8.452,6.003-3.022,5.396C50.333,24.466,55.111,20.26,43.738,20.143z"/>
</svg>
