<svg xmlns="http://www.w3.org/2000/svg" viewBox="0 0 400 400"><defs><style>.a{fill:#a97dff;}.b{fill:#333;opacity:0.3;isolation:isolate;}.c{fill:#1e1e1e;}</style></defs><circle class="a" cx="200" cy="200" r="200"/><path class="b" d="M340,272.4a46.92,46.92,0,0,0-17.9-7.8c-13.3-2.8-26.1,0-34.3,6.6a25.62,25.62,0,0,0-6.8,9.1,26.94,26.94,0,0,1-1.6,2.9h0a27.11,27.11,0,0,1-23.5,12.5l3.3-15.5-3.8,4.3a7.82,7.82,0,0,1-7.4,2.6h-.2a8.09,8.09,0,0,1-5.8-5.4l-1.8-5.5-3.3,15.5a27.06,27.06,0,0,1-16.5-20.8h0a18.41,18.41,0,0,1-.3-3.3,24.71,24.71,0,0,0-2.6-11c-4.9-9.4-15.5-17.1-28.8-19.9a48,48,0,0,0-19.6-.1,27,27,0,0,1,13,29,25.89,25.89,0,0,1-3,7.9,23.48,23.48,0,0,1,3.7.5,26.6,26.6,0,0,1,19.9,17.7,27.63,27.63,0,0,1,1.4,10.3,27,27,0,0,1,36.8,17.2,26.84,26.84,0,0,1,40.5-.9,24.7,24.7,0,0,1,5.5-8.9,26.89,26.89,0,0,1,25.4-8.2,19,19,0,0,1,3.6,1.1,26.39,26.39,0,0,1,.4-8.4A27.24,27.24,0,0,1,340,272.4Z"/><path class="b" d="M301,90.1A67.58,67.58,0,0,0,273,92c-18.7,5.2-33.1,17.2-39.3,31.1a37.77,37.77,0,0,0-2.7,16c0,1.6,0,3.2-.1,4.8h0a38.64,38.64,0,0,1-21.6,31.3l-6.1-21.9-2.1,8a11.4,11.4,0,0,1-7.7,8.2h-.2a11.39,11.39,0,0,1-10.9-3.1l-5.9-5.8,6.1,21.9a38.59,38.59,0,0,1-34.7-15.6h0c-.9-1.3-1.8-2.6-2.6-4a36,36,0,0,0-10.6-12.3c-12.5-8.6-31-11.5-49.7-6.3A68.36,68.36,0,0,0,60,157.1a38.76,38.76,0,0,1,35.7,28.3,41.43,41.43,0,0,1,1.4,12,37.57,37.57,0,0,1,42.1,7.5,38,38,0,0,1,8.6,12.2,37.94,37.94,0,0,1,19.7-13,38.63,38.63,0,0,1,38.3,10.5,38.35,38.35,0,0,1,27.4-28.8,37.91,37.91,0,0,1,23.6,1,39.17,39.17,0,0,1,1.1-14.9,38.63,38.63,0,0,1,26.9-27.2,33,33,0,0,1,5.3-1,37.93,37.93,0,0,1-5-11A38.57,38.57,0,0,1,301,90.1Z"/><path class="b" d="M160.4,314.3a18.84,18.84,0,0,0-5.9-4.8c-4.7-2.4-9.8-2.7-13.6-1.1a10.29,10.29,0,0,0-3.5,2.7l-.9.9h0a10.59,10.59,0,0,1-10.1,2.2l2.8-5.5-1.9,1.2a3.12,3.12,0,0,1-3.1.2h0a3.08,3.08,0,0,1-1.6-2.6l-.1-2.2-2.8,5.5a10.42,10.42,0,0,1-4-9.5h0a5.85,5.85,0,0,1,.2-1.3,10.9,10.9,0,0,0,.2-4.4c-.9-4-4-8-8.7-10.5a18.38,18.38,0,0,0-7.3-2.1,10.47,10.47,0,0,1-.1,14.9,8.43,8.43,0,0,1,1.4.6,10.56,10.56,0,0,1,5.6,8.7,11,11,0,0,1-.5,4,10,10,0,0,1,6.3,1.1,10.56,10.56,0,0,1,5.7,9.2,10.68,10.68,0,0,1,10.8-.7,10.5,10.5,0,0,1,4.5,4.6,10,10,0,0,1,3-2.8,10.42,10.42,0,0,1,10.4-.4,9.13,9.13,0,0,1,1.3.8,11.24,11.24,0,0,1,1-3.1A9.94,9.94,0,0,1,160.4,314.3Z"/><path class="c" d="M340,267.1a46.92,46.92,0,0,0-17.9-7.8c-13.3-2.8-26.1,0-34.3,6.6A25.62,25.62,0,0,0,281,275a26.94,26.94,0,0,1-1.6,2.9h0a27.11,27.11,0,0,1-23.5,12.5l3.3-15.5-3.8,4.3a7.82,7.82,0,0,1-7.4,2.6h-.2a8.09,8.09,0,0,1-5.8-5.4l-1.8-5.5-3.3,15.5a27.06,27.06,0,0,1-16.5-20.8h0a18.41,18.41,0,0,1-.3-3.3,24.71,24.71,0,0,0-2.6-11c-4.9-9.4-15.5-17.1-28.8-19.9a48,48,0,0,0-19.6-.1,27,27,0,0,1,13,29,25.89,25.89,0,0,1-3,7.9,23.48,23.48,0,0,1,3.7.5,26.6,26.6,0,0,1,19.9,17.7,27.63,27.63,0,0,1,1.4,10.3,27,27,0,0,1,36.8,17.2,26.84,26.84,0,0,1,40.5-.9,24.7,24.7,0,0,1,5.5-8.9,26.89,26.89,0,0,1,25.4-8.2,19,19,0,0,1,3.6,1.1,26.39,26.39,0,0,1,.4-8.4A27.24,27.24,0,0,1,340,267.1Z"/><path class="c" d="M301,84.8a67.58,67.58,0,0,0-28,1.9c-18.7,5.2-33.1,17.2-39.3,31.1a37.77,37.77,0,0,0-2.7,16c0,1.6,0,3.2-.1,4.8h0a38.64,38.64,0,0,1-21.6,31.3L203.2,148l-2.1,8a11.4,11.4,0,0,1-7.7,8.2h-.2a11.39,11.39,0,0,1-10.9-3.1l-5.9-5.8,6.1,21.9a38.59,38.59,0,0,1-34.7-15.6h0c-.9-1.3-1.8-2.6-2.6-4a36,36,0,0,0-10.6-12.3c-12.5-8.6-31-11.5-49.7-6.3A68.36,68.36,0,0,0,60,151.8a38.76,38.76,0,0,1,35.7,28.3,41.43,41.43,0,0,1,1.4,12,37.57,37.57,0,0,1,42.1,7.5,38,38,0,0,1,8.6,12.2,37.94,37.94,0,0,1,19.7-13,38.63,38.63,0,0,1,38.3,10.5,38.35,38.35,0,0,1,27.4-28.8,37.91,37.91,0,0,1,23.6,1,39.17,39.17,0,0,1,1.1-14.9,38.63,38.63,0,0,1,26.9-27.2,33,33,0,0,1,5.3-1,37.93,37.93,0,0,1-5-11A38.51,38.51,0,0,1,301,84.8Z"/><path class="c" d="M160.4,308.9a18.84,18.84,0,0,0-5.9-4.8c-4.7-2.4-9.8-2.7-13.6-1.1a10.29,10.29,0,0,0-3.5,2.7l-.9.9h0a10.59,10.59,0,0,1-10.1,2.2l2.8-5.5-1.9,1.2a3.12,3.12,0,0,1-3.1.2h0a3.08,3.08,0,0,1-1.6-2.6l-.1-2.2-2.8,5.5a10.42,10.42,0,0,1-4-9.5h0a5.85,5.85,0,0,1,.2-1.3,10.9,10.9,0,0,0,.2-4.4c-.9-4-4-8-8.7-10.5a18.38,18.38,0,0,0-7.3-2.1,10.47,10.47,0,0,1-.1,14.9,8.43,8.43,0,0,1,1.4.6,10.56,10.56,0,0,1,5.6,8.7,11,11,0,0,1-.5,4,10,10,0,0,1,6.3,1.1,10.56,10.56,0,0,1,5.7,9.2,10.68,10.68,0,0,1,10.8-.7,10.5,10.5,0,0,1,4.5,4.6,10,10,0,0,1,3-2.8,10.42,10.42,0,0,1,10.4-.4,9.13,9.13,0,0,1,1.3.8,11.24,11.24,0,0,1,1-3.1A10.2,10.2,0,0,1,160.4,308.9Z"/></svg>