<svg xmlns="http://www.w3.org/2000/svg" xmlns:xlink="http://www.w3.org/1999/xlink" viewBox="0 0 400 400"><defs><style>.a{fill:#a97dff;}.b{fill:#333;}.b,.m{opacity:0.3;}.b,.k{isolation:isolate;}.c,.k{fill:#ffc7f3;}.d{fill:#424242;}.e,.f,.g,.h,.i,.l{fill:none;}.e,.f,.g,.h,.i{stroke:#333;}.e,.f,.i,.l{stroke-linecap:round;stroke-linejoin:round;}.e{stroke-width:2.71px;}.f,.h,.l{stroke-width:3.09px;}.g,.h{stroke-miterlimit:10;}.g,.i{stroke-width:3px;}.j{fill:#fff;}.k{opacity:0.8;}.l{stroke:#383838;}.n{fill:url(#a);}</style><linearGradient id="a" x1="197.61" y1="90.27" x2="201.5" y2="87.88" gradientTransform="matrix(1, 0, 0, -1, 0, 402)" gradientUnits="userSpaceOnUse"><stop offset="0" stop-color="#e34248"/><stop offset="1" stop-color="#9e55a0"/></linearGradient></defs><circle class="a" cx="200" cy="200" r="200"/><path class="b" d="M303.5,262.6c-.1-29.5-8.5-56.7-22.5-78.1,2.6-6.2,4.1-14.9,4.1-27.2,0-25.5-6.4-47.1-15.3-58.4a14.62,14.62,0,0,0-1.6-1.9,25.6,25.6,0,0,0-3-2.8c-.1-.1-.2-.1-.2-.2-.2-.2-.4-.3-.6-.5a14.06,14.06,0,0,0-8.8-3.2l-1,1.9a2.19,2.19,0,0,1,.5.3L237.4,126,229,141.8a84.72,84.72,0,0,0-29.3-5h-.1c-1.3,0-2.6,0-3.9.1h-.2a82.63,82.63,0,0,0-25.3,5.2l-8.5-16L142.9,90.7h0a13.75,13.75,0,0,0-4.8,1,6.72,6.72,0,0,0-1.2.6,13.24,13.24,0,0,0-2,1.2,30.66,30.66,0,0,0-2.9,2.4,41.12,41.12,0,0,0-7.7,10.9c-.3.7-.7,1.4-1,2.1s-.7,1.6-1.1,2.5c-.3.6-.5,1.3-.8,1.9-.7,1.8-1.4,3.7-2,5.8a107.59,107.59,0,0,0-4.1,18.7c-.4,3-.7,6.1-1,9.4-.2,2.2-.3,4.5-.3,6.8v3.5c0,12.9,1.6,21.9,4.4,28.1-13.7,21.5-21.9,48.5-21.8,77.9h0c.1,32.5,46.5,58.7,103.6,58.5h.1C257.4,321.6,303.6,295.1,303.5,262.6Z"/><path class="c" d="M143.7,82l18.8,35.4,18.8,35.4H143.7v37.5c-15.1,0-29-4.1-29-41.6S128.6,82,143.7,82Z"/><polygon class="d" points="143.7 82 143.7 117.4 143.7 152.8 143.7 152.8 181.3 152.8 162.5 117.4 143.7 82"/><path class="c" d="M257,82l-18.8,35.4-18.8,35.4H257v37.5c15.1,0,29-4.1,29-41.6S272.1,82,257,82Z"/><path class="e" d="M143.7,82l18.8,35.4,18.8,35.4H143.7v37.5c-15.1,0-29-4.1-29-41.6S128.6,82,143.7,82Z"/><path class="b" d="M256.5,81.7l-1,1.9c12.6,6.5,23,32.7,23,65.1,0,31-9.5,39.2-21.3,41.1v.2c15.1-.1,28.9-4.3,28.7-41.8S271.6,81.6,256.5,81.7Z"/><path class="f" d="M257,82l-18.8,35.4-18.8,35.4H257v37.5c15.1,0,29-4.1,29-41.6S272.1,82,257,82Z"/><polygon class="d" points="257 82 257 117.4 257 152.8 257 152.8 219.4 152.8 238.2 117.4 257 82"/><path class="g" d="M143.7,82h0c-15.1,0-29,29.2-29,66.7s13.9,41.6,29,41.6V152.8h37.6l-18.8-35.4Z"/><path class="h" d="M257,82h0l-18.8,35.4-18.8,35.4H257v37.5c15.1,0,29-4.1,29-41.6S272.1,82,257,82Z"/><path class="d" d="M200.5,128.1c-57.1.2-103.3,56.8-103.1,126.5h0c.1,32.5,46.5,58.7,103.6,58.5S304.4,286.5,304.3,254C304.1,184.4,257.6,128,200.5,128.1Z"/><path class="i" d="M210.4,312.9c1-.1,1.9-.1,2.9-.2,51.4-3.6,91.2-28.5,91.1-58.7-.2-69.7-46.7-126.1-103.8-125.9S97.3,184.9,97.5,254.6h0c.1,30.3,40.4,55.1,92.1,58.2"/><circle class="j" cx="148.9" cy="231.4" r="12.8"/><ellipse class="k" cx="144.7" cy="256.5" rx="20.1" ry="6.9"/><circle class="j" cx="251.8" cy="231.4" r="12.8"/><ellipse class="k" cx="256" cy="256.5" rx="20.1" ry="6.9"/><path class="c" d="M200.4,280.5l-.3-.2c-.1,0-5.5-3.6-7.6-6.5-2.4-3.4-1.7-5.9-1.1-7.1a5.65,5.65,0,0,1,5-3,5.22,5.22,0,0,1,3.9,1.7,5.38,5.38,0,0,1,3.9-1.7,5.65,5.65,0,0,1,5,3c.6,1.2,1.3,3.8-1.1,7.1-2.1,2.9-7.5,6.4-7.6,6.5Z"/><line class="l" x1="217.3" y1="264.8" x2="328.9" y2="228.6"/><line class="l" x1="217.9" y1="272.1" x2="327.4" y2="272.1"/><line class="l" x1="216.7" y1="280.5" x2="327.4" y2="315.7"/><line class="l" x1="182.7" y1="264.8" x2="71.1" y2="228.6"/><line class="l" x1="182.1" y1="272.1" x2="72.6" y2="272.1"/><line class="l" x1="183.3" y1="280.5" x2="72.6" y2="315.7"/><g class="m"><line class="f" x1="217.3" y1="267.4" x2="328.9" y2="231.2"/><line class="f" x1="217.9" y1="274.8" x2="327.4" y2="274.8"/><line class="f" x1="216.7" y1="283.2" x2="327.4" y2="318.3"/></g><g class="m"><line class="f" x1="182.7" y1="267.4" x2="71.1" y2="231.2"/><line class="f" x1="182.1" y1="274.8" x2="72.6" y2="274.8"/><line class="f" x1="183.3" y1="283.2" x2="72.6" y2="318.3"/></g><path class="b" d="M200.6,128.1c-2.8,0-5.6.2-8.3.4,53.1,5.3,94.9,59.4,95.1,125.5.1,31-41.9,56.4-95.3,58.9,3,.1,5.9.2,9,.2,57.1-.2,103.4-26.6,103.3-59.1C304.2,184.4,257.7,128,200.6,128.1Z"/><circle class="n" cx="200" cy="313.2" r="1.7"/></svg>