<svg xmlns="http://www.w3.org/2000/svg" xmlns:xlink="http://www.w3.org/1999/xlink" viewBox="0 0 400 400"><defs><style>.a{fill:#a97dff;}.b,.d,.i{fill:#333;}.b,.e{opacity:0.2;}.b,.d,.e{isolation:isolate;}.c{fill:#7c583a;}.d,.h{opacity:0.1;}.e,.g{fill:#fff;}.f{fill:#8e6546;}.j{fill:none;stroke:#333;stroke-linecap:round;stroke-miterlimit:10;stroke-width:3px;}.k{fill:url(#a);}</style><linearGradient id="a" x1="250.62" y1="159.36" x2="254.51" y2="156.98" gradientTransform="matrix(1, 0, 0, -1, 0, 402)" gradientUnits="userSpaceOnUse"><stop offset="0" stop-color="#e34248"/><stop offset="1" stop-color="#9e55a0"/></linearGradient></defs><circle class="a" cx="200" cy="200" r="200"/><polygon class="b" points="236.9 89.1 163.1 89.1 126.1 153.1 163.1 328.9 236.9 328.9 273.9 153.1 236.9 89.1"/><polygon class="c" points="236.9 80.1 163.1 80.1 126.1 144.1 163.1 319.9 236.9 319.9 273.9 144.1 236.9 80.1"/><polygon class="d" points="236.9 80.1 228.3 80.1 265.3 144.1 228.3 319.9 236.9 319.9 273.9 144.1 236.9 80.1"/><polygon class="e" points="165.7 80.1 163.1 80.1 126.1 144.1 163.1 319.9 165.7 319.9 128.7 144.1 165.7 80.1"/><polygon class="f" points="231.2 91.4 168.7 91.4 137.5 148.6 168.7 305.7 231.2 305.7 262.4 148.6 231.2 91.4"/><polygon class="e" points="171.3 91.4 168.8 91.4 137.6 148.6 168.8 305.7 171.3 305.7 140 148.6 171.3 91.4"/><path class="g" d="M200,173.9l-.6-.4c-.1-.1-12.3-7.9-16.8-14.4-5.3-7.5-3.8-13.2-2.4-15.9a12.57,12.57,0,0,1,11.1-6.7,12,12,0,0,1,8.7,3.7,12.28,12.28,0,0,1,8.7-3.7,12.45,12.45,0,0,1,11.1,6.7c1.4,2.7,2.9,8.4-2.4,15.9-4.6,6.4-16.7,14.3-16.8,14.4Z"/><g class="h"><path class="i" d="M219.8,143.2a12.57,12.57,0,0,0-11.1-6.7,12.7,12.7,0,0,0-3.4.5,12.56,12.56,0,0,1,7.7,6.2c1.4,2.7,2.9,8.4-2.4,15.9-3.2,4.5-10.2,9.8-14.1,12.5a20.8,20.8,0,0,0,2.8,1.9l.6.4.6-.4c.1-.1,12.3-7.9,16.8-14.4C222.8,151.6,221.2,145.9,219.8,143.2Z"/></g><polygon class="d" points="200 80.1 236.9 80.1 273.9 144.1 236.9 319.9 200 319.9 200 80.1"/><polyline class="j" points="254.8 234.7 273.9 144.1 236.9 80.1 163.1 80.1 126.1 144.1 163.1 319.9 236.9 319.9 250.8 254.1"/><circle class="k" cx="253" cy="244.1" r="1.7"/></svg>