<svg xmlns="http://www.w3.org/2000/svg" viewBox="0 0 400 400"><defs><style>.a{fill:#ff7676;}.b{fill:#333;}</style></defs><circle class="a" cx="200" cy="200" r="200"/><ellipse class="b" cx="146.79" cy="151.9" rx="31.8" ry="46.5" transform="translate(-31.14 38.05) rotate(-13.37)"/><ellipse class="b" cx="252.89" cy="149.53" rx="39.7" ry="27.1" transform="matrix(0.2, -0.98, 0.98, 0.2, 55.62, 367.25)"/><path class="b" d="M338.7,189.6c-1.7,34.5-62.9,62.2-138.2,62.2-8.1,0-16.1-.3-23.8-.9v15.4H158V248.7c-54.6-8.1-94.3-31.4-95.7-59.2,0,1.1-.1,2.2-.1,3.3A138.23,138.23,0,0,0,200.4,331a134,134,0,0,0,20.1-1.5v-25h32.3v16.1a138.32,138.32,0,0,0,85.8-127.9A30.09,30.09,0,0,0,338.7,189.6Z"/><circle class="b" cx="190.2" cy="210.7" r="3.3"/><circle class="b" cx="209.8" cy="210.7" r="3.3"/></svg>