<svg xmlns="http://www.w3.org/2000/svg" viewBox="0 0 400 400"><defs><style>.a{fill:#ffb57d;}.b{fill:#333;}</style></defs><circle class="a" cx="200" cy="200" r="200"/><circle class="b" cx="190.18" cy="204.87" r="3.26"/><circle class="b" cx="209.82" cy="204.87" r="3.26"/><circle class="b" cx="133.17" cy="172.46" r="30"/><circle class="b" cx="266.83" cy="172.46" r="30"/><path class="b" d="M70,239.29A117.11,117.11,0,0,0,99.8,256.12a211.39,211.39,0,0,0,32.62,9.71A284.93,284.93,0,0,0,166.06,271c2.81.32,5.65.5,8.48.72l4.24.31c1.42.09,2.84.12,4.26.18l4.25.19,2.13.09,2.13,0,8.51.1,8.52-.14,2.13,0,2.13-.11,4.25-.21c1.42-.07,2.84-.11,4.25-.2l4.25-.33c2.83-.22,5.66-.42,8.48-.75a284.33,284.33,0,0,0,33.6-5.32,212.2,212.2,0,0,0,32.58-9.85A117,117,0,0,0,330,238.74q-1.39,1.66-2.85,3.33c-.48.54-.94,1.12-1.46,1.64l-1.57,1.53c-1.06,1-2.13,2-3.22,3l-3.42,2.79-1.72,1.4c-.58.46-1.2.85-1.81,1.28l-3.64,2.53a20.3,20.3,0,0,1-1.86,1.2l-1.9,1.14-3.81,2.28A169.29,169.29,0,0,1,270,274.47a222.69,222.69,0,0,1-34.63,7.44c-2.91.48-5.85.73-8.79,1l-4.41.45c-1.47.13-2.94.2-4.41.31l-4.42.26-2.21.13-2.21.06-8.85.2-8.85-.17-2.21,0-2.21-.12-4.42-.25c-1.47-.1-3-.17-4.42-.3l-4.41-.43c-2.93-.29-5.87-.54-8.79-1a222.94,222.94,0,0,1-34.66-7.3,169.48,169.48,0,0,1-32.78-13.44l-3.82-2.26-1.91-1.13a20.3,20.3,0,0,1-1.86-1.2l-3.66-2.51c-.6-.42-1.22-.82-1.81-1.27l-1.72-1.39-3.44-2.77c-1.1-1-2.16-2-3.23-3l-1.58-1.52c-.52-.52-1-1.1-1.47-1.64C71.87,241.5,70.91,240.4,70,239.29Z"/><path class="b" d="M118.33,250a24.9,24.9,0,0,1,.15,9.36A34.3,34.3,0,0,1,116,267.6a33.33,33.33,0,0,1-4.42,7.34,24.63,24.63,0,0,1-7,6.19,24.76,24.76,0,0,1-.16-9.37,33.23,33.23,0,0,1,2.47-8.21,33.76,33.76,0,0,1,4.43-7.34A25,25,0,0,1,118.33,250Z"/><path class="b" d="M154.78,252.24a51.8,51.8,0,0,1,.22,13.93,81.79,81.79,0,0,1-2.51,13.18A80.6,80.6,0,0,1,147.9,292a51.46,51.46,0,0,1-7.34,11.85,51.49,51.49,0,0,1-.24-13.94,83.78,83.78,0,0,1,7.13-25.77A51.75,51.75,0,0,1,154.78,252.24Z"/><path class="b" d="M200,250.46A76,76,0,0,1,203.91,267a128.6,128.6,0,0,1,0,33.11A75.22,75.22,0,0,1,200,316.68a75.19,75.19,0,0,1-3.93-16.55,127.42,127.42,0,0,1,0-33.11A76.5,76.5,0,0,1,200,250.46Z"/><path class="b" d="M243.67,255.35a36.67,36.67,0,0,1,6.76,9.36,55.68,55.68,0,0,1,6,20.89,36,36,0,0,1-.78,11.53,36,36,0,0,1-6.78-9.36,52.73,52.73,0,0,1-4-10.15,53.52,53.52,0,0,1-2-10.74A36.3,36.3,0,0,1,243.67,255.35Z"/><path class="b" d="M294.33,246.91a29.54,29.54,0,0,1,8.67,5.67,42.35,42.35,0,0,1,6.34,7.28,41.51,41.51,0,0,1,4.56,8.5,29.27,29.27,0,0,1,2.21,10.13,29.57,29.57,0,0,1-8.68-5.66A43.5,43.5,0,0,1,296.55,257,30,30,0,0,1,294.33,246.91Z"/></svg>