<svg xmlns="http://www.w3.org/2000/svg" xmlns:xlink="http://www.w3.org/1999/xlink" viewBox="0 0 400 400"><defs><style>.a{fill:#a97dff;}.b,.e,.h{fill:#333;}.b,.l{opacity:0.2;}.b,.h,.l{isolation:isolate;}.c{fill:#fff;}.d{fill:#efefef;}.f{fill:#ffc5f3;}.g,.j,.l{fill:none;stroke-linecap:round;}.g,.i,.j{stroke:#333;}.g,.i,.l{stroke-miterlimit:10;}.g,.i,.j,.l{stroke-width:3px;}.h{opacity:0.1;}.i,.k{fill:#ff0068;}.j{stroke-linejoin:round;}.l{stroke:#fff;}.m{fill:url(#a);}</style><linearGradient id="a" x1="267.17" y1="146.73" x2="271.06" y2="144.34" gradientTransform="matrix(1, 0, 0, -1, 0, 402)" gradientUnits="userSpaceOnUse"><stop offset="0" stop-color="#e34248"/><stop offset="1" stop-color="#9e55a0"/></linearGradient></defs><circle class="a" cx="200" cy="200" r="200"/><path class="b" d="M269.3,195v-3.1h0a74.46,74.46,0,0,0-148.9,2,20.9,20.9,0,0,0,.1,2.5l.2,111.8c0,7.8,9.8,14.2,21.8,14.2h0a30.58,30.58,0,0,0,13-2.8,29.3,29.3,0,0,1,13-2.8,30.61,30.61,0,0,1,12.9,2.7,31.5,31.5,0,0,0,13.2,2.8h0a30.4,30.4,0,0,0,13.2-2.9,30.61,30.61,0,0,1,12.9-2.7,31.74,31.74,0,0,1,12.8,2.6,33,33,0,0,0,13.5,2.9h0c12.5,0,22.6-6.7,22.6-14.8Z"/><path class="c" d="M269.4,183.2v-3.1h0a74.46,74.46,0,0,0-148.9,2,20.9,20.9,0,0,0,.1,2.5l.2,111.8c0,7.8,9.8,14.2,21.8,14.2h0a30.58,30.58,0,0,0,13-2.8,29.3,29.3,0,0,1,13-2.8,30.61,30.61,0,0,1,12.9,2.7,31.5,31.5,0,0,0,13.2,2.8h0a30.4,30.4,0,0,0,13.2-2.9,30.61,30.61,0,0,1,12.9-2.7,31.74,31.74,0,0,1,12.8,2.6,33,33,0,0,0,13.5,2.9h0c12.5,0,22.6-6.7,22.6-14.8Z"/><path class="d" d="M120.7,296.3c0,7.8,9.8,14.2,21.8,14.2h0a30.58,30.58,0,0,0,13-2.8,29.3,29.3,0,0,1,13-2.8,30.61,30.61,0,0,1,12.9,2.7,31.5,31.5,0,0,0,13.2,2.8h0a30.4,30.4,0,0,0,13.2-2.9,30.61,30.61,0,0,1,12.9-2.7,31.74,31.74,0,0,1,12.8,2.6,33,33,0,0,0,13.5,2.9h0c12.5,0,22.6-6.7,22.6-14.8V283.2c-.4,7.9-10.4,14.3-22.6,14.3h0a33,33,0,0,1-13.5-2.9,30.14,30.14,0,0,0-12.8-2.6,30.61,30.61,0,0,0-12.9,2.7,31.2,31.2,0,0,1-13.2,2.9h0a31.5,31.5,0,0,1-13.2-2.8,30.61,30.61,0,0,0-12.9-2.7,29.3,29.3,0,0,0-13,2.8,30.58,30.58,0,0,1-13,2.8h0c-12,0-21.8-6.3-21.8-14.2"/><ellipse class="e" cx="168" cy="182" rx="11.6" ry="17.2"/><ellipse class="e" cx="222.1" cy="182" rx="11.6" ry="17.2"/><circle class="e" cx="190.2" cy="201.5" r="2.6"/><circle class="e" cx="199.8" cy="201.5" r="2.6"/><ellipse class="f" cx="153.5" cy="215.9" rx="13.3" ry="6.9"/><ellipse class="f" cx="236.5" cy="215.9" rx="13.3" ry="6.9"/><path class="g" d="M269.5,245.4l-.1-62.2v-3.1h0a74.46,74.46,0,0,0-148.9,2,20.9,20.9,0,0,0,.1,2.5l.2,111.8c0,7.8,9.8,14.2,21.8,14.2h0a30.58,30.58,0,0,0,13-2.8,29.3,29.3,0,0,1,13-2.8,30.61,30.61,0,0,1,12.9,2.7,31.5,31.5,0,0,0,13.2,2.8h0a30.4,30.4,0,0,0,13.2-2.9,30.61,30.61,0,0,1,12.9-2.7,31.74,31.74,0,0,1,12.8,2.6,33,33,0,0,0,13.5,2.9h0c12.5,0,22.6-6.7,22.6-14.8V268"/><path class="h" d="M284,108.4l-36.2-3.6a7,7,0,0,0-4,.9,10.91,10.91,0,0,0-1.1-.6,5.64,5.64,0,0,0-1.2-.4,7.6,7.6,0,0,0-2-3.6L212.6,76.6a6.63,6.63,0,0,0-5.1-1.7,8,8,0,0,0-1.5.3c-.5.2-.9.4-1.4.6a7,7,0,0,0-2.6,3l-9,20.6-6.6,14.9h0l-2.5,5.7a10.55,10.55,0,0,0-.6,2.4,7.57,7.57,0,0,0,.1,1.5c.1.3.2.7.3,1a7.57,7.57,0,0,0,.9,1.8c.2.2.3.4.5.6a6.21,6.21,0,0,0,4.2,2l36.2,3.6h1.1a7.71,7.71,0,0,0,2.6-.7,5.39,5.39,0,0,0,1.3.7,7.84,7.84,0,0,0,1.4.5,7,7,0,0,0,1.9,3.2l26.9,24.5a6.63,6.63,0,0,0,5.1,1.7c.3,0,.5-.1.8-.1a6.7,6.7,0,0,0,1.8-.7,6.84,6.84,0,0,0,2.1-1.7,6.38,6.38,0,0,0,.8-1.4l9.2-20.6,9.2-20.6a10.55,10.55,0,0,0,.6-2.4A7.17,7.17,0,0,0,284,108.4Z"/><path class="i" d="M285.5,103l-36.2-3.6a6.67,6.67,0,0,0-6.7,3.9,6.59,6.59,0,0,0-1.6-7.6L214.1,71.2a6.65,6.65,0,0,0-10.5,2.2L194.5,94l-9.2,20.6a6.65,6.65,0,0,0,5.4,9.3l36.2,3.6a6.67,6.67,0,0,0,6.7-3.9h0a6.59,6.59,0,0,0,1.6,7.6l26.9,24.5a6.65,6.65,0,0,0,10.5-2.2l9.2-20.6,9.2-20.6A6.72,6.72,0,0,0,285.5,103Z"/><path class="h" d="M264.6,150l-26.9-24.5a6.59,6.59,0,0,1-1.6-7.6h0a6.67,6.67,0,0,1-6.7,3.9l-36.2-3.6a6.65,6.65,0,0,1-5.4-9.3l-2.5,5.7a6.65,6.65,0,0,0,5.4,9.3l36.2,3.6a6.67,6.67,0,0,0,6.7-3.9h0a6.59,6.59,0,0,0,1.6,7.6l26.9,24.5a6.65,6.65,0,0,0,10.5-2.2l2.5-5.7A6.6,6.6,0,0,1,264.6,150Z"/><path class="j" d="M238.1,113.5l4.5-10.1a6.67,6.67,0,0,1,6.7-3.9l36.2,3.6a6.65,6.65,0,0,1,5.4,9.3L281.7,133l-9.2,20.6a6.6,6.6,0,0,1-10.5,2.2l-26.9-24.5a6.59,6.59,0,0,1-1.6-7.6Z"/><path class="j" d="M238.1,113.5l-4.5,10.1a6.67,6.67,0,0,1-6.7,3.9l-36.2-3.6a6.65,6.65,0,0,1-5.4-9.3L194.5,94l9.2-20.6a6.6,6.6,0,0,1,10.5-2.2l26.9,24.5a6.59,6.59,0,0,1,1.6,7.6Z"/><path class="k" d="M244.2,99.8h0a10,10,0,0,0-13.2,5.1l-4,9.1a10,10,0,0,0,5.1,13.2h0a10,10,0,0,0,13.2-5.1l4.1-9.1A10.13,10.13,0,0,0,244.2,99.8Z"/><path class="h" d="M234.1,122.6a10.09,10.09,0,0,1-5.1-13.2l-2.2,4.9a10,10,0,1,0,18.3,8.1l2.2-4.9A10,10,0,0,1,234.1,122.6Z"/><path class="j" d="M244.2,99.8h0a10,10,0,0,0-13.2,5.1l-4,9.1a10,10,0,0,0,5.1,13.2h0a10,10,0,0,0,13.2-5.1l4.1-9.1A10.13,10.13,0,0,0,244.2,99.8Z"/><line class="g" x1="247.8" y1="117.9" x2="246.6" y2="129.5"/><line class="g" x1="260" y1="112.1" x2="249" y2="116.3"/><line class="g" x1="248.5" y1="117" x2="255.9" y2="122.7"/><line class="g" x1="228.5" y1="108.3" x2="226.5" y2="96.7"/><line class="g" x1="218.5" y1="117.2" x2="227.8" y2="110.1"/><line class="g" x1="228.1" y1="109.3" x2="219.4" y2="105.9"/><path class="l" d="M191,114.2l15.8-35.7s2.3-7.7,10.2,2.8"/><circle class="m" cx="269.5" cy="256.7" r="1.7"/></svg>