<svg xmlns="http://www.w3.org/2000/svg" xmlns:xlink="http://www.w3.org/1999/xlink" viewBox="0 0 400 400"><defs><style>.a{fill:#ff7676;}.b,.e{fill:#333;}.b{opacity:0.2;isolation:isolate;}.c{fill:#fff;}.d{fill:#efefef;}.f{fill:#ffc5f3;}.g{fill:none;stroke:#333;stroke-linecap:round;stroke-miterlimit:10;stroke-width:3px;}.h{fill:url(#a);}</style><linearGradient id="a" x1="272.15" y1="164.55" x2="276.04" y2="162.16" gradientTransform="matrix(1, 0, 0, -1, 0, 402)" gradientUnits="userSpaceOnUse"><stop offset="0" stop-color="#e34248"/><stop offset="1" stop-color="#9e55a0"/></linearGradient></defs><circle class="a" cx="200" cy="200" r="200"/><path class="b" d="M274.3,185v-3.1h0a74.46,74.46,0,0,0-148.9,2,20.9,20.9,0,0,0,.1,2.5l.2,111.8c0,7.8,9.8,14.2,21.8,14.2h0a30.58,30.58,0,0,0,13-2.8,29.3,29.3,0,0,1,13-2.8,30.61,30.61,0,0,1,12.9,2.7,31.5,31.5,0,0,0,13.2,2.8h0a30.4,30.4,0,0,0,13.2-2.9,30.61,30.61,0,0,1,12.9-2.7,31.74,31.74,0,0,1,12.8,2.6,33,33,0,0,0,13.5,2.9h0c12.5,0,22.6-6.7,22.6-14.8Z"/><path class="c" d="M274.3,174.2v-3.1h0a74.46,74.46,0,0,0-148.9,2,20.9,20.9,0,0,0,.1,2.5l.2,111.8c0,7.8,9.8,14.2,21.8,14.2h0a30.58,30.58,0,0,0,13-2.8,29.3,29.3,0,0,1,13-2.8,30.61,30.61,0,0,1,12.9,2.7,31.5,31.5,0,0,0,13.2,2.8h0a30.4,30.4,0,0,0,13.2-2.9,30.61,30.61,0,0,1,12.9-2.7,31.74,31.74,0,0,1,12.8,2.6,33,33,0,0,0,13.5,2.9h0c12.5,0,22.6-6.7,22.6-14.8Z"/><path class="d" d="M125.7,287.3c0,7.8,9.8,14.2,21.8,14.2h0a30.58,30.58,0,0,0,13-2.8,29.3,29.3,0,0,1,13-2.8,30.61,30.61,0,0,1,12.9,2.7,31.5,31.5,0,0,0,13.2,2.8h0a30.4,30.4,0,0,0,13.2-2.9,30.61,30.61,0,0,1,12.9-2.7,31.74,31.74,0,0,1,12.8,2.6,33,33,0,0,0,13.5,2.9h0c12.5,0,22.6-6.7,22.6-14.8V274.2c-.4,7.9-10.4,14.3-22.6,14.3h0a33,33,0,0,1-13.5-2.9,30.14,30.14,0,0,0-12.8-2.6,30.61,30.61,0,0,0-12.9,2.7,31.2,31.2,0,0,1-13.2,2.9h0a31.5,31.5,0,0,1-13.2-2.8,30.61,30.61,0,0,0-12.9-2.7,29.3,29.3,0,0,0-13,2.8,30.58,30.58,0,0,1-13,2.8h0c-12,0-21.8-6.3-21.8-14.2"/><ellipse class="e" cx="172.9" cy="173" rx="11.6" ry="17.2"/><ellipse class="e" cx="227.1" cy="173" rx="11.6" ry="17.2"/><circle class="e" cx="195.2" cy="192.5" r="2.6"/><circle class="e" cx="204.8" cy="192.5" r="2.6"/><ellipse class="f" cx="158.5" cy="206.9" rx="13.3" ry="6.9"/><ellipse class="f" cx="241.5" cy="206.9" rx="13.3" ry="6.9"/><path class="g" d="M274.4,228.3l-.1-54.1v-3.1h0a74.46,74.46,0,0,0-148.9,2,20.9,20.9,0,0,0,.1,2.5l.2,111.8c0,7.8,9.8,14.2,21.8,14.2h0a30.58,30.58,0,0,0,13-2.8,29.3,29.3,0,0,1,13-2.8,30.61,30.61,0,0,1,12.9,2.7,31.5,31.5,0,0,0,13.2,2.8h0a30.4,30.4,0,0,0,13.2-2.9,30.61,30.61,0,0,1,12.9-2.7,31.74,31.74,0,0,1,12.8,2.6,33,33,0,0,0,13.5,2.9h0c12.5,0,22.6-6.7,22.6-14.8l-.1-37.1"/><circle class="h" cx="274.5" cy="238.9" r="1.7"/></svg>