<svg xmlns="http://www.w3.org/2000/svg" xmlns:xlink="http://www.w3.org/1999/xlink" viewBox="0 0 400 400"><defs><style>.a{fill:#ff7676;}.b,.e,.h{fill:#333;}.b{opacity:0.2;}.b,.e{isolation:isolate;}.c{fill:#ededed;}.d{fill:none;stroke:#333;stroke-linecap:round;stroke-miterlimit:10;stroke-width:3px;}.e,.g{opacity:0.1;}.f{fill:#ad73ff;}.i{fill:#262626;}.j{fill:url(#a);}</style><linearGradient id="a" x1="287.69" y1="167.48" x2="291.58" y2="165.09" gradientTransform="matrix(1, 0, 0, -1, 0, 402)" gradientUnits="userSpaceOnUse"><stop offset="0" stop-color="#e34248"/><stop offset="1" stop-color="#9e55a0"/></linearGradient></defs><circle class="a" cx="200" cy="200" r="200"/><path class="b" d="M280.5,328.2h-161a9.56,9.56,0,0,1-9.5-9.5V175.8a86.72,86.72,0,0,1,86.5-86.5h7.1a86.72,86.72,0,0,1,86.5,86.5V318.7A9.58,9.58,0,0,1,280.5,328.2Z"/><path class="c" d="M280.5,319.4h-161a9.56,9.56,0,0,1-9.5-9.5V167.1a86.72,86.72,0,0,1,86.5-86.5h7.1a86.72,86.72,0,0,1,86.5,86.5V310A9.5,9.5,0,0,1,280.5,319.4Z"/><path class="d" d="M290.1,245.6v64.3a9.56,9.56,0,0,1-9.5,9.5H119.5a9.56,9.56,0,0,1-9.5-9.5V167.1a86.72,86.72,0,0,1,86.5-86.5h7.1a86.72,86.72,0,0,1,86.5,86.5v58.7"/><path class="e" d="M203.6,80.6h-7.1c-1.3,0-2.5,0-3.8.1,45.8,2,82.7,40.1,82.7,86.4V310a9.56,9.56,0,0,1-9.5,9.5h14.7a9.56,9.56,0,0,0,9.5-9.5V167.1A86.72,86.72,0,0,0,203.6,80.6Z"/><path class="f" d="M200,193.8l-.8-.5c-.1-.1-15.2-9.8-20.9-17.8-6.6-9.3-4.7-16.3-2.9-19.6a15.68,15.68,0,0,1,13.8-8.3,14.82,14.82,0,0,1,10.8,4.6,15.16,15.16,0,0,1,10.8-4.6,15.49,15.49,0,0,1,13.8,8.3c1.7,3.4,3.6,10.4-2.9,19.6-5.7,8-20.7,17.7-20.8,17.8Z"/><g class="g"><path class="h" d="M224.5,155.8a15.68,15.68,0,0,0-13.8-8.3,15.23,15.23,0,0,0-4.2.6,15.28,15.28,0,0,1,9.5,7.7c1.7,3.4,3.6,10.4-2.9,19.6-4,5.6-12.6,12.1-17.4,15.5,2,1.4,3.4,2.3,3.4,2.3l.8.5.8-.5c.2-.1,15.2-9.8,20.8-17.8C228.2,166.2,226.3,159.1,224.5,155.8Z"/></g><path class="i" d="M166,251.5l-6.5-12.2v12.2H148.8V217.4h15.9a15.51,15.51,0,0,1,7.1,1.5,10.11,10.11,0,0,1,4.4,4,11,11,0,0,1,1.5,5.7,10,10,0,0,1-1.9,6.1,10.55,10.55,0,0,1-5.5,3.8l7.4,13.1H166Zm-6.5-19.4h4.2a3.17,3.17,0,0,0,2.3-.7,3,3,0,0,0,.8-2.2,2.86,2.86,0,0,0-.8-2.1,3.2,3.2,0,0,0-2.3-.8h-4.2Z"/><path class="i" d="M190.6,241.3v10.2H180V241.3Z"/><path class="i" d="M205.1,217.4v34.1H194.4V217.4Z"/><path class="i" d="M219.5,241.3v10.2H208.9V241.3Z"/><path class="i" d="M234,240.7v10.8H223.3V217.4h14.9c4.2,0,7.4,1.1,9.6,3.2a11.3,11.3,0,0,1,3.3,8.5,11.77,11.77,0,0,1-1.5,5.9,11.14,11.14,0,0,1-4.4,4.2,15.22,15.22,0,0,1-7.1,1.5Zm6.3-11.6c0-2.1-1.1-3.1-3.3-3.1h-3v6.3h3C239.2,232.2,240.3,231.2,240.3,229.1Z"/><circle class="j" cx="290.1" cy="236" r="1.7"/></svg>