<svg xmlns="http://www.w3.org/2000/svg" xmlns:xlink="http://www.w3.org/1999/xlink" viewBox="0 0 400 400"><defs><style>.a{fill:#ffb57d;}.b,.c{fill:#333;}.b{opacity:0.2;isolation:isolate;}.d{fill:#f2b3ff;}.e{fill:#e7a0f9;}.f{fill:none;stroke:#333;stroke-linecap:round;stroke-miterlimit:10;stroke-width:3px;}.g{fill:url(#a);}</style><linearGradient id="a" x1="265.26" y1="202.94" x2="269.15" y2="200.55" gradientTransform="matrix(1, 0, 0, -1, 0, 402)" gradientUnits="userSpaceOnUse"><stop offset="0" stop-color="#e34248"/><stop offset="1" stop-color="#9e55a0"/></linearGradient></defs><circle class="a" cx="200" cy="200" r="200"/><path class="b" d="M313.7,318.1l-68.3-68.3a94.61,94.61,0,1,0-5.9,5.9L307.8,324a4.17,4.17,0,0,0,5.9-5.9Z"/><path class="c" d="M313.7,315.7h0a4.23,4.23,0,0,1-5.9,0l-82-82a4.23,4.23,0,0,1,0-5.9h0a4.23,4.23,0,0,1,5.9,0l82,82A4.23,4.23,0,0,1,313.7,315.7Z"/><circle class="d" cx="175.7" cy="177.7" r="94.6"/><path class="e" d="M81.2,173.1c1.9,10.9,5.1,21.2,10.2,30.3a79.89,79.89,0,0,0,8.5,12.9c.8,1,1.7,1.9,2.5,2.9s1.7,1.9,2.5,2.8l2.7,2.7,2.8,2.6,2.9,2.4,3,2.3,3.1,2.2c1.1.7,2.1,1.4,3.2,2a86,86,0,0,0,13.3,6.5,76.48,76.48,0,0,0,14.2,3.9,71.45,71.45,0,0,0,14.6,1.3,82.08,82.08,0,0,0,28.8-5.2,74.4,74.4,0,0,0,13.3-6.5c1.1-.6,2.1-1.3,3.2-2a33.68,33.68,0,0,1,3.1-2.1l3-2.3,2.9-2.4,2.8-2.6,2.7-2.7,2.5-2.8c.8-1,1.7-1.9,2.5-2.9a87.15,87.15,0,0,0,8.5-12.9,98.53,98.53,0,0,0,10.2-30.3h1a83.47,83.47,0,0,1-24.5,59.9,82.56,82.56,0,0,1-27.5,18.4,84.5,84.5,0,0,1-65,0,87.93,87.93,0,0,1-27.5-18.4,86,86,0,0,1-18.3-27.5,83.75,83.75,0,0,1-6.2-32.4h1Z"/><path class="e" d="M109.2,173.1a68.58,68.58,0,0,0,8.1,19.6,60,60,0,0,0,12.9,14.9A53.92,53.92,0,0,0,164.7,220a54.9,54.9,0,0,0,34.5-12.4,60,60,0,0,0,12.9-14.9,71.55,71.55,0,0,0,8.1-19.6h1a55.74,55.74,0,0,1-16.3,40.1A56.24,56.24,0,0,1,143,225.6a56.1,56.1,0,0,1-34.7-52.5Z"/><path class="e" d="M137.2,173.1c3.6,7.2,8,11.7,12.8,14.7a27.55,27.55,0,0,0,29.4.1c4.8-3,9.1-7.6,12.7-14.7h1a29.65,29.65,0,0,1-1.9,11,28,28,0,0,1-6.2,9.4,28.5,28.5,0,0,1-40.8,0,29.58,29.58,0,0,1-6.2-9.4,27.75,27.75,0,0,1-1.9-11h1.1Z"/><path class="e" d="M108.2,173.1a60.09,60.09,0,0,1,1.5-28.5,68.18,68.18,0,0,1,14.4-26,71.82,71.82,0,0,1,24.5-18,74.37,74.37,0,0,1,14.7-4.8,79.7,79.7,0,0,1,15.4-1.6,80.52,80.52,0,0,1,15.4,1.6,76.57,76.57,0,0,1,14.7,4.8,71.82,71.82,0,0,1,24.5,18,68.78,68.78,0,0,1,14.4,26,60.09,60.09,0,0,1,1.5,28.5h-1a70.08,70.08,0,0,0-20.5-48.8,68.62,68.62,0,0,0-22.4-14.9,70.56,70.56,0,0,0-26.4-5.2,68.28,68.28,0,0,0-26.4,5.2,67.59,67.59,0,0,0-22.4,14.9,69.65,69.65,0,0,0-20.5,48.8Z"/><path class="e" d="M136.2,173.1a32.54,32.54,0,0,1-.6-17.8,40,40,0,0,1,8.3-16.9,43.13,43.13,0,0,1,20-13.7c1.6-.5,3.2-1,4.8-1.4s3.3-.6,4.9-.8l5-.3,5,.3c1.6.2,3.3.5,4.9.8s3.2.9,4.8,1.4,3.1,1.2,4.6,1.8a44,44,0,0,1,15.4,11.9,40,40,0,0,1,8.3,16.9,35.56,35.56,0,0,1,.8,9.1c-.1,1.5-.2,3-.4,4.4-.4,1.5-.6,2.9-1.1,4.3h-1a41.14,41.14,0,0,0-3.4-15.8,41.71,41.71,0,0,0-9-13.3,41.07,41.07,0,0,0-29.1-11.8,42.14,42.14,0,0,0-15.7,3,41,41,0,0,0-13.4,8.8,41.71,41.71,0,0,0-9,13.3,42.22,42.22,0,0,0-3.4,15.8Z"/><path class="e" d="M164.1,173.1a10.42,10.42,0,0,1-2.8-7.1,13.91,13.91,0,0,1,2.3-7.8,10.92,10.92,0,0,1,1.3-1.7c.5-.5,1-1.1,1.5-1.6a11.51,11.51,0,0,1,1.7-1.4c.6-.4,1.2-.8,1.9-1.2a18.28,18.28,0,0,1,17.2.1c.7.4,1.3.8,1.9,1.2a21,21,0,0,1,1.7,1.4c.5.5,1,1,1.5,1.6s.9,1.2,1.3,1.7a15,15,0,0,1,2.3,7.8,10.62,10.62,0,0,1-2.7,7.1h-1a14.64,14.64,0,0,0-1.2-5.1,12.46,12.46,0,0,0-3-4.2,12.91,12.91,0,0,0-9.3-3.7,13.51,13.51,0,0,0-9.3,3.7,14,14,0,0,0-3,4.2,14.75,14.75,0,0,0-1.3,5.1h-1Z"/><path class="f" d="M269.3,191.3a93.59,93.59,0,1,0-4.5,18.3"/><circle class="g" cx="267.6" cy="200.5" r="1.7"/></svg>