<svg xmlns="http://www.w3.org/2000/svg" viewBox="0 0 400 400"><defs><style>.a{fill:#a97dff;}.b,.g{fill:#333;}.b{opacity:0.2;isolation:isolate;}.c{fill:#f8b331;}.d{opacity:0.1;}.e{fill:#fff;}.f{fill:none;stroke:#333;stroke-linecap:round;stroke-linejoin:round;stroke-width:3px;}</style></defs><circle class="a" cx="200" cy="200" r="200"/><path class="b" d="M199.4,89.7a119.61,119.61,0,0,0-49,10.5c1.2,0,2.3-.2,3.5-.2,38.7,0,71.3,24.1,81.3,57-13.1,18.7-34.5,31.8-59.5,35v1.8c11.6,8.6,20.3,27.6,22.9,50.8a89.29,89.29,0,0,1-44.7,11.9c-31.8,0-59.5-16.3-73.9-40.3A119.65,119.65,0,1,0,199.4,89.7Z"/><path class="c" d="M199.4,80.3a119.61,119.61,0,0,0-49,10.5c1.2,0,2.3-.2,3.5-.2,38.7,0,71.3,24.1,81.3,57-13.1,18.7-34.5,31.8-59.5,35v1.8c11.6,8.6,20.3,27.6,22.9,50.8a89.29,89.29,0,0,1-44.7,11.9c-31.8,0-59.5-16.3-73.9-40.3A119.65,119.65,0,1,0,199.4,80.3Z"/><g class="d"><path class="e" d="M159.9,247.2a89.29,89.29,0,0,0,44.7-11.9c-2.6-23.2-11.3-42.2-22.9-50.8v-1.8c24.9-3.1,46.4-16.3,59.5-35-10-32.9-42.6-57-81.3-57h-1.1c37.8.8,69.4,24.7,79.3,56.9-13.1,18.7-34.5,31.8-59.5,35v1.8c11.6,8.6,20.3,27.6,22.9,50.8a89.16,89.16,0,0,1-43.2,11.9C158.9,247.1,159.4,247.2,159.9,247.2Z"/><path class="e" d="M203.9,80.4h-1.6a119.61,119.61,0,0,0-49,10.5c1.2,0,2.3-.2,3.5-.2A119.53,119.53,0,0,1,203.9,80.4Z"/><path class="e" d="M86.4,212.2a60.61,60.61,0,0,1-3.5-5.3A119.69,119.69,0,0,0,202.3,319.7h1.5A119.77,119.77,0,0,1,86.4,212.2Z"/></g><path class="f" d="M200.4,80.3a119.61,119.61,0,0,0-49,10.5c1.2,0,2.3-.2,3.5-.2,38.7,0,71.3,24.1,81.3,57-13.1,18.7-34.5,31.8-59.5,35v1.8c11.6,8.6,20.3,27.6,22.9,50.8a89.29,89.29,0,0,1-44.7,11.9c-31.8,0-59.5-16.3-73.9-40.3A119.65,119.65,0,1,0,200.4,80.3Z"/><g class="d"><path class="g" d="M200.4,80.3a105.53,105.53,0,0,0-11.3.6,119.65,119.65,0,0,1-.2,238.2,109.31,109.31,0,0,0,11.5.6,119.7,119.7,0,1,0,0-239.4Z"/></g><path class="g" d="M256.5,223.1a25,25,0,0,1-16.4-31.3l47.7,14.9A25,25,0,0,1,256.5,223.1Z"/></svg>