<svg xmlns="http://www.w3.org/2000/svg" xmlns:xlink="http://www.w3.org/1999/xlink" viewBox="0 0 400 400"><defs><style>.a{fill:#ff7676;}.b,.e,.i{fill:#333;}.b,.f{opacity:0.2;}.b,.e,.f{isolation:isolate;}.c,.f{fill:#a4ede7;}.d{fill:#b3f4f2;}.e,.h{opacity:0.1;}.g{fill:#d0fcfa;}.j,.k,.o{fill:none;stroke-miterlimit:10;}.j{stroke:#fff;stroke-width:3.11px;}.j,.k{stroke-linecap:round;}.k,.o{stroke:#333;stroke-width:3px;}.l{fill:#845e44;}.m{fill:#916e57;}.n{fill:#664834;}.p{fill:#ffe49f;}.q{fill:url(#a);}</style><linearGradient id="a" x1="291.25" y1="176.75" x2="295.13" y2="174.36" gradientTransform="matrix(1, 0, 0, -1, 0, 402)" gradientUnits="userSpaceOnUse"><stop offset="0" stop-color="#e34248"/><stop offset="1" stop-color="#9e55a0"/></linearGradient></defs><circle class="a" cx="200" cy="200" r="200"/><path class="b" d="M293.7,234.8c0-8.2-43.6-14.8-97.4-14.8s-97.4,6.6-97.4,14.8,43.6,14.8,97.4,14.8h-.1c-53.8,0-97.4-6.6-97.4-14.8,0,47.9,43.6,86.7,97.4,86.7,53.5,0,96.9-38.4,97.4-86C293.6,235.3,293.7,235.1,293.7,234.8Z"/><ellipse class="c" cx="196.3" cy="227.5" rx="97.4" ry="14.8"/><path class="d" d="M196.2,242.3c-53.8,0-97.4-6.6-97.4-14.8,0,47.9,43.6,86.7,97.4,86.7s97.4-38.8,97.4-86.7C293.6,235.7,250,242.3,196.2,242.3Z"/><path class="e" d="M196.2,307.4c-50.6,0-92.2-34.4-97-78.4a2.65,2.65,0,0,1-.5-1.4c0,47.9,43.6,86.7,97.4,86.7s97.4-38.8,97.4-86.7a2.39,2.39,0,0,1-.5,1.4C288.4,273,246.8,307.4,196.2,307.4Z"/><path class="f" d="M244.1,151.7V119.1H149.3v32.7c-29.8,14.8-49.9,43.2-49.9,75.8,0,47.9,43.6,86.7,97.4,86.7s97.4-38.8,97.4-86.7C294.2,194.9,274,166.6,244.1,151.7Z"/><polygon class="g" points="246.2 176.8 249.9 183.5 256.6 187.2 249.9 190.9 246.2 197.6 242.5 190.9 235.8 187.2 242.5 183.5 246.2 176.8"/><polygon class="g" points="175.6 149.5 178.2 154.2 182.9 156.8 178.2 159.4 175.6 164.2 173 159.4 168.2 156.8 173 154.2 175.6 149.5"/><polygon class="g" points="152.2 173.5 157.8 183.8 168.1 189.4 157.8 195.1 152.2 205.4 146.6 195.1 136.2 189.4 146.6 183.8 152.2 173.5"/><polygon class="g" points="216 194.7 217.5 197.4 220.3 198.9 217.5 200.4 216 203.1 214.6 200.4 211.8 198.9 214.6 197.4 216 194.7"/><g class="h"><polygon class="i" points="255.7 186.7 249.3 190.3 245.7 196.7 246.2 197.6 249.9 190.9 256.6 187.2 255.7 186.7"/></g><g class="h"><polygon class="i" points="182 156.3 177.5 158.8 175.1 163.3 175.6 164.2 178.2 159.4 182.9 156.8 182 156.3"/></g><g class="h"><polygon class="i" points="167.3 189 157.2 194.5 151.7 204.5 152.2 205.4 157.8 195.1 168.1 189.4 167.3 189"/></g><g class="h"><polygon class="i" points="219.4 198.4 216.9 199.8 215.6 202.2 216 203.1 217.5 200.4 220.3 198.9 219.4 198.4"/></g><path class="j" d="M148.7,148.3s35.3,17.7,96.1,0"/><path class="k" d="M292.9,217c-3.8-28.1-22.8-52.1-49.4-65.3V119.1H148.7v32.7c-29.8,14.8-49.9,43.2-49.9,75.8,0,47.9,43.6,86.7,97.4,86.7,50.4,0,91.9-34.1,96.9-77.8"/><path class="l" d="M137.1,100.7v21.7c0,8.4,26.5,15.2,59.2,15.2s59.2-6.8,59.2-15.2V100.7Z"/><ellipse class="m" cx="196.3" cy="100.7" rx="59.2" ry="15.2"/><ellipse class="n" cx="196.3" cy="100.7" rx="37.9" ry="7.7"/><ellipse class="o" cx="196.3" cy="100.7" rx="59.2" ry="15.2"/><path class="o" d="M196.2,85.4c-32.7,0-59.2,6.8-59.2,15.2v21.7c0,8.4,26.5,15.2,59.2,15.2s59.2-6.8,59.2-15.2V100.6C255.4,92.3,228.9,85.4,196.2,85.4Z"/><path class="p" d="M269.7,144.7l-16.6-5.4a5.17,5.17,0,0,0-4.5.6l-12.4,7.9a5.62,5.62,0,0,0-2.4,3.8l-2.2,17.3a4.58,4.58,0,0,0,.8,3.4l11.8,18.5,16.2,25.4a5.27,5.27,0,0,0,7.3,1.5l31.2-19.9a5.24,5.24,0,0,0,1.7-7.2l-16.2-25.4-11.8-18.5A8.37,8.37,0,0,0,269.7,144.7Zm-24,4.5a1.63,1.63,0,0,1-2.3-.5,1.73,1.73,0,0,1,.5-2.3,1.66,1.66,0,1,1,1.8,2.8Z"/><path class="o" d="M269.7,145.3l-16.6-5.4a5.17,5.17,0,0,0-4.5.6l-12.4,7.9a5.62,5.62,0,0,0-2.4,3.8l-2.2,17.3a4.58,4.58,0,0,0,.8,3.4l11.8,18.5,16.2,25.4a5.27,5.27,0,0,0,7.3,1.5l31.2-19.9a5.24,5.24,0,0,0,1.7-7.2l-16.2-25.4-11.8-18.5A7.22,7.22,0,0,0,269.7,145.3Zm-24,4.4a1.63,1.63,0,0,1-2.3-.5,1.73,1.73,0,0,1,.5-2.3,1.66,1.66,0,1,1,1.8,2.8Z"/><path class="i" d="M268.3,162l-1.9,1.2-1.9-2.9-1,.7,1.3,2.1-1.8,1.1-1.3-2.1-2.8,1.8-1.5-2.3,7.5-4.7Z"/><path class="i" d="M265.5,171.6l-1.6-2.5-1.4.3L261,167l9.2-2,1.7,2.7-5.7,7.4-1.6-2.5Zm1.4-1.7,1.6-2-2.5.6Z"/><path class="i" d="M275.4,173.2l-7.5,4.7-1.5-2.3,7.5-4.7Z"/><path class="i" d="M271,182.8l1.8-3.1-2.7,1.7-1.5-2.3,7.5-4.7,2.2,3.5a4.49,4.49,0,0,1,.7,1.8,1.88,1.88,0,0,1-.3,1.5,3.46,3.46,0,0,1-1,1.1,2.28,2.28,0,0,1-1.6.4,2.57,2.57,0,0,1-1.6-.7l-1.8,3.4Zm3.3-4.1.6.9a.66.66,0,0,0,.5.4,1.27,1.27,0,0,0,.6-.1,1,1,0,0,0,.4-.5,1.27,1.27,0,0,0-.1-.6l-.6-.9Z"/><path class="i" d="M285.1,188.5l-6.9.6-2.3,1.4-1.5-2.3,2.3-1.4,3.5-6,1.7,2.7-1.9,2.9,3.4-.5Z"/><path class="i" d="M256,170.6l-1.9,1.2-1.3-2-5.6,3.5-1.5-2.3,5.6-3.5-1.2-2,1.9-1.2Z"/><path class="i" d="M256,174.7l-.9.6,1.5,2.3-1.8,1.1-1.5-2.3-1.1.7,1.7,2.6-1.9,1.2-3.1-5,7.5-4.7,3.1,5-1.9,1.2Z"/><path class="i" d="M256.8,185.8l-1.6-2.5-1.4.3-1.6-2.5,9.2-2,1.7,2.7-5.7,7.4-1.6-2.5Zm1.4-1.6,1.6-2-2.5.6Z"/><path class="i" d="M260.2,193.7l1.8-3.1-2.7,1.7-1.5-2.3,7.5-4.7,2.2,3.5a4.49,4.49,0,0,1,.7,1.8,1.88,1.88,0,0,1-.3,1.5,3.46,3.46,0,0,1-1,1.1,2.28,2.28,0,0,1-1.6.4,2.57,2.57,0,0,1-1.6-.7l-1.8,3.4Zm3.3-4.1.6.9a.66.66,0,0,0,.5.4,1.27,1.27,0,0,0,.6-.1,1,1,0,0,0,.4-.5,1.27,1.27,0,0,0-.1-.6l-.6-.9Z"/><path class="i" d="M266.8,201.7a3.26,3.26,0,0,1-1.4-.4,4,4,0,0,1-1.3-1.3,4.61,4.61,0,0,1-.8-2.6,3.26,3.26,0,0,1,1.2-2.1l1.6,2.5a.71.71,0,0,0-.3,1c.1.1.2.2.3.2a.51.51,0,0,0,.5-.6,8.92,8.92,0,0,0-.2-1.1q-.15-.9-.3-1.5a3.18,3.18,0,0,1,.2-1.3,2.59,2.59,0,0,1,1-1.1,2.82,2.82,0,0,1,1.5-.4,2.39,2.39,0,0,1,1.4.5,7.69,7.69,0,0,1,1.2,1.3,3.57,3.57,0,0,1,.7,2.5,2.84,2.84,0,0,1-1.2,2l-1.6-2.5q.6-.45.3-.9c-.1-.1-.1-.2-.2-.2a.37.37,0,0,0-.3.1c-.2.1-.2.3-.2.5a8.92,8.92,0,0,0,.2,1.1q.15.9.3,1.5a3.18,3.18,0,0,1-.2,1.3,2.59,2.59,0,0,1-1,1.1A2.73,2.73,0,0,1,266.8,201.7Z"/><path class="e" d="M245.9,149.1l-.1.1a1.63,1.63,0,0,1-2.3-.5,1.73,1.73,0,0,1,.5-2.3h.1l-1.6-2.5-6.3,4a5.62,5.62,0,0,0-2.4,3.8L231.6,169a4.58,4.58,0,0,0,.8,3.4l11.8,18.5,16.2,25.4a5.27,5.27,0,0,0,7.3,1.5l16.4-10.4Z"/><path class="j" d="M243.4,148.8c.7-.2.7-.2,1.5-.4"/><circle class="q" cx="293.6" cy="226.7" r="1.7"/></svg>