<svg xmlns="http://www.w3.org/2000/svg" xmlns:xlink="http://www.w3.org/1999/xlink" viewBox="0 0 400 400"><defs><style>.a{fill:#a97dff;}.b,.g,.j{fill:#333;}.b{opacity:0.2;}.b,.j{isolation:isolate;}.c{fill:#a7e26d;}.d{fill:#ff703e;}.e{fill:#ff8f3f;}.f{fill:#ffa84e;}.h,.i{fill:none;stroke:#333;stroke-miterlimit:10;stroke-width:3px;}.i{stroke-linecap:round;}.j{opacity:0.1;}.k{fill:url(#a);}</style><linearGradient id="a" x1="323.52" y1="173.96" x2="327.41" y2="171.57" gradientTransform="matrix(1, 0, 0, -1, 0, 402)" gradientUnits="userSpaceOnUse"><stop offset="0" stop-color="#e34248"/><stop offset="1" stop-color="#9e55a0"/></linearGradient></defs><circle class="a" cx="200" cy="200" r="200"/><path class="b" d="M238.2,122.1h-24l-10.3-17.8a4.59,4.59,0,0,0-7.9,0l-10.3,17.8h-24c-50,0-90.9,40.9-90.9,90.9h0c0,57.2,46.8,104,104,104H225c57.2,0,104-46.8,104-104h0C329,163,288.2,122.1,238.2,122.1Z"/><path class="c" d="M196.1,94.8l-10.6,18.3h29L203.9,94.8A4.5,4.5,0,0,0,196.1,94.8Z"/><path class="d" d="M225.1,307.4H174.9c-57.2,0-104-46.8-104-104h0c0-50,40.9-90.9,90.9-90.9h76.4c50,0,90.9,40.9,90.9,90.9h0C329,260.7,282.3,307.4,225.1,307.4Z"/><circle class="e" cx="199.9" cy="210" r="97.4"/><ellipse class="f" cx="199.9" cy="210" rx="51.2" ry="97.4"/><path class="g" d="M242.9,239.1h-86a2.48,2.48,0,0,1-2.5-2.5h0a2.48,2.48,0,0,1,2.5-2.5h86a2.48,2.48,0,0,1,2.5,2.5h0A2.42,2.42,0,0,1,242.9,239.1Z"/><path class="g" d="M159.7,241.2V232a2.48,2.48,0,0,1,2.5-2.5h0a2.48,2.48,0,0,1,2.5,2.5v9.1a2.48,2.48,0,0,1-2.5,2.5h0A2.34,2.34,0,0,1,159.7,241.2Z"/><path class="g" d="M178.6,241.2V232a2.48,2.48,0,0,1,2.5-2.5h0a2.48,2.48,0,0,1,2.5,2.5v9.1a2.48,2.48,0,0,1-2.5,2.5h0A2.34,2.34,0,0,1,178.6,241.2Z"/><path class="g" d="M197.5,241.2V232a2.48,2.48,0,0,1,2.5-2.5h0a2.48,2.48,0,0,1,2.5,2.5v9.1a2.48,2.48,0,0,1-2.5,2.5h0A2.39,2.39,0,0,1,197.5,241.2Z"/><path class="g" d="M216.5,241.2V232a2.48,2.48,0,0,1,2.5-2.5h0a2.48,2.48,0,0,1,2.5,2.5v9.1a2.48,2.48,0,0,1-2.5,2.5h0A2.34,2.34,0,0,1,216.5,241.2Z"/><path class="g" d="M235.4,241.2V232a2.48,2.48,0,0,1,2.5-2.5h0a2.48,2.48,0,0,1,2.5,2.5v9.1a2.48,2.48,0,0,1-2.5,2.5h0A2.39,2.39,0,0,1,235.4,241.2Z"/><circle class="g" cx="195" cy="213.5" r="2.7"/><circle class="g" cx="205" cy="213.5" r="2.7"/><circle class="g" cx="171.5" cy="193" r="17.7"/><circle class="g" cx="228.5" cy="193" r="17.7"/><path class="h" d="M196,94.3l-10.6,18.3h29L203.8,94.3A4.5,4.5,0,0,0,196,94.3Z"/><path class="i" d="M327.7,220.1a101.41,101.41,0,0,0,1.3-16.6h0c0-50-40.9-90.9-90.9-90.9h-24L203.8,94.8a4.59,4.59,0,0,0-7.9,0l-10.3,17.8h-24c-50,0-90.9,40.9-90.9,90.9h0c0,57.2,46.8,104,104,104h50.2c44.9,0,83.4-28.9,97.9-69"/><path class="j" d="M200.1,113.1h14.5L204,94.8a4.57,4.57,0,0,0-3.9-2.3Z"/><path class="j" d="M327.9,219.2a101.81,101.81,0,0,0,1.2-15.7h0a90.79,90.79,0,0,0-36-72.3,90,90,0,0,1,18.6,54.9h0c0,57.2-46.8,104-104,104H157.5a103.19,103.19,0,0,1-64.2-22.4,103.79,103.79,0,0,0,81.6,39.7h50.2c44.6,0,82.9-28.5,97.6-68.2"/><circle class="k" cx="325.9" cy="229.5" r="1.7"/></svg>