<svg xmlns="http://www.w3.org/2000/svg" xmlns:xlink="http://www.w3.org/1999/xlink" viewBox="0 0 400 400"><defs><style>.a{fill:#ffb57d;}.b,.g,.j{fill:#333;}.b{opacity:0.2;}.b,.j{isolation:isolate;}.c{fill:#a7e26d;}.d{fill:#ff703e;}.e{fill:#ff8f3f;}.f{fill:#ffa84e;}.h,.i,.o,.p,.r{fill:none;}.h,.i,.o,.p,.q,.r{stroke:#333;stroke-miterlimit:10;}.h{stroke-width:2.58px;}.i,.p{stroke-linecap:round;}.i,.o,.q{stroke-width:3px;}.j{opacity:0.1;}.k{fill:url(#a);}.l{fill:#565656;}.m{fill:#5e5e5e;}.n{fill:#994fd3;}.p,.r{stroke-width:1.34px;}.q{fill:#ffc239;}.s{fill:#efff55;}.t{fill:url(#b);}</style><linearGradient id="a" x1="313.35" y1="150.96" x2="316.7" y2="148.9" gradientTransform="matrix(1, 0, 0, -1, 0, 402)" gradientUnits="userSpaceOnUse"><stop offset="0" stop-color="#e34248"/><stop offset="1" stop-color="#9e55a0"/></linearGradient><linearGradient id="b" x1="309.15" y1="323.76" x2="312.11" y2="321.95" gradientTransform="matrix(1, 0.02, 0.02, -1, -54.8, 474.6)" xlink:href="#a"/></defs><circle class="a" cx="200" cy="200" r="200"/><path class="b" d="M239.9,159.8H219.2l-8.8-15.3a3.94,3.94,0,0,0-6.8,0l-8.8,15.3H174.1a78.55,78.55,0,0,0-78.3,78.3h0c0,49.2,40.3,89.5,89.5,89.5h43.2c49.2,0,89.5-40.3,89.5-89.5h0A78.31,78.31,0,0,0,239.9,159.8Z"/><path class="c" d="M203.6,136.3,194.5,152h25l-9.1-15.7A3.94,3.94,0,0,0,203.6,136.3Z"/><path class="d" d="M228.6,319.4H185.4c-49.2,0-89.5-40.3-89.5-89.5h0a78.55,78.55,0,0,1,78.3-78.3H240a78.55,78.55,0,0,1,78.3,78.3h0C318.1,279.1,277.8,319.4,228.6,319.4Z"/><circle class="e" cx="206.9" cy="235.5" r="83.9"/><ellipse class="f" cx="206.9" cy="235.5" rx="44.1" ry="83.9"/><path class="g" d="M244,260.6H169.9a2.22,2.22,0,0,1-2.2-2.2h0a2.22,2.22,0,0,1,2.2-2.2H244a2.22,2.22,0,0,1,2.2,2.2h0A2.29,2.29,0,0,1,244,260.6Z"/><path class="g" d="M172.2,262.3v-7.9a2.22,2.22,0,0,1,2.2-2.2h0a2.22,2.22,0,0,1,2.2,2.2v7.9a2.22,2.22,0,0,1-2.2,2.2h0A2.22,2.22,0,0,1,172.2,262.3Z"/><path class="g" d="M188.6,262.3v-7.9a2.22,2.22,0,0,1,2.2-2.2h0a2.22,2.22,0,0,1,2.2,2.2v7.9a2.22,2.22,0,0,1-2.2,2.2h0A2.16,2.16,0,0,1,188.6,262.3Z"/><path class="g" d="M204.9,262.3v-7.9a2.22,2.22,0,0,1,2.2-2.2h0a2.22,2.22,0,0,1,2.2,2.2v7.9a2.22,2.22,0,0,1-2.2,2.2h0A2.16,2.16,0,0,1,204.9,262.3Z"/><path class="g" d="M221.2,262.3v-7.9a2.22,2.22,0,0,1,2.2-2.2h0a2.22,2.22,0,0,1,2.2,2.2v7.9a2.22,2.22,0,0,1-2.2,2.2h0A2.22,2.22,0,0,1,221.2,262.3Z"/><path class="g" d="M237.5,262.3v-7.9a2.22,2.22,0,0,1,2.2-2.2h0a2.22,2.22,0,0,1,2.2,2.2v7.9a2.22,2.22,0,0,1-2.2,2.2h0A2.22,2.22,0,0,1,237.5,262.3Z"/><circle class="g" cx="202.7" cy="238.5" r="2.3"/><circle class="g" cx="211.3" cy="238.5" r="2.3"/><circle class="g" cx="182.5" cy="220.8" r="15.2"/><circle class="g" cx="231.5" cy="220.8" r="15.2"/><path class="h" d="M203.6,135.9l-9.1,15.7h25l-9.1-15.7A3.94,3.94,0,0,0,203.6,135.9Z"/><path class="i" d="M317,244.2a84.49,84.49,0,0,0,1.1-14.3h0a78.55,78.55,0,0,0-78.3-78.3H219.1l-8.8-15.3a3.94,3.94,0,0,0-6.8,0l-8.8,15.3H174a78.55,78.55,0,0,0-78.3,78.3h0c0,49.2,40.3,89.5,89.5,89.5h43.2A89.89,89.89,0,0,0,312.7,260"/><path class="j" d="M207.1,152h12.5l-9.1-15.7a4,4,0,0,0-3.4-2Z"/><path class="j" d="M317.1,243.4a85.82,85.82,0,0,0,1-13.5h0a78.14,78.14,0,0,0-31-62.2,78.17,78.17,0,0,1,16,47.3h0c0,49.2-40.3,89.5-89.5,89.5H170.4a88.64,88.64,0,0,1-55.3-19.3,89.52,89.52,0,0,0,70.3,34.2h43.2a89.78,89.78,0,0,0,84-58.7"/><circle class="k" cx="315.4" cy="252.3" r="1.4"/><path class="b" d="M235.7,142c-6.5-19.5-15.1-40-20.4-52.1l1.5.1,6.9.6a1.61,1.61,0,0,0,.9-.3l-.5,2.6a1.06,1.06,0,0,1-.6.7l-2.6,1.2a1,1,0,0,0-.1,1.8l2.5,1.4a.89.89,0,0,1,.5.8l.3,2.9a1,1,0,0,0,1.7.6l2.1-2a1.4,1.4,0,0,1,.9-.3l2.8.6a1,1,0,0,0,1.1-1.4l-1.2-2.6a1.39,1.39,0,0,1,0-.9l1.4-2.5a1,1,0,0,0-1-1.5l-2.9.4a1.4,1.4,0,0,1-.9-.3l-1.9-2.1a1.08,1.08,0,0,0-1.3-.2,1.28,1.28,0,0,0-.4-1l-5.2-4.6-6.8-6a1.19,1.19,0,0,0-1.9.4l-.3.7c-.9,1.7-16.9,32.7-28.2,61.7-17,3.4-28.6,10.4-28.8,18.8-.3,12.3,24.2,22.9,54.6,23.6s55.4-8.7,55.7-21C263.9,153.8,252.6,146.2,235.7,142Z"/><ellipse class="l" cx="208.66" cy="157.7" rx="22.3" ry="55.1" transform="translate(46.01 362.52) rotate(-88.63)"/><path class="m" d="M241.2,156.7c-8.8-33.6-30.6-80.9-30.6-80.9s-24,46.2-34.5,79.3h0c8.2,4.3,19.7,7.1,32.4,7.4s24.4-1.9,32.7-5.8Z"/><path class="n" d="M237.3,143.3a81.79,81.79,0,0,1-28.4,4.1c-10.7-.3-20.5-2.3-28.2-5.5-1.7,4.5-3.2,9-4.6,13.2h0c8.2,4.3,19.7,7.1,32.4,7.4s24.3-1.9,32.7-5.8h0C240.1,152.4,238.8,147.9,237.3,143.3Z"/><path class="m" d="M224.8,85.3a1.25,1.25,0,0,1-.9,2.2l-6.9-.6-9-.8a1.19,1.19,0,0,1-1-1.7l2-4.6,2-4.6a1.15,1.15,0,0,1,1.9-.4l6.8,6Z"/><path class="o" d="M241.2,156.7c-6.2-23.6-18.8-54-25.8-70l1.5.1,6.9.6a1.25,1.25,0,0,0,.9-2.2l-5.2-4.6-6.8-6a1.19,1.19,0,0,0-1.9.4l-.3.7c-1.1,2.1-24.2,46.9-34.4,79.2h0c8.2,4.3,19.7,7.1,32.4,7.4,12.8.5,24.3-1.7,32.7-5.6Z"/><path class="i" d="M263.1,155.3c-2.7-6.9-13-12.9-27.3-16.4-6.5-19.5-15.1-40-20.4-52.1l1.5.1,6.9.6a1.25,1.25,0,0,0,.9-2.2l-5.2-4.6-6.8-6a1.19,1.19,0,0,0-1.9.4l-.3.7c-.9,1.7-16.9,32.7-28.2,61.7-17,3.4-28.6,10.4-28.8,18.8-.3,12.3,24.2,22.9,54.6,23.6,26.5.6,48.9-6.4,54.4-16.4"/><line class="p" x1="222.2" y1="87.3" x2="212.8" y2="86.5"/><path class="o" d="M237.3,143.3a81.79,81.79,0,0,1-28.4,4.1c-10.7-.3-20.5-2.3-28.2-5.5-1.7,4.5-3.2,9-4.6,13.2h0c8.2,4.3,19.7,7.1,32.4,7.4s24.3-1.9,32.7-5.8h0C240.1,152.4,238.8,147.9,237.3,143.3Z"/><path class="q" d="M215.5,143.9l-13.1-.3a3.83,3.83,0,0,0-3.8,3.6l-.3,13.1a3.83,3.83,0,0,0,3.6,3.8l13.1.3a3.83,3.83,0,0,0,3.8-3.6l.3-13.1A3.69,3.69,0,0,0,215.5,143.9ZM213.2,157a1.67,1.67,0,0,1-1.7,1.6l-5.9-.1a1.67,1.67,0,0,1-1.6-1.7l.1-5.9a1.67,1.67,0,0,1,1.7-1.6l5.9.1a1.67,1.67,0,0,1,1.6,1.7Z"/><path class="r" d="M215.5,143.9l-13.1-.3a3.83,3.83,0,0,0-3.8,3.6l-.3,13.1a3.83,3.83,0,0,0,3.6,3.8l13.1.3a3.83,3.83,0,0,0,3.8-3.6l.3-13.1A3.69,3.69,0,0,0,215.5,143.9ZM213.2,157a1.67,1.67,0,0,1-1.7,1.6l-5.9-.1a1.67,1.67,0,0,1-1.6-1.7l.1-5.9a1.67,1.67,0,0,1,1.7-1.6l5.9.1a1.67,1.67,0,0,1,1.6,1.7Z"/><path class="s" d="M233.1,90.1l-1.4,2.5a.75.75,0,0,0,0,.9l1.2,2.6a1,1,0,0,1-1.1,1.4l-2.8-.6a.81.81,0,0,0-.9.3l-2.1,2a1,1,0,0,1-1.7-.6l-.3-2.9a1,1,0,0,0-.5-.8L221,93.5a1,1,0,0,1,.1-1.8l2.6-1.2a1.06,1.06,0,0,0,.6-.7l.5-2.8a1,1,0,0,1,1.7-.5l1.9,2.1a.92.92,0,0,0,.9.3l2.9-.4A1.05,1.05,0,0,1,233.1,90.1Z"/><path class="o" d="M233.1,90.1l-1.4,2.5a.75.75,0,0,0,0,.9l1.2,2.6a1,1,0,0,1-1.1,1.4l-2.8-.6a.81.81,0,0,0-.9.3l-2.1,2a1,1,0,0,1-1.7-.6l-.3-2.9a1,1,0,0,0-.5-.8L221,93.5a1,1,0,0,1,.1-1.8l2.6-1.2a1.06,1.06,0,0,0,.6-.7l.5-2.8a1,1,0,0,1,1.7-.5l1.9,2.1a.92.92,0,0,0,.9.3l2.9-.4A1.05,1.05,0,0,1,233.1,90.1Z"/><circle class="t" cx="263.8" cy="159.5" r="1.3"/></svg>