<svg xmlns="http://www.w3.org/2000/svg" xmlns:xlink="http://www.w3.org/1999/xlink" viewBox="0 0 400 400"><defs><style>.a{fill:#a97dff;}.b,.e,.f{fill:#333;}.b,.j{opacity:0.2;}.b,.e,.j{isolation:isolate;}.c{fill:#f4f4f4;}.d,.h,.j{fill:none;stroke-linecap:round;}.d,.g,.h{stroke:#333;}.d,.g,.j{stroke-miterlimit:10;}.d,.g,.h,.j{stroke-width:3px;}.e{opacity:0.1;}.g,.i{fill:#ff0068;}.h{stroke-linejoin:round;}.j{stroke:#fff;}.k{fill:url(#a);}</style><linearGradient id="a" x1="293.29" y1="161.18" x2="297.18" y2="158.79" gradientTransform="matrix(1, 0, 0, -1, 0, 402)" gradientUnits="userSpaceOnUse"><stop offset="0" stop-color="#e34248"/><stop offset="1" stop-color="#9e55a0"/></linearGradient></defs><circle class="a" cx="200" cy="200" r="200"/><path class="b" d="M106.9,167.2a105,105,0,1,0,178.6,0Z"/><path class="c" d="M105.6,156.2a105,105,0,1,0,178.6,0Z"/><circle class="c" cx="195.5" cy="210.2" r="105"/><path class="d" d="M291.9,252.3a105.15,105.15,0,1,1,8.6-41.8,109.11,109.11,0,0,1-2.2,21.6"/><path class="e" d="M194.9,301A104.91,104.91,0,0,1,90.2,203.5q-.3,3.9-.3,7.8a105,105,0,1,0,210,0c0-2.6-.1-5.3-.3-7.8A104.91,104.91,0,0,1,194.9,301Z"/><ellipse class="f" cx="149.6" cy="203.5" rx="19.8" ry="29.2"/><ellipse class="f" cx="241.5" cy="203.5" rx="19.8" ry="29.2"/><path class="f" d="M235,263.2h-3.8v-4.9a3.7,3.7,0,1,0-7.4,0v4.9h-5.6v-4.9a3.7,3.7,0,1,0-7.4,0v4.9h-5.6v-4.9a3.7,3.7,0,1,0-7.4,0v4.9h-5.6v-4.9a3.7,3.7,0,1,0-7.4,0v4.9h-5.6v-4.9a3.7,3.7,0,1,0-7.4,0v4.9h-5.6v-4.9a3.7,3.7,0,1,0-7.4,0v4.9h-2.6a3.7,3.7,0,1,0,0,7.4h2.6v4.9a3.7,3.7,0,0,0,7.4,0v-4.9h5.6v4.9a3.7,3.7,0,0,0,7.4,0v-4.9h5.6v4.9a3.7,3.7,0,0,0,7.4,0v-4.9h5.6v4.9a3.7,3.7,0,0,0,7.4,0v-4.9h5.6v4.9a3.7,3.7,0,0,0,7.4,0v-4.9h5.6v4.9a3.7,3.7,0,0,0,7.4,0v-4.9H235a3.76,3.76,0,0,0,3.7-3.7A3.69,3.69,0,0,0,235,263.2Z"/><path class="e" d="M302.6,122.5l-36.2-3.6a7,7,0,0,0-4,.9,10.91,10.91,0,0,0-1.1-.6,5.64,5.64,0,0,0-1.2-.4,7.6,7.6,0,0,0-2-3.6L231.2,90.7a6.63,6.63,0,0,0-5.1-1.7,8,8,0,0,0-1.5.3c-.5.2-.9.4-1.4.6a7,7,0,0,0-2.6,3l-9.2,20.6-6.6,14.9h0l-2.5,5.7a10.55,10.55,0,0,0-.6,2.4,7.57,7.57,0,0,0,.1,1.5c.1.3.2.7.3,1a7.57,7.57,0,0,0,.9,1.8c.2.2.3.4.5.6a6.21,6.21,0,0,0,4.2,2L244,147h1.1a7.71,7.71,0,0,0,2.6-.7,5.39,5.39,0,0,0,1.3.7,7.84,7.84,0,0,0,1.4.5,7,7,0,0,0,1.9,3.2l26.9,24.5a6.63,6.63,0,0,0,5.1,1.7c.3,0,.5-.1.8-.1a6.7,6.7,0,0,0,1.8-.7,6.84,6.84,0,0,0,2.1-1.7,6.38,6.38,0,0,0,.8-1.4l9.2-20.6,9.2-20.6a10.55,10.55,0,0,0,.6-2.4A7.17,7.17,0,0,0,302.6,122.5Z"/><path class="g" d="M304.1,117.1l-36.2-3.6a6.67,6.67,0,0,0-6.7,3.9,6.59,6.59,0,0,0-1.6-7.6L232.7,85.3a6.65,6.65,0,0,0-10.5,2.2L213,108.1l-9.2,20.6a6.65,6.65,0,0,0,5.4,9.3l36.2,3.6a6.67,6.67,0,0,0,6.7-3.9h0a6.59,6.59,0,0,0,1.6,7.6l26.9,24.5a6.65,6.65,0,0,0,10.5-2.2l9.2-20.6,9.2-20.6A6.67,6.67,0,0,0,304.1,117.1Z"/><path class="e" d="M283.2,164.1l-26.9-24.5a6.59,6.59,0,0,1-1.6-7.6h0a6.67,6.67,0,0,1-6.7,3.9l-36.2-3.6a6.65,6.65,0,0,1-5.4-9.3l-2.5,5.7a6.65,6.65,0,0,0,5.4,9.3l36.2,3.6a6.67,6.67,0,0,0,6.7-3.9h0a6.59,6.59,0,0,0,1.6,7.6l26.9,24.5a6.65,6.65,0,0,0,10.5-2.2l2.5-5.7A6.6,6.6,0,0,1,283.2,164.1Z"/><path class="h" d="M256.7,127.6l4.5-10.1a6.67,6.67,0,0,1,6.7-3.9l36.2,3.6a6.65,6.65,0,0,1,5.4,9.3l-9.2,20.6-9.2,20.6a6.6,6.6,0,0,1-10.5,2.2l-26.9-24.5a6.59,6.59,0,0,1-1.6-7.6Z"/><path class="h" d="M256.7,127.6l-4.5,10.1a6.67,6.67,0,0,1-6.7,3.9L209.3,138a6.65,6.65,0,0,1-5.4-9.3l9.2-20.6,9.2-20.6a6.6,6.6,0,0,1,10.5-2.2l26.9,24.5a6.59,6.59,0,0,1,1.6,7.6Z"/><path class="i" d="M262.8,113.9h0a10,10,0,0,0-13.2,5.1l-4.1,9.1a10,10,0,0,0,5.1,13.2h0a10,10,0,0,0,13.2-5.1l4.1-9.1A10.09,10.09,0,0,0,262.8,113.9Z"/><path class="e" d="M252.6,136.7a10.09,10.09,0,0,1-5.1-13.2l-2.2,4.9a10,10,0,1,0,18.3,8.1l2.2-4.9A9.89,9.89,0,0,1,252.6,136.7Z"/><path class="h" d="M262.8,113.9h0a10,10,0,0,0-13.2,5.1l-4.1,9.1a10,10,0,0,0,5.1,13.2h0a10,10,0,0,0,13.2-5.1l4.1-9.1A10.09,10.09,0,0,0,262.8,113.9Z"/><line class="d" x1="266.4" y1="132" x2="265.1" y2="143.6"/><line class="d" x1="278.5" y1="126.2" x2="267.6" y2="130.4"/><line class="d" x1="267" y1="131.1" x2="274.5" y2="136.8"/><line class="d" x1="247.1" y1="122.4" x2="245.1" y2="110.8"/><line class="d" x1="237" y1="131.3" x2="246.4" y2="124.3"/><line class="d" x1="246.7" y1="123.4" x2="238" y2="120"/><path class="j" d="M209.6,128.3l15.8-35.7s2.3-7.7,10.2,2.8"/><path class="j" d="M260.3,117.4S254,114.2,249,132"/><circle class="f" cx="187.4" cy="236.7" r="4.4"/><circle class="f" cx="203.7" cy="236.7" r="4.4"/><circle class="k" cx="295.7" cy="242.3" r="1.7"/></svg>