<svg xmlns="http://www.w3.org/2000/svg" xmlns:xlink="http://www.w3.org/1999/xlink" viewBox="0 0 400 400"><defs><style>.a,.h{fill:none;}.b{fill:#ff7676;}.c,.i{fill:#333;isolation:isolate;}.c{opacity:0.2;}.d{clip-path:url(#a);}.e{fill:#fff;}.f{fill:#ff8724;}.g{fill:#ffe817;}.h{stroke:#333;stroke-linecap:round;stroke-miterlimit:10;stroke-width:3px;}.i{opacity:0.1;}.j{fill:url(#d);}</style><clipPath id="a"><path class="a" d="M178.5,78,87.4,267c-8.8,18.2,3.2,40.2,22,40.2H291.7c18.7,0,30.7-21.9,22-40.2L222.5,78c-9.4-19.4-34.6-19.4-44,0L87.4,267c-8.8,18.2,3.2,40.2,22,40.2H291.7c18.7,0,30.7-21.9,22-40.2L222.5,78C213.1,58.6,187.9,58.6,178.5,78Z"/></clipPath><linearGradient id="d" x1="287.48" y1="186.02" x2="291.37" y2="183.64" gradientTransform="matrix(1, 0, 0, -1, 0, 402)" gradientUnits="userSpaceOnUse"><stop offset="0" stop-color="#e34248"/><stop offset="1" stop-color="#9e55a0"/></linearGradient></defs><circle class="b" cx="200" cy="200" r="200"/><path class="c" d="M178.5,87,87.4,276c-8.8,18.2,3.2,40.2,22,40.2H291.7c18.7,0,30.7-21.9,22-40.2L222.5,87c-9.4-19.4-34.6-19.4-44,0L87.4,276c-8.8,18.2,3.2,40.2,22,40.2H291.7c18.7,0,30.7-21.9,22-40.2L222.5,87C213.1,67.6,187.9,67.6,178.5,87Z"/><g class="d"><rect class="e" x="84.4" y="63.5" width="232.1" height="81.2"/></g><g class="d"><rect class="f" x="84.4" y="144.7" width="232.1" height="81.2"/></g><g class="d"><rect class="g" x="84.4" y="225.9" width="232.1" height="81.2"/></g><path class="h" d="M285.8,209.4,222.5,78c-9.3-19.4-34.6-19.4-43.9,0L87.4,267c-8.8,18.2,3.2,40.2,22,40.2H291.7c18.7,0,30.7-21.9,22-40.2l-19.3-40"/><path class="h" d="M285.5,208.7,222.5,78c-9.3-19.4-34.6-19.4-43.9,0L87.4,267c-8.8,18.2,3.2,40.2,22,40.2H291.7c18.7,0,30.7-21.9,22-40.2L294,226.1"/><path class="i" d="M313.6,267,222.5,78c-7-14.6-23.1-18.2-34.6-10.8A26.21,26.21,0,0,1,197.2,78l91.2,189c8.8,18.2-3.2,40.2-22,40.2h25.3C310.4,307.2,322.4,285.2,313.6,267Z"/><circle class="j" cx="289.8" cy="217.4" r="1.7"/></svg>