<svg xmlns="http://www.w3.org/2000/svg" xmlns:xlink="http://www.w3.org/1999/xlink" viewBox="0 0 400 400"><defs><style>.a{fill:#ff7676;}.b,.f,.k{fill:#333;}.b,.m{opacity:0.3;}.c{fill:#ffbbf2;}.d{fill:#ffe79c;}.e,.g,.h,.i,.j,.l{fill:none;}.e,.g,.h,.i,.j{stroke:#333;}.e,.g,.j,.l{stroke-linecap:round;stroke-linejoin:round;}.e{stroke-width:2.71px;}.f{opacity:0.1;}.g,.i,.l{stroke-width:3.09px;}.h,.i{stroke-miterlimit:10;}.h,.j{stroke-width:3px;}.l{stroke:#383838;}.n{fill:url(#a);}</style><linearGradient id="a" x1="197.63" y1="311.71" x2="201.51" y2="314.1" gradientUnits="userSpaceOnUse"><stop offset="0" stop-color="#e34248"/><stop offset="1" stop-color="#9e55a0"/></linearGradient></defs><circle class="a" cx="200" cy="200" r="200"/><path class="b" d="M303.52,262.63c-.08-29.53-8.47-56.66-22.46-78.12,2.57-6.15,4.08-14.87,4.08-27.23,0-25.49-6.42-47.14-15.27-58.39-.52-.66-1-1.29-1.58-1.87a25.4,25.4,0,0,0-3-2.83L265,94c-.21-.17-.42-.34-.64-.49a14.4,14.4,0,0,0-8.76-3.25l-1,1.89.53.31L237.37,126,229,141.76a86.16,86.16,0,0,0-29.28-5h-.12c-1.32,0-2.63,0-3.94.11h-.2A86.59,86.59,0,0,0,170.11,142l-8.51-16L142.8,90.6h0a12.63,12.63,0,0,0-4.78,1c-.4.17-.81.35-1.21.55a17.67,17.67,0,0,0-2,1.22,22.37,22.37,0,0,0-2.9,2.39,41.81,41.81,0,0,0-7.67,10.87c-.35.68-.7,1.38-1,2.1s-.75,1.63-1.11,2.48q-.41.94-.78,1.92-1.08,2.75-2,5.76a115.82,115.82,0,0,0-4.13,18.74c-.41,3-.74,6.15-1,9.36-.15,2.23-.26,4.51-.31,6.82,0,1.15,0,2.31,0,3.48,0,12.92,1.65,21.88,4.42,28.06-13.71,21.48-21.85,48.51-21.77,77.86h0c.09,32.49,46.48,58.7,103.63,58.54h.11C257.36,321.58,303.61,295.12,303.52,262.63Z"/><path class="c" d="M143.67,82l18.81,35.4,18.8,35.39H143.67V190.3c-15.09,0-29-4.1-29-41.59S128.58,82,143.67,82Z"/><polygon class="d" points="143.68 82.02 143.68 117.42 143.68 152.81 143.68 152.81 181.28 152.81 162.48 117.42 143.68 82.02"/><path class="c" d="M257.05,82l-18.8,35.4-18.8,35.39h37.6V190.3c15.09,0,29-4.1,29-41.59S272.14,82,257.05,82Z"/><path class="e" d="M143.67,82l18.81,35.4,18.8,35.39H143.67V190.3c-15.09,0-29-4.1-29-41.59S128.58,82,143.67,82Z"/><path class="f" d="M256.52,81.69l-1,1.89c12.58,6.48,23,32.7,23,65.13,0,31-9.5,39.17-21.33,41.07V190c15.09-.09,28.95-4.28,28.72-41.76S271.62,81.59,256.52,81.69Z"/><path class="g" d="M257.05,82l-18.8,35.4-18.8,35.39h37.6V190.3c15.09,0,29-4.1,29-41.59S272.14,82,257.05,82Z"/><polygon class="d" points="257.05 82.02 257.05 117.42 257.05 152.81 257.05 152.81 219.44 152.81 238.25 117.42 257.05 82.02"/><path class="h" d="M143.67,82h0c-15.09,0-29,29.2-29,66.69s13.88,41.59,29,41.59V152.81h37.61l-18.8-35.39Z"/><path class="i" d="M257.05,82h0l-18.8,35.4-18.8,35.39h37.6V190.3c15.09,0,29-4.1,29-41.59S272.14,82,257.05,82Z"/><path class="d" d="M200.47,128.14c-57.14.16-103.31,56.79-103.12,126.48h0c.09,32.49,46.49,58.7,103.63,58.55s103.4-26.63,103.31-59.12C304.09,184.35,257.61,128,200.47,128.14Z"/><path class="j" d="M209.61,313c53.15-2.61,94.88-28,94.79-58.9-.19-69.7-46.67-126.07-103.82-125.91S97.27,184.93,97.47,254.62h0c.08,30.46,40.86,55.4,93.05,58.27"/><circle class="k" cx="148.9" cy="231.44" r="12.76"/><ellipse class="c" cx="144.69" cy="256.54" rx="20.09" ry="6.95"/><circle class="k" cx="251.82" cy="231.44" r="12.76"/><ellipse class="c" cx="256.03" cy="256.54" rx="20.09" ry="6.95"/><path class="c" d="M200.37,280.52l-.29-.18c-.06,0-5.51-3.57-7.57-6.47-2.39-3.37-1.7-5.91-1.07-7.12a5.65,5.65,0,0,1,5-3,5.47,5.47,0,0,1,3.93,1.66,5.49,5.49,0,0,1,3.93-1.66,5.65,5.65,0,0,1,5,3c.63,1.21,1.33,3.75-1.06,7.12-2.06,2.9-7.51,6.43-7.57,6.47Z"/><line class="l" x1="217.27" y1="264.76" x2="328.91" y2="228.61"/><line class="l" x1="217.88" y1="272.14" x2="327.39" y2="272.14"/><line class="l" x1="216.66" y1="280.52" x2="327.39" y2="315.68"/><line class="l" x1="182.73" y1="264.76" x2="71.09" y2="228.61"/><line class="l" x1="182.12" y1="272.14" x2="72.61" y2="272.14"/><line class="l" x1="183.34" y1="280.52" x2="72.61" y2="315.68"/><g class="m"><line class="g" x1="217.27" y1="267.39" x2="328.91" y2="231.24"/><line class="g" x1="217.88" y1="274.77" x2="327.39" y2="274.77"/><line class="g" x1="216.66" y1="283.15" x2="327.39" y2="318.32"/></g><g class="m"><line class="g" x1="182.73" y1="267.39" x2="71.09" y2="231.24"/><line class="g" x1="182.12" y1="274.77" x2="72.61" y2="274.77"/><line class="g" x1="183.34" y1="283.15" x2="72.61" y2="318.32"/></g><circle class="n" cx="200" cy="313.17" r="1.67"/></svg>