<svg xmlns="http://www.w3.org/2000/svg" xmlns:xlink="http://www.w3.org/1999/xlink" viewBox="0 0 400 400"><defs><style>.a{fill:#ffb57d;}.b,.d,.g{fill:#333;}.b{opacity:0.2;}.b,.d{isolation:isolate;}.c{fill:#f4f4f4;}.d{opacity:0.1;}.e{fill:none;stroke:#333;stroke-linecap:round;stroke-miterlimit:10;stroke-width:3px;}.f{fill:#f6b8ff;}.h{fill:url(#a);}</style><linearGradient id="a" x1="302.64" y1="203.65" x2="306.52" y2="201.26" gradientTransform="matrix(1, 0, 0, -1, 0, 402)" gradientUnits="userSpaceOnUse"><stop offset="0" stop-color="#e34248"/><stop offset="1" stop-color="#9e55a0"/></linearGradient></defs><circle class="a" cx="200" cy="200" r="200"/><circle class="b" cx="200" cy="215" r="105"/><circle class="c" cx="200" cy="199.8" r="105"/><path class="d" d="M288.6,143.8a105,105,0,0,1-185.3,97.4,105,105,0,1,0,185.3-97.4Z"/><path class="e" d="M304.5,210.1a105,105,0,1,1,0-20.7"/><circle class="f" cx="200" cy="199.8" r="62.9"/><path class="d" d="M240.3,151.6a62.91,62.91,0,0,1-88.6,88.6,62.9,62.9,0,1,0,88.6-88.6Z"/><circle class="g" cx="200" cy="199.8" r="33.2"/><circle class="c" cx="166.8" cy="171.8" r="26.7"/><circle class="h" cx="305" cy="199.8" r="1.7"/></svg>