<svg xmlns="http://www.w3.org/2000/svg" viewBox="0 0 400 400"><defs><style>.a{fill:#a97dff;}.b{fill:#fff;}.c{fill:none;stroke:#fff;stroke-linecap:round;stroke-miterlimit:10;stroke-width:3px;}</style></defs><circle class="a" cx="200" cy="200" r="200"/><path class="b" d="M99.7,237.7a51,51,0,0,0,61-38.4L61.3,176.7A50.84,50.84,0,0,0,99.7,237.7Z"/><path class="b" d="M300.3,237.7a51,51,0,0,1-61-38.4l99.4-22.6A50.84,50.84,0,0,1,300.3,237.7Z"/><polygon class="b" points="115.5 335 113.1 319 110.6 303.1 125.7 308.9 140.7 314.8 128.1 324.9 115.5 335"/><polygon class="b" points="277.8 336.5 280.2 320.5 282.6 304.5 267.5 310.5 252.5 316.4 265.2 326.5 277.8 336.5"/><path class="c" d="M89.3,287.3c19.3,19.8,61.6,33.5,110.7,33.4s91.4-14,110.6-33.8"/><circle class="b" cx="190.2" cy="247.7" r="3.3"/><circle class="b" cx="209.8" cy="247.7" r="3.3"/></svg>