<svg xmlns="http://www.w3.org/2000/svg" viewBox="0 0 400 400"><defs><style>.a{fill:#ff7676;}.b{fill:#333;}</style></defs><circle class="a" cx="200" cy="200" r="200"/><path class="b" d="M339.94,176.66c-1.18,10.15-6.68,19.71-15.58,28.25l-7.6,13.16-8,13.81-6.56-11.36c-25.62,13.68-62,22.24-102.48,22.24s-77-8.59-102.63-22.32l-6.61,11.44-8-13.81-7.87-13.62c-8.61-8.43-14-17.83-15.1-27.79-.16,2.72-.26,5.46-.26,8.23a140.33,140.33,0,0,0,69.22,121l1.86-3.21,10.66-18.48,10.67,18.48,10,17.38a140.35,140.35,0,0,0,75.52.13l10.11-17.51,10.67-18.48,10.67,18.48,1.95,3.38a140.34,140.34,0,0,0,69.51-121.2C340.19,182.12,340.09,179.38,339.94,176.66Z"/><path class="b" d="M139.55,152l-19.84-34.11-19.62,34.23-19.72,2.58a39.46,39.46,0,1,0,78.92-.24Z"/><path class="b" d="M299.9,152l-19.84-34.11-19.62,34.23-19.73,2.58a39.46,39.46,0,1,0,78.92-.24Z"/><circle class="b" cx="190.18" cy="197.84" r="3.26"/><circle class="b" cx="209.82" cy="197.84" r="3.26"/></svg>