<svg xmlns="http://www.w3.org/2000/svg" xmlns:xlink="http://www.w3.org/1999/xlink" viewBox="0 0 400 400"><defs><style>.a{fill:#a97dff;}.b,.h,.j{fill:#333;}.b{opacity:0.2;}.b,.j{isolation:isolate;}.c{fill:#ddd;}.d{fill:#eaeaea;}.e,.f{fill:none;stroke:#333;stroke-miterlimit:10;stroke-width:3px;}.e{stroke-linecap:round;}.g,.j{opacity:0.1;}.i{fill:#8bf795;}.k{fill:#ffc5f3;}.l{fill:url(#a);}</style><linearGradient id="a" x1="332.42" y1="193.86" x2="336.31" y2="191.47" gradientTransform="matrix(1, 0, 0, -1, 0, 402)" gradientUnits="userSpaceOnUse"><stop offset="0" stop-color="#e34248"/><stop offset="1" stop-color="#9e55a0"/></linearGradient></defs><circle class="a" cx="200" cy="200" r="200"/><path class="b" d="M329.4,187.8l-20,.1a5.19,5.19,0,0,0-5.2,5.3l.1,9.4a27.1,27.1,0,0,0-4-.4H298l-.3-46.4v-3.4l-.1-17.1v-4.1a20.12,20.12,0,0,0-20.1-19.9l-155.8.9a20.12,20.12,0,0,0-19.9,20.1v4.1l.1,17.1v5l.3,45H99.9a25.81,25.81,0,0,0-4,.4l-.1-9.4a5.19,5.19,0,0,0-5.3-5.2l-20,.1a5.19,5.19,0,0,0-5.2,5.3l.3,55.4v6.6h0a5.19,5.19,0,0,0,5.3,5.2l20-.1a5.19,5.19,0,0,0,5.2-5.3h0v-9.4h.3a7.72,7.72,0,0,0,1.5.2h10.4c13.9,37.6,50.2,64.5,92.5,64.3h0a98.24,98.24,0,0,0,91.7-65.4h8.6a4.87,4.87,0,0,0,1.2-.1h.6c.5-.1,1-.1,1.5-.2h.3v9.4h0a5.19,5.19,0,0,0,5.3,5.2l20-.1a5.19,5.19,0,0,0,5.2-5.3h0v-6.6l-.3-55.4A5.57,5.57,0,0,0,329.4,187.8Z"/><path class="c" d="M300.2,191.4H99.8a22.06,22.06,0,0,0-22,22h0a22.06,22.06,0,0,0,22,22H300.2a22.06,22.06,0,0,0,22-22h0A22.06,22.06,0,0,0,300.2,191.4Z"/><path class="d" d="M90.5,249.7h-20a5.34,5.34,0,0,1-5.3-5.3V182.3a5.34,5.34,0,0,1,5.3-5.3h20a5.34,5.34,0,0,1,5.3,5.3v62.1A5.27,5.27,0,0,1,90.5,249.7Z"/><path class="d" d="M329.5,249.7h-20a5.34,5.34,0,0,1-5.3-5.3V182.3a5.34,5.34,0,0,1,5.3-5.3h20a5.34,5.34,0,0,1,5.3,5.3v62.1A5.27,5.27,0,0,1,329.5,249.7Z"/><path class="e" d="M334.8,219.3v25.2a5.34,5.34,0,0,1-5.3,5.3h-20a5.34,5.34,0,0,1-5.3-5.3V182.4a5.34,5.34,0,0,1,5.3-5.3h20a5.34,5.34,0,0,1,5.3,5.3V200"/><path class="f" d="M90.5,249.7h-20a5.34,5.34,0,0,1-5.3-5.3V182.3a5.34,5.34,0,0,1,5.3-5.3h20a5.34,5.34,0,0,1,5.3,5.3v62.1A5.27,5.27,0,0,1,90.5,249.7Z"/><g class="g"><path class="h" d="M304.2,228.5a25.81,25.81,0,0,1-4,.4H99.8a17.52,17.52,0,0,1-4-.4v6.6a25.81,25.81,0,0,0,4,.4H300.2a17.52,17.52,0,0,0,4-.4Z"/><path class="h" d="M90.5,243.1h-20a5.34,5.34,0,0,1-5.3-5.3v6.6a5.34,5.34,0,0,0,5.3,5.3h20a5.34,5.34,0,0,0,5.3-5.3v-6.6A5.34,5.34,0,0,1,90.5,243.1Z"/><path class="h" d="M329.5,243.1h-20a5.34,5.34,0,0,1-5.3-5.3v6.6a5.34,5.34,0,0,0,5.3,5.3h20a5.34,5.34,0,0,0,5.3-5.3v-6.6A5.34,5.34,0,0,1,329.5,243.1Z"/></g><path class="i" d="M277.9,104.4H122.1a20.06,20.06,0,0,0-20,20v77.9c0,53.8,44.1,97.9,97.9,97.9h0c53.8,0,97.9-44.1,97.9-97.9V124.4A20.06,20.06,0,0,0,277.9,104.4Z"/><path class="f" d="M277.9,104.4H122.1a20.06,20.06,0,0,0-20,20v77.9c0,53.8,44.1,97.9,97.9,97.9h0c53.8,0,97.9-44.1,97.9-97.9V124.4A20.06,20.06,0,0,0,277.9,104.4Z"/><path class="j" d="M200,292.8h0c-53.8,0-97.9-44.1-97.9-97.9v7.5c0,53.8,44.1,97.9,97.9,97.9h0c53.8,0,97.9-44.1,97.9-97.9v-7.5C297.9,248.8,253.8,292.8,200,292.8Z"/><path class="h" d="M297.9,120.3a20.06,20.06,0,0,0-20-20H122.1a20.06,20.06,0,0,0-20,20v21.2h.1a7,7,0,0,0,1,5l6.8,11.8,6.8,11.8a7.79,7.79,0,0,0,13.5,0l6.8-11.8,5.6-9.6,5.6,9.6,6.8,11.8a7.79,7.79,0,0,0,13.5,0l6.8-11.8,5.6-9.6,5.6,9.6,6.8,11.8a7.79,7.79,0,0,0,13.5,0l6.8-11.8,5.6-9.6,5.6,9.6,6.8,11.8a7.79,7.79,0,0,0,13.5,0l6.8-11.8,5.6-9.6,5.6,9.6,6.8,11.8a7.79,7.79,0,0,0,13.5,0l6.8-11.8,6.8-11.8a8.23,8.23,0,0,0,1-5h.1V120.3Z"/><path class="j" d="M297.9,123.7a20.06,20.06,0,0,0-20-20H122.1a20.06,20.06,0,0,0-20,20V145h.1a7,7,0,0,0,1,5l6.8,11.8,6.8,11.8a7.79,7.79,0,0,0,13.5,0l6.8-11.8,5.6-9.6,5.6,9.6,6.8,11.8a7.79,7.79,0,0,0,13.5,0l6.8-11.8,5.6-9.6,5.6,9.6,6.8,11.8a7.79,7.79,0,0,0,13.5,0l6.8-11.8,5.6-9.6,5.6,9.6,6.8,11.8a7.79,7.79,0,0,0,13.5,0l6.8-11.8,5.6-9.6,5.6,9.6,6.8,11.8a7.79,7.79,0,0,0,13.5,0l6.8-11.8,6.8-11.8a8.23,8.23,0,0,0,1-5h.1V123.7Z"/><path class="h" d="M283.4,187H116.6a1.9,1.9,0,0,0-1.9,1.9h0a1.9,1.9,0,0,0,1.9,1.9H283.4a1.9,1.9,0,0,0,1.9-1.9h0A1.9,1.9,0,0,0,283.4,187Z"/><path class="h" d="M130.1,193.9V184a2.65,2.65,0,0,0-2.6-2.6h0a2.65,2.65,0,0,0-2.6,2.6v9.9a2.65,2.65,0,0,0,2.6,2.6h0A2.58,2.58,0,0,0,130.1,193.9Z"/><path class="h" d="M142.2,193.9V184a2.65,2.65,0,0,0-2.6-2.6h0A2.65,2.65,0,0,0,137,184v9.9a2.65,2.65,0,0,0,2.6,2.6h0A2.65,2.65,0,0,0,142.2,193.9Z"/><path class="h" d="M154.3,193.9V184a2.65,2.65,0,0,0-2.6-2.6h0a2.65,2.65,0,0,0-2.6,2.6v9.9a2.65,2.65,0,0,0,2.6,2.6h0A2.65,2.65,0,0,0,154.3,193.9Z"/><path class="h" d="M166.4,193.9V184a2.65,2.65,0,0,0-2.6-2.6h0a2.65,2.65,0,0,0-2.6,2.6v9.9a2.65,2.65,0,0,0,2.6,2.6h0A2.65,2.65,0,0,0,166.4,193.9Z"/><path class="h" d="M178.5,193.9V184a2.65,2.65,0,0,0-2.6-2.6h0a2.65,2.65,0,0,0-2.6,2.6v9.9a2.65,2.65,0,0,0,2.6,2.6h0A2.65,2.65,0,0,0,178.5,193.9Z"/><path class="h" d="M190.5,193.9V184a2.65,2.65,0,0,0-2.6-2.6h0a2.65,2.65,0,0,0-2.6,2.6v9.9a2.65,2.65,0,0,0,2.6,2.6h0A2.58,2.58,0,0,0,190.5,193.9Z"/><path class="h" d="M202.6,193.9V184a2.65,2.65,0,0,0-2.6-2.6h0a2.65,2.65,0,0,0-2.6,2.6v9.9a2.65,2.65,0,0,0,2.6,2.6h0A2.65,2.65,0,0,0,202.6,193.9Z"/><path class="h" d="M214.7,193.8v-9.9a2.65,2.65,0,0,0-2.6-2.6h0a2.65,2.65,0,0,0-2.6,2.6v9.9a2.65,2.65,0,0,0,2.6,2.6h0A2.58,2.58,0,0,0,214.7,193.8Z"/><path class="h" d="M226.8,193.9V184a2.65,2.65,0,0,0-2.6-2.6h0a2.65,2.65,0,0,0-2.6,2.6v9.9a2.65,2.65,0,0,0,2.6,2.6h0A2.65,2.65,0,0,0,226.8,193.9Z"/><path class="h" d="M238.9,193.9V184a2.65,2.65,0,0,0-2.6-2.6h0a2.65,2.65,0,0,0-2.6,2.6v9.9a2.65,2.65,0,0,0,2.6,2.6h0A2.65,2.65,0,0,0,238.9,193.9Z"/><path class="h" d="M250.9,193.9V184a2.65,2.65,0,0,0-2.6-2.6h0a2.65,2.65,0,0,0-2.6,2.6v9.9a2.65,2.65,0,0,0,2.6,2.6h0A2.58,2.58,0,0,0,250.9,193.9Z"/><path class="h" d="M263,194.3V183.6a2.22,2.22,0,0,0-2.2-2.2H260a2.22,2.22,0,0,0-2.2,2.2v10.7a2.22,2.22,0,0,0,2.2,2.2h.8A2.22,2.22,0,0,0,263,194.3Z"/><path class="h" d="M275.1,194.3V183.6a2.22,2.22,0,0,0-2.2-2.2h-.8a2.22,2.22,0,0,0-2.2,2.2v10.7a2.22,2.22,0,0,0,2.2,2.2h.8A2.22,2.22,0,0,0,275.1,194.3Z"/><path class="h" d="M151.5,242.5c11.5,0,20.8-13.8,20.8-30.8H130.6C130.6,228.7,140,242.5,151.5,242.5Z"/><path class="h" d="M248.5,242.5c11.5,0,20.8-13.8,20.8-30.8H227.6C227.7,228.7,237,242.5,248.5,242.5Z"/><ellipse class="k" cx="249.1" cy="256.3" rx="18.6" ry="9.3"/><ellipse class="k" cx="150.9" cy="256.3" rx="18.6" ry="9.3"/><circle class="h" cx="195.5" cy="241.5" r="1.9"/><circle class="h" cx="204.5" cy="241.5" r="1.9"/><path class="f" d="M334.8,199.4l-.1-17.8a5.19,5.19,0,0,0-5.3-5.2l-20,.1a5.19,5.19,0,0,0-5.2,5.3l.1,9.4a27.1,27.1,0,0,0-4-.4H298l-.3-46.4V141l-.1-17.1v-4.1a20.12,20.12,0,0,0-20.1-19.9l-155.8.9a20.12,20.12,0,0,0-19.9,20.1V125l.1,17.1v5l.3,45H99.9a25.81,25.81,0,0,0-4,.4l-.1-9.4a5.19,5.19,0,0,0-5.3-5.2l-20,.1a5.19,5.19,0,0,0-5.2,5.3l.3,55.4v6.6h0a5.19,5.19,0,0,0,5.3,5.2l20-.1a5.19,5.19,0,0,0,5.2-5.3h0v-9.4h.3a7.72,7.72,0,0,0,1.5.2h10.4c13.9,37.6,50.2,64.5,92.5,64.3h0a98.24,98.24,0,0,0,91.7-65.4h8.6a4.87,4.87,0,0,0,1.2-.1h.6c.5-.1,1-.1,1.5-.2h.3v9.4h0a5.19,5.19,0,0,0,5.3,5.2l20-.1a5.19,5.19,0,0,0,5.2-5.3h0v-6.6l-.1-17.1"/><circle class="l" cx="334.8" cy="209.6" r="1.7"/></svg>