<svg xmlns="http://www.w3.org/2000/svg" xmlns:xlink="http://www.w3.org/1999/xlink" viewBox="0 0 400 400"><defs><style>.a,.q{fill:none;}.b{fill:#a97dff;}.c,.d,.f{fill:#333;}.c{opacity:0.2;}.c,.f{isolation:isolate;}.e{fill:#f4f4f4;}.f{opacity:0.1;}.g{fill:#5fd852;}.h{clip-path:url(#a);}.i{fill:#c6c6c6;}.j{fill:#bababa;}.k{fill:#e0e0e0;}.l{fill:#f7f7f7;}.m{fill:#969696;}.n{fill:#d8d8d8;}.o{fill:#eae8ea;}.p{fill:#fff;}.q{stroke:#333;stroke-linecap:round;stroke-miterlimit:10;stroke-width:3px;}.r{fill:url(#n);}</style><clipPath id="a"><path class="a" d="M199.9,319.7h0c-59.2,0-107.7-48.5-107.7-107.7V176.8c0-53.5,43.8-97.2,97.2-97.2h20.9c53.5,0,97.2,43.8,97.2,97.2V212C307.6,271.2,259.2,319.7,199.9,319.7Z"/></clipPath><linearGradient id="n" x1="303.63" y1="172.46" x2="307.52" y2="170.07" gradientTransform="matrix(1, 0, 0, -1, 0, 402)" gradientUnits="userSpaceOnUse"><stop offset="0" stop-color="#e34248"/><stop offset="1" stop-color="#9e55a0"/></linearGradient></defs><circle class="b" cx="200" cy="200" r="200"/><path class="c" d="M199.9,331.3h0c-59.2,0-107.7-48.5-107.7-107.7V188.4c0-53.5,43.8-97.2,97.2-97.2h20.9c53.5,0,97.2,43.8,97.2,97.2v35.2C307.6,282.8,259.2,331.3,199.9,331.3Z"/><path class="d" d="M199.9,319.7h0c-59.2,0-107.7-48.5-107.7-107.7V176.8c0-53.5,43.8-97.2,97.2-97.2h20.9c53.5,0,97.2,43.8,97.2,97.2V212C307.6,271.2,259.2,319.7,199.9,319.7Z"/><circle class="e" cx="146.7" cy="191.7" r="46.5"/><path class="f" d="M186,166.9a45.76,45.76,0,0,1,3.7,18.1A46.49,46.49,0,0,1,104,210a46.48,46.48,0,1,0,82-43.1Z"/><circle class="g" cx="146.7" cy="191.7" r="27.8"/><path class="f" d="M164.6,170.3a27.75,27.75,0,0,1-21.3,45.6,27.22,27.22,0,0,1-17.8-6.5,27.83,27.83,0,0,0,49.2-17.8A28.21,28.21,0,0,0,164.6,170.3Z"/><circle class="d" cx="146.7" cy="191.7" r="14.7"/><circle class="e" cx="132" cy="179.2" r="11.8"/><g class="h"><path class="i" d="M335.9,195.5,169.2,369.4a21.58,21.58,0,0,1-30.4.6h0a21.58,21.58,0,0,1-.6-30.4L305,165.7a21.58,21.58,0,0,1,30.4-.6h0A21.67,21.67,0,0,1,335.9,195.5Z"/></g><g class="h"><path class="j" d="M265.8,117.8H135.2a20,20,0,0,1-19.9-19.9h0A20,20,0,0,1,135.2,78H265.8a20,20,0,0,1,19.9,19.9h0A19.89,19.89,0,0,1,265.8,117.8Z"/></g><g class="h"><path class="k" d="M281.7,149.8,107.6,165.5A19.88,19.88,0,0,1,86,147.4h0a19.88,19.88,0,0,1,18.1-21.6l174.1-15.7a19.88,19.88,0,0,1,21.6,18.1h0A20,20,0,0,1,281.7,149.8Z"/></g><g class="h"><path class="l" d="M285.3,177.1,119,134.5a21.56,21.56,0,0,1-15.5-26.2h0a21.56,21.56,0,0,1,26.2-15.5L296,135.4a21.56,21.56,0,0,1,15.5,26.2h0A21.69,21.69,0,0,1,285.3,177.1Z"/></g><g class="h"><path class="m" d="M337,303.4,96.5,317.5a21.48,21.48,0,0,1-22.7-20.2h0A21.48,21.48,0,0,1,94,274.6l240.5-14.1a21.48,21.48,0,0,1,22.7,20.2h0A21.55,21.55,0,0,1,337,303.4Z"/></g><g class="h"><path class="f" d="M326,274.9l-240.9-3a21.62,21.62,0,0,1-21.3-21.8h0a21.62,21.62,0,0,1,21.8-21.3l240.9,3a21.62,21.62,0,0,1,21.3,21.8h0A21.62,21.62,0,0,1,326,274.9Z"/></g><g class="h"><path class="n" d="M326,271.4l-240.9-3a21.62,21.62,0,0,1-21.3-21.8h0a21.62,21.62,0,0,1,21.8-21.3l240.9,3a21.62,21.62,0,0,1,21.3,21.8h0A21.62,21.62,0,0,1,326,271.4Z"/></g><g class="h"><path class="f" d="M326,344.2,90.6,292.7a21.48,21.48,0,0,1-16.4-25.6h0a21.48,21.48,0,0,1,25.6-16.4l235.4,51.5a21.48,21.48,0,0,1,16.4,25.6h0A21.58,21.58,0,0,1,326,344.2Z"/></g><g class="h"><path class="o" d="M326,340,90.6,288.6A21.48,21.48,0,0,1,74.2,263h0a21.48,21.48,0,0,1,25.6-16.4L335.2,298a21.48,21.48,0,0,1,16.4,25.6h0A21.43,21.43,0,0,1,326,340Z"/></g><g class="h"><path class="f" d="M329.4,209,96.7,271.5a21.65,21.65,0,0,1-26.4-15.2h0a21.65,21.65,0,0,1,15.2-26.4l232.7-62.5a21.65,21.65,0,0,1,26.4,15.2h0A21.6,21.6,0,0,1,329.4,209Z"/></g><g class="h"><path class="l" d="M329.4,206.3,96.7,268.8a21.65,21.65,0,0,1-26.4-15.2h0a21.65,21.65,0,0,1,15.2-26.4l232.7-62.5a21.65,21.65,0,0,1,26.4,15.2h0A21.65,21.65,0,0,1,329.4,206.3Z"/></g><g class="h"><path class="f" d="M320.3,198.9,80.4,176.7a21.67,21.67,0,0,1-19.5-23.4h0a21.67,21.67,0,0,1,23.4-19.5l240,22.2a21.67,21.67,0,0,1,19.5,23.4h0A21.75,21.75,0,0,1,320.3,198.9Z"/></g><g class="h"><path class="p" d="M324.2,195,84.3,172.9a21.67,21.67,0,0,1-19.5-23.4h0A21.67,21.67,0,0,1,88.2,130l239.9,22.1a21.67,21.67,0,0,1,19.5,23.4h0A21.58,21.58,0,0,1,324.2,195Z"/></g><path class="q" d="M303.9,240.2c-12.5,45.7-54.4,79.5-103.9,79.5h0c-59.2,0-107.7-48.5-107.7-107.7V176.8c0-53.5,43.8-97.2,97.2-97.2h20.9c53.5,0,97.2,43.8,97.2,97.2V212c0,3.2-.1,6.3-.4,9.4"/><circle class="r" cx="306" cy="231" r="1.7"/></svg>