<svg xmlns="http://www.w3.org/2000/svg" xmlns:xlink="http://www.w3.org/1999/xlink" viewBox="0 0 400 400"><defs><style>.a{fill:#ffb57d;}.b,.f,.g{fill:#333;}.b{opacity:0.2;}.b,.f{isolation:isolate;}.c{fill:#ff2463;}.d,.h,.i{fill:none;stroke:#333;stroke-width:3px;}.d,.h{stroke-miterlimit:10;}.e{fill:#f4f4f4;}.f{opacity:0.1;}.h,.i{stroke-linecap:round;}.i{stroke-linejoin:round;}.j{fill:url(#a);}</style><linearGradient id="a" x1="289.42" y1="144.56" x2="293.31" y2="142.18" gradientTransform="matrix(1, 0, 0, -1, 0, 402)" gradientUnits="userSpaceOnUse"><stop offset="0" stop-color="#e34248"/><stop offset="1" stop-color="#9e55a0"/></linearGradient></defs><circle class="a" cx="200" cy="200" r="200"/><path class="b" d="M110.7,163.6a105,105,0,1,0,178.6,0Z"/><path class="c" d="M265,123.7a23.28,23.28,0,0,0-5.3.6v-.6a24.37,24.37,0,0,0-24.4-24.4,29.37,29.37,0,0,0-5.1.5A24.26,24.26,0,0,0,213,92.7a25.2,25.2,0,0,0-4.8.5,24,24,0,0,0-15.7-5.7,24.36,24.36,0,0,0-17.1,7,25,25,0,0,0-9.1-1.8,24.37,24.37,0,0,0-24.4,24.4,22.42,22.42,0,0,0,.6,5.2,25.88,25.88,0,0,0-6.3-.8,24.4,24.4,0,1,0,0,48.8,24,24,0,0,0,12.2-3.3,24.26,24.26,0,0,0,26.7-1.5,24.42,24.42,0,0,0,42.2-3.6,24.51,24.51,0,0,0,33.9,6.4,23.88,23.88,0,0,0,13.7,4.2,24.4,24.4,0,0,0,.1-48.8Z"/><path class="d" d="M265,123.7a23.28,23.28,0,0,0-5.3.6v-.6a24.37,24.37,0,0,0-24.4-24.4,29.37,29.37,0,0,0-5.1.5A24.26,24.26,0,0,0,213,92.7a25.2,25.2,0,0,0-4.8.5,24,24,0,0,0-15.7-5.7,24.36,24.36,0,0,0-17.1,7,25,25,0,0,0-9.1-1.8,24.37,24.37,0,0,0-24.4,24.4,22.42,22.42,0,0,0,.6,5.2,25.88,25.88,0,0,0-6.3-.8,24.4,24.4,0,1,0,0,48.8,24,24,0,0,0,12.2-3.3,24.26,24.26,0,0,0,26.7-1.5,24.42,24.42,0,0,0,42.2-3.6,24.51,24.51,0,0,0,33.9,6.4,23.88,23.88,0,0,0,13.7,4.2,24.4,24.4,0,0,0,.1-48.8Z"/><path class="e" d="M110.7,152.3a105,105,0,1,0,178.6,0Z"/><path class="f" d="M200,297.2A104.91,104.91,0,0,1,95.3,199.7q-.3,3.9-.3,7.8a105,105,0,0,0,210,0c0-2.6-.1-5.3-.3-7.8A105,105,0,0,1,200,297.2Z"/><ellipse class="g" cx="154" cy="202.7" rx="19.8" ry="29.2"/><ellipse class="g" cx="246" cy="202.7" rx="19.8" ry="29.2"/><path class="g" d="M240,259.3h-3.8v-4.9a3.7,3.7,0,1,0-7.4,0v4.9h-5.6v-4.9a3.7,3.7,0,1,0-7.4,0v4.9h-5.6v-4.9a3.7,3.7,0,1,0-7.4,0v4.9h-5.6v-4.9a3.7,3.7,0,1,0-7.4,0v4.9h-5.6v-4.9a3.7,3.7,0,1,0-7.4,0v4.9h-5.6v-4.9a3.7,3.7,0,1,0-7.4,0v4.9h-2.6a3.7,3.7,0,0,0,0,7.4h2.6v4.9a3.7,3.7,0,0,0,7.4,0v-4.9h5.6v4.9a3.7,3.7,0,0,0,7.4,0v-4.9h5.6v4.9a3.7,3.7,0,0,0,7.4,0v-4.9h5.6v4.9a3.7,3.7,0,0,0,7.4,0v-4.9h5.6v4.9a3.7,3.7,0,0,0,7.4,0v-4.9h5.6v4.9a3.7,3.7,0,0,0,7.4,0v-4.9H240a3.76,3.76,0,0,0,3.7-3.7A3.69,3.69,0,0,0,240,259.3Z"/><path class="h" d="M156.4,117.5s-1.8-7.2,5.5-9.2a7.37,7.37,0,0,1,5.6.9c1.7.9,5,1,10.9-4.9"/><path class="i" d="M225.5,111.5s11.9-1.3,13.2,6.9a6.16,6.16,0,0,0,2,3.9c2,1.6,5.4,2.7,10.5-2.4"/><path class="i" d="M128.2,136.5s4.6-8.8,13.3,0"/><polyline class="i" points="111.8 239.4 120 246.5 121.1 256.1 125.2 259.6"/><line class="i" x1="208.1" y1="176.1" x2="213.5" y2="182.1"/><line class="i" x1="208.1" y1="164.9" x2="219" y2="176.1"/><path class="i" d="M190,125.9s7.9-2.8,9.9,6.4c0,0,7.6-8.2,15.3-3.2"/><path class="h" d="M296.4,249.1a105.3,105.3,0,0,0,8.6-41.6,104.21,104.21,0,0,0-15.7-55.2H110.7A105,105,0,0,0,286,267.7"/><circle class="j" cx="291.8" cy="258.9" r="1.7"/><circle class="g" cx="191.9" cy="237.5" r="4.4"/><circle class="g" cx="208.1" cy="237.5" r="4.4"/></svg>