<svg xmlns="http://www.w3.org/2000/svg" xmlns:xlink="http://www.w3.org/1999/xlink" viewBox="0 0 400 400"><defs><style>.a{fill:#ffb57d;}.b,.d,.k{fill:#333;}.b{opacity:0.2;}.b,.d{isolation:isolate;}.c{fill:#d571ff;}.d{opacity:0.1;}.e,.l,.m{fill:none;stroke:#333;stroke-width:3px;}.e,.m{stroke-miterlimit:10;}.f{fill:#f5ff27;}.g{fill:#57ff86;}.h{fill:#29c3ff;}.i{fill:#ff2463;}.j{fill:#f4f4f4;}.l,.m{stroke-linecap:round;}.l{stroke-linejoin:round;}.n{fill:url(#a);}</style><linearGradient id="a" x1="297.23" y1="132.76" x2="301.12" y2="130.37" gradientTransform="matrix(1, 0, 0, -1, 0, 402)" gradientUnits="userSpaceOnUse"><stop offset="0" stop-color="#e34248"/><stop offset="1" stop-color="#9e55a0"/></linearGradient></defs><circle class="a" cx="200" cy="200" r="200"/><path class="b" d="M118.5,177.1a105,105,0,1,0,178.6,0Z"/><path class="c" d="M220.6,133a5.46,5.46,0,0,0,.9-9.8L203.2,112,182.7,99.5a5.48,5.48,0,0,0-8.3,4.1l-1.9,19.8-1.9,19.8a5.45,5.45,0,0,0,7.4,5.6l22.5-8.4Z"/><path class="c" d="M234.4,134.4a5.49,5.49,0,0,1,.9-9.8l20.1-7.5,22.5-8.4a5.51,5.51,0,0,1,7.4,5.6l-1.9,19.8-1.9,19.8a5.44,5.44,0,0,1-8.3,4.1l-20.5-12.5Z"/><path class="d" d="M221.1,128,201,135.5l-22.5,8.4a5.51,5.51,0,0,1-7.4-5.6l-.5,5a5.45,5.45,0,0,0,7.4,5.6l22.5-8.4,20.1-7.5a5.56,5.56,0,0,0,3.2-7.2A5,5,0,0,1,221.1,128Z"/><path class="d" d="M273.7,153.1l-20.5-12.5-18.3-11.2a5.43,5.43,0,0,1-2.2-2.6,5.46,5.46,0,0,0,1.7,7.6l18.3,11.2,20.5,12.5a5.48,5.48,0,0,0,8.3-4.1l.5-5A5.52,5.52,0,0,1,273.7,153.1Z"/><circle class="c" cx="228" cy="128.8" r="19.5"/><path class="d" d="M226.8,141.5a19.54,19.54,0,0,1-17.6-17.8,19.72,19.72,0,0,0-.7,3.5,19.54,19.54,0,0,0,38.9,3.7,21.64,21.64,0,0,0,0-3.6A19.48,19.48,0,0,1,226.8,141.5Z"/><path class="e" d="M277.9,108.6,255.4,117l-9.7,3.6a19.57,19.57,0,0,0-33.7-3.2l-8.9-5.4L182.6,99.5a5.48,5.48,0,0,0-8.3,4.1l-1.9,19.8-1.9,19.8a5.45,5.45,0,0,0,7.4,5.6l22.5-8.4,9.7-3.6a19.57,19.57,0,0,0,33.7,3.2l8.9,5.4,20.5,12.5a5.48,5.48,0,0,0,8.3-4.1l1.9-19.8,1.9-19.8A5.51,5.51,0,0,0,277.9,108.6Z"/><circle class="e" cx="228" cy="128.8" r="19.5"/><path class="f" d="M201.9,157.3a5.46,5.46,0,0,0-.8-9.8l-20-7.9-22.3-8.8a5.49,5.49,0,0,0-7.5,5.5l1.5,19.9,1.5,19.9a5.48,5.48,0,0,0,8.2,4.3l20.7-12.1Z"/><path class="f" d="M215.7,156.2a5.49,5.49,0,0,1-.8-9.8l18.5-10.9,20.7-12.1a5.48,5.48,0,0,1,8.2,4.3l1.5,19.9,1.5,19.9a5.49,5.49,0,0,1-7.5,5.5l-22.3-8.8Z"/><path class="d" d="M201.5,152.2,183,163.1l-20.7,12.1a5.48,5.48,0,0,1-8.2-4.3l.4,5a5.48,5.48,0,0,0,8.2,4.3l20.7-12.1,18.5-10.9a5.52,5.52,0,0,0,1.9-7.6A4.85,4.85,0,0,1,201.5,152.2Z"/><path class="d" d="M257.6,167.8,235.3,159l-20-7.9a5.23,5.23,0,0,1-2.6-2.2,5.47,5.47,0,0,0,3,7.2l20,7.9,22.3,8.8a5.49,5.49,0,0,0,7.5-5.5l-.4-5A5.46,5.46,0,0,1,257.6,167.8Z"/><circle class="f" cx="208.4" cy="151.8" r="19.5"/><path class="d" d="M209.4,164.5A19.55,19.55,0,0,1,189,150a21.66,21.66,0,0,0-.1,3.6,19.56,19.56,0,1,0,38.4-6.5A19.36,19.36,0,0,1,209.4,164.5Z"/><path class="e" d="M254.2,123.4l-20.7,12.1-9,5.3a19.28,19.28,0,0,0-17.6-8.4,19.69,19.69,0,0,0-16.1,11l-9.7-3.8-22.3-8.8a5.49,5.49,0,0,0-7.5,5.5l1.5,19.9,1.5,19.9a5.48,5.48,0,0,0,8.2,4.3l20.7-12.1,9-5.3a19.28,19.28,0,0,0,17.6,8.4,19.69,19.69,0,0,0,16.1-11l9.7,3.8,22.3,8.8a5.49,5.49,0,0,0,7.5-5.5l-1.5-19.9-1.5-19.9A5.4,5.4,0,0,0,254.2,123.4Z"/><circle class="e" cx="208.4" cy="151.8" r="19.5"/><path class="g" d="M159,126.9a5.5,5.5,0,0,0,9.1,3.7L184,116.2l17.8-16.1a5.46,5.46,0,0,0-1.6-9.1l-18.5-7.4-18.5-7.4a5.46,5.46,0,0,0-7.5,5.5l1.7,23.9Z"/><path class="g" d="M153.9,139.8a5.43,5.43,0,0,1,9.1,3.7l1.6,21.4,1.7,23.9a5.49,5.49,0,0,1-7.5,5.5l-18.5-7.4-18.5-7.4a5.42,5.42,0,0,1-1.6-9.1L138,154.3Z"/><path class="d" d="M163.7,128.8l-1.6-21.4-1.7-23.9a5.49,5.49,0,0,1,7.5-5.5l-4.7-1.9a5.46,5.46,0,0,0-7.5,5.5l1.7,23.9,1.6,21.4a5.37,5.37,0,0,0,6,5A5.17,5.17,0,0,1,163.7,128.8Z"/><path class="d" d="M124.9,172.2l17.8-16.1,15.9-14.4a4.9,4.9,0,0,1,3.1-1.4,5.43,5.43,0,0,0-7.8-.5L138,154.2l-17.8,16.1a5.46,5.46,0,0,0,1.6,9.1l4.7,1.9A5.46,5.46,0,0,1,124.9,172.2Z"/><circle class="g" cx="161" cy="135.2" r="19.5"/><path class="d" d="M149.2,130.5a19.59,19.59,0,0,1,22-11.9A16,16,0,0,0,168,117a19.54,19.54,0,0,0-14.5,36.3,14.6,14.6,0,0,0,3.4,1A19.57,19.57,0,0,1,149.2,130.5Z"/><path class="e" d="M166.3,188.8l-1.7-23.9-.8-10.4a19.53,19.53,0,0,0,12.5-31.4l7.7-7L201.8,100a5.46,5.46,0,0,0-1.6-9.1l-18.5-7.4-18.5-7.4a5.46,5.46,0,0,0-7.5,5.5l1.7,23.9.8,10.4a19.53,19.53,0,0,0-12.5,31.4l-7.7,7-17.8,16.1a5.46,5.46,0,0,0,1.6,9.1l18.5,7.4,18.5,7.4A5.49,5.49,0,0,0,166.3,188.8Z"/><circle class="e" cx="161" cy="135.2" r="19.5"/><path class="h" d="M129.6,152.6a5.48,5.48,0,0,0,8.1-5.6l-3.3-21.2-3.7-23.7a5.39,5.39,0,0,0-8.5-3.6l-16.3,11.4L89.6,121.3a5.48,5.48,0,0,0,.5,9.3L111,142.3Z"/><path class="f" d="M137.5,163.9a5.48,5.48,0,0,1,8.1-5.6l18.8,10.5,20.9,11.7a5.52,5.52,0,0,1,.5,9.3l-16.3,11.4-16.3,11.4a5.43,5.43,0,0,1-8.5-3.6L141,185.3Z"/><path class="d" d="M133.8,149.7,115,139.2,94,127.5a5.52,5.52,0,0,1-.5-9.3l-4.1,2.9a5.48,5.48,0,0,0,.5,9.3l20.9,11.7,18.8,10.5a5.46,5.46,0,0,0,7.5-2.2A5.66,5.66,0,0,1,133.8,149.7Z"/><path class="d" d="M148.7,206,145,182.3l-3.3-21.2a4.88,4.88,0,0,1,.6-3.4,5.52,5.52,0,0,0-4.7,6.3l3.3,21.2,3.7,23.7a5.39,5.39,0,0,0,8.5,3.6l4.1-2.9A5.43,5.43,0,0,1,148.7,206Z"/><circle class="h" cx="137.6" cy="155.4" r="19.5"/><path class="d" d="M127.2,162.7a19.51,19.51,0,0,1,2.1-24.9,30.71,30.71,0,0,0-3.1,1.7,19.54,19.54,0,1,0,22.3,32.1,20.41,20.41,0,0,0,2.7-2.3A19.25,19.25,0,0,1,127.2,162.7Z"/><path class="e" d="M185.3,180.4l-20.9-11.7-9.1-5.1a19.39,19.39,0,0,0-1.7-19.4,19.76,19.76,0,0,0-17.7-8.3l-1.6-10.3-3.7-23.7a5.39,5.39,0,0,0-8.5-3.6l-16.3,11.4L89.5,121.1a5.48,5.48,0,0,0,.5,9.3l20.9,11.7,9.1,5.1a19.39,19.39,0,0,0,1.7,19.4,19.76,19.76,0,0,0,17.7,8.3l1.6,10.3,3.7,23.7a5.39,5.39,0,0,0,8.5,3.6l16.3-11.4,16.3-11.4A5.52,5.52,0,0,0,185.3,180.4Z"/><circle class="e" cx="137.6" cy="155.4" r="19.5"/><path class="i" d="M250.1,170.8a5.42,5.42,0,0,0-4.7-8.6l-21.5.9-24,1.1a5.52,5.52,0,0,0-4.6,8.1l9.5,17.5,9.5,17.5a5.48,5.48,0,0,0,9.3.6l13.9-19.5Z"/><path class="i" d="M262.2,164.2a5.45,5.45,0,0,1-4.7-8.6L270,138.1l13.9-19.5a5.49,5.49,0,0,1,9.3.6l9.5,17.5,9.5,17.5a5.49,5.49,0,0,1-4.6,8.1l-24,1.1Z"/><path class="d" d="M247.7,166.4l-12.5,17.5-13.9,19.5a5.49,5.49,0,0,1-9.3-.6l2.4,4.4a5.48,5.48,0,0,0,9.3.6l13.9-19.5,12.5-17.5a5.44,5.44,0,0,0-1.4-7.7A6,6,0,0,1,247.7,166.4Z"/><path class="d" d="M305.3,157.8l-24,1.1-21.5.9a5.13,5.13,0,0,1-3.3-.9,5.51,5.51,0,0,0,5.7,5.4l21.5-.9,24-1.1a5.52,5.52,0,0,0,4.6-8.1l-2.4-4.4A5.47,5.47,0,0,1,305.3,157.8Z"/><circle class="i" cx="253.8" cy="163.2" r="19.5" transform="translate(52.05 387.58) rotate(-80.78)"/><path class="d" d="M259.9,174.4a19.49,19.49,0,0,1-24.5-4.9,23.29,23.29,0,0,0,1.4,3.3,19.55,19.55,0,0,0,34.4-18.6,31.27,31.27,0,0,0-2-3A19.66,19.66,0,0,1,259.9,174.4Z"/><path class="e" d="M284,118.6l-14,19.5-6,8.5a19.52,19.52,0,0,0-29.7,16.1l-10.4.5-24,1.1a5.52,5.52,0,0,0-4.6,8.1l9.5,17.5,9.5,17.5a5.48,5.48,0,0,0,9.3.6l13.9-19.5,6-8.5a19.52,19.52,0,0,0,29.7-16.1l10.4-.5,24-1.1a5.52,5.52,0,0,0,4.6-8.1l-9.5-17.5-9.5-17.5A5.4,5.4,0,0,0,284,118.6Z"/><circle class="e" cx="253.8" cy="163.2" r="19.5" transform="translate(52.05 387.58) rotate(-80.78)"/><path class="j" d="M118.5,164.1a105,105,0,1,0,178.6,0Z"/><path class="d" d="M207.8,309a104.91,104.91,0,0,1-104.7-97.5q-.3,3.9-.3,7.8a105,105,0,0,0,210,0c0-2.6-.1-5.3-.3-7.8A105,105,0,0,1,207.8,309Z"/><ellipse class="k" cx="161.8" cy="214.5" rx="19.8" ry="29.2"/><ellipse class="k" cx="253.8" cy="214.5" rx="19.8" ry="29.2"/><path class="k" d="M247.9,271.1H244v-4.9a3.7,3.7,0,1,0-7.4,0v4.9H231v-4.9a3.7,3.7,0,1,0-7.4,0v4.9H218v-4.9a3.7,3.7,0,1,0-7.4,0v4.9H205v-4.9a3.7,3.7,0,0,0-7.4,0v4.9H192v-4.9a3.7,3.7,0,0,0-7.4,0v4.9H179v-4.9a3.7,3.7,0,0,0-7.4,0v4.9H169a3.7,3.7,0,1,0,0,7.4h2.6v4.9a3.7,3.7,0,0,0,7.4,0v-4.9h5.6v4.9a3.7,3.7,0,0,0,7.4,0v-4.9h5.6v4.9a3.7,3.7,0,0,0,7.4,0v-4.9h5.6v4.9a3.7,3.7,0,0,0,7.4,0v-4.9h5.6v4.9a3.7,3.7,0,0,0,7.4,0v-4.9h5.6v4.9a3.7,3.7,0,0,0,7.4,0v-4.9h3.8a3.76,3.76,0,0,0,3.7-3.7A3.67,3.67,0,0,0,247.9,271.1Z"/><polyline class="l" points="119.6 251.2 127.8 258.3 128.9 267.9 133 271.4"/><line class="l" x1="215.9" y1="187.9" x2="221.4" y2="193.9"/><line class="l" x1="215.9" y1="176.7" x2="226.8" y2="187.9"/><path class="m" d="M304.2,260.9a105.3,105.3,0,0,0,8.6-41.6,104.21,104.21,0,0,0-15.7-55.2H118.5A105,105,0,0,0,293.8,279.5"/><circle class="n" cx="299.6" cy="270.7" r="1.7"/><circle class="k" cx="199.7" cy="249.3" r="4.4"/><circle class="k" cx="215.9" cy="249.3" r="4.4"/></svg>