<svg xmlns="http://www.w3.org/2000/svg" xmlns:xlink="http://www.w3.org/1999/xlink" viewBox="0 0 400 400"><defs><style>.a{fill:#ffb57d;}.b,.j{fill:#333;}.b{opacity:0.2;isolation:isolate;}.c{fill:#565656;}.d{fill:#5e5e5e;}.e{fill:#994fd3;}.f,.g{fill:none;stroke:#333;stroke-miterlimit:10;stroke-width:3px;}.g{stroke-linecap:round;}.h{fill:#ffc239;}.i{fill:#efff55;}.j{fill-opacity:0.2;}.k{fill:url(#a);}</style><linearGradient id="a" x1="320.81" y1="147.17" x2="324.7" y2="144.78" gradientTransform="matrix(1, 0, 0, -1, 0, 402)" gradientUnits="userSpaceOnUse"><stop offset="0" stop-color="#e34248"/><stop offset="1" stop-color="#9e55a0"/></linearGradient></defs><circle class="a" cx="200" cy="200" r="200"/><path class="b" d="M259.6,218.6c-15.6-43.2-35.9-88.5-48.3-115.4l3.4.2,15.5,1a2.88,2.88,0,0,0,1.9-.6l-.9,5.8a2.59,2.59,0,0,1-1.2,1.7l-5.8,2.8a2.24,2.24,0,0,0-.1,4l5.7,2.9a2.14,2.14,0,0,1,1.2,1.7l.8,6.4a2.25,2.25,0,0,0,3.8,1.3l4.6-4.5a2.42,2.42,0,0,1,2-.6l6.3,1.2a2.26,2.26,0,0,0,2.4-3.2l-2.9-5.7a2.56,2.56,0,0,1,0-2.1l3.1-5.6a2.25,2.25,0,0,0-2.3-3.3l-6.4,1a2.2,2.2,0,0,1-2-.7l-4.4-4.7a2.18,2.18,0,0,0-2.9-.3,2.57,2.57,0,0,0-1-2.3l-11.9-10L204.8,76.7a2.71,2.71,0,0,0-4.3,1.1l-.6,1.6c-1.9,3.9-36,74-59.6,139.3-37.8,8.5-63.4,24.8-63.4,43.5,0,27.5,55.2,49.8,123.2,49.8s123.2-22.3,123.2-49.8C323.2,243.4,297.5,227.1,259.6,218.6Z"/><ellipse class="c" cx="200" cy="255.2" rx="123.2" ry="49.8"/><path class="d" d="M272.7,251.2c-21.5-74.6-72.7-179-72.7-179s-51.2,104.4-72.7,179h.1c18.5,9.1,44.3,14.8,72.7,14.8s54.1-5.7,72.6-14.8Z"/><path class="e" d="M263.2,221.6c-17.4,6.7-39.3,10.6-63.1,10.6s-45.9-4-63.3-10.7c-3.5,10.2-6.8,20.2-9.5,29.7h.1c18.5,9.1,44.3,14.8,72.7,14.8s54.2-5.7,72.7-14.8h-.1C269.9,241.7,266.7,231.7,263.2,221.6Z"/><path class="d" d="M232.2,92.6a2.79,2.79,0,0,1-1.9,4.9l-15.5-1-20.1-1.3a2.75,2.75,0,0,1-2.4-3.8l4.1-10.3,4.1-10.3a2.76,2.76,0,0,1,4.3-1.1l15.4,12.9Z"/><path class="f" d="M272.6,251.2c-15.1-52.5-45-119.7-61.3-154.9l3.4.2,15.5,1a2.75,2.75,0,0,0,1.9-4.9l-11.9-10L204.8,69.7a2.71,2.71,0,0,0-4.3,1.1l-.6,1.6c-2.3,4.7-51.6,106-72.6,178.8h.1c18.5,9.1,44.3,14.8,72.7,14.8s54.1-5.7,72.5-14.8Z"/><path class="g" d="M321.5,246.8c-6.4-15.2-29.7-28-61.9-35.2-15.6-43.2-35.9-88.5-48.3-115.4l3.4.2,15.5,1a2.75,2.75,0,0,0,1.9-4.9l-11.9-10L204.8,69.6a2.71,2.71,0,0,0-4.3,1.1l-.6,1.6c-1.9,3.9-36,74-59.6,139.3-37.8,8.5-63.4,24.8-63.4,43.5,0,27.5,55.2,49.8,123.2,49.8,59.3,0,108.9-16.9,120.6-39.5"/><line class="g" x1="226.4" y1="97.2" x2="205.4" y2="95.9"/><path class="f" d="M263.2,221.6c-17.4,6.7-39.3,10.6-63.1,10.6s-45.9-4-63.3-10.7c-3.5,10.2-6.8,20.2-9.5,29.7h.1c18.5,9.1,44.3,14.8,72.7,14.8s54.2-5.7,72.7-14.8h-.1C269.9,241.7,266.7,231.7,263.2,221.6Z"/><path class="h" d="M214.6,224H185.3a8.24,8.24,0,0,0-8.2,8.2v29.3a8.24,8.24,0,0,0,8.2,8.2h29.3a8.24,8.24,0,0,0,8.2-8.2V232.2A8.24,8.24,0,0,0,214.6,224Zm-4.4,29.4a3.76,3.76,0,0,1-3.7,3.7H193.4a3.76,3.76,0,0,1-3.7-3.7V240.3a3.76,3.76,0,0,1,3.7-3.7h13.1a3.76,3.76,0,0,1,3.7,3.7Z"/><path class="f" d="M214.6,224H185.3a8.24,8.24,0,0,0-8.2,8.2v29.3a8.24,8.24,0,0,0,8.2,8.2h29.3a8.24,8.24,0,0,0,8.2-8.2V232.2A8.24,8.24,0,0,0,214.6,224Zm-4.4,29.4a3.76,3.76,0,0,1-3.7,3.7H193.4a3.76,3.76,0,0,1-3.7-3.7V240.3a3.76,3.76,0,0,1,3.7-3.7h13.1a3.76,3.76,0,0,1,3.7,3.7Z"/><path class="i" d="M251,102.8l-3.1,5.6a2,2,0,0,0,0,2.1l2.9,5.7a2.24,2.24,0,0,1-2.4,3.2l-6.3-1.2a2.42,2.42,0,0,0-2,.6l-4.6,4.5a2.25,2.25,0,0,1-3.8-1.3l-.8-6.4a2.14,2.14,0,0,0-1.2-1.7L224,111a2.24,2.24,0,0,1,.1-4l5.8-2.8a2,2,0,0,0,1.2-1.7l1-6.3a2.25,2.25,0,0,1,3.8-1.2l4.4,4.7a2.37,2.37,0,0,0,2,.7l6.4-1A2.31,2.31,0,0,1,251,102.8Z"/><path class="f" d="M251,102.8l-3.1,5.6a2,2,0,0,0,0,2.1l2.9,5.7a2.24,2.24,0,0,1-2.4,3.2l-6.3-1.2a2.42,2.42,0,0,0-2,.6l-4.6,4.5a2.25,2.25,0,0,1-3.8-1.3l-.8-6.4a2.14,2.14,0,0,0-1.2-1.7L224,111a2.24,2.24,0,0,1,.1-4l5.8-2.8a2,2,0,0,0,1.2-1.7l1-6.3a2.25,2.25,0,0,1,3.8-1.2l4.4,4.7a2.37,2.37,0,0,0,2,.7l6.4-1A2.31,2.31,0,0,1,251,102.8Z"/><path class="j" d="M260.1,211.6c-15.6-43.2-35.9-88.5-48.3-115.4l3.4.2,15.5,1a2.75,2.75,0,0,0,1.9-4.9l-11.9-10L205.3,69.6a2.71,2.71,0,0,0-4.3,1.1l-.5,1.1V305c68.1,0,123.2-22.3,123.2-49.8C323.7,236.4,298,220.1,260.1,211.6Z"/><circle class="k" cx="323.2" cy="256.3" r="1.7"/></svg>