<svg xmlns="http://www.w3.org/2000/svg" xmlns:xlink="http://www.w3.org/1999/xlink" viewBox="0 0 400 400"><defs><style>.a{fill:#ffd15f;}.b,.c,.j{fill:#333;}.b,.k{opacity:0.2;}.b,.c,.h,.k{isolation:isolate;}.c,.h{opacity:0.1;}.d{fill:#f7b239;}.e{fill:#ed1c24;}.f{fill:#bb4a2b;}.g,.i,.k{fill:none;stroke-width:3px;}.g,.i{stroke:#333;}.g{stroke-linejoin:round;}.h{fill:#fff;}.i,.k{stroke-linecap:round;stroke-miterlimit:10;}.k{stroke:#fff;}.l{fill:url(#a);}</style><linearGradient id="a" x1="304.61" y1="248.47" x2="308.5" y2="246.08" gradientTransform="matrix(1, 0, 0, -1, 0, 402)" gradientUnits="userSpaceOnUse"><stop offset="0" stop-color="#e34248"/><stop offset="1" stop-color="#9e55a0"/></linearGradient></defs><circle class="a" cx="200" cy="200" r="200"/><path class="b" d="M307.1,180.9v-1.7H221.4v21.5h0a33.74,33.74,0,0,0,7.3,20.8l1.2,1.5a40.05,40.05,0,0,0,7.1,6.5,30.24,30.24,0,0,0,3.3,2.1,46.65,46.65,0,0,0,21.9,6.3,2.35,2.35,0,0,0-.2.8V315c-17,.2-30.5,2.6-30.5,5.6s14.6,5.6,32.7,5.6,32.7-2.5,32.7-5.6-13.5-5.4-30.5-5.6V238.7a1.88,1.88,0,0,0-.2-.8,47.09,47.09,0,0,0,21.3-6,17.61,17.61,0,0,0,2.3-1.4c.5-.4,1.1-.7,1.6-1.1a43.86,43.86,0,0,0,7.1-6.5,34.17,34.17,0,0,0,8.5-22.3V187h0v-6.1Z"/><path class="b" d="M178.8,172.7,166,153.5V105.7a4.46,4.46,0,0,0-4.1-4.4V92h0a7,7,0,0,0-.5-2.5l-.3-.6a6.51,6.51,0,0,0-2.6-2.6l-.6-.3a7,7,0,0,0-2.5-.5H130.5a5.9,5.9,0,0,0-1.4.2L128,86l-.6.3a7,7,0,0,0-1.7,1.3l-.9,1.2-.3.6a3.54,3.54,0,0,0-.3,1.1,6.75,6.75,0,0,0-.2,1.4h0v9.3h0a4.76,4.76,0,0,0-2.1.7,4.37,4.37,0,0,0-2,3.7v25L108,171.3l-.8,1.3-11.6,17a17.8,17.8,0,0,0-2.1,4.4,15.94,15.94,0,0,0-.7,4.8v15.7h0v66.6h0v35.7a8.88,8.88,0,0,0,8.8,8.8h82.6a8.88,8.88,0,0,0,8.8-8.8v-118a16.61,16.61,0,0,0-2.8-9.2Z"/><path class="c" d="M184.3,308.4H101.7a8.88,8.88,0,0,1-8.8-8.8v11.6a8.88,8.88,0,0,0,8.8,8.8h82.6a8.88,8.88,0,0,0,8.8-8.8V299.6A8.75,8.75,0,0,1,184.3,308.4Z"/><path class="d" d="M155.5,79.6H130.6a6.44,6.44,0,0,0-6.4,6.4v18.6a6.44,6.44,0,0,0,6.4,6.4h24.9a6.44,6.44,0,0,0,6.4-6.4V86A6.44,6.44,0,0,0,155.5,79.6Z"/><path class="e" d="M190.3,183.8l-11.6-17L166,147.5V99.7a4.44,4.44,0,0,0-4.4-4.4h-37a4.44,4.44,0,0,0-4.4,4.4v47.8l-12.8,19.2-11.6,17a16.61,16.61,0,0,0-2.8,9.2v118a8.81,8.81,0,0,0,8.8,8.8h82.6a8.88,8.88,0,0,0,8.8-8.8v-118A17.21,17.21,0,0,0,190.3,183.8Z"/><rect class="f" x="93" y="199.6" width="50.1" height="84.6"/><rect class="d" x="93" y="208.6" width="41.9" height="66.6"/><path class="g" d="M190.3,183.8l-11.6-17L166,147.5V99.7a4.44,4.44,0,0,0-4.4-4.4h-37a4.44,4.44,0,0,0-4.4,4.4v47.8l-12.8,19.2-11.6,17a16.61,16.61,0,0,0-2.8,9.2v118a8.81,8.81,0,0,0,8.8,8.8h82.6a8.88,8.88,0,0,0,8.8-8.8v-118A17.21,17.21,0,0,0,190.3,183.8Z"/><path class="g" d="M124.6,95.3H162V86a6.44,6.44,0,0,0-6.4-6.4H130.7a6.44,6.44,0,0,0-6.4,6.4v9.3Z"/><rect class="g" x="93" y="199.6" width="50.1" height="84.6"/><rect class="g" x="93" y="208.6" width="41.9" height="66.6"/><path class="e" d="M262.1,160.7c-36.6-13-40.8,14.2-40.8,14.2v19.8c0,20.6,19.2,37.2,42.9,37.2s42.9-16.7,42.9-37.2V174.9C290.2,174.2,298.6,173.7,262.1,160.7Z"/><path class="c" d="M264.1,218.3c-23.7,0-42.9-16.7-42.9-37.2v13.7c0,20.6,19.2,37.2,42.9,37.2S307,215.3,307,194.8V181C307,201.6,287.8,218.3,264.1,218.3Z"/><path class="h" d="M226.6,143a5.34,5.34,0,0,0-5.3,5.3v46.5c0,20.6,19.2,37.2,42.9,37.2s42.9-16.7,42.9-37.2V148.3a5.34,5.34,0,0,0-5.3-5.3Z"/><path class="i" d="M306.1,145.4a5.17,5.17,0,0,0-4.5-2.4h-75a5.34,5.34,0,0,0-5.3,5.3v46.5c0,20.6,19.2,37.2,42.9,37.2s42.9-16.7,42.9-37.2V164.6"/><path class="j" d="M264.1,230.6h0a2.22,2.22,0,0,0-2.2,2.2V313a2.22,2.22,0,0,0,2.2,2.2h0a2.22,2.22,0,0,0,2.2-2.2V232.8A2.16,2.16,0,0,0,264.1,230.6Z"/><ellipse class="j" cx="264.1" cy="314.7" rx="32.7" ry="5.6"/><polyline class="k" points="126.7 102.3 126.7 151.8 101.1 189.7"/><circle class="l" cx="307" cy="155" r="1.7"/></svg>