<svg xmlns="http://www.w3.org/2000/svg" xmlns:xlink="http://www.w3.org/1999/xlink" viewBox="0 0 400 400"><defs><style>.a{fill:#abefac;}.b{fill:#75d182;}.c,.h,.l{fill:#333;}.c{opacity:0.2;}.c,.h{isolation:isolate;}.d,.n,.o,.r{fill:none;stroke:#333;stroke-width:3px;}.d,.n{stroke-miterlimit:10;}.e{fill:#f2f2f2;}.f{fill:#ffbd66;}.g{fill:#a5a5a5;}.h,.k{opacity:0.1;}.i{fill:#ffa310;}.j{fill:#fff;}.m{fill:#ffd18f;}.n,.r{stroke-linecap:round;}.o,.r{stroke-linejoin:round;}.p{fill:#e73835;}.q{fill:#c8c8c8;}.s{fill:url(#a);}</style><linearGradient id="a" x1="337.88" y1="268.98" x2="341.77" y2="266.59" gradientTransform="matrix(1, 0, 0, -1, 0, 402)" gradientUnits="userSpaceOnUse"><stop offset="0" stop-color="#e34248"/><stop offset="1" stop-color="#9e55a0"/></linearGradient></defs><circle class="a" cx="200" cy="200" r="200"/><path class="b" d="M342.72,210.46c-6,10.29-17.14,18.88-33.54,20.88s-24.74-4.51-25.86-13.66,5.44-17.45,21.84-19.44S334.39,201.92,342.72,210.46Z"/><path class="c" d="M340.37,273.84a15,15,0,0,0-14.93-13.54h-24l1-.95c.5-.51,1-1,1.47-1.55a40.93,40.93,0,0,0,2.72-3.29A44.1,44.1,0,0,0,315.49,228h0v-2.77a92,92,0,0,0-15.88-49l4.48-8.32a16.79,16.79,0,0,0,1.12-2.62l.09-.31c.1-.33.19-.66.27-1,.05-.18.08-.37.12-.55s.1-.5.13-.75.07-.49.09-.73l.06-.57v-1l9.31-9.31a14.86,14.86,0,1,0,9-25.44,14.74,14.74,0,0,0-22.7-13.77,14.7,14.7,0,0,0-9.6-2.44,14.74,14.74,0,1,0-25.1,9l-9.45,9.46a17.33,17.33,0,0,0-8.06,2.06l-12.09,6.51a92.78,92.78,0,0,0-14.51-1.15H192c-56.68,0-103.39,44.84-106.44,100.8h0c0,.94-.09,1.89-.11,2.84v3h0a30.35,30.35,0,0,0,6.09,18.23l.15.19H75.56a15,15,0,0,0-14.93,13.54,14.08,14.08,0,0,0-.07,1.45h0a15,15,0,0,0,15,15h7.66l17.11,30H300.44l17.26-30h7.74a15,15,0,0,0,15-15h0A14.66,14.66,0,0,0,340.37,273.84ZM283,134.48a14.7,14.7,0,0,0,12.15,4.2l-5.39,5.39a17.42,17.42,0,0,0-8.05,2.07l-8.15,4.38-1-.65a16.22,16.22,0,0,0,1.11-6.08Z"/><path class="d" d="M191.82,129.28h30.79A92.71,92.71,0,0,1,315.32,222h0a44.41,44.41,0,0,1-44.41,44.41H115.73A30.51,30.51,0,0,1,85.22,235.9h0a106.6,106.6,0,0,1,106.6-106.6h0Z"/><path class="d" d="M342.72,210.46c-6,10.29-17.14,18.88-33.54,20.88s-24.74-4.51-25.86-13.66,5.44-17.45,21.84-19.44S334.39,201.92,342.72,210.46Z"/><path class="e" d="M303.65,107.63a14.68,14.68,0,0,0-11.83-4.25,14.74,14.74,0,1,0-25.09,9L249,130.1l16.08,16.08,17.71-17.7a14.74,14.74,0,0,0,21-20.7l-.15-.15Z"/><path class="f" d="M271.57,145.67a16.22,16.22,0,0,0-4.41-20.55,16.64,16.64,0,0,0-18-1.2L214.32,142.7l-.08-.08A27.12,27.12,0,1,0,252.58,181h0Z"/><polygon class="g" points="300.27 314.3 100.16 314.3 74.49 269.3 326.16 269.3 300.27 314.3"/><polygon class="h" points="300.27 306.8 100.16 306.8 78.77 269.3 74.49 269.3 100.16 314.3 300.27 314.3 326.16 269.3 321.84 269.3 300.27 306.8"/><path class="i" d="M191.82,129.28h30.79A92.71,92.71,0,0,1,315.32,222h0a44.41,44.41,0,0,1-44.41,44.41H115.73A30.51,30.51,0,0,1,85.22,235.9h0a106.6,106.6,0,0,1,106.6-106.6h0Z"/><path class="h" d="M270.91,257.46H115.73a30.62,30.62,0,0,1-30.35-27.38c-.11,1.92-.16,3.85-.16,5.8h0a30.6,30.6,0,0,0,30.51,30.51H270.91A44.54,44.54,0,0,0,315.32,222h0c0-1.8-.06-3.58-.16-5.35A44.55,44.55,0,0,1,270.91,257.46Z"/><path class="j" d="M336,123.84a14.74,14.74,0,0,0-11.83-4.25,14.74,14.74,0,1,0-25.1,9l-17.7,17.7,16.08,16.08,17.7-17.7A14.74,14.74,0,0,0,336,123.84Z"/><g class="k"><path class="l" d="M336,141.39a14.74,14.74,0,0,1-20.85,0h0l-17.7,17.7-14.26-14.26-1.82,1.82,16.08,16.08L315.1,145a14.73,14.73,0,0,0,25-12.24A14.72,14.72,0,0,1,336,141.39Z"/></g><path class="h" d="M303.87,156.74l-19,35.28h0a27.11,27.11,0,0,1-46.15-16.61,27.11,27.11,0,0,0,46.15,21.75h0l19-35.28a16.18,16.18,0,0,0,1.72-10.24A15.94,15.94,0,0,1,303.87,156.74Z"/><path class="m" d="M303.87,161.88a16.22,16.22,0,0,0-4.42-20.55,16.58,16.58,0,0,0-17.94-1.19l-34.89,18.77-.08-.08a27.11,27.11,0,0,0,38.33,38.35h0Z"/><path class="n" d="M337.21,125.28a14.43,14.43,0,0,0-1.26-1.44,14.74,14.74,0,0,0-11.83-4.25,14.74,14.74,0,1,0-25.1,9l-9.45,9.46"/><path class="n" d="M305.42,154.38l9.68-9.69a14.74,14.74,0,0,0,20.85,0h0l.45-.47"/><path class="n" d="M299.4,170.2A90.2,90.2,0,0,1,315.32,222h0c0,13.8-5.24,24.48-15.21,32.64"/><path class="d" d="M271.57,145.67a16.22,16.22,0,0,0-4.41-20.55,16.64,16.64,0,0,0-18-1.2"/><path class="n" d="M92.07,254.44a26.1,26.1,0,0,1-6.85-18.56h0c0-58.63,48-106.6,106.6-106.6h30.79a90.35,90.35,0,0,1,50.51,15.07"/><path class="d" d="M336.55,124.48c-.19-.22-.39-.43-.6-.64a14.74,14.74,0,0,0-11.83-4.25,14.74,14.74,0,0,0-22.69-13.77,14.74,14.74,0,0,0-9.61-2.44,14.74,14.74,0,1,0-25.09,9l-9.46,9.46a17.33,17.33,0,0,0-8.06,2.06l-12.09,6.51a92.78,92.78,0,0,0-14.51-1.15H191.82c-56.69,0-103.4,44.84-106.44,100.8h0c0,.94-.09,1.89-.12,2.84v3h0a30.34,30.34,0,0,0,6.23,18.42H75.38a15.06,15.06,0,0,0-14.93,13.54c0,.47-.07,1-.07,1.45h0a15,15,0,0,0,15,15h7.67l17.11,30H300.27l17.26-30h7.74a15,15,0,0,0,15-15h0a14.09,14.09,0,0,0-.08-1.45,15,15,0,0,0-14.92-13.54h-24A44.27,44.27,0,0,0,315.32,222h0v-2.77a92.1,92.1,0,0,0-15.87-49l4.47-8.32a15.53,15.53,0,0,0,1.12-2.62l.09-.31c.1-.33.2-.66.27-1s.08-.37.12-.55.1-.5.14-.75l.09-.73a2.2,2.2,0,0,1,.05-.57,4.9,4.9,0,0,0,0-.86v-.16l9.3-9.36a14.74,14.74,0,0,0,20.85.05L336,145c.23-.23.46-.47.67-.72m-53.81-15.83a14.68,14.68,0,0,0,12.14,4.2L289.62,138a17.19,17.19,0,0,0-8.06,2.07l-8.14,4.38-1-.65a16,16,0,0,0,1.11-6.08Z"/><path class="b" d="M79.59,222.72c-2.07,11.75.8,25.49,12,37.64s21.76,12.62,28.53,6.39,7.19-16.81-4-29S91.48,221.63,79.59,222.72Z"/><path class="b" d="M63.84,243.43c3.14,11.51,11.59,22.71,26.9,28.93s25.06,2.13,28.53-6.4-.67-18.27-16-24.49S74.12,237.37,63.84,243.43Z"/><path class="o" d="M303.87,161.88a16.22,16.22,0,0,0-4.42-20.55,16.58,16.58,0,0,0-17.94-1.19l-34.89,18.77-.08-.08a27.11,27.11,0,0,0,38.33,38.35h0Z"/><path class="b" d="M225,232c2.07,11.75-.8,25.49-12,37.64s-21.76,12.62-28.53,6.39-7.19-16.81,4-29S213.08,230.93,225,232Z"/><path class="d" d="M120.11,266.75c6.78-6.24,7.19-16.81-4-29S91.48,221.6,79.59,222.69A40.91,40.91,0,0,0,80,239"/><circle class="p" cx="179.17" cy="259.72" r="22.45"/><path class="b" d="M337.27,232c2.07,11.75-.8,25.49-12,37.64s-21.76,12.62-28.53,6.39-7.19-16.81,4-29S325.38,230.93,337.27,232Z"/><path class="b" d="M317.48,213.31c2.07,11.75-.8,25.48-12,37.64s-21.76,12.62-28.53,6.38-7.19-16.8,4-29S305.59,212.21,317.48,213.31Z"/><path class="d" d="M63.84,243.43c3.14,11.51,11.59,22.71,26.9,28.93s25.06,2.13,28.53-6.4-.67-18.27-16-24.49S74.12,237.37,63.84,243.43Z"/><circle class="p" cx="124.92" cy="250.75" r="22.45"/><path class="d" d="M225,232c2.07,11.75-.8,25.49-12,37.64s-21.76,12.62-28.53,6.39-7.19-16.81,4-29S213.08,230.93,225,232Z"/><circle class="p" cx="179.17" cy="259.72" r="22.45"/><path class="d" d="M337.27,232c2.07,11.75-.8,25.49-12,37.64s-21.76,12.62-28.53,6.39-7.19-16.81,4-29S325.38,230.93,337.27,232Z"/><path class="d" d="M277,257.33c-6.78-6.23-7.19-16.8,4-29s24.63-16.16,36.52-15.06A41.56,41.56,0,0,1,315.09,236"/><circle class="d" cx="124.92" cy="250.75" r="22.45"/><circle class="d" cx="179.17" cy="259.72" r="22.45"/><circle class="p" cx="283.2" cy="257.18" r="22.45"/><circle class="d" cx="283.2" cy="257.18" r="22.45"/><path class="q" d="M75.38,254.3H325.27a15,15,0,0,1,15,15h0a15,15,0,0,1-15,15H75.38a15,15,0,0,1-15-15h0A15,15,0,0,1,75.38,254.3Z"/><path class="h" d="M325.27,278.53H75.38a15,15,0,0,1-14.71-12.12,14.76,14.76,0,0,0-.29,2.89,15,15,0,0,0,15,15H325.27a15,15,0,0,0,15-15,14.76,14.76,0,0,0-.29-2.89A15.07,15.07,0,0,1,325.27,278.53Z"/><path class="d" d="M75.56,254.3H325.45a15,15,0,0,1,15,15h0a15,15,0,0,1-15,15H75.56a15,15,0,0,1-15-15h0A15,15,0,0,1,75.56,254.3Z"/><path class="r" d="M102.76,102.86s-7.19,4.89,1.18,13.26,0,12.57,0,12.57"/><path class="r" d="M116.61,101.69s-7.19,4.89,1.18,13.26,0,12.57,0,12.57"/><circle class="s" cx="340.25" cy="134.48" r="1.67"/></svg>