<svg xmlns="http://www.w3.org/2000/svg" xmlns:xlink="http://www.w3.org/1999/xlink" viewBox="0 0 400 400"><defs><style>.a{fill:#abefac;}.b,.i{fill:#333;}.b,.k{opacity:0.2;}.b,.i,.j,.k{isolation:isolate;}.c,.h{fill:#f37934;}.c,.f,.g,.h,.l{stroke:#333;}.c,.h,.k,.l{stroke-miterlimit:10;}.c,.g,.h,.k,.l{stroke-width:3px;}.d{fill:#4f2c16;}.e{fill:#b2804d;}.f,.g,.k,.l{fill:none;}.f{stroke-miterlimit:10;stroke-width:3px;}.g,.h,.k,.l{stroke-linecap:round;}.g{stroke-linejoin:round;}.i,.j{opacity:0.1;}.j{fill:#fff;}.k{stroke:#fff;}.m{fill:url(#a);}</style><linearGradient id="a" x1="304.84" y1="252.75" x2="308.73" y2="250.36" gradientTransform="matrix(1, 0, 0, -1, 0, 402)" gradientUnits="userSpaceOnUse"><stop offset="0" stop-color="#e34248"/><stop offset="1" stop-color="#9e55a0"/></linearGradient></defs><circle class="a" cx="200" cy="200" r="200"/><path class="b" d="M320.1,225.5h0c0-21.4-3.7-41-9.7-56.1l-3.2-6.1a1.6,1.6,0,0,0,1.3-1.6,1.69,1.69,0,0,0-1.7-1.7,1.66,1.66,0,0,0-1.2.5l-3.3-6.4c-6.4-9.3-14.2-14.7-22.5-14.7-5,0-9.8,2-14.3,5.6-7.6-12.5-17.5-20.1-28.3-20.1-11,0-21.1,8-28.8,21.1a27.59,27.59,0,0,1,.8-2.7,44.5,44.5,0,0,1,2.2-5.7,51.73,51.73,0,0,1,5.3-9,48.74,48.74,0,0,1,7.9-8.4,42.11,42.11,0,0,1,5.5-3.9h0a2,2,0,0,0,1.1-.3h0c.1-.1.3-.1.4-.2h0a1.38,1.38,0,0,0,.3-.4c1.6-2.1-1.7-7.2-7.2-11.3a6.07,6.07,0,0,0-1-.7c-3.5-2.4-6.9-3.8-9.3-3.9h0a2.92,2.92,0,0,0-2.4.8,48.74,48.74,0,0,0-15.3,13.4,48.24,48.24,0,0,0-6.1,10.8,35.7,35.7,0,0,0-1.6,4.6,38.37,38.37,0,0,0-1.1,4.6,46.64,46.64,0,0,0-.8,6.4c-7.1-9.5-15.7-15.1-24.9-15.1-10.7,0-20.6,7.5-28.2,20.1a22.27,22.27,0,0,0-14.2-5.5h-.2c-20.9,0-38.1,34.2-40.1,77.9h0c-.1,1.3-.1,2.7-.1,4v4.1h0v.4c0,47.5,18,86.1,40.2,86.1,5.7,0,11.2-2.6,16.1-7.2,6.7,10.8,15.1,17.2,24.1,17.2,5.7,0,11.2-2.6,16.1-7.2,6.6,10.3,14.8,16.4,23.6,16.4s17.1-6.2,23.7-16.6c5,4.7,10.5,7.3,16.3,7.3,9.1,0,17.4-6.4,24.1-17.2,4.9,4.6,10.4,7.2,16.1,7.2,22.2,0,40.2-38.5,40.2-86.1v-.2c.2-.1.2-.1.2-.2Z"/><ellipse class="c" cx="237.7" cy="200" rx="44" ry="86.1"/><ellipse class="c" cx="162.6" cy="200" rx="44" ry="86.1"/><ellipse class="c" cx="120" cy="214.5" rx="40.2" ry="86.1"/><ellipse class="c" cx="160.3" cy="224.5" rx="40.2" ry="86.1"/><path class="d" d="M217.1,117.7a48.68,48.68,0,0,1,13.4-12.3c-2.5.2-6.8-1.5-11-4.6-5.5-4.2-8.8-9.2-7.2-11.3,0-.1.1-.1.2-.2a51.57,51.57,0,0,0-15.4,13.4,49.16,49.16,0,0,0,9.9,68.8,51.69,51.69,0,0,0,10.9,6.2A49.35,49.35,0,0,1,217.1,117.7Z"/><ellipse class="e" cx="222.45" cy="97.01" rx="4.7" ry="12.5" transform="translate(11.49 216.97) rotate(-53.19)"/><ellipse class="f" cx="222.44" cy="97" rx="4.7" ry="12.5" transform="translate(11.5 216.96) rotate(-53.19)"/><path class="g" d="M225.3,93.2c-5.5-4.2-11.3-5.8-12.9-3.7,0-.1.1-.1.2-.2a51.57,51.57,0,0,0-15.4,13.4,49.16,49.16,0,0,0,9.9,68.8,51.69,51.69,0,0,0,10.9,6.2,49.2,49.2,0,0,1-.9-60,48.68,48.68,0,0,1,13.4-12.3h0a2.64,2.64,0,0,0,1.9-.9C234,102.4,230.8,97.3,225.3,93.2Zm4.1,12.1h0Z"/><path class="h" d="M310.7,158.4c6.1,15.1,9.7,34.7,9.7,56.1,0,47.5-18,86.1-40.2,86.1S240,262,240,214.5s18-86.1,40.2-86.1c8.3,0,16.1,5.4,22.5,14.7"/><ellipse class="c" cx="240" cy="224.5" rx="40.2" ry="86.1"/><ellipse class="c" cx="200" cy="233.7" rx="40.2" ry="86.1"/><path class="i" d="M120,284.2c-20.9,0-38.1-34.2-40.1-77.9-.1,2.7-.2,5.4-.2,8.2,0,47.5,18,86.1,40.2,86.1,5.7,0,11.2-2.6,16.1-7.2a77.71,77.71,0,0,1-6-11.9A20.82,20.82,0,0,1,120,284.2Z"/><path class="j" d="M89.1,253.4a170.46,170.46,0,0,1-3-32.9c0-47.5,18-86.1,40.2-86.1a22.33,22.33,0,0,1,13.5,5c-5.8-7-12.5-11-19.7-11-21.2,0-38.6,35.2-40.1,79.8C81,225.4,84.2,240.9,89.1,253.4Z"/><path class="j" d="M129.9,262.5a170.46,170.46,0,0,1-3-32.9c0-47.5,18-86.1,40.2-86.1a22.33,22.33,0,0,1,13.5,5c-5.8-7-12.5-11-19.7-11-21.2,0-38.6,35.2-40.1,79.8C121.7,234.4,125,250,129.9,262.5Z"/><path class="j" d="M168.1,273.7a170.46,170.46,0,0,1-3-32.9c0-47.5,18-86.1,40.2-86.1a22.33,22.33,0,0,1,13.5,5c-5.8-7-12.5-11-19.7-11-21.2,0-38.6,35.2-40.1,79.8C159.9,245.6,163.2,261.1,168.1,273.7Z"/><path class="i" d="M160.3,294.2c-6.3,0-24.1-5.6-29.4-11.1-2.1,3,7.6,8.1,5.3,10.3,6.7,10.8,15.1,17.2,24.1,17.2,5.7,0,11.2-2.6,16.1-7.2a86.58,86.58,0,0,1-6.2-11.8A20.91,20.91,0,0,1,160.3,294.2Z"/><path class="i" d="M320.3,206.3c-1.9,43.7-19.1,77.9-40.1,77.9a21.5,21.5,0,0,1-10.1-2.7,77.71,77.71,0,0,1-6,11.9c4.9,4.6,10.4,7.2,16.1,7.2,22.2,0,40.2-38.5,40.2-86.1C320.5,211.7,320.4,209,320.3,206.3Z"/><path class="i" d="M269.4,284.6c-5.3,5.5-23.2,9.6-29.5,9.6a20.51,20.51,0,0,1-10.1-2.8,76.57,76.57,0,0,1-6.1,11.8c5,4.7,10.5,7.3,16.3,7.3,9.1,0,17.4-6.4,24.1-17.2C261.8,291.2,271.5,287.6,269.4,284.6Z"/><path class="i" d="M228.8,293.8c-5.2,5.2-22.7,9.6-28.8,9.6s-23-3-28.1-8.2c-2.1,3.1,6.8,5.9,4.5,8.1,6.6,10.3,14.8,16.4,23.6,16.4s17.1-6.2,23.7-16.6C221.4,301,230.9,296.8,228.8,293.8Z"/><path class="k" d="M209,97.9s-19.9,11.1-15.3,46.7"/><path class="l" d="M302,142.5c-6.3-8.6-13.7-13.6-21.7-13.6-9.1,0-17.4,6.4-24.1,17.2-4.9-4.6-10.4-7.2-16.1-7.2-8.9,0-17.1,6.2-23.7,16.6-5-4.7-10.5-7.3-16.3-7.3s-11.2,2.6-16.1,7.2c-6.6-10.3-14.8-16.4-23.6-16.4-5.7,0-11.2,2.6-16.1,7.2-6.7-10.8-15.1-17.2-24.1-17.2C98,129,80,167.5,80,215.1s18,86.1,40.2,86.1c5.7,0,11.2-2.6,16.1-7.2,6.7,10.8,15.1,17.2,24.1,17.2,5.7,0,11.2-2.6,16.1-7.2,6.6,10.3,14.8,16.4,23.6,16.4s17.1-6.2,23.7-16.6c5,4.7,10.5,7.3,16.3,7.3,9.1,0,17.4-6.4,24.1-17.2,4.9,4.6,10.4,7.2,16.1,7.2,22.2,0,40.2-38.5,40.2-86.1,0-21.1-3.5-40.4-9.4-55.3"/><circle class="m" cx="307.2" cy="150.7" r="1.7"/></svg>