<svg xmlns="http://www.w3.org/2000/svg" xmlns:xlink="http://www.w3.org/1999/xlink" viewBox="0 0 400 400"><defs><style>.a{fill:#abefac;}.b,.d,.i{fill:#333;}.b{opacity:0.2;}.b,.d{isolation:isolate;}.c{fill:#ffe560;}.d,.h{opacity:0.1;}.e,.f{fill:none;stroke:#333;stroke-miterlimit:10;stroke-width:3px;}.f{stroke-linecap:round;}.g{fill:#ffa310;}.j{fill:url(#a);}</style><linearGradient id="a" x1="271.06" y1="258.38" x2="274.95" y2="255.99" gradientTransform="matrix(1, 0, 0, -1, 0, 402)" gradientUnits="userSpaceOnUse"><stop offset="0" stop-color="#e34248"/><stop offset="1" stop-color="#9e55a0"/></linearGradient></defs><circle class="a" cx="200" cy="200" r="200"/><path class="b" d="M257.58,240.79l-1-1-1-1a65.85,65.85,0,0,0-12.91-10.44,118.35,118.35,0,0,0-10.53-6.61,116.51,116.51,0,0,0,11.67,2.65,65.52,65.52,0,0,0,16.51,1.75h2.9a65.52,65.52,0,0,0,16.51-1.75c17.53-3.06,32.93-9.73,39.12-16.41-6.19-6.67-21.59-13.34-39.12-16.41a65.56,65.56,0,0,0-16.51-1.74h-2.9a66,66,0,0,0-16.51,1.74,122.22,122.22,0,0,0-12.12,2.78q5.22-2.94,10.13-6.38a65.79,65.79,0,0,0,12.9-10.44l1-1,1-1a65.85,65.85,0,0,0,10.44-12.91c10.23-14.56,16.4-30.17,16-39.26-9.09-.35-24.7,5.82-39.26,16A66.2,66.2,0,0,0,231,149.75c-.34.34-.67.69-1,1l-1,1a65.79,65.79,0,0,0-10.44,12.9A118.51,118.51,0,0,0,212,175.19a116.51,116.51,0,0,0,2.65-11.67A65.52,65.52,0,0,0,216.35,147V144.1a65.52,65.52,0,0,0-1.75-16.51c-3.06-17.52-9.73-32.92-16.41-39.11-6.67,6.19-13.34,21.59-16.41,39.11A66,66,0,0,0,180,144.16v2.91a66.49,66.49,0,0,0,1.74,16.51,122.87,122.87,0,0,0,2.78,12.12q-2.94-5.22-6.38-10.13a65.85,65.85,0,0,0-10.44-12.91l-1-1c-.33-.35-.67-.7-1-1a65.85,65.85,0,0,0-12.91-10.44c-14.56-10.23-30.17-16.4-39.26-16.06-.35,9.1,5.83,24.71,16,39.27A66,66,0,0,0,140,176.28l1,1,1,1a65.69,65.69,0,0,0,13,10.5,118.51,118.51,0,0,0,10.54,6.61c-3.73-1-7.64-1.95-11.67-2.66A66.28,66.28,0,0,0,137.32,191h-2.91a66.49,66.49,0,0,0-16.51,1.74c-17.52,3.07-32.92,9.74-39.11,16.41,6.19,6.68,21.59,13.35,39.11,16.42a66.49,66.49,0,0,0,16.51,1.74h2.91a66.49,66.49,0,0,0,16.51-1.74A121.07,121.07,0,0,0,166,222.78a119.52,119.52,0,0,0-10.13,6.37A66.15,66.15,0,0,0,143,239.59c-.34.35-.67.7-1,1l-1,1a65.85,65.85,0,0,0-10.44,12.91c-10.23,14.56-16.4,30.16-16.06,39.26,9.1.34,24.71-5.83,39.27-16.05a65.79,65.79,0,0,0,12.9-10.44l1-1,1-1A65.8,65.8,0,0,0,179,252.36a118.35,118.35,0,0,0,6.61-10.53A119.17,119.17,0,0,0,183,253.5a65.91,65.91,0,0,0-1.76,16.5v2.9A66.07,66.07,0,0,0,183,289.42c3.07,17.53,9.74,32.93,16.41,39.12,6.68-6.19,13.35-21.59,16.42-39.12a66,66,0,0,0,1.74-16.51V270a66.49,66.49,0,0,0-1.74-16.51A119.68,119.68,0,0,0,213,241.38a119.52,119.52,0,0,0,6.37,10.13,65.79,65.79,0,0,0,10.44,12.9l1,1,1,1a65.85,65.85,0,0,0,12.91,10.44c14.56,10.23,30.16,16.4,39.26,16,.34-9.09-5.83-24.7-16.05-39.26A66.05,66.05,0,0,0,257.58,240.79Zm-58.19-26.41a32.35,32.35,0,0,0-5.28,6.82,30.74,30.74,0,0,0,1-8.1,32,32,0,0,0-8.55,1.09,30.7,30.7,0,0,0,6.41-5.05,31.77,31.77,0,0,0-6.82-5.28,30.81,30.81,0,0,0,8.11,1,32,32,0,0,0-1.09-8.55,31.07,31.07,0,0,0,5,6.41,31.5,31.5,0,0,0,5.29-6.82,31.23,31.23,0,0,0-1,8.11,32.11,32.11,0,0,0,8.56-1.09,31.13,31.13,0,0,0-6.42,5,31.77,31.77,0,0,0,6.82,5.28,31.65,31.65,0,0,0-8.1-1,32.11,32.11,0,0,0,1.09,8.56,30.64,30.64,0,0,0-5-6.38Z"/><path class="c" d="M181.26,137.08v1.45A66.18,66.18,0,0,0,183,155c3.07,17.53,9.74,32.93,16.41,39.11,6.68-6.18,13.35-21.58,16.42-39.11a66.49,66.49,0,0,0,1.74-16.51v-2.91a66.49,66.49,0,0,0-1.74-16.51c-3.07-17.52-9.74-32.92-16.42-39.11-6.67,6.19-13.34,21.59-16.41,39.11a66.49,66.49,0,0,0-1.74,16.51C181.24,136.11,181.25,136.59,181.26,137.08Z"/><path class="c" d="M142.25,168.76l1,1a65.85,65.85,0,0,0,12.91,10.44c14.56,10.23,30.16,16.4,39.26,16,.34-9.09-5.83-24.7-16.06-39.26A65.79,65.79,0,0,0,168.92,144c-.34-.35-.69-.68-1-1s-.67-.7-1-1A65.77,65.77,0,0,0,154,131.63c-14.56-10.23-30.16-16.4-39.26-16-.35,9.09,5.83,24.7,16,39.26a65.79,65.79,0,0,0,10.44,12.9Z"/><path class="c" d="M137.08,218.74h1.45A66.18,66.18,0,0,0,155,217c17.53-3.07,32.93-9.74,39.11-16.41-6.18-6.68-21.58-13.35-39.11-16.42a66.49,66.49,0,0,0-16.51-1.74h-2.91a66.49,66.49,0,0,0-16.51,1.74c-17.52,3.07-32.92,9.74-39.11,16.42,6.19,6.67,21.59,13.34,39.11,16.41a66.49,66.49,0,0,0,16.51,1.74Z"/><path class="c" d="M168.76,257.75l1-1a65.85,65.85,0,0,0,10.44-12.91c10.23-14.56,16.4-30.16,16-39.26-9.09-.34-24.7,5.83-39.26,16.06A65.79,65.79,0,0,0,144,231.08c-.35.34-.68.69-1,1l-1,1A65.77,65.77,0,0,0,131.63,246c-10.23,14.56-16.4,30.16-16,39.26,9.09.35,24.7-5.83,39.26-16a65.79,65.79,0,0,0,12.9-10.44Z"/><path class="c" d="M218.74,262.92v-1.45A66.18,66.18,0,0,0,217,245c-3.07-17.53-9.74-32.93-16.41-39.11-6.68,6.18-13.35,21.58-16.42,39.11a66.49,66.49,0,0,0-1.74,16.51v2.91a66.49,66.49,0,0,0,1.74,16.51c3.07,17.52,9.74,32.92,16.42,39.11,6.67-6.19,13.34-21.59,16.41-39.11a66.49,66.49,0,0,0,1.74-16.51C218.76,263.89,218.75,263.41,218.74,262.92Z"/><path class="c" d="M257.75,231.24l-1-1a65.85,65.85,0,0,0-12.91-10.44c-14.56-10.23-30.16-16.4-39.26-16-.34,9.09,5.83,24.7,16.06,39.26A65.79,65.79,0,0,0,231.08,256c.34.35.69.68,1,1s.67.7,1,1A65.77,65.77,0,0,0,246,268.37c14.56,10.23,30.16,16.4,39.26,16.05.35-9.09-5.83-24.7-16-39.26a65.79,65.79,0,0,0-10.44-12.9Z"/><path class="c" d="M262.92,181.26h-1.45A66.18,66.18,0,0,0,245,183c-17.53,3.07-32.93,9.74-39.11,16.41,6.18,6.68,21.58,13.35,39.11,16.42a66.49,66.49,0,0,0,16.51,1.74h2.91a66.49,66.49,0,0,0,16.51-1.74c17.52-3.07,32.92-9.74,39.11-16.42-6.19-6.67-21.59-13.34-39.11-16.41a66.49,66.49,0,0,0-16.51-1.74Z"/><path class="c" d="M231.24,142.25l-1,1a65.85,65.85,0,0,0-10.44,12.91c-10.23,14.56-16.4,30.16-16,39.26,9.09.34,24.7-5.83,39.26-16.06A65.79,65.79,0,0,0,256,168.92c.35-.34.68-.69,1-1l1-1A65.77,65.77,0,0,0,268.37,154c10.23-14.56,16.4-30.16,16.05-39.26-9.09-.35-24.7,5.83-39.26,16a65.79,65.79,0,0,0-12.9,10.44Z"/><circle class="d" cx="200" cy="200" r="25.22"/><path class="e" d="M180.65,137.08v1.45A65.7,65.7,0,0,0,182.38,155c3.06,17.53,9.73,32.93,16.41,39.11,6.67-6.18,13.34-21.58,16.41-39.11a66,66,0,0,0,1.74-16.51v-2.91a66,66,0,0,0-1.74-16.51c-3.07-17.52-9.74-32.92-16.41-39.11-6.68,6.19-13.35,21.59-16.41,39.11a65.52,65.52,0,0,0-1.75,16.51C180.63,136.11,180.64,136.59,180.65,137.08Z"/><path class="e" d="M141.65,168.76c.34.35.67.7,1,1a65.85,65.85,0,0,0,12.91,10.44c14.56,10.23,30.17,16.4,39.26,16,.35-9.09-5.82-24.7-16-39.26A65.79,65.79,0,0,0,168.33,144c-.34-.35-.69-.68-1-1s-.67-.7-1-1a65.79,65.79,0,0,0-12.9-10.44c-14.57-10.23-30.17-16.4-39.27-16-.34,9.09,5.83,24.7,16.06,39.26a65.79,65.79,0,0,0,10.44,12.9C141,168.09,141.3,168.42,141.65,168.76Z"/><path class="e" d="M136.47,218.74h1.46a66.41,66.41,0,0,0,16.5-1.74c17.53-3.07,32.93-9.74,39.12-16.41-6.19-6.68-21.59-13.35-39.12-16.42a66.41,66.41,0,0,0-16.5-1.74H135a66.49,66.49,0,0,0-16.51,1.74c-17.53,3.07-32.93,9.74-39.12,16.42C85.58,207.28,101,214,118.51,217A66.3,66.3,0,0,0,135,218.76Z"/><path class="e" d="M168.16,257.75l1-1a66.27,66.27,0,0,0,10.45-12.91c10.22-14.56,16.39-30.16,16-39.26-9.1-.34-24.7,5.83-39.26,16.06a65.85,65.85,0,0,0-12.91,10.44l-1,1-1,1A66.17,66.17,0,0,0,131,246c-10.22,14.56-16.39,30.16-16,39.26,9.1.35,24.7-5.83,39.26-16a66.15,66.15,0,0,0,12.91-10.44Z"/><path class="e" d="M218.14,262.92v-1.45A65.7,65.7,0,0,0,216.41,245c-3.06-17.53-9.73-32.93-16.41-39.11-6.68,6.18-13.35,21.58-16.41,39.11a66,66,0,0,0-1.74,16.51v2.91a66,66,0,0,0,1.74,16.51c3.06,17.52,9.73,32.92,16.41,39.11,6.68-6.19,13.35-21.59,16.41-39.11a66,66,0,0,0,1.74-16.51C218.15,263.89,218.15,263.41,218.14,262.92Z"/><path class="e" d="M257.14,231.24c-.34-.35-.67-.7-1-1a65.85,65.85,0,0,0-12.91-10.44c-14.56-10.23-30.17-16.4-39.26-16-.35,9.09,5.82,24.7,16,39.26A65.79,65.79,0,0,0,230.41,256l1,1c.31.32.67.7,1,1a65.79,65.79,0,0,0,12.9,10.44c14.56,10.23,30.17,16.4,39.27,16.05.34-9.09-5.83-24.7-16.06-39.26a65.79,65.79,0,0,0-10.44-12.9A6.11,6.11,0,0,0,257.14,231.24Z"/><path class="e" d="M262.32,181.26h-1.46A66.49,66.49,0,0,0,244.35,183c-17.52,3.07-32.92,9.74-39.11,16.41,6.19,6.68,21.59,13.35,39.11,16.42a66.49,66.49,0,0,0,16.51,1.74h2.91a66.49,66.49,0,0,0,16.51-1.74c17.53-3.07,32.93-9.74,39.11-16.42-6.18-6.67-21.58-13.34-39.11-16.41a66.49,66.49,0,0,0-16.51-1.74Z"/><path class="f" d="M277.9,136.56c4-8.54,6.13-16.37,5.92-21.84-9.1-.35-24.7,5.83-39.26,16.05a66.15,66.15,0,0,0-12.91,10.44l-1,1-1,1a66.15,66.15,0,0,0-10.44,12.91c-10.22,14.56-16.39,30.16-16.05,39.26,9.1.34,24.7-5.83,39.26-16.06a65.85,65.85,0,0,0,12.91-10.44l1-1,1-1A66.7,66.7,0,0,0,267.77,154l.48-.69"/><circle class="g" cx="200" cy="200" r="20"/><path class="d" d="M199.39,214.15a20,20,0,0,1-19.76-17.07,20,20,0,1,0,39.53,0A20,20,0,0,1,199.39,214.15Z"/><circle class="e" cx="200" cy="200" r="20"/><g class="h"><path class="i" d="M212.15,159.79c.83-1.49,1.72-3,2.64-4.49v-.07a65.52,65.52,0,0,0,1.75-16.51v-5a61.93,61.93,0,0,1-1.72,14.41A116.6,116.6,0,0,1,212.15,159.79Z"/><path class="i" d="M217.73,259.56A62.2,62.2,0,0,1,216,274c-3.07,17.52-9.74,32.92-16.42,39.11-6.67-6.19-13.34-21.59-16.41-39.11a62.47,62.47,0,0,1-1.72-14.41v5a66.49,66.49,0,0,0,1.74,16.51c3.07,17.52,9.74,32.92,16.41,39.11C206.28,314,213,298.6,216,281.08a66.49,66.49,0,0,0,1.74-16.51v-2.91C217.76,260.94,217.75,260.25,217.73,259.56Z"/><path class="i" d="M245,261.45A66.15,66.15,0,0,1,232.11,251l-1-1-1-1a65.79,65.79,0,0,1-10.44-12.9A119.52,119.52,0,0,1,213.3,226,119.13,119.13,0,0,1,216,237.62c1.16,1.87,2.38,3.74,3.68,5.59a66.15,66.15,0,0,0,10.44,12.91l1,1,1,1A65.73,65.73,0,0,0,245,268.56c14.56,10.23,30.16,16.4,39.26,16.06a29.37,29.37,0,0,0-.76-7.12C274.34,277.5,259.19,271.41,245,261.45Z"/><path class="i" d="M279.88,208.89a66,66,0,0,1-16.51,1.74h-2.9A66.18,66.18,0,0,1,244,208.89a119.39,119.39,0,0,1-11.67-2.66,118.35,118.35,0,0,1,10.53,6.61,49.18,49.18,0,0,1,5.91,4.12,79.48,79.48,0,0,0,11.74.78h2.9A66.18,66.18,0,0,0,279.88,216c17.53-3.07,32.93-9.74,39.12-16.41a26.24,26.24,0,0,0-4.17-3.56C307.23,201.42,294.28,206.37,279.88,208.89Z"/><path class="i" d="M185.85,226.37a118.35,118.35,0,0,1-6.61,10.53,65.85,65.85,0,0,1-10.44,12.91l-1,1-1,1a65.79,65.79,0,0,1-12.9,10.44c-14.18,9.95-29.32,16.05-38.51,16.05a30.37,30.37,0,0,0-.76,7.11c9.1.35,24.71-5.82,39.27-16.05A65.68,65.68,0,0,0,166.74,259c.35-.34.68-.69,1-1l1-1a65.69,65.69,0,0,0,10.5-13c1.41-2,2.72-4,4-6.05C183.92,234.05,184.79,230.18,185.85,226.37Z"/><path class="i" d="M134.62,219h2.91a78.43,78.43,0,0,0,12.25-.86A50.21,50.21,0,0,1,156,213.7a117.15,117.15,0,0,1,10.13-6.38A122.41,122.41,0,0,1,154,210.1a66.49,66.49,0,0,1-16.51,1.74h-2.91a66.49,66.49,0,0,1-16.51-1.74c-14.39-2.52-27.34-7.47-34.94-12.86A26,26,0,0,0,79,200.8c6.19,6.67,21.59,13.34,39.11,16.41A66,66,0,0,0,134.62,219Z"/><path class="i" d="M182,155.23l.09.47q1.41,2.28,2.69,4.54A122.22,122.22,0,0,1,182,148.12a62.47,62.47,0,0,1-1.72-14.41v5A65.54,65.54,0,0,0,182,155.23Z"/><path class="i" d="M140.21,167.94l1,1,1,1a82.14,82.14,0,0,0,7,6.32,39.14,39.14,0,0,1,4.77,1c4,.71,7.94,1.61,11.67,2.66a118.51,118.51,0,0,1-10.54-6.61,65.79,65.79,0,0,1-12.9-10.44l-1-1-1-1A66.15,66.15,0,0,1,129.77,148c-7.91-11.26-13.37-23.13-15.29-32.15h-.76c-.35,9.09,5.83,24.7,16.05,39.26A66.64,66.64,0,0,0,140.21,167.94Z"/><path class="i" d="M256.93,160l-1,1c-.34.35-.67.7-1,1A65.43,65.43,0,0,1,242,172.46a117.15,117.15,0,0,1-10.13,6.38A122.41,122.41,0,0,1,244,176.06c1.3-.34,2.73-.63,4.25-.87a86.71,86.71,0,0,0,6.66-6.05l1-1,1-1a65.85,65.85,0,0,0,10.44-12.91c10.23-14.56,16.4-30.16,16-39.26h-.76c-1.92,9-7.38,20.88-15.29,32.14A66,66,0,0,1,256.93,160Z"/></g><path class="f" d="M213.24,201.58s-.42,11.72-11.72,11.72"/><circle class="j" cx="273.44" cy="145.08" r="1.67"/></svg>