<?xml version="1.0" encoding="utf-8"?>
<!-- Generator: Adobe Illustrator 15.0.0, SVG Export Plug-In . SVG Version: 6.00 Build 0)  -->
<!DOCTYPE svg PUBLIC "-//W3C//DTD SVG 1.1//EN" "http://www.w3.org/Graphics/SVG/1.1/DTD/svg11.dtd" [
	<!ENTITY ns_flows "http://ns.adobe.com/Flows/1.0/">
	<!ENTITY ns_extend "http://ns.adobe.com/Extensibility/1.0/">
	<!ENTITY ns_ai "http://ns.adobe.com/AdobeIllustrator/10.0/">
	<!ENTITY ns_graphs "http://ns.adobe.com/Graphs/1.0/">
]>
<svg version="1.1" id="Layer_1" xmlns:x="&ns_extend;" xmlns:i="&ns_ai;" xmlns:graph="&ns_graphs;"
	 xmlns="http://www.w3.org/2000/svg" xmlns:xlink="http://www.w3.org/1999/xlink" xmlns:a="http://ns.adobe.com/AdobeSVGViewerExtensions/3.0/"
	 x="0px" y="0px" width="64px" height="64px" viewBox="0 0 64 64" enable-background="new 0 0 64 64" xml:space="preserve">
<linearGradient id="Oval_1_" gradientUnits="userSpaceOnUse" x1="-211.915" y1="275.918" x2="-211.915" y2="276.918" gradientTransform="matrix(60 0 0 -60 12746.9063 16617.0625)">
	<stop  offset="0" style="stop-color:#FF7B00"/>
	<stop  offset="0.3236" style="stop-color:#FFAE00"/>
	<stop  offset="0.6205" style="stop-color:#FFD600"/>
	<stop  offset="0.8558" style="stop-color:#FFEE00"/>
	<stop  offset="1" style="stop-color:#FFF700"/>
	<a:midPointStop  offset="0" style="stop-color:#FF7B00"/>
	<a:midPointStop  offset="0.4" style="stop-color:#FF7B00"/>
	<a:midPointStop  offset="1" style="stop-color:#FFF700"/>
</linearGradient>
<circle id="Oval_16_" fill="url(#Oval_1_)" cx="32" cy="32" r="30"/>
<path id="Shape_14_" fill="#1A1626" d="M25.658,50.003c7.75,2.006,17.273-1.017,21.293-7.304c0.33-0.516-0.182-1.063-0.699-0.654
	c-4.201,3.316-13.119,5.785-19.648,3.876C24.104,45.189,23.018,49.318,25.658,50.003z"/>
<path fill="#1A1626" d="M27.502,29.917c-3.35-3.887-13.57-2.729-17.043,3.107c-0.232,0.39,0.078,0.867,0.611,0.539
	c3.354-2.063,7.57-1.959,7.57-1.959c0.008,2.809,2.227,5.084,4.967,5.084C27.576,36.688,29.467,32.198,27.502,29.917z"/>
<path fill="#1A1626" d="M52.836,29.917c-3.35-3.887-13.57-2.729-17.043,3.107c-0.232,0.39,0.076,0.867,0.609,0.539
	c3.354-2.063,7.572-1.959,7.572-1.959c0.008,2.809,2.227,5.084,4.967,5.084C52.91,36.688,54.801,32.198,52.836,29.917z"/>
<path fill="#D69600" d="M15.03,18.857c-9.787,5.788-3.547,7.042,5.318,3.161C25.353,19.829,21.474,15.044,15.03,18.857z"/>
<path fill="#D69600" d="M48.968,15.873c-6.443-3.813-10.32,0.972-5.316,3.161C52.517,22.915,58.757,21.661,48.968,15.873z"/>
</svg>
