<svg width="16" height="16" viewBox="0 0 16 16" fill="none" xmlns="http://www.w3.org/2000/svg">
<g clip-path="url(#clip0_1503_19772)">
<path d="M3.47859 8.0199C3.47854 7.87793 3.50681 7.73736 3.56176 7.60645C3.61671 7.47554 3.69722 7.35691 3.79859 7.2575L10.649 0.545502C10.8513 0.347227 11.1241 0.237438 11.4073 0.240288C11.6906 0.243139 11.9611 0.358395 12.1594 0.560702C12.3577 0.763009 12.4675 1.0358 12.4646 1.31905C12.4618 1.60231 12.3465 1.87283 12.1442 2.0711L6.07219 8.0199L12.1442 13.9695C12.2476 14.0669 12.3306 14.184 12.3882 14.3138C12.4458 14.4437 12.4769 14.5837 12.4798 14.7257C12.4826 14.8678 12.4571 15.009 12.4046 15.141C12.3522 15.273 12.274 15.3933 12.1745 15.4947C12.0751 15.5962 11.9564 15.6768 11.8254 15.7317C11.6944 15.7867 11.5537 15.815 11.4117 15.815C11.2696 15.8149 11.129 15.7866 10.998 15.7315C10.8671 15.6764 10.7484 15.5958 10.649 15.4943L3.79859 8.7823C3.69722 8.6829 3.61671 8.56426 3.56176 8.43335C3.50681 8.30244 3.47854 8.16188 3.47859 8.0199Z" fill="#FAFAFA"/>
</g>
<defs>
<clipPath id="clip0_1503_19772">
<rect width="16" height="16" fill="white" transform="translate(16) rotate(90)"/>
</clipPath>
</defs>
</svg>
