<svg width="195" height="113" viewBox="0 0 195 113" fill="none" xmlns="http://www.w3.org/2000/svg">
<path d="M97.2458 112.517C95.4711 112.518 93.7141 112.165 92.0777 111.478C90.4413 110.791 88.9584 109.784 87.7159 108.517L3.81585 22.8873C1.3374 20.3585 -0.034955 16.9487 0.000676914 13.408C0.0363088 9.86731 1.47701 6.4858 4.00585 4.00735C6.53469 1.5289 9.94451 0.156539 13.4852 0.192171C17.0259 0.227803 20.4074 1.6685 22.8859 4.19734L97.2458 80.0974L171.616 4.19734C172.833 2.90457 174.297 1.8677 175.92 1.14742C177.543 0.427151 179.293 0.0379626 181.069 0.00264123C182.844 -0.0326801 184.609 0.286575 186.26 0.94172C187.91 1.59687 189.413 2.57473 190.681 3.81806C191.949 5.06138 192.956 6.54518 193.644 8.18257C194.331 9.81997 194.685 11.578 194.684 13.3539C194.684 15.1297 194.329 16.8876 193.641 18.5245C192.952 20.1615 191.945 21.6448 190.676 22.8873L106.776 108.517C105.533 109.784 104.05 110.791 102.414 111.478C100.778 112.165 99.0206 112.518 97.2458 112.517Z" fill="#FAFAFA"/>
</svg>
