<svg width="21" height="20" viewBox="0 0 21 20" fill="none" xmlns="http://www.w3.org/2000/svg">
    <path d="M7.58692 3C7.98248 3 8.36916 3.1173 8.69806 3.33706C9.02695 3.55682 9.2833 3.86918 9.43468 4.23463C9.58605 4.60009 9.62566 5.00222 9.54849 5.39018C9.47132 5.77814 9.28083 6.13451 9.00113 6.41421C8.72142 6.69392 8.36506 6.8844 7.9771 6.96157C7.58913 7.03874 7.187 6.99914 6.82155 6.84776C6.4561 6.69638 6.14374 6.44004 5.92398 6.11114C5.70421 5.78224 5.58692 5.39556 5.58692 5C5.58692 4.46957 5.79763 3.96086 6.1727 3.58579C6.54778 3.21071 7.05648 3 7.58692 3ZM7.58692 1C6.79579 1 6.02243 1.2346 5.36464 1.67412C4.70684 2.11365 4.19415 2.73836 3.8914 3.46927C3.58865 4.20017 3.50943 5.00444 3.66377 5.78036C3.81812 6.55629 4.19908 7.26902 4.75849 7.82843C5.3179 8.38784 6.03063 8.7688 6.80655 8.92314C7.58248 9.07748 8.38674 8.99827 9.11765 8.69552C9.84855 8.39277 10.4733 7.88008 10.9128 7.22228C11.3523 6.56448 11.5869 5.79113 11.5869 5C11.5869 3.93913 11.1655 2.92172 10.4153 2.17157C9.6652 1.42143 8.64778 1 7.58692 1Z" fill="#DCDCDC"/>
    <path d="M12.5249 2.158V2.2C12.5276 2.4037 12.5924 2.60172 12.7107 2.76757C12.829 2.93341 12.9952 3.05917 13.1869 3.128C13.5677 3.2712 13.8957 3.52711 14.1273 3.86158C14.3588 4.19606 14.4829 4.59319 14.4829 5C14.4829 5.40681 14.3588 5.80395 14.1273 6.13842C13.8957 6.4729 13.5677 6.72881 13.1869 6.872C12.9952 6.94084 12.829 7.0666 12.7107 7.23244C12.5924 7.39828 12.5276 7.5963 12.5249 7.8V7.842C12.525 7.99954 12.5631 8.15474 12.6358 8.29449C12.7085 8.43424 12.8138 8.55445 12.9427 8.64496C13.0717 8.73546 13.2205 8.79362 13.3767 8.81451C13.5328 8.83541 13.6917 8.81843 13.8399 8.765C14.6155 8.48673 15.2862 7.97571 15.7604 7.30181C16.2346 6.62791 16.4891 5.82401 16.4891 5C16.4891 4.176 16.2346 3.3721 15.7604 2.6982C15.2862 2.0243 14.6155 1.51328 13.8399 1.235C13.6917 1.18158 13.5328 1.1646 13.3767 1.18549C13.2205 1.20639 13.0717 1.26454 12.9427 1.35505C12.8138 1.44556 12.7085 1.56576 12.6358 1.70552C12.5631 1.84527 12.525 2.00046 12.5249 2.158Z" fill="#DCDCDC"/>
    <path d="M15.4727 10.29C15.3979 10.2668 15.3186 10.2615 15.2413 10.2746C15.1641 10.2876 15.091 10.3187 15.0279 10.3652C14.9648 10.4117 14.9136 10.4724 14.8783 10.5424C14.843 10.6123 14.8246 10.6896 14.8247 10.768V11.825C14.8249 11.9251 14.8551 12.0228 14.9114 12.1055C14.9678 12.1882 15.0476 12.2522 15.1407 12.289C15.7312 12.5149 16.267 12.8636 16.7127 13.312C17.1287 13.7236 17.4589 14.2138 17.6841 14.754C17.9093 15.2942 18.0251 15.8737 18.0247 16.459V16.5C18.0247 16.6326 17.972 16.7598 17.8783 16.8535C17.7845 16.9473 17.6573 17 17.5247 17H17.0247C16.7595 17 16.5051 17.1053 16.3176 17.2929C16.1301 17.4804 16.0247 17.7348 16.0247 18C16.0247 18.2652 16.1301 18.5196 16.3176 18.7071C16.5051 18.8946 16.7595 19 17.0247 19H18.3177C18.77 18.9987 19.2034 18.8184 19.5233 18.4986C19.8431 18.1787 20.0234 17.7453 20.0247 17.293V16.459C20.0204 15.0803 19.5767 13.739 18.7581 12.6297C17.9396 11.5203 16.7887 10.7008 15.4727 10.29Z" fill="#DCDCDC"/>
    <path d="M8.641 10H6.459C4.74759 10.0053 3.10778 10.6875 1.89762 11.8976C0.687468 13.1078 0.00527484 14.7476 0 16.459V17.793C0.000792095 18.1129 0.128212 18.4194 0.354397 18.6456C0.580582 18.8718 0.887127 18.9992 1.207 19H13.893C14.2129 18.9992 14.5194 18.8718 14.7456 18.6456C14.9718 18.4194 15.0992 18.1129 15.1 17.793V16.459C15.0947 14.7476 14.4125 13.1078 13.2024 11.8976C11.9922 10.6875 10.3524 10.0053 8.641 10ZM13.1 17H2V16.459C2.00552 15.2781 2.47708 14.1471 3.31211 13.3121C4.14714 12.4771 5.2781 12.0055 6.459 12H8.641C9.8219 12.0055 10.9529 12.4771 11.7879 13.3121C12.6229 14.1471 13.0945 15.2781 13.1 16.459V17Z" fill="#DCDCDC"/>
</svg>
