<svg width="26" height="18" viewBox="0 0 26 18" fill="none" xmlns="http://www.w3.org/2000/svg">
<rect width="26" height="18" rx="4" fill="#FAFAFA"/>
<path d="M10.4361 7.632C10.2601 7.30933 10.0181 7.06367 9.71005 6.895C9.40205 6.72633 9.04272 6.642 8.63206 6.642C8.17739 6.642 7.77405 6.74467 7.42205 6.95C7.07005 7.15533 6.79505 7.44867 6.59705 7.83C6.39905 8.21133 6.30005 8.65133 6.30005 9.15C6.30005 9.66333 6.39905 10.1107 6.59705 10.492C6.80239 10.8733 7.08472 11.1667 7.44405 11.372C7.80339 11.5773 8.22139 11.68 8.69805 11.68C9.28472 11.68 9.76505 11.526 10.1391 11.218C10.5131 10.9027 10.7587 10.4663 10.8761 9.909H8.23605V8.732H12.3941V10.074C12.2914 10.6093 12.0714 11.1043 11.7341 11.559C11.3967 12.0137 10.9604 12.3803 10.4251 12.659C9.89705 12.9303 9.30305 13.066 8.64305 13.066C7.90239 13.066 7.23139 12.901 6.63005 12.571C6.03605 12.2337 5.56672 11.768 5.22205 11.174C4.88472 10.58 4.71605 9.90533 4.71605 9.15C4.71605 8.39467 4.88472 7.72 5.22205 7.126C5.56672 6.52467 6.03605 6.059 6.63005 5.729C7.23139 5.39167 7.89872 5.223 8.63206 5.223C9.49739 5.223 10.2491 5.43567 10.8871 5.861C11.5251 6.279 11.9651 6.86933 12.2071 7.632H10.4361ZM15.0734 5.322V13H13.5334V5.322H15.0734ZM21.3359 5.322V6.565H18.1349V8.534H20.5879V9.755H18.1349V13H16.5949V5.322H21.3359Z" fill="#282828"/>
</svg>
