<svg width="200" height="200" viewBox="0 0 200 200" fill="none" xmlns="http://www.w3.org/2000/svg">
<path d="M85 130C90.5228 130 95 125.523 95 120C95 114.477 90.5228 110 85 110C79.4772 110 75 114.477 75 120C75 125.523 79.4772 130 85 130Z" fill="url(#paint0_linear)"/>
<path fill-rule="evenodd" clip-rule="evenodd" d="M149.06 2.25021e-05H51C45.6957 2.25021e-05 40.6086 2.10716 36.8579 5.85789C33.1071 9.60861 31 14.6957 31 20V179.81C31 185.114 33.1071 190.201 36.8579 193.952C40.6086 197.703 45.6957 199.81 51 199.81H149.09C154.394 199.81 159.481 197.703 163.232 193.952C166.983 190.201 169.09 185.114 169.09 179.81V20C169.09 17.3711 168.572 14.7679 167.565 12.3394C166.558 9.91095 165.082 7.70483 163.222 5.84727C161.361 3.98971 159.153 2.51714 156.723 1.51381C154.293 0.510484 151.689 -0.00392094 149.06 2.25021e-05ZM149.06 179.79H51V20H149.09L149.06 179.79Z" fill="#FAFAFA"/>
<path fill-rule="evenodd" clip-rule="evenodd" d="M100 98.25C105.785 98.25 111.44 96.5345 116.25 93.3205C121.061 90.1065 124.81 85.5382 127.023 80.1935C129.237 74.8488 129.817 68.9676 128.688 63.2936C127.559 57.6197 124.774 52.4078 120.683 48.3171C116.592 44.2265 111.38 41.4407 105.706 40.312C100.032 39.1834 94.1512 39.7627 88.8065 41.9765C83.4618 44.1904 78.8935 47.9394 75.6795 52.7496C72.4655 57.5597 70.75 63.2149 70.75 69C70.7606 76.7543 73.8457 84.1881 79.3288 89.6712C84.812 95.1544 92.2457 98.2394 100 98.25ZM100 56C102.571 56 105.085 56.7625 107.222 58.1909C109.36 59.6194 111.026 61.6497 112.01 64.0251C112.994 66.4006 113.252 69.0144 112.75 71.5362C112.249 74.0579 111.01 76.3743 109.192 78.1924C107.374 80.0105 105.058 81.2486 102.536 81.7502C100.014 82.2518 97.4006 81.9944 95.0251 81.0105C92.6497 80.0265 90.6193 78.3603 89.1909 76.2224C87.7624 74.0846 87 71.5712 87 69C87 65.5522 88.3696 62.2456 90.8076 59.8076C93.2456 57.3697 96.5522 56 100 56Z" fill="#FAFAFA"/>
<path d="M115 130C120.523 130 125 125.523 125 120C125 114.477 120.523 110 115 110C109.477 110 105 114.477 105 120C105 125.523 109.477 130 115 130Z" fill="#FAFAFA"/>
<path d="M85 160C90.5228 160 95 155.523 95 150C95 144.477 90.5228 140 85 140C79.4772 140 75 144.477 75 150C75 155.523 79.4772 160 85 160Z" fill="#FAFAFA"/>
<path d="M115 160C120.523 160 125 155.523 125 150C125 144.477 120.523 140 115 140C109.477 140 105 144.477 105 150C105 155.523 109.477 160 115 160Z" fill="#FAFAFA"/>
<defs>
<linearGradient id="paint0_linear" x1="73.68" y1="108" x2="95.9" y2="131.55" gradientUnits="userSpaceOnUse">
<stop stop-color="#E34248"/>
<stop offset="1" stop-color="#9E55A0"/>
</linearGradient>
</defs>
</svg>
