<svg width="200" height="200" viewBox="0 0 200 200" fill="none" xmlns="http://www.w3.org/2000/svg">
<g clip-path="url(#clip0_1_822)">
<path d="M80.7902 58.9801C82.6654 60.8548 85.2085 61.9079 87.8602 61.9079C90.5118 61.9079 93.0549 60.8548 94.9302 58.9801L124.32 29.6201C130.46 23.4806 138.787 20.0314 147.47 20.0314C156.153 20.0314 164.48 23.4806 170.62 29.6201V29.6201C176.757 35.7596 180.204 44.0847 180.204 52.7651C180.204 61.4455 176.757 69.7706 170.62 75.9101L141.23 105.31C139.355 107.185 138.302 109.728 138.302 112.38C138.302 115.032 139.355 117.575 141.23 119.45V119.45C143.105 121.325 145.649 122.378 148.3 122.378C150.952 122.378 153.495 121.325 155.37 119.45L184.14 90.6201C204.46 70.3001 205.25 36.2801 185.14 15.7701C180.152 10.6619 174.173 6.62585 167.57 3.90905C160.967 1.19224 153.879 -0.148109 146.74 -0.0299212C132.738 0.296024 119.412 6.0554 109.58 16.0301L80.7902 44.8401C78.9155 46.7154 77.8623 49.2584 77.8623 51.9101C77.8623 54.5617 78.9155 57.1048 80.7902 58.9801V58.9801Z" fill="#FAFAFA"/>
<path d="M120.01 140.62C118.135 138.745 115.592 137.692 112.94 137.692C110.288 137.692 107.745 138.745 105.87 140.62L76.4799 170.02C70.34 176.16 62.0127 179.609 53.3299 179.609C44.647 179.609 36.3198 176.16 30.1799 170.02V170.02C24.0434 163.881 20.5962 155.555 20.5962 146.875C20.5962 138.195 24.0434 129.87 30.1799 123.73L59.5699 94.3301C61.4446 92.4548 62.4977 89.9117 62.4977 87.2601C62.4977 84.6084 61.4446 82.0654 59.5699 80.1901V80.1901C57.6946 78.3154 55.1515 77.2622 52.4999 77.2622C49.8482 77.2622 47.3052 78.3154 45.4299 80.1901L16.6599 108.96C-3.66011 129.28 -4.45011 163.3 15.6599 183.81C20.6474 188.92 26.626 192.957 33.2291 195.674C39.8322 198.39 46.9207 199.73 54.0599 199.61C68.0618 199.284 81.388 193.525 91.2199 183.55L119.99 154.77C121.865 152.895 122.918 150.352 122.918 147.7C122.918 145.048 121.865 142.505 119.99 140.63L120.01 140.62Z" fill="#FAFAFA"/>
<path d="M79.7098 130.49C77.7323 130.489 75.7993 129.903 74.1552 128.804C72.5111 127.705 71.2297 126.143 70.473 124.316C69.7163 122.489 69.5183 120.479 69.9039 118.54C70.2896 116.6 71.2417 114.818 72.6398 113.42L114.22 71.8499C116.095 69.9695 118.64 68.911 121.296 68.9072C123.951 68.9035 126.499 69.9548 128.38 71.8299C130.26 73.7049 131.319 76.2502 131.322 78.9057C131.326 81.5612 130.275 84.1095 128.4 85.9899L86.7798 127.62C84.8951 129.473 82.3531 130.505 79.7098 130.49Z" fill="#FAFAFA"/>
</g>
<defs>
<clipPath id="clip0_1_822">
<rect width="200" height="200" fill="white"/>
</clipPath>
</defs>
</svg>
