<svg width="200" height="200" viewBox="0 0 200 200" fill="none" xmlns="http://www.w3.org/2000/svg">
<g clip-path="url(#clip0)">
<path d="M100.3 20L179.8 68.1V179.9H20V68.1L100.3 20ZM100.3 0C96.7 0 93.2 0.9 90 2.8L9.7 50.9C3.7 54.5 0 61.1 0 68.1V179.9C0 190.9 9 199.9 20 199.9H179.8C190.8 199.9 199.8 190.9 199.8 179.9V68.1C199.8 61.1 196.1 54.6 190.2 51L110.6 2.9C107.5 1 103.9 0 100.3 0Z" fill="#5A5A5A"/>
<path d="M130.4 168.7H39.3C33.8 168.7 29.3 164.2 29.3 158.7C29.3 153.2 33.8 148.7 39.3 148.7H130.4C135.9 148.7 140.4 153.2 140.4 158.7C140.4 164.2 135.9 168.7 130.4 168.7Z" fill="#5A5A5A"/>
<path d="M159.8 168.7C165.323 168.7 169.8 164.223 169.8 158.7C169.8 153.177 165.323 148.7 159.8 148.7C154.277 148.7 149.8 153.177 149.8 158.7C149.8 164.223 154.277 168.7 159.8 168.7Z" fill="url(#paint0_linear)"/>
</g>
<defs>
<linearGradient id="paint0_linear" x1="148.894" y1="147.822" x2="169.231" y2="168.159" gradientUnits="userSpaceOnUse">
<stop stop-color="#E34248"/>
<stop offset="1" stop-color="#9E55A0"/>
</linearGradient>
<clipPath id="clip0">
<rect width="199.8" height="199.9" fill="white"/>
</clipPath>
</defs>
</svg>
