<svg width="500" height="500" viewBox="0 0 500 500" fill="none" xmlns="http://www.w3.org/2000/svg">
<mask id="mask0" style="mask-type:alpha" maskUnits="userSpaceOnUse" x="0" y="13" width="500" height="475">
<path d="M299.94 112.98V13H0V112.98H99.98V388H199.96V112.98H299.94Z" fill="#EF3E3A"/>
<path d="M362.49 138C286.529 138 224.98 199.549 224.98 275.51V487.98H324.96V407.816C336.87 411.219 349.48 413.02 362.49 413.02C438.451 413.02 500 351.471 500 275.51C500 199.549 438.351 138 362.49 138ZM362.49 312.94C341.773 312.94 324.96 296.127 324.96 275.41C324.96 254.693 341.773 237.88 362.49 237.88C383.207 237.88 400.02 254.693 400.02 275.41C399.92 296.227 383.207 312.94 362.49 312.94Z" fill="#EF3E3A"/>
</mask>
<g mask="url(#mask0)">
<rect width="500" height="500" fill="#FAFAFA"/>
</g>
</svg>
