<svg width="200" height="200" viewBox="0 0 200 200" fill="none" xmlns="http://www.w3.org/2000/svg">
<g clip-path="url(#clip0)">
<path d="M79.7 130.5C77.1 130.5 74.6 129.5 72.6 127.6C68.7 123.7 68.7 117.4 72.6 113.5L95.9001 90.2C99.8001 86.3 106.1 86.3 110 90.2C113.9 94.1 113.9 100.4 110 104.3L86.7 127.6C84.8 129.5 82.3 130.5 79.7 130.5Z" fill="#5A5A5A"/>
<path d="M80.8 59C84.7 62.9 91 62.9 94.9 59L124.3 29.6C130.7 23.2 139.1 20 147.4 20C155.8 20 164.2 23.2 170.5 29.6C183.3 42.4 183.3 63.1 170.5 75.9L141.1 105.3C137.2 109.2 137.2 115.5 141.1 119.4C145 123.3 151.3 123.3 155.2 119.4L184 90.6C204.3 70.3 205.1 36.3 185 15.8C174.9 5.39999 161.3 -0.20001 146.7 -1.04383e-05C132.7 0.19999 119.4 6.19999 109.5 16.1L80.8 44.8C76.9 48.7 76.9 55.1 80.8 59Z" fill="#5A5A5A"/>
<path d="M120 140.6C116.1 136.7 109.8 136.7 105.9 140.6L76.5 170C70.1 176.4 61.7 179.6 53.4 179.6C45 179.6 36.6 176.4 30.3 170C17.5 157.2 17.5 136.5 30.3 123.7L59.7 94.3C63.6 90.4 63.6 84.1 59.7 80.2C55.8 76.3 49.5 76.3 45.6 80.2L16.7 109C-3.6 129.3 -4.4 163.3 15.7 183.8C25.9 194.2 39.6 199.8 54.1 199.6C68.1 199.4 81.4 193.4 91.3 183.5L120.1 154.7C123.9 150.9 123.9 144.5 120 140.6Z" fill="#5A5A5A"/>
<path d="M121.1 89.4C126.789 89.4 131.4 84.7885 131.4 79.1C131.4 73.4115 126.789 68.8 121.1 68.8C115.412 68.8 110.8 73.4115 110.8 79.1C110.8 84.7885 115.412 89.4 121.1 89.4Z" fill="url(#paint0_linear)"/>
</g>
<defs>
<linearGradient id="paint0_linear" x1="109.38" y1="66.7023" x2="132.367" y2="91.0693" gradientUnits="userSpaceOnUse">
<stop stop-color="#E34248"/>
<stop offset="1" stop-color="#9E55A0"/>
</linearGradient>
<clipPath id="clip0">
<rect width="200" height="200" fill="white"/>
</clipPath>
</defs>
</svg>
