<svg width="200" height="200" viewBox="0 0 200 200" fill="none" xmlns="http://www.w3.org/2000/svg">
<path d="M137.1 165.1C142.623 165.1 147.1 160.623 147.1 155.1C147.1 149.577 142.623 145.1 137.1 145.1C131.577 145.1 127.1 149.577 127.1 155.1C127.1 160.623 131.577 165.1 137.1 165.1Z" fill="url(#paint0_linear)"/>
<path d="M158.6 20.1H138C136.7 8.8 127.3 0 116 0H83.3C72 0 62.6 8.8 61.2 20.1H40.7C27.6 20.1 17 30.7 17 43.8V175.8C17 188.9 27.6 199.5 40.7 199.5H158.6C171.7 199.5 182.3 188.9 182.3 175.8V43.8C182.3 30.7 171.6 20.1 158.6 20.1ZM81.1 22.9C81.1 21.3 82.1 20 83.3 20H116C117.2 20 118.2 21.3 118.2 22.9V41.5C118.2 43.1 117.2 44.4 116 44.4H83.3C82.1 44.4 81.1 43.1 81.1 41.5V22.9ZM162.3 175.8C162.3 177.8 160.6 179.5 158.6 179.5H40.7C38.7 179.5 37 177.8 37 175.8V43.8C37 41.8 38.7 40.1 40.7 40.1H61.1V41.5C61.1 54.1 71.1 64.4 83.3 64.4H116C128.2 64.4 138.2 54.1 138.2 41.5V40.1H158.6C160.6 40.1 162.3 41.8 162.3 43.8V175.8V175.8Z" fill="#F0F0F0"/>
<defs>
<linearGradient id="paint0_linear" x1="127.13" y1="155.072" x2="147.409" y2="155.072" gradientUnits="userSpaceOnUse">
<stop stop-color="#E34248"/>
<stop offset="1" stop-color="#9E55A0"/>
</linearGradient>
</defs>
</svg>
