<svg width="200" height="200" viewBox="0 0 200 200" fill="none" xmlns="http://www.w3.org/2000/svg">
<g clip-path="url(#clip0)">
<path d="M100 130.4C83.2001 130.4 69.6001 116.8 69.6001 100C69.6001 88.8 75.8001 78.5 85.7001 73.2C90.6001 70.6 96.6001 72.4 99.2001 77.3C101.8 82.2 100 88.2 95.1001 90.8C91.7001 92.6 89.6001 96.1 89.6001 100C89.6001 105.7 94.3001 110.4 100 110.4C103.9 110.4 107.5 108.2 109.3 104.7C111.8 99.8 117.9 97.8 122.8 100.4C127.7 102.9 129.7 109 127.1 113.9C121.8 124.1 111.5 130.4 100 130.4Z" fill="#F0F0F0"/>
<path d="M100 200C99.7001 200 99.3001 200 99.0001 200C83.9001 199.5 72.0001 187 72.0001 171.6V170.7C72.0001 170.2 71.7001 169.8 71.3001 169.6L71.0001 169.5C70.7001 169.4 70.3001 169.4 70.0001 169.7L68.9001 170.8C63.5001 176.2 56.3001 179.1 48.6001 179C40.9001 178.9 33.8001 175.7 28.6001 170.1C18.3001 159 18.7001 141.8 29.6001 130.9L30.4001 130.1C30.7001 129.8 30.7001 129.3 30.5001 128.9L30.4001 128.7C30.2001 128.3 29.9001 128 29.5001 128H28.0001C20.3001 128 13.2001 125 7.9001 119.4C2.5001 113.9 -0.299897 106.7 0.000102658 99C0.500103 83.9 13.0001 72 28.4001 72H29.5001C29.9001 72 30.2001 71.7 30.4001 71.3L30.5001 71.1C30.6001 70.8 30.7001 70.3 30.3001 70L29.2001 68.9C23.8001 63.5 20.9001 56.3 21.0001 48.6C21.1001 40.9 24.3001 33.8 29.9001 28.6C41.0001 18.3 58.2001 18.7 69.1001 29.6L69.8001 30.3C70.1001 30.6 70.6001 30.7 71.1001 30.6L71.4001 30.5C71.8001 30.4 72.0001 30 72.0001 29.6V28C72.0001 20.3 75.0001 13.2 80.6001 7.90001C86.1001 2.50001 93.3001 -0.299989 101 1.11051e-05C116.1 0.500011 128 13 128 28.4V29.3C128 29.8 128.3 30.2 128.7 30.4L128.8 30.5C129.2 30.7 129.8 30.6 130.1 30.2L131.1 29.2C136.6 23.7 144.3 20.7 152.1 21C159.9 21.3 167.3 25 172.4 31C181.6 42 180.8 58.7 170.4 69.1L169.7 69.8C169.4 70.1 169.3 70.7 169.4 71.1L169.5 71.3C169.7 71.7 170.1 72 170.6 72H171.5C186.9 72 199.4 83.9 199.9 99C200.2 106.7 197.4 113.9 192.1 119.5C186.8 125 179.6 128.1 172 128.1H170.5C170.1 128.1 169.8 128.3 169.6 128.7L169.5 129C169.3 129.5 169.4 130 169.8 130.3L170.8 131.3C176.2 136.7 179.1 143.9 179 151.6C178.9 159.3 175.7 166.4 170.1 171.6C159 181.9 141.8 181.5 130.9 170.6L130.2 170C129.9 169.7 129.4 169.6 128.9 169.7L128.6 169.8C128.2 169.9 128 170.3 128 170.7V172.2C128 179.9 125 187 119.4 192.3C114.2 197.2 107.3 200 100 200ZM70.6001 149.4C73.3001 149.4 76.0001 149.9 78.6001 151L78.9001 151.1C86.8001 154.4 92.0001 162.1 92.0001 170.7V171.6C92.0001 176.1 95.5001 179.9 99.7001 180C101.9 180.1 104 179.3 105.6 177.8C107.2 176.3 108 174.2 108 172V170.5C108 162 113.1 154.4 120.9 151.1L121.2 151C129.1 147.7 138.2 149.5 144.3 155.6L145 156.3C148.2 159.5 153.3 159.7 156.4 156.8C158 155.3 158.9 153.3 159 151.1C159 148.9 158.2 146.8 156.7 145.3L155.7 144.3C149.6 138.2 147.8 129.2 151.1 121.2L151.2 120.9C154.5 113 162.1 107.9 170.6 107.9H172.1C174.3 107.9 176.3 107 177.9 105.5C179.4 103.9 180.2 101.8 180.1 99.6C179.9 95.4 176.2 91.9 171.7 91.9H170.8C162.2 91.9 154.5 86.8 151.2 78.8L151.1 78.6C147.8 70.7 149.6 61.6 155.7 55.6L156.4 55C159.5 51.9 159.8 47.1 157.2 43.9C155.7 42.1 153.7 41.1 151.4 41C149.1 40.9 147 41.7 145.4 43.3L144.4 44.3C138.3 50.4 129.3 52.2 121.3 48.9L121.2 48.8C113.3 45.5 108.1 37.8 108.1 29.2V28.3C108.1 23.8 104.6 20 100.4 19.9C98.2001 19.8 96.1001 20.6 94.5001 22.1C92.9001 23.8 92.0001 25.8 92.0001 28V29.5C92.0001 38 86.9001 45.6 79.1001 48.9L78.8001 49C70.8001 52.3 61.8001 50.5 55.7001 44.4L55.0001 43.7C51.8001 40.5 46.7001 40.3 43.6001 43.2C42.0001 44.7 41.1001 46.7 41.0001 48.9C41.0001 51.1 41.8001 53.2 43.3001 54.7L44.4001 55.8C50.4001 61.8 52.2001 70.8 48.9001 78.8L39.6001 75.1L48.8001 78.9C45.7001 86.9 38.0001 92 29.5001 92H28.4001C23.9001 92 20.1001 95.5 20.0001 99.7C19.9001 101.9 20.7001 104 22.2001 105.6C23.7001 107.2 25.8001 108 28.0001 108H29.5001C38.0001 108 45.6001 113.1 48.9001 121.1V121.2C52.2001 129.1 50.4001 138.2 44.4001 144.2L43.6001 145C40.4001 148.2 40.2001 153.3 43.1001 156.4C44.6001 158 46.6001 158.9 48.8001 159C51.0001 159 53.1001 158.2 54.6001 156.7L55.7001 155.6C59.8001 151.5 65.2001 149.4 70.6001 149.4Z" fill="#F0F0F0"/>
<path d="M119.2 90C124.447 90 128.7 85.7467 128.7 80.5C128.7 75.2533 124.447 71 119.2 71C113.953 71 109.7 75.2533 109.7 80.5C109.7 85.7467 113.953 90 119.2 90Z" fill="url(#paint0_linear)"/>
</g>
<defs>
<linearGradient id="paint0_linear" x1="112.653" y1="73.5399" x2="125.732" y2="87.4032" gradientUnits="userSpaceOnUse">
<stop stop-color="#E34248"/>
<stop offset="1" stop-color="#9E55A0"/>
</linearGradient>
<clipPath id="clip0">
<rect width="200" height="200" fill="white"/>
</clipPath>
</defs>
</svg>
