<svg width="200" height="200" viewBox="0 0 200 200" fill="none" xmlns="http://www.w3.org/2000/svg">
<path d="M10.088 98.78C15.6152 98.78 20.096 94.3029 20.096 88.78C20.096 83.2572 15.6152 78.78 10.088 78.78C4.56069 78.78 0.0799561 83.2572 0.0799561 88.78C0.0799561 94.3029 4.56069 98.78 10.088 98.78Z" fill="url(#paint0_linear)"/>
<path d="M160.178 0H39.8219C29.2602 0.0105969 19.1345 4.2089 11.6682 11.673C4.20187 19.1371 0.00529803 29.2568 0 39.81V63.69H0.0800621C0.0800621 66.3422 1.13447 68.8857 3.01134 70.7611C4.8882 72.6364 7.43378 73.69 10.0881 73.69C12.7424 73.69 15.2879 72.6364 17.1648 70.7611C19.0417 68.8857 20.0961 66.3422 20.0961 63.69C20.0946 63.2821 20.0679 62.8746 20.016 62.47V39.81C20.0121 37.2091 20.5215 34.6329 21.5152 32.229C22.5089 29.8251 23.9673 27.6405 25.807 25.8005C27.6467 23.9604 29.8314 22.501 32.2363 21.5057C34.6412 20.5103 37.2189 19.9987 39.8219 20H160.178C162.781 19.9987 165.359 20.5103 167.764 21.5057C170.169 22.501 172.353 23.9604 174.193 25.8005C176.033 27.6405 177.491 29.8251 178.485 32.229C179.478 34.6329 179.988 37.2091 179.984 39.81V115.21C179.984 120.459 177.897 125.492 174.183 129.204C170.469 132.915 165.431 135 160.178 135H130.815L114.962 155L100 173.88L85.038 155L69.1853 135H39.8219C34.569 135 29.5313 132.915 25.817 129.204C22.1027 125.492 20.016 120.459 20.016 115.21V115.1C20.0682 114.695 20.095 114.288 20.0961 113.88C20.0961 111.228 19.0417 108.684 17.1648 106.809C15.2879 104.934 12.7424 103.88 10.0881 103.88C7.43378 103.88 4.8882 104.934 3.01134 106.809C1.13447 108.684 0.0800621 111.228 0.0800621 113.88H0V115.21C0.0132414 125.759 4.21299 135.872 11.6782 143.331C19.1434 150.79 29.2645 154.987 39.8219 155H59.5076L92.1537 196.2C93.0907 197.382 94.2832 198.338 95.642 198.995C97.0007 199.651 98.4906 199.992 100 199.992C101.509 199.992 102.999 199.651 104.358 198.995C105.717 198.338 106.909 197.382 107.846 196.2L140.492 155H160.178C170.735 154.987 180.857 150.79 188.322 143.331C195.787 135.872 199.987 125.759 200 115.21V39.81C199.995 29.2568 195.798 19.1371 188.332 11.673C180.865 4.2089 170.74 0.0105969 160.178 0V0Z" fill="#FAFAFA"/>
<defs>
<linearGradient id="paint0_linear" x1="-1.2411" y1="76.77" x2="20.9779" y2="100.348" gradientUnits="userSpaceOnUse">
<stop stop-color="#E34248"/>
<stop offset="1" stop-color="#9E55A0"/>
</linearGradient>
</defs>
</svg>
