<svg width="200" height="200" viewBox="0 0 200 200" fill="none" xmlns="http://www.w3.org/2000/svg">
<g clip-path="url(#clip0)">
<path d="M10.08 98.78C15.6028 98.78 20.08 94.3029 20.08 88.78C20.08 83.2572 15.6028 78.78 10.08 78.78C4.55711 78.78 0.0799561 83.2572 0.0799561 88.78C0.0799561 94.3029 4.55711 98.78 10.08 98.78Z" fill="url(#paint0_linear)"/>
<path d="M189.92 200.15C187.268 200.149 184.725 199.096 182.85 197.22L4.1 18.51C2.22359 16.6349 1.16891 14.0912 1.16797 11.4385C1.16751 10.1251 1.42576 8.82434 1.92798 7.61066C2.4302 6.39699 3.16655 5.29411 4.09499 4.36501C5.02344 3.43591 6.1258 2.69877 7.33912 2.19569C8.55244 1.69262 9.85297 1.43345 11.1665 1.43298C13.8192 1.43205 16.3636 2.48493 18.24 4.36001L196.92 183.08C198.314 184.474 199.265 186.25 199.653 188.183C200.041 190.116 199.848 192.12 199.1 193.944C198.352 195.769 197.082 197.331 195.448 198.435C193.815 199.539 191.892 200.136 189.92 200.15Z" fill="#5A5A5A"/>
<path d="M3.13 24.33C1.06154 29.2216 -0.00286334 34.479 5.78491e-06 39.79V63.67H0.0800038C0.0800038 66.3221 1.13357 68.8657 3.00894 70.741C4.8843 72.6164 7.42784 73.67 10.08 73.67C12.7322 73.67 15.2757 72.6164 17.1511 70.741C19.0264 68.8657 20.08 66.3221 20.08 63.67C20.0789 63.262 20.0522 62.8545 20 62.45V41.52C20.0076 41.4972 20.0076 41.4727 20 41.45L4.61 26.09C4.07048 25.5437 3.57556 24.9552 3.13 24.33V24.33Z" fill="#5A5A5A"/>
<path d="M40.99 20H159.92C165.194 20.0027 170.252 22.0991 173.981 25.8286C177.711 29.5581 179.807 34.6157 179.81 39.89V115.11C179.807 120.384 177.711 125.442 173.981 129.171C170.252 132.901 165.194 134.997 159.92 135H156.17C156.148 134.998 156.126 135.003 156.107 135.014C156.088 135.025 156.074 135.043 156.066 135.063C156.058 135.084 156.057 135.106 156.063 135.127C156.069 135.148 156.082 135.167 156.1 135.18L173.5 152.58C173.517 152.59 173.536 152.595 173.555 152.595C173.574 152.595 173.593 152.59 173.61 152.58C181.283 149.781 187.91 144.693 192.596 138.004C197.282 131.314 199.801 123.347 199.81 115.18V39.89C199.81 29.3105 195.607 19.1643 188.126 11.6835C180.646 4.20269 170.499 5.82245e-06 159.92 5.82245e-06H39.79C34.3978 -0.00291916 29.062 1.09624 24.11 3.23001C24.0956 3.24015 24.0838 3.25363 24.0756 3.2693C24.0675 3.28496 24.0632 3.30235 24.0632 3.32001C24.0632 3.33766 24.0675 3.35505 24.0756 3.37071C24.0838 3.38638 24.0956 3.39986 24.11 3.41001C24.7255 3.85237 25.3041 4.34398 25.84 4.88001L40.92 20C40.9311 20.0047 40.943 20.0071 40.955 20.0071C40.967 20.0071 40.9789 20.0047 40.99 20Z" fill="#5A5A5A"/>
<path d="M114.92 155L100.05 173.79C100.041 173.802 100.029 173.813 100.015 173.819C100.001 173.826 99.9856 173.83 99.97 173.83C99.9545 173.83 99.9392 173.826 99.9253 173.819C99.9114 173.813 99.8993 173.802 99.89 173.79L84.97 155L69.16 135C69.1476 134.994 69.1339 134.991 69.12 134.991C69.1061 134.991 69.0925 134.994 69.08 135H39.92C34.6457 134.997 29.5881 132.901 25.8586 129.171C22.1291 125.442 20.0327 120.384 20.03 115.11V115.11C20.0819 114.705 20.1086 114.298 20.11 113.89C20.11 111.238 19.0565 108.694 17.1811 106.819C15.3057 104.944 12.7622 103.89 10.11 103.89C7.45786 103.89 4.91432 104.944 3.03896 106.819C1.1636 108.694 0.110027 111.238 0.110027 113.89H0.0300293V115.11C0.0300293 125.69 4.23271 135.836 11.7135 143.316C19.1944 150.797 29.3405 155 39.92 155H59.44C59.4525 154.994 59.4661 154.991 59.48 154.991C59.4939 154.991 59.5076 154.994 59.52 155L92.11 196.17C93.0463 197.352 94.2378 198.308 95.5955 198.965C96.9532 199.621 98.4418 199.962 99.95 199.962C101.458 199.962 102.947 199.621 104.305 198.965C105.662 198.308 106.854 197.352 107.79 196.17L137.32 158.86C137.336 158.84 137.345 158.816 137.345 158.79C137.345 158.764 137.336 158.74 137.32 158.72L123.23 144.63C123.22 144.619 123.207 144.61 123.194 144.605C123.18 144.599 123.165 144.596 123.15 144.596C123.135 144.596 123.12 144.599 123.106 144.605C123.093 144.61 123.08 144.619 123.07 144.63L114.92 155Z" fill="#5A5A5A"/>
</g>
<defs>
<linearGradient id="paint0_linear" x1="-1.24004" y1="76.77" x2="20.98" y2="100.33" gradientUnits="userSpaceOnUse">
<stop stop-color="#E34248"/>
<stop offset="1" stop-color="#9E55A0"/>
</linearGradient>
<clipPath id="clip0">
<rect width="200" height="200" fill="white"/>
</clipPath>
</defs>
</svg>
