<svg width="20" height="20" viewBox="0 0 20 20" fill="none" xmlns="http://www.w3.org/2000/svg">
<g clip-path="url(#clip0_1394_18577)">
<path d="M7.97 13.05C7.71 13.05 7.46 12.95 7.26 12.76C6.87 12.37 6.87 11.74 7.26 11.35L9.59 9.02004C9.98 8.63004 10.61 8.63004 11 9.02004C11.39 9.41004 11.39 10.04 11 10.43L8.67 12.76C8.48 12.95 8.23 13.05 7.97 13.05Z" fill="#F0F0F0"/>
<path d="M8.08 5.90003C8.47 6.29003 9.1 6.29003 9.49 5.90003L12.43 2.96003C13.07 2.32003 13.91 2.00003 14.74 2.00003C15.58 2.00003 16.42 2.32003 17.05 2.96003C18.33 4.24003 18.33 6.31003 17.05 7.59003L14.11 10.53C13.72 10.92 13.72 11.55 14.11 11.94C14.5 12.33 15.13 12.33 15.52 11.94L18.4 9.06003C20.43 7.03003 20.51 3.63003 18.5 1.58003C17.49 0.54003 16.13 -0.0199705 14.67 2.94737e-05C13.27 0.0200295 11.94 0.62003 10.95 1.61003L8.08 4.48003C7.69 4.87003 7.69 5.51003 8.08 5.90003Z" fill="#F0F0F0"/>
<path d="M12 14.06C11.61 13.67 10.98 13.67 10.59 14.06L7.65 17C7.01 17.64 6.17 17.96 5.34 17.96C4.5 17.96 3.66 17.64 3.03 17C1.75 15.72 1.75 13.65 3.03 12.37L5.97 9.43004C6.36 9.04004 6.36 8.41004 5.97 8.02004C5.58 7.63004 4.95 7.63004 4.56 8.02004L1.67 10.9C-0.36 12.93 -0.44 16.33 1.57 18.38C2.59 19.42 3.96 19.98 5.41 19.96C6.81 19.94 8.14 19.34 9.13 18.35L12.01 15.47C12.39 15.09 12.39 14.45 12 14.06Z" fill="#F0F0F0"/>
<path d="M12.11 8.93988C12.6789 8.93988 13.14 8.47874 13.14 7.90988C13.14 7.34103 12.6789 6.87988 12.11 6.87988C11.5411 6.87988 11.08 7.34103 11.08 7.90988C11.08 8.47874 11.5411 8.93988 12.11 8.93988Z" fill="url(#paint0_linear_1394_18577)"/>
</g>
<defs>
<linearGradient id="paint0_linear_1394_18577" x1="10.9379" y1="6.67011" x2="13.2367" y2="9.10681" gradientUnits="userSpaceOnUse">
<stop stop-color="#E34248"/>
<stop offset="1" stop-color="#9E55A0"/>
</linearGradient>
<clipPath id="clip0_1394_18577">
<rect width="20" height="20" fill="white"/>
</clipPath>
</defs>
</svg>
