<svg width="18" height="18" viewBox="0 0 18 18" fill="none" xmlns="http://www.w3.org/2000/svg">
<g clip-path="url(#clip0)">
<path d="M7.17276 11.7C6.95086 11.7 6.73702 11.6148 6.56517 11.4518C6.23215 11.1183 6.23229 10.5801 6.56558 10.2468L8.66258 8.14981C8.996 7.81638 9.53451 7.81638 9.86794 8.14981C10.2014 8.48323 10.2014 9.02174 9.86794 9.35517L7.77094 11.4522C7.60852 11.6146 7.39503 11.7 7.17276 11.7Z" fill="#464646" stroke="#464646" stroke-width="0.09"/>
<path d="M7.27204 5.30998C7.62304 5.66098 8.19004 5.66098 8.54104 5.30998L11.187 2.66398C11.763 2.08798 12.519 1.79998 13.266 1.79998C14.022 1.79998 14.778 2.08798 15.345 2.66398C16.497 3.81598 16.497 5.67898 15.345 6.83098L12.699 9.47698C12.348 9.82798 12.348 10.395 12.699 10.746C13.05 11.097 13.617 11.097 13.968 10.746L16.56 8.15398C18.387 6.32698 18.459 3.26698 16.65 1.42198C15.741 0.485978 14.517 -0.0180223 13.203 -2.23018e-05C11.943 0.0179777 10.746 0.557978 9.85504 1.44898L7.27204 4.03198C6.92104 4.38298 6.92104 4.95898 7.27204 5.30998Z" fill="#464646"/>
<path d="M10.7999 12.654C10.4489 12.303 9.88193 12.303 9.53093 12.654L6.88493 15.3C6.30893 15.876 5.55293 16.164 4.80593 16.164C4.04993 16.164 3.29393 15.876 2.72693 15.3C1.57493 14.148 1.57493 12.285 2.72693 11.133L5.37293 8.48696C5.72393 8.13596 5.72393 7.56896 5.37293 7.21796C5.02193 6.86696 4.45493 6.86696 4.10393 7.21796L1.50293 9.80996C-0.324073 11.637 -0.396074 14.697 1.41293 16.542C2.33093 17.478 3.56393 17.982 4.86893 17.964C6.12893 17.946 7.32593 17.406 8.21693 16.515L10.8089 13.923C11.1509 13.581 11.1509 13.005 10.7999 12.654Z" fill="#464646"/>
<path d="M10.8992 8.04596C11.4111 8.04596 11.8262 7.63092 11.8262 7.11896C11.8262 6.60699 11.4111 6.19196 10.8992 6.19196C10.3872 6.19196 9.97217 6.60699 9.97217 7.11896C9.97217 7.63092 10.3872 8.04596 10.8992 8.04596Z" fill="url(#paint0_linear)"/>
</g>
<defs>
<linearGradient id="paint0_linear" x1="9.84432" y1="6.00316" x2="11.9132" y2="8.19619" gradientUnits="userSpaceOnUse">
<stop stop-color="#E34248"/>
<stop offset="1" stop-color="#9E55A0"/>
</linearGradient>
<clipPath id="clip0">
<rect width="18" height="18" fill="white"/>
</clipPath>
</defs>
</svg>
