<svg width="200" height="200" viewBox="0 0 200 200" fill="none" xmlns="http://www.w3.org/2000/svg">
<path d="M159.88 84.04H149.64V50.64C149.64 37.4747 144.41 24.8485 135.101 15.5392C125.791 6.22992 113.165 1 100 1C86.8347 1 74.2085 6.22992 64.8992 15.5392C55.5899 24.8485 50.36 37.4747 50.36 50.64V84.04H40.12C32.6673 84.04 25.5194 86.9985 20.2468 92.2656C14.9741 97.5326 12.008 104.677 12 112.13V171.66C12.008 179.112 14.9744 186.255 20.2474 191.521C25.5203 196.786 32.6682 199.743 40.12 199.74H159.88C167.332 199.743 174.48 196.786 179.753 191.521C185.026 186.255 187.992 179.112 188 171.66V112.13C187.992 104.677 185.026 97.5326 179.753 92.2656C174.481 86.9985 167.333 84.04 159.88 84.04V84.04ZM70.36 50.64C70.36 46.7476 71.1267 42.8934 72.6162 39.2973C74.1058 35.7012 76.289 32.4337 79.0414 29.6814C81.7937 26.929 85.0612 24.7458 88.6573 23.2562C92.2533 21.7667 96.1076 21 100 21C103.892 21 107.747 21.7667 111.343 23.2562C114.939 24.7458 118.206 26.929 120.959 29.6814C123.711 32.4337 125.894 35.7012 127.384 39.2973C128.873 42.8934 129.64 46.7476 129.64 50.64V84.04H70.36V50.64ZM167.96 171.64C167.96 172.701 167.751 173.752 167.345 174.732C166.939 175.712 166.344 176.603 165.593 177.353C164.843 178.104 163.952 178.699 162.972 179.105C161.992 179.511 160.941 179.72 159.88 179.72H40.12C39.0572 179.725 38.0039 179.521 37.0203 179.118C36.0366 178.716 35.1421 178.123 34.3878 177.375C33.6335 176.626 33.0343 175.736 32.6246 174.755C32.2149 173.775 32.0026 172.723 32 171.66V112.13C31.9987 111.065 32.208 110.01 32.616 109.026C33.0239 108.041 33.6225 107.148 34.3772 106.396C35.1318 105.644 36.0277 105.049 37.0133 104.644C37.9989 104.24 39.0547 104.035 40.12 104.04H159.88C162.023 104.04 164.078 104.891 165.593 106.407C167.109 107.922 167.96 109.977 167.96 112.12V171.64Z" fill="#FAFAFA"/>
<path fill-rule="evenodd" clip-rule="evenodd" d="M99.96 126.9C97.3078 126.9 94.7642 127.954 92.8889 129.829C91.0135 131.704 89.96 134.248 89.96 136.9V146.9C89.96 149.552 91.0135 152.096 92.8889 153.971C94.7642 155.846 97.3078 156.9 99.96 156.9C102.612 156.9 105.156 155.846 107.031 153.971C108.906 152.096 109.96 149.552 109.96 146.9V136.9C109.96 134.248 108.906 131.704 107.031 129.829C105.156 127.954 102.612 126.9 99.96 126.9Z" fill="#FAFAFA"/>
</svg>
