<svg width="28" height="28" viewBox="0 0 28 28" fill="none" xmlns="http://www.w3.org/2000/svg">
<g clip-path="url(#clip0_1477_4418)">
<path d="M11.2218 23.7964H4.56786C4.09815 23.7961 3.64777 23.6091 3.31563 23.2766C2.98349 22.944 2.79673 22.4932 2.79636 22.0229V11.1983H23.7691V12.5981C23.7691 12.9694 23.9164 13.3254 24.1786 13.5879C24.4408 13.8504 24.7965 13.9979 25.1673 13.9979C25.5381 13.9979 25.8937 13.8504 26.1559 13.5879C26.4182 13.3254 26.5655 12.9694 26.5655 12.5981V4.57311C26.5644 3.36059 26.0827 2.19805 25.2263 1.34066C24.3699 0.483278 23.2087 0.0011119 21.9976 0H4.56786C3.35684 0.00148171 2.19585 0.483766 1.33953 1.34107C0.48321 2.19837 0.00148001 3.3607 0 4.57311V22.0229C0.00148001 23.2353 0.48321 24.3976 1.33953 25.2549C2.19585 26.1122 3.35684 26.5945 4.56786 26.596H11.2218C11.5926 26.596 11.9483 26.4485 12.2105 26.186C12.4727 25.9235 12.62 25.5675 12.62 25.1962C12.62 24.825 12.4727 24.4689 12.2105 24.2064C11.9483 23.9439 11.5926 23.7964 11.2218 23.7964ZM2.79636 4.57311C2.79673 4.10286 2.98349 3.65197 3.31563 3.31945C3.64777 2.98692 4.09815 2.79995 4.56786 2.79958H21.9976C22.4673 2.79995 22.9177 2.98692 23.2498 3.31945C23.582 3.65197 23.7687 4.10286 23.7691 4.57311V8.39874H2.79636V4.57311Z" fill="#FAFAFA"/>
<path d="M5.62902 6.99895C6.40121 6.99895 7.0272 6.37224 7.0272 5.59916C7.0272 4.82608 6.40121 4.19937 5.62902 4.19937C4.85682 4.19937 4.23083 4.82608 4.23083 5.59916C4.23083 6.37224 4.85682 6.99895 5.62902 6.99895Z" fill="#FAFAFA"/>
<path d="M9.8236 6.99895C10.5958 6.99895 11.2218 6.37224 11.2218 5.59916C11.2218 4.82608 10.5958 4.19937 9.8236 4.19937C9.0514 4.19937 8.42542 4.82608 8.42542 5.59916C8.42542 6.37224 9.0514 6.99895 9.8236 6.99895Z" fill="#FAFAFA"/>
<path d="M14.0183 6.99895C14.7905 6.99895 15.4165 6.37224 15.4165 5.59916C15.4165 4.82608 14.7905 4.19937 14.0183 4.19937C13.2461 4.19937 12.6201 4.82608 12.6201 5.59916C12.6201 6.37224 13.2461 6.99895 14.0183 6.99895Z" fill="#FAFAFA"/>
<path d="M21.3671 14.7188C20.9962 14.7188 20.6406 14.8663 20.3784 15.1288C20.1162 15.3913 19.9689 15.7473 19.9689 16.1186C19.9689 16.4898 20.1162 16.8459 20.3784 17.1084C20.6406 17.3709 20.9962 17.5184 21.3671 17.5184C22.0865 17.5182 22.7915 17.7207 23.4015 18.1025C24.0115 18.4843 24.5021 19.0302 24.817 19.6777C25.132 20.3253 25.2588 21.0485 25.1829 21.7647C25.1069 22.481 24.8314 23.1614 24.3877 23.7284C23.944 24.2953 23.3499 24.726 22.6735 24.9711C21.997 25.2162 21.2653 25.266 20.5619 25.1147C19.8585 24.9635 19.2117 24.6172 18.6955 24.1156C18.1793 23.6139 17.8143 22.977 17.6423 22.2776C17.7566 22.3067 17.874 22.3213 17.9919 22.321C18.2767 22.3214 18.5549 22.2346 18.7891 22.0723C19.0233 21.91 19.2025 21.6799 19.3025 21.4129C19.4026 21.1459 19.4188 20.8547 19.349 20.5782C19.2791 20.3017 19.1266 20.0531 18.9119 19.8658L17.0173 18.2225C16.7632 18.0022 16.4383 17.881 16.1022 17.881C15.7661 17.881 15.4412 18.0022 15.1871 18.2225L13.2926 19.8658C13.0395 20.087 12.8744 20.3919 12.8275 20.7249C12.7806 21.0579 12.8551 21.3967 13.0372 21.6793C13.2193 21.9618 13.4969 22.1693 13.8193 22.2638C14.1417 22.3582 14.4873 22.3334 14.7928 22.1937C14.9534 23.461 15.4758 24.655 16.2973 25.6325C17.1189 26.6099 18.2046 27.3294 19.4244 27.7045C20.6441 28.0796 21.9461 28.0945 23.174 27.7473C24.402 27.4001 25.5038 26.7056 26.3474 25.7471C27.1909 24.7886 27.7404 23.6068 27.9298 22.3435C28.1192 21.0802 27.9405 19.789 27.4152 18.6248C26.8899 17.4606 26.0403 16.4728 24.9682 15.78C23.8962 15.0872 22.6473 14.7187 21.3713 14.7188H21.3671Z" fill="#FAFAFA"/>
</g>
<defs>
<clipPath id="clip0_1477_4418">
<rect width="28" height="28" fill="white"/>
</clipPath>
</defs>
</svg>
