<svg width="20" height="20" viewBox="0 0 20 20" fill="none" xmlns="http://www.w3.org/2000/svg">
<g clip-path="url(#clip0_1394_18578)">
<path d="M10 13.04C8.32 13.04 6.96 11.68 6.96 9.99999C6.96 8.87999 7.58 7.84999 8.57 7.31999C9.06 7.05999 9.66 7.23999 9.92 7.72999C10.18 8.21999 10 8.81999 9.51 9.07999C9.17 9.25999 8.96 9.60999 8.96 9.99999C8.96 10.57 9.43 11.04 10 11.04C10.39 11.04 10.75 10.82 10.93 10.47C11.18 9.97999 11.79 9.77999 12.28 10.04C12.77 10.29 12.97 10.9 12.71 11.39C12.18 12.41 11.15 13.04 10 13.04Z" fill="#FAFAFA"/>
<path d="M10 20C9.97 20 9.93 20 9.9 20C8.39 19.95 7.2 18.7 7.2 17.16V17.07C7.2 17.02 7.17 16.98 7.13 16.96L7.1 16.95C7.07 16.94 7.03 16.94 7 16.97L6.89 17.08C6.35 17.62 5.63 17.91 4.86 17.9C4.09 17.89 3.38 17.57 2.86 17.01C1.83 15.9 1.87 14.18 2.96 13.09L3.04 13.01C3.07 12.98 3.07 12.93 3.05 12.89L3.04 12.87C3.02 12.83 2.99 12.8 2.95 12.8H2.8C2.03 12.8 1.32 12.5 0.790001 11.94C0.250001 11.39 -0.0299989 10.67 1.11107e-06 9.89999C0.0500011 8.38999 1.3 7.19999 2.84 7.19999H2.95C2.99 7.19999 3.02 7.16999 3.04 7.12999L3.05 7.10999C3.06 7.07999 3.07 7.02999 3.03 6.99999L2.92 6.88999C2.38 6.34999 2.09 5.62999 2.1 4.85999C2.11 4.08999 2.43 3.37999 2.99 2.85999C4.1 1.82999 5.82 1.86999 6.91 2.95999L6.98 3.02999C7.01 3.05999 7.06 3.06999 7.11 3.05999L7.14 3.04999C7.18 3.03999 7.2 2.99999 7.2 2.95999V2.79999C7.2 2.02999 7.5 1.31999 8.06 0.789986C8.61 0.249986 9.33 -0.0300142 10.1 -1.41477e-05C11.61 0.0499859 12.8 1.29999 12.8 2.83999V2.92999C12.8 2.97999 12.83 3.01999 12.87 3.03999L12.88 3.04999C12.92 3.06999 12.98 3.05999 13.01 3.01999L13.11 2.91999C13.66 2.36999 14.43 2.06999 15.21 2.09999C15.99 2.12999 16.73 2.49999 17.24 3.09999C18.16 4.19999 18.08 5.86999 17.04 6.90999L16.97 6.97999C16.94 7.00999 16.93 7.06999 16.94 7.10999L16.95 7.12999C16.97 7.16999 17.01 7.19999 17.06 7.19999H17.15C18.69 7.19999 19.94 8.38999 19.99 9.89999C20.02 10.67 19.74 11.39 19.21 11.95C18.68 12.5 17.96 12.81 17.2 12.81H17.05C17.01 12.81 16.98 12.83 16.96 12.87L16.95 12.9C16.93 12.95 16.94 13 16.98 13.03L17.08 13.13C17.62 13.67 17.91 14.39 17.9 15.16C17.89 15.93 17.57 16.64 17.01 17.16C15.9 18.19 14.18 18.15 13.09 17.06L13.02 17C12.99 16.97 12.94 16.96 12.89 16.97L12.86 16.98C12.82 16.99 12.8 17.03 12.8 17.07V17.22C12.8 17.99 12.5 18.7 11.94 19.23C11.42 19.72 10.73 20 10 20ZM7.06 14.94C7.33 14.94 7.6 14.99 7.86 15.1L7.89 15.11C8.68 15.44 9.2 16.21 9.2 17.07V17.16C9.2 17.61 9.55 17.99 9.97 18C10.19 18.01 10.4 17.93 10.56 17.78C10.72 17.63 10.8 17.42 10.8 17.2V17.05C10.8 16.2 11.31 15.44 12.09 15.11L12.12 15.1C12.91 14.77 13.82 14.95 14.43 15.56L14.5 15.63C14.82 15.95 15.33 15.97 15.64 15.68C15.8 15.53 15.89 15.33 15.9 15.11C15.9 14.89 15.82 14.68 15.67 14.53L15.57 14.43C14.96 13.82 14.78 12.92 15.11 12.12L15.12 12.09C15.45 11.3 16.21 10.79 17.06 10.79H17.21C17.43 10.79 17.63 10.7 17.79 10.55C17.94 10.39 18.02 10.18 18.01 9.95999C17.99 9.53999 17.62 9.18999 17.17 9.18999H17.08C16.22 9.18999 15.45 8.67999 15.12 7.87999L15.11 7.85999C14.78 7.06999 14.96 6.15999 15.57 5.55999L15.64 5.49999C15.95 5.18999 15.98 4.70999 15.72 4.38999C15.57 4.20999 15.37 4.10999 15.14 4.09999C14.91 4.08999 14.7 4.16999 14.54 4.32999L14.44 4.42999C13.83 5.03999 12.93 5.21999 12.13 4.88999L12.12 4.87999C11.33 4.54999 10.81 3.77999 10.81 2.91999V2.82999C10.81 2.37999 10.46 1.99999 10.04 1.98999C9.82 1.97999 9.61 2.05999 9.45 2.20999C9.29 2.37999 9.2 2.57999 9.2 2.79999V2.94999C9.2 3.79999 8.69 4.55999 7.91 4.88999L7.88 4.89999C7.08 5.22999 6.18 5.04999 5.57 4.43999L5.5 4.36999C5.18 4.04999 4.67 4.02999 4.36 4.31999C4.2 4.46999 4.11 4.66999 4.1 4.88999C4.1 5.10999 4.18 5.31999 4.33 5.46999L4.44 5.57999C5.04 6.17999 5.22 7.07999 4.89 7.87999L3.96 7.50999L4.88 7.88999C4.57 8.68999 3.8 9.19999 2.95 9.19999H2.84C2.39 9.19999 2.01 9.54999 2 9.96999C1.99 10.19 2.07 10.4 2.22 10.56C2.37 10.72 2.58 10.8 2.8 10.8H2.95C3.8 10.8 4.56 11.31 4.89 12.11V12.12C5.22 12.91 5.04 13.82 4.44 14.42L4.36 14.5C4.04 14.82 4.02 15.33 4.31 15.64C4.46 15.8 4.66 15.89 4.88 15.9C5.1 15.9 5.31 15.82 5.46 15.67L5.57 15.56C5.98 15.15 6.52 14.94 7.06 14.94Z" fill="#FAFAFA"/>
<path d="M11.92 9.0001C12.4447 9.0001 12.87 8.57477 12.87 8.0501C12.87 7.52543 12.4447 7.1001 11.92 7.1001C11.3953 7.1001 10.97 7.52543 10.97 8.0501C10.97 8.57477 11.3953 9.0001 11.92 9.0001Z" fill="url(#paint0_linear_1394_18578)"/>
</g>
<defs>
<linearGradient id="paint0_linear_1394_18578" x1="11.2653" y1="7.35409" x2="12.5732" y2="8.74042" gradientUnits="userSpaceOnUse">
<stop stop-color="#E34248"/>
<stop offset="1" stop-color="#9E55A0"/>
</linearGradient>
<clipPath id="clip0_1394_18578">
<rect width="20" height="20" fill="white"/>
</clipPath>
</defs>
</svg>
