<svg width="24" height="24" viewBox="0 0 24 24" fill="none" xmlns="http://www.w3.org/2000/svg">
    <mask id="mask0_2845_46282" style="mask-type:alpha" maskUnits="userSpaceOnUse" x="0" y="0" width="24" height="24">
        <path d="M14.3971 5.42306V0.624023H0V5.42306H4.79904V18.624H9.59808V5.42306H14.3971Z" fill="#EF3E3A"/>
        <path d="M17.3995 6.62402C13.7534 6.62402 10.799 9.57839 10.799 13.2245V23.4231H15.5981V19.5752C16.1697 19.7385 16.775 19.825 17.3995 19.825C21.0456 19.825 24 16.8706 24 13.2245C24 9.57839 21.0408 6.62402 17.3995 6.62402ZM17.3995 15.0211C16.4051 15.0211 15.5981 14.2141 15.5981 13.2197C15.5981 12.2253 16.4051 11.4183 17.3995 11.4183C18.3939 11.4183 19.201 12.2253 19.201 13.2197C19.1962 14.2189 18.3939 15.0211 17.3995 15.0211Z" fill="#EF3E3A"/>
    </mask>
    <g mask="url(#mask0_2845_46282)">
        <rect width="24" height="24" fill="url(#paint0_linear_2845_46282)"/>
    </g>
    <defs>
        <linearGradient id="paint0_linear_2845_46282" x1="0" y1="0" x2="28.2353" y2="7.05882" gradientUnits="userSpaceOnUse">
            <stop stop-color="#E34248"/>
            <stop offset="1" stop-color="#9E55A0"/>
        </linearGradient>
    </defs>
</svg>
