<?xml version="1.0" encoding="utf-8"?>
<!-- Generator: Adobe Illustrator 15.0.0, SVG Export Plug-In . SVG Version: 6.00 Build 0)  -->
<!DOCTYPE svg PUBLIC "-//W3C//DTD SVG 1.1//EN" "http://www.w3.org/Graphics/SVG/1.1/DTD/svg11.dtd" [
	<!ENTITY ns_flows "http://ns.adobe.com/Flows/1.0/">
	<!ENTITY ns_extend "http://ns.adobe.com/Extensibility/1.0/">
	<!ENTITY ns_ai "http://ns.adobe.com/AdobeIllustrator/10.0/">
	<!ENTITY ns_graphs "http://ns.adobe.com/Graphs/1.0/">
]>
<svg version="1.1" id="Layer_1" xmlns:x="&ns_extend;" xmlns:i="&ns_ai;" xmlns:graph="&ns_graphs;"
	 xmlns="http://www.w3.org/2000/svg" xmlns:xlink="http://www.w3.org/1999/xlink" xmlns:a="http://ns.adobe.com/AdobeSVGViewerExtensions/3.0/"
	 x="0px" y="0px" width="64px" height="64px" viewBox="0 0 64 64" enable-background="new 0 0 64 64" xml:space="preserve">
<linearGradient id="SVGID_1_" gradientUnits="userSpaceOnUse" x1="36.7842" y1="66.1484" x2="36.7842" y2="6.1479" gradientTransform="matrix(1 0 0 1 -4.7837 -4.1475)">
	<stop  offset="0" style="stop-color:#FF7B00"/>
	<stop  offset="0.3236" style="stop-color:#FFAE00"/>
	<stop  offset="0.6205" style="stop-color:#FFD600"/>
	<stop  offset="0.8558" style="stop-color:#FFEE00"/>
	<stop  offset="1" style="stop-color:#FFF700"/>
	<a:midPointStop  offset="0" style="stop-color:#FF7B00"/>
	<a:midPointStop  offset="0.4" style="stop-color:#FF7B00"/>
	<a:midPointStop  offset="1" style="stop-color:#FFF700"/>
</linearGradient>
<circle fill="url(#SVGID_1_)" cx="32.001" cy="32" r="30"/>
<linearGradient id="SVGID_2_" gradientUnits="userSpaceOnUse" x1="36.7842" y1="66.1484" x2="36.7842" y2="6.1479" gradientTransform="matrix(1 0 0 1 -4.7837 -4.1475)">
	<stop  offset="0.2485" style="stop-color:#FFE81A;stop-opacity:0"/>
	<stop  offset="0.2907" style="stop-color:#FFD518;stop-opacity:0.0689"/>
	<stop  offset="0.5016" style="stop-color:#FF7B0E;stop-opacity:0.4135"/>
	<stop  offset="0.6732" style="stop-color:#FF3906;stop-opacity:0.6939"/>
	<stop  offset="0.797" style="stop-color:#FF1002;stop-opacity:0.8961"/>
	<stop  offset="0.8606" style="stop-color:#FF0000"/>
	<a:midPointStop  offset="0.2485" style="stop-color:#FFE81A;stop-opacity:0"/>
	<a:midPointStop  offset="0.4412" style="stop-color:#FFE81A;stop-opacity:0"/>
	<a:midPointStop  offset="0.8606" style="stop-color:#FF0000"/>
</linearGradient>
<circle opacity="0.6" fill="url(#SVGID_2_)" cx="32.001" cy="32" r="30"/>
<path fill="#CFD8DD" d="M55.748,43.799c-4.077-2.552-20.729-14.271-20.729-14.271s10.709,15.903,13.27,20.762
	C53.277,59.763,63.611,48.724,55.748,43.799z"/>
<path fill="#CFD8DD" d="M43.989,58.526c3.193,3.111,7.162,1.802,8.844-0.98c1.878,1.083,4.276,1.008,6.359-0.234
	c4.222-2.513,4.712-7.283,3.417-9.736c1.666-2.391,1.682-4.595,0.853-6.5c-1.857-4.27-8.478-4.901-10.892,1.655l-3.919,4.562
	C40.741,47.011,40.724,55.337,43.989,58.526z"/>
<linearGradient id="SVGID_3_" gradientUnits="userSpaceOnUse" x1="1140.7822" y1="-293.3037" x2="1162.1885" y2="-293.3037" gradientTransform="matrix(-0.9966 0.082 0.082 0.9966 1218.3511 239.2308)">
	<stop  offset="0.303" style="stop-color:#FFFFFF"/>
	<stop  offset="1" style="stop-color:#FFFFFF;stop-opacity:0"/>
	<a:midPointStop  offset="0.303" style="stop-color:#FFFFFF"/>
	<a:midPointStop  offset="0.6848" style="stop-color:#FFFFFF"/>
	<a:midPointStop  offset="1" style="stop-color:#FFFFFF;stop-opacity:0"/>
</linearGradient>
<path fill="url(#SVGID_3_)" d="M55.068,44.48c-3.933-2.698-20.05-14.953-20.05-14.953S46.157,45.001,48.936,49.64
	C54.352,58.688,62.65,49.685,55.068,44.48z"/>
<radialGradient id="SVGID_4_" cx="1004.9141" cy="1140.6963" r="5.4038" gradientTransform="matrix(-0.8005 -0.6156 -0.5981 0.8642 1545.0182 -323.3793)" gradientUnits="userSpaceOnUse">
	<stop  offset="0.5091" style="stop-color:#FFFFFF"/>
	<stop  offset="0.9152" style="stop-color:#FFFFFF;stop-opacity:0"/>
	<a:midPointStop  offset="0.5091" style="stop-color:#FFFFFF"/>
	<a:midPointStop  offset="0.6848" style="stop-color:#FFFFFF"/>
	<a:midPointStop  offset="0.9152" style="stop-color:#FFFFFF;stop-opacity:0"/>
</radialGradient>
<path fill="url(#SVGID_4_)" d="M53.656,40.722c-4.538,5.658,5.001,12.163,9.131,6.195C66.914,40.952,58.691,34.442,53.656,40.722z"
	/>
<radialGradient id="SVGID_5_" cx="1148.7129" cy="-251.9658" r="5.8772" gradientTransform="matrix(-0.9857 0.1686 0.1773 1.0365 1224.941 121.1467)" gradientUnits="userSpaceOnUse">
	<stop  offset="0.5091" style="stop-color:#FFFFFF"/>
	<stop  offset="0.9152" style="stop-color:#FFFFFF;stop-opacity:0"/>
	<a:midPointStop  offset="0.5091" style="stop-color:#FFFFFF"/>
	<a:midPointStop  offset="0.6848" style="stop-color:#FFFFFF"/>
	<a:midPointStop  offset="0.9152" style="stop-color:#FFFFFF;stop-opacity:0"/>
</radialGradient>
<path fill="url(#SVGID_5_)" d="M42.265,54.819c1.369,8.014,12.8,6.058,11.429-1.957C52.248,44.417,40.817,46.372,42.265,54.819z"/>
<radialGradient id="SVGID_6_" cx="1140.5078" cy="-253.9043" r="7.2727" gradientTransform="matrix(-0.9857 0.1686 0.1773 1.0365 1224.941 121.1467)" gradientUnits="userSpaceOnUse">
	<stop  offset="0.5091" style="stop-color:#FFFFFF"/>
	<stop  offset="0.9152" style="stop-color:#FFFFFF;stop-opacity:0"/>
	<a:midPointStop  offset="0.5091" style="stop-color:#FFFFFF"/>
	<a:midPointStop  offset="0.6848" style="stop-color:#FFFFFF"/>
	<a:midPointStop  offset="0.9152" style="stop-color:#FFFFFF;stop-opacity:0"/>
</radialGradient>
<path fill="url(#SVGID_6_)" d="M48.526,51.513c1.719,10.05,16.058,7.595,14.338-2.453C61.144,39.011,46.808,41.462,48.526,51.513z"
	/>
<path fill="#CFD8DD" d="M8.252,43.799c4.076-2.552,20.73-14.271,20.73-14.271s-10.71,15.903-13.271,20.762
	C10.724,59.763,0.389,48.724,8.252,43.799z"/>
<path fill="#CFD8DD" d="M15.349,47.292l-3.918-4.562c-2.415-6.557-9.035-5.925-10.892-1.655c-0.83,1.905-0.813,4.109,0.852,6.5
	c-1.295,2.453-0.804,7.224,3.418,9.736c2.083,1.242,4.482,1.317,6.359,0.234c1.681,2.782,5.649,4.092,8.843,0.98
	C23.277,55.337,23.26,47.011,15.349,47.292z"/>
<linearGradient id="SVGID_7_" gradientUnits="userSpaceOnUse" x1="1227.0596" y1="-300.4023" x2="1248.4668" y2="-300.4023" gradientTransform="matrix(0.9966 0.082 -0.082 0.9966 -1240.9175 239.2308)">
	<stop  offset="0.303" style="stop-color:#FFFFFF"/>
	<stop  offset="1" style="stop-color:#FFFFFF;stop-opacity:0"/>
	<a:midPointStop  offset="0.303" style="stop-color:#FFFFFF"/>
	<a:midPointStop  offset="0.6848" style="stop-color:#FFFFFF"/>
	<a:midPointStop  offset="1" style="stop-color:#FFFFFF;stop-opacity:0"/>
</linearGradient>
<path fill="url(#SVGID_7_)" d="M8.933,44.48c3.931-2.698,20.05-14.953,20.05-14.953S17.842,45.001,15.064,49.64
	C9.649,58.688,1.35,49.685,8.933,44.48z"/>
<radialGradient id="SVGID_8_" cx="1075.4893" cy="1190.9756" r="5.4038" gradientTransform="matrix(0.8005 -0.6156 0.5981 0.8642 -1567.5865 -323.3793)" gradientUnits="userSpaceOnUse">
	<stop  offset="0.5091" style="stop-color:#FFFFFF"/>
	<stop  offset="0.9152" style="stop-color:#FFFFFF;stop-opacity:0"/>
	<a:midPointStop  offset="0.5091" style="stop-color:#FFFFFF"/>
	<a:midPointStop  offset="0.6848" style="stop-color:#FFFFFF"/>
	<a:midPointStop  offset="0.9152" style="stop-color:#FFFFFF;stop-opacity:0"/>
</radialGradient>
<path fill="url(#SVGID_8_)" d="M10.345,40.722c4.537,5.658-5.001,12.163-9.132,6.195C-2.914,40.952,5.309,34.442,10.345,40.722z"/>
<radialGradient id="SVGID_9_" cx="1234.04" cy="-265.8467" r="5.8768" gradientTransform="matrix(0.9857 0.1686 -0.1773 1.0365 -1247.5094 121.1467)" gradientUnits="userSpaceOnUse">
	<stop  offset="0.5091" style="stop-color:#FFFFFF"/>
	<stop  offset="0.9152" style="stop-color:#FFFFFF;stop-opacity:0"/>
	<a:midPointStop  offset="0.5091" style="stop-color:#FFFFFF"/>
	<a:midPointStop  offset="0.6848" style="stop-color:#FFFFFF"/>
	<a:midPointStop  offset="0.9152" style="stop-color:#FFFFFF;stop-opacity:0"/>
</radialGradient>
<path fill="url(#SVGID_9_)" d="M21.735,54.819c-1.369,8.014-12.798,6.058-11.428-1.957C11.753,44.417,23.183,46.372,21.735,54.819z"
	/>
<radialGradient id="SVGID_10_" cx="1225.835" cy="-267.7852" r="7.2722" gradientTransform="matrix(0.9857 0.1686 -0.1773 1.0365 -1247.5094 121.1467)" gradientUnits="userSpaceOnUse">
	<stop  offset="0.5091" style="stop-color:#FFFFFF"/>
	<stop  offset="0.9152" style="stop-color:#FFFFFF;stop-opacity:0"/>
	<a:midPointStop  offset="0.5091" style="stop-color:#FFFFFF"/>
	<a:midPointStop  offset="0.6848" style="stop-color:#FFFFFF"/>
	<a:midPointStop  offset="0.9152" style="stop-color:#FFFFFF;stop-opacity:0"/>
</radialGradient>
<path fill="url(#SVGID_10_)" d="M15.474,51.513c-1.718,10.05-16.057,7.595-14.337-2.453C2.857,39.011,17.192,41.462,15.474,51.513z"
	/>
<path fill="#1A1626" d="M27.265,22.99c-2.969,2.192-8.32,2.339-11.53,0.001c-0.744-0.541-1.974-0.166-1.699,0.465
	c2.805,6.422,12.127,6.408,14.928,0C29.238,22.825,28.003,22.447,27.265,22.99z"/>
<path fill="#1A1626" d="M36.736,22.991c2.97,2.191,8.32,2.339,11.529,0c0.741-0.542,1.973-0.165,1.696,0.465
	c-2.804,6.422-12.127,6.41-14.925,0C34.761,22.826,35.999,22.446,36.736,22.991z"/>
<path fill="#1A1626" d="M24.894,43.025c3.662-2.575,10.259-2.745,14.215-0.001c0.916,0.633,2.434,0.193,2.094-0.547
	c-3.458-7.536-14.953-7.521-18.402,0.001C22.459,43.218,23.982,43.663,24.894,43.025z"/>
<path fill="#AB1F00" d="M23.76,12.199c-11.014-2.827-7.489,2.472,1.524,5.997C30.37,20.185,31.011,14.058,23.76,12.199z"/>
<path fill="#AB1F00" d="M40.239,12.215c-7.25,1.86-6.609,7.986-1.523,5.996C47.729,14.686,51.255,9.386,40.239,12.215z"/>
</svg>
