<?xml version="1.0" encoding="utf-8"?>
<!-- Generator: Adobe Illustrator 15.0.0, SVG Export Plug-In . SVG Version: 6.00 Build 0)  -->
<!DOCTYPE svg PUBLIC "-//W3C//DTD SVG 1.1//EN" "http://www.w3.org/Graphics/SVG/1.1/DTD/svg11.dtd" [
	<!ENTITY ns_flows "http://ns.adobe.com/Flows/1.0/">
	<!ENTITY ns_extend "http://ns.adobe.com/Extensibility/1.0/">
	<!ENTITY ns_ai "http://ns.adobe.com/AdobeIllustrator/10.0/">
	<!ENTITY ns_graphs "http://ns.adobe.com/Graphs/1.0/">
]>
<svg version="1.1" id="Layer_1" xmlns:x="&ns_extend;" xmlns:i="&ns_ai;" xmlns:graph="&ns_graphs;"
	 xmlns="http://www.w3.org/2000/svg" xmlns:xlink="http://www.w3.org/1999/xlink" xmlns:a="http://ns.adobe.com/AdobeSVGViewerExtensions/3.0/"
	 x="0px" y="0px" width="64px" height="64px" viewBox="0 0 64 64" enable-background="new 0 0 64 64" xml:space="preserve">
<linearGradient id="SVGID_1_" gradientUnits="userSpaceOnUse" x1="31.9663" y1="62.3594" x2="31.9663" y2="2.3599" gradientTransform="matrix(1 0 0 1 0.0337 -0.3594)">
	<stop  offset="0" style="stop-color:#FF7B00"/>
	<stop  offset="0.3236" style="stop-color:#FFAE00"/>
	<stop  offset="0.6205" style="stop-color:#FFD600"/>
	<stop  offset="0.8558" style="stop-color:#FFEE00"/>
	<stop  offset="1" style="stop-color:#FFF700"/>
	<a:midPointStop  offset="0" style="stop-color:#FF7B00"/>
	<a:midPointStop  offset="0.4" style="stop-color:#FF7B00"/>
	<a:midPointStop  offset="1" style="stop-color:#FFF700"/>
</linearGradient>
<circle fill="url(#SVGID_1_)" cx="32" cy="32" r="30"/>
<linearGradient id="SVGID_2_" gradientUnits="userSpaceOnUse" x1="-864.2002" y1="875.3555" x2="-864.2002" y2="880.2119" gradientTransform="matrix(2.9058 0 0 -3.0888 2566.1926 2755.2976)">
	<stop  offset="0" style="stop-color:#DB0100"/>
	<stop  offset="0.5836" style="stop-color:#F31317"/>
	<stop  offset="1" style="stop-color:#FF1C23"/>
	<a:midPointStop  offset="0" style="stop-color:#DB0100"/>
	<a:midPointStop  offset="0.4242" style="stop-color:#DB0100"/>
	<a:midPointStop  offset="1" style="stop-color:#FF1C23"/>
</linearGradient>
<path fill="url(#SVGID_2_)" d="M55,38.699c-2.387-3.881-9-2.365-9,2.512c0,3.271,3.049,5.457,8.998,10.289
	c5.953-4.832,9.004-7.019,9.002-10.289C64,36.334,57.389,34.818,55,38.699z"/>
<path fill="#1A1626" d="M38.385,51.555l-1.494,0.264c-0.779,0.137-1.52-0.383-1.656-1.16s0.381-1.52,1.158-1.656l1.496-0.264
	c1.041-0.184,1.828-0.527,2.209-0.969c0.23-0.266,0.311-0.563,0.248-0.912c-0.328-1.854-2.811-2.411-2.811-2.411
	s2.143-1.331,1.809-3.233c-0.063-0.348-0.242-0.6-0.543-0.77c-0.51-0.282-1.363-0.337-2.402-0.153l-1.494,0.263
	c-0.781,0.139-1.519-0.381-1.656-1.158c-0.138-0.778,0.381-1.52,1.158-1.656l1.496-0.264c1.734-0.307,3.178-0.147,4.289,0.473
	c1.057,0.588,1.756,1.572,1.967,2.77c0.186,1.061-0.02,2.127-0.5,2.996c0.752,0.652,1.316,1.586,1.504,2.648
	c0.213,1.197-0.109,2.363-0.902,3.277C41.426,50.604,40.121,51.248,38.385,51.555z"/>
<path fill="#1A1626" d="M37.906,30.481c2.762-2.154,7.088-3.021,10.676-1.882c0.83,0.263,1.617-0.605,1.174-1.109
	c-4.074-4.632-11.098-3.376-13.332,2.351C36.18,30.466,37.223,31.018,37.906,30.481z"/>
<ellipse transform="matrix(-0.1736 -0.9848 0.9848 -0.1736 -5.0594 57.6599)" fill="#1A1626" cx="21.662" cy="30.953" rx="5" ry="4"/>
<path fill="#D69600" d="M13.389,18.126c-8.636,7.4-2.271,7.55,5.784,2.189C23.721,17.291,19.073,13.252,13.389,18.126z"/>
<path fill="#D69600" d="M41.184,16.485c-7.386,1.22-7.28,7.379-2.039,5.839C48.43,19.598,52.404,14.626,41.184,16.485z"/>
</svg>
